<svg width="139" height="101" viewBox="0 0 139 101" fill="none" xmlns="http://www.w3.org/2000/svg">
<rect x="2.00098" y="2.00378" width="129" height="82" rx="6" fill="#FCD95B" stroke="#E6B44E" stroke-width="4"/>
<rect x="8.00098" y="23.0038" width="117" height="55" rx="4" fill="#FEECAD"/>
<rect x="0.000976562" y="0.00378418" width="133" height="13" rx="2" fill="#E6B44E"/>
<rect x="66.001" y="5.00378" width="56" height="4" rx="1" fill="#FEECAD"/>
<rect x="15.001" y="34.0038" width="56" height="3" rx="1" fill="#FEF4CE"/>
<rect x="15.001" y="46.0038" width="56" height="3" rx="1" fill="#FEF4CE"/>
<rect x="15.001" y="58.0038" width="56" height="3" rx="1" fill="#FEF4CE"/>
<rect x="15.001" y="52.0038" width="56" height="3" rx="1" fill="#FEF4CE"/>
<circle cx="6.50098" cy="6.50378" r="1.5" fill="#FFEBC2"/>
<circle cx="12.501" cy="6.50378" r="1.5" fill="#FFEBC2"/>
<circle cx="18.501" cy="6.50378" r="1.5" fill="#FFEBC2"/>
<path d="M139.001 75.3088C139.002 72.8995 138.386 70.529 137.21 68.4173C136.033 66.3056 134.335 64.5213 132.272 63.2301C130.209 61.939 127.848 61.1828 125.409 61.0319C122.971 60.8809 120.533 61.3401 118.322 62.3668C116.111 63.3935 114.2 64.9543 112.765 66.9044C111.33 68.8545 110.418 71.1305 110.114 73.521C109.81 75.9116 110.123 78.3391 111.025 80.5782C111.927 82.8173 113.389 84.7953 115.274 86.3285V98.7032C115.274 98.9248 115.331 99.1428 115.44 99.3365C115.55 99.5301 115.707 99.693 115.899 99.8095C116.09 99.9261 116.308 99.9925 116.533 100.002C116.757 100.012 116.981 99.9656 117.182 99.8664L124.501 96.2663L131.822 99.8745C132.005 99.9611 132.207 100.005 132.41 100.003C132.76 100.003 133.095 99.8659 133.342 99.6222C133.589 99.3784 133.728 99.0479 133.728 98.7032V86.3285C135.378 84.9893 136.706 83.3066 137.617 81.4013C138.529 79.4961 139.001 77.4155 139.001 75.3088ZM112.637 75.3088C112.637 72.9953 113.333 70.7338 114.637 68.8102C115.94 66.8866 117.793 65.3874 119.961 64.502C122.129 63.6167 124.514 63.3851 126.815 63.8364C129.117 64.2877 131.231 65.4018 132.89 67.0377C134.549 68.6735 135.679 70.7578 136.137 73.0268C136.594 75.2958 136.359 77.6478 135.462 79.7851C134.564 81.9225 133.043 83.7494 131.092 85.0347C129.141 86.32 126.847 87.006 124.501 87.006C121.356 87.0026 118.34 85.7691 116.116 83.5762C113.892 81.3833 112.641 78.41 112.637 75.3088ZM115.274 75.3088C115.274 73.5094 115.815 71.7505 116.829 70.2544C117.843 68.7582 119.284 67.5921 120.97 66.9035C122.656 66.215 124.511 66.0348 126.301 66.3858C128.091 66.7369 129.735 67.6034 131.026 68.8757C132.316 70.1481 133.195 71.7691 133.551 73.5339C133.907 75.2987 133.724 77.128 133.026 78.7904C132.327 80.4528 131.145 81.8737 129.627 82.8734C128.11 83.873 126.326 84.4066 124.501 84.4066C122.055 84.404 119.709 83.4447 117.979 81.7391C116.249 80.0335 115.276 77.7209 115.274 75.3088Z" fill="#29375B"/>
</svg>
