<svg width="24" height="26" viewBox="0 0 28 30" fill="none" xmlns="http://www.w3.org/2000/svg">
<g filter="url(#filter0_d_95_5526)">
<path d="M14 4.35418C14.7329 3.52375 15.8053 3 17 3C19.2091 3 21 4.79086 21 7C21 9.20914 19.2091 11 17 11C15.8053 11 14.7329 10.4762 14 9.64582M17 21H5V20C5 16.6863 7.68629 14 11 14C14.3137 14 17 16.6863 17 20V21ZM17 21H23V20C23 16.6863 20.3137 14 17 14C15.9071 14 14.8825 14.2922 14 14.8027M15 7C15 9.20914 13.2091 11 11 11C8.79086 11 7 9.20914 7 7C7 4.79086 8.79086 3 11 3C13.2091 3 15 4.79086 15 7Z" stroke="#A7BFDC" stroke-width="2" stroke-linecap="round" stroke-linejoin="round"/>
</g>
<defs>
<filter id="filter0_d_95_5526" x="-2" y="0" width="32" height="32" filterUnits="userSpaceOnUse" color-interpolation-filters="sRGB">
<feFlood flood-opacity="0" result="BackgroundImageFix"/>
<feColorMatrix in="SourceAlpha" type="matrix" values="0 0 0 0 0 0 0 0 0 0 0 0 0 0 0 0 0 0 127 0" result="hardAlpha"/>
<feOffset dy="4"/>
<feGaussianBlur stdDeviation="2"/>
<feComposite in2="hardAlpha" operator="out"/>
<feColorMatrix type="matrix" values="0 0 0 0 0 0 0 0 0 0 0 0 0 0 0 0 0 0 0.25 0"/>
<feBlend mode="normal" in2="BackgroundImageFix" result="effect1_dropShadow_95_5526"/>
<feBlend mode="normal" in="SourceGraphic" in2="effect1_dropShadow_95_5526" result="shape"/>
</filter>
</defs>
</svg>