<svg width="50" height="50" viewBox="0 0 50 50" fill="none" xmlns="http://www.w3.org/2000/svg">
<path d="M50 25C50 38.8071 38.8071 50 25 50C11.1929 50 0 38.8071 0 25C0 11.1929 11.1929 0 25 0C38.8071 0 50 11.1929 50 25Z" fill="white"/>
<path d="M21.4137 38.3542H27.2471V26.6729H32.5029L33.0804 20.8688H27.2471V17.9375C27.2471 17.5507 27.4007 17.1798 27.6742 16.9063C27.9477 16.6328 28.3186 16.4792 28.7054 16.4792H33.0804V10.6458H28.7054C26.7715 10.6458 24.9169 11.4141 23.5494 12.7815C22.182 14.149 21.4137 16.0036 21.4137 17.9375V20.8688H18.4971L17.9196 26.6729H21.4137V38.3542Z" fill="#29375B"/>
</svg>
