<svg width="41" height="47" viewBox="0 0 41 47" fill="none" xmlns="http://www.w3.org/2000/svg">
<path d="M2.70833 46.0417C1.94097 46.0417 1.29729 45.7817 0.777292 45.2617C0.259098 44.7435 0 44.1007 0 43.3333V2.70833C0 1.94097 0.259098 1.29729 0.777292 0.777292C1.29729 0.259098 1.94097 0 2.70833 0H22.1406C22.7726 0 23.3368 0.203125 23.8333 0.609375C24.3299 1.01562 24.6458 1.53472 24.7812 2.16667L25.4583 5.41667H37.9167C38.684 5.41667 39.3268 5.67576 39.845 6.19396C40.365 6.71396 40.625 7.35764 40.625 8.125V29.7917C40.625 30.559 40.365 31.2018 39.845 31.72C39.3268 32.24 38.684 32.5 37.9167 32.5H23.901C23.2691 32.5 22.7049 32.2969 22.2083 31.8906C21.7118 31.4844 21.3958 30.9653 21.2604 30.3333L20.5833 27.0833H5.41667V43.3333C5.41667 44.1007 5.15757 44.7435 4.63937 45.2617C4.11937 45.7817 3.47569 46.0417 2.70833 46.0417Z" fill="#FFC857"/>
</svg>
