<svg width="246" height="254" viewBox="0 0 246 254" fill="none" xmlns="http://www.w3.org/2000/svg">
<path fill-rule="evenodd" clip-rule="evenodd" d="M53.2041 25.7077C59.1441 24.5143 65.0974 23.3343 71.0641 22.1677C72.0341 21.9777 73.3741 22.2177 74.6641 22.7977C77.1041 23.9043 79.5441 25.0077 81.9841 26.1077C83.2341 26.6677 84.5541 26.8977 85.5141 26.7177L93.7741 25.1777L100.434 23.9577C101.164 23.8277 101.634 23.4777 101.764 22.9977C102.257 21.151 102.751 19.311 103.244 17.4777C103.374 16.9977 103.834 16.6677 104.554 16.5377C113.647 14.8977 122.817 13.2843 132.064 11.6977C154.844 8.09766 178.144 4.54766 201.964 1.04766C203.894 0.787661 207.184 1.61766 209.284 2.89766C214.728 7.30435 219.744 11.5638 224.409 15.5245L224.409 15.5247C231.496 21.5425 237.771 26.8707 243.5 30.9777C243.736 31.3859 243.73 31.7941 243.528 32.1636L243.532 32.236L245.09 59.9378C245.76 61.0978 244.48 62.2577 242.29 62.5277L242.179 57.8416L240.7 33.5677L241.495 48.0477L242.027 57.7315L242.29 62.5277C231.31 64.2203 220.429 65.7476 209.725 67.2503C187.43 70.3798 165.898 73.4024 145.808 77.5887L145.802 77.59C142.68 78.2406 139.283 79.1209 135.908 79.9954L135.908 79.9955C132.495 80.8801 129.104 81.7588 126.044 82.3877C125.444 84.3077 124.854 86.2277 124.274 88.1477C124.134 88.6177 123.724 88.9577 123.094 89.1077L122.684 89.2094C119.648 89.9622 116.614 90.715 113.584 91.4678C112.814 91.6578 111.774 91.5478 110.724 91.1478C108.191 90.2011 105.651 89.2511 103.104 88.2978C102.044 87.9078 100.984 87.7978 100.204 87.9977C97.5907 88.6644 94.9807 89.3411 92.374 90.0277C90.874 90.4177 88.524 89.6877 87.114 88.3777C76.894 78.8511 67.3174 69.8944 56.384 59.5077C55.8307 58.9811 55.2807 58.4578 54.734 57.9378L54.5579 54.7303C54.6324 54.7065 54.7111 54.6856 54.794 54.6677L54.1916 43.695L53.3968 29.2181L53.2041 25.7077Z" fill="#FCDD6B"/>
<path d="M71.0641 22.1677L71.16 22.6584L71.1602 22.6583L71.0641 22.1677ZM53.2041 25.7077L53.1056 25.2175L52.6811 25.3027L52.7048 25.7351L53.2041 25.7077ZM74.6641 22.7977L74.8706 22.3423L74.8691 22.3416L74.6641 22.7977ZM81.9841 26.1077L81.7786 26.5635L81.7796 26.564L81.9841 26.1077ZM85.5141 26.7177L85.4224 26.2261L85.4219 26.2262L85.5141 26.7177ZM93.7741 25.1777L93.684 24.6858L93.6824 24.6861L93.7741 25.1777ZM100.434 23.9577L100.346 23.4654L100.344 23.4658L100.434 23.9577ZM101.764 22.9977L102.247 23.1284L102.247 23.1267L101.764 22.9977ZM103.244 17.4777L102.761 17.347L102.761 17.3477L103.244 17.4777ZM104.554 16.5377L104.465 16.0456L104.465 16.0456L104.554 16.5377ZM132.064 11.6977L131.986 11.2037L131.98 11.2049L132.064 11.6977ZM201.964 1.04766L201.897 0.552101L201.891 0.552973L201.964 1.04766ZM209.284 2.89766L209.599 2.50902L209.573 2.48806L209.544 2.47072L209.284 2.89766ZM224.409 15.5245L224.085 15.9056L224.091 15.9102L224.409 15.5245ZM224.409 15.5247L224.733 15.1435L224.727 15.139L224.409 15.5247ZM243.5 30.9777L243.933 30.7276L243.879 30.6341L243.791 30.5713L243.5 30.9777ZM243.528 32.1636L243.089 31.9238L243.021 32.0491L243.029 32.1917L243.528 32.1636ZM243.532 32.236L244.032 32.2079V32.2079L243.532 32.236ZM245.09 59.9378L244.591 59.9658L244.598 60.0847L244.657 60.1878L245.09 59.9378ZM242.179 57.8416L242.679 57.8297L242.678 57.8204L242.678 57.8111L242.179 57.8416ZM240.7 33.5677L241.199 33.5373L240.201 33.5951L240.7 33.5677ZM241.495 48.0477L240.996 48.0751L241.495 48.0477ZM242.027 57.7315L242.526 57.7041L242.027 57.7315ZM209.725 67.2503L209.794 67.7454L209.725 67.2503ZM145.808 77.5887L145.91 78.0783L145.91 78.0782L145.808 77.5887ZM145.802 77.59L145.7 77.1004L145.7 77.1006L145.802 77.59ZM135.908 79.9954L135.783 79.5113L135.771 79.5147L135.908 79.9954ZM135.908 79.9955L136.034 80.4797L136.045 80.4763L135.908 79.9955ZM126.044 82.3877L125.943 81.898L125.655 81.9573L125.567 82.2386L126.044 82.3877ZM124.274 88.1477L123.795 88.0032L123.795 88.005L124.274 88.1477ZM123.094 89.1077L122.978 88.6213L122.974 88.6224L123.094 89.1077ZM122.684 89.2094L122.564 88.7241H122.564L122.684 89.2094ZM113.584 91.4678L113.704 91.9532L113.705 91.953L113.584 91.4678ZM110.724 91.1478L110.902 90.6805L110.899 90.6794L110.724 91.1478ZM103.104 88.2978L103.279 87.8295L103.277 87.8285L103.104 88.2978ZM100.204 87.9977L100.328 88.4822L100.328 88.4821L100.204 87.9977ZM92.374 90.0277L92.4998 90.5117L92.5014 90.5113L92.374 90.0277ZM87.114 88.3777L86.7731 88.7435L86.7737 88.744L87.114 88.3777ZM56.384 59.5077L56.0393 59.8699L56.0397 59.8702L56.384 59.5077ZM54.734 57.9378L54.2348 57.9652L54.2457 58.1633L54.3894 58.3L54.734 57.9378ZM54.5579 54.7303L54.4055 54.2541L54.0375 54.3719L54.0587 54.7577L54.5579 54.7303ZM54.794 54.6677L54.8992 55.1566L55.3167 55.0667L55.2933 54.6403L54.794 54.6677ZM54.1916 43.695L53.6924 43.7224L54.1916 43.695ZM53.3968 29.2181L52.8976 29.2455L53.3968 29.2181ZM53.3093 26.1965C53.5792 26.1384 53.751 25.8724 53.6929 25.6025C53.6348 25.3325 53.3688 25.1608 53.0989 25.2189L53.3093 26.1965ZM85.4224 26.2261C85.151 26.2767 84.9719 26.5378 85.0225 26.8093C85.0731 27.0808 85.3342 27.2598 85.6057 27.2092L85.4224 26.2261ZM93.7741 25.1777L93.684 24.6858L93.6824 24.6861L93.7741 25.1777ZM100.524 24.4495C100.796 24.3997 100.976 24.1392 100.926 23.8676C100.876 23.5959 100.616 23.4161 100.344 23.4658L100.524 24.4495ZM53.3968 29.2181L53.7415 28.8559L53.7414 28.8558L53.3968 29.2181ZM54.7941 30.5477L54.4494 30.9099L54.4542 30.9144L54.7941 30.5477ZM145.91 78.0783C146.18 78.0223 146.354 77.7578 146.298 77.4873C146.242 77.2169 145.977 77.0431 145.707 77.0991L145.91 78.0783ZM145.7 77.1004C145.43 77.1564 145.256 77.421 145.312 77.6914C145.368 77.9618 145.633 78.1357 145.903 78.0797L145.7 77.1004ZM104.622 60.5006L104.446 60.9689L104.452 60.9707L104.622 60.5006ZM102.424 59.6784L102.249 60.1467L102.249 60.1467L102.424 59.6784ZM101.514 59.3377L101.689 58.8694L101.652 58.8555L101.613 58.8476L101.514 59.3377ZM112.891 62.2849L113.012 62.7701L112.774 61.7988L112.891 62.2849ZM111.994 62.5077L111.874 62.0224L112.115 62.9929L111.994 62.5077ZM53.8493 44.0594C54.0505 44.2484 54.367 44.2386 54.556 44.0373C54.7451 43.836 54.7352 43.5196 54.5339 43.3305L53.8493 44.0594ZM54.5579 54.7303L54.7104 55.2065L55.0784 55.0887L55.0572 54.7029L54.5579 54.7303ZM54.3887 58.2994C54.5885 58.4901 54.905 58.4828 55.0957 58.283C55.2864 58.0833 55.279 57.7668 55.0793 57.5761L54.3887 58.2994ZM241.886 58.2466C242.109 58.4085 242.422 58.3584 242.584 58.1346C242.746 57.9109 242.696 57.5983 242.472 57.4365L241.886 58.2466ZM242.32 57.3265C242.096 57.1646 241.783 57.2147 241.622 57.4384C241.46 57.6622 241.51 57.9748 241.734 58.1366L242.32 57.3265ZM86.614 88.3777C86.614 88.6539 86.8379 88.8777 87.114 88.8777C87.3902 88.8777 87.614 88.6539 87.614 88.3777H86.614ZM100.501 59.1668C100.502 58.8906 100.278 58.6665 100.002 58.6661C99.7258 58.6657 99.5016 58.8892 99.5013 59.1654L100.501 59.1668ZM100 60L99.5 59.9993L99.5001 60.0049L100 60ZM100.532 63.5003C100.532 63.2241 100.308 63.0001 100.032 63C99.7559 62.9999 99.5319 63.2236 99.5317 63.4997L100.532 63.5003ZM100.025 75.5L99.5254 75.5001L100.525 75.5003L100.025 75.5ZM100.022 62.2849L100.522 62.2847L100.522 62.28L100.022 62.2849ZM100.024 71.5L99.5245 71.5001L100.024 71.5ZM99.6795 84.506C99.6828 84.7821 99.9093 85.0033 100.185 85C100.462 84.9967 100.683 84.7702 100.679 84.494L99.6795 84.506ZM99.704 88.1512C99.7059 88.4273 99.9313 88.6496 100.207 88.6477C100.484 88.6458 100.706 88.4204 100.704 88.1443L99.704 88.1512ZM100.663 82.2105C100.661 81.9344 100.436 81.712 100.16 81.7139C99.8838 81.7158 99.6615 81.9412 99.6634 82.2173L100.663 82.2105ZM110.224 91.1611C110.232 91.4371 110.461 91.6549 110.737 91.6476C111.013 91.6402 111.231 91.4105 111.224 91.1344L110.224 91.1611ZM110 64L109.5 63.9861L109.5 63.9997L109.5 64.0133L110 64ZM112.899 62.0995C112.622 62.0995 112.399 62.3234 112.399 62.5995C112.399 62.8756 112.622 63.0995 112.899 63.0995V62.0995ZM112.969 62.5995L113.469 62.5903L113.46 62.0995H112.969V62.5995ZM113.5 91.5L113 91.5092L113.012 92.1371L113.621 91.9851L113.5 91.5ZM123.214 89.5931C123.482 89.5266 123.646 89.2555 123.579 88.9874C123.513 88.7194 123.242 88.556 122.974 88.6224L123.214 89.5931ZM121.504 60.1477L122.004 60.1274L121.979 59.5149L121.384 59.6623L121.504 60.1477ZM90.7841 61.0677L90.7077 61.5618L90.8118 61.5779L90.9135 61.5506L90.7841 61.0677ZM100 59.0312L100.1 58.5411L100.054 58.5319L100.007 58.5312L100 59.0312ZM98.4733 58.5092C98.1972 58.5052 97.9701 58.7258 97.9662 59.0019C97.9622 59.278 98.1828 59.5051 98.4589 59.509L98.4733 58.5092ZM98.6295 59.483C98.8962 59.4115 99.0545 59.1373 98.983 58.8706C98.9116 58.6038 98.6374 58.4456 98.3707 58.517L98.6295 59.483ZM112 62.5001L111.991 63L112.055 63.0012L112.117 62.9861L112 62.5001ZM122.684 59.1877L122.997 59.5774L123.117 59.4812L123.162 59.3345L122.684 59.1877ZM124.454 53.4277L124.145 53.0344L124.022 53.1311L123.976 53.2808L124.454 53.4277ZM125.664 52.4777L125.563 51.988L125.448 52.0118L125.355 52.0844L125.664 52.4777ZM132.104 51.6589C132.374 51.6031 132.548 51.3386 132.492 51.0682C132.436 50.7977 132.172 50.6237 131.902 50.6796L132.104 51.6589ZM131.945 50.6711C131.672 50.7152 131.487 50.972 131.531 51.2446C131.576 51.5171 131.832 51.7023 132.105 51.6582L131.945 50.6711ZM240.7 33.5677L240.78 34.0612L240.809 34.0566L240.837 34.0486L240.7 33.5677ZM243.963 32.49C244.103 32.2521 244.024 31.9456 243.786 31.8053C243.548 31.665 243.242 31.7441 243.102 31.982L243.963 32.49ZM70.9681 21.677C65.0006 22.8438 59.0464 24.024 53.1056 25.2175L53.3026 26.1979C59.2417 25.0047 65.1942 23.8249 71.16 22.6584L70.9681 21.677ZM74.8691 22.3416C73.5264 21.7379 72.0767 21.4598 70.968 21.677L71.1602 22.6583C71.9915 22.4955 73.2217 22.6974 74.459 23.2537L74.8691 22.3416ZM82.1896 25.6518C79.7499 24.552 77.3103 23.4488 74.8706 22.3423L74.4575 23.253C76.8979 24.3598 79.3382 25.4633 81.7786 26.5635L82.1896 25.6518ZM85.4219 26.2262C84.5957 26.3811 83.3826 26.1863 82.1885 25.6514L81.7796 26.564C83.0856 27.149 84.5125 27.4142 85.6062 27.2091L85.4219 26.2262ZM93.6824 24.6861L85.4224 26.2261L85.6057 27.2092L93.8657 25.6692L93.6824 24.6861ZM100.344 23.4658L93.684 24.6858L93.8642 25.6695L100.524 24.4495L100.344 23.4658ZM101.281 22.867C101.223 23.0824 100.981 23.3525 100.346 23.4654L100.522 24.4499C101.348 24.3028 102.045 23.8729 102.247 23.1284L101.281 22.867ZM102.761 17.3477C102.268 19.1814 101.774 21.0217 101.281 22.8686L102.247 23.1267C102.74 21.2803 103.234 19.4406 103.727 17.6076L102.761 17.3477ZM104.465 16.0456C103.657 16.1915 102.964 16.598 102.761 17.347L103.727 17.6084C103.784 17.3973 104.011 17.1438 104.643 17.0297L104.465 16.0456ZM131.98 11.2049C122.731 12.7918 113.56 14.4053 104.465 16.0456L104.643 17.0297C113.735 15.39 122.903 13.7769 132.149 12.1905L131.98 11.2049ZM201.891 0.552973C178.07 4.05322 154.768 7.6035 131.986 11.2038L132.142 12.1915C154.92 8.59183 178.218 5.0421 202.037 1.54235L201.891 0.552973ZM209.544 2.47072C208.442 1.79913 207.046 1.25475 205.683 0.910387C204.326 0.567697 202.951 0.410172 201.897 0.552137L202.031 1.54318C202.907 1.42515 204.142 1.55263 205.438 1.87994C206.727 2.20557 208.026 2.71619 209.024 3.3246L209.544 2.47072ZM224.732 15.1433C220.068 11.183 215.048 6.91995 209.599 2.50902L208.969 3.2863C214.408 7.68876 219.42 11.9445 224.085 15.9056L224.732 15.1433ZM224.727 15.139L224.727 15.1388L224.091 15.9102L224.091 15.9103L224.727 15.139ZM243.791 30.5713C238.082 26.4788 231.825 21.1656 224.733 15.1435L224.085 15.9058C231.168 21.9195 237.459 27.2626 243.209 31.384L243.791 30.5713ZM243.967 32.4034C244.253 31.8793 244.255 31.2854 243.933 30.7276L243.067 31.2277C243.217 31.4864 243.207 31.709 243.089 31.9238L243.967 32.4034ZM244.032 32.2079L244.027 32.1355L243.029 32.1917L243.033 32.2641L244.032 32.2079ZM245.589 59.9097L244.032 32.2079L243.033 32.2641L244.591 59.9658L245.589 59.9097ZM242.351 63.024C243.507 62.8815 244.487 62.4985 245.101 61.9346C245.411 61.6493 245.645 61.3009 245.732 60.9C245.821 60.4909 245.747 60.0747 245.523 59.6877L244.657 60.1878C244.769 60.3808 244.786 60.5446 244.755 60.6877C244.722 60.839 244.624 61.015 244.424 61.1984C244.018 61.572 243.263 61.904 242.229 62.0315L242.351 63.024ZM241.679 57.8534L241.79 62.5396L242.79 62.5159L242.679 57.8297L241.679 57.8534ZM240.201 33.5981L241.68 57.872L242.678 57.8111L241.199 33.5373L240.201 33.5981ZM241.994 48.0203L241.199 33.5403L240.201 33.5951L240.996 48.0751L241.994 48.0203ZM242.526 57.7041L241.994 48.0203L240.996 48.0751L241.527 57.7589L242.526 57.7041ZM242.789 62.5003L242.526 57.7041L241.527 57.7589L241.791 62.5552L242.789 62.5003ZM209.794 67.7454C220.498 66.2428 231.382 64.7151 242.366 63.0219L242.214 62.0336C231.237 63.7256 220.36 65.2524 209.655 66.7551L209.794 67.7454ZM145.91 78.0782C165.981 73.8958 187.496 70.8754 209.794 67.7454L209.655 66.7551C187.364 69.8841 165.815 72.9089 145.706 77.0992L145.91 78.0782ZM145.903 78.0797L145.91 78.0783L145.707 77.0991L145.7 77.1004L145.903 78.0797ZM136.034 80.4794C139.411 79.6042 142.796 78.7271 145.904 78.0795L145.7 77.1006C142.564 77.754 139.155 78.6376 135.783 79.5114L136.034 80.4794ZM136.045 80.4763L136.046 80.4762L135.771 79.5147L135.771 79.5148L136.045 80.4763ZM126.145 82.8775C129.219 82.2455 132.623 81.3633 136.033 80.4795L135.783 79.5115C132.366 80.3969 128.988 81.2721 125.943 81.898L126.145 82.8775ZM124.753 88.2923C125.332 86.3739 125.922 84.4554 126.521 82.5369L125.567 82.2386C124.966 84.1601 124.376 86.0816 123.795 88.0032L124.753 88.2923ZM123.21 89.5942C123.956 89.4164 124.547 88.9816 124.753 88.2905L123.795 88.005C123.721 88.2539 123.492 88.4991 122.978 88.6213L123.21 89.5942ZM122.804 89.6947L123.214 89.5931L122.974 88.6224L122.564 88.7241L122.804 89.6947ZM113.705 91.953C116.735 91.2002 119.768 90.4475 122.804 89.6947L122.564 88.7241C119.527 89.4769 116.494 90.2297 113.463 90.9825L113.705 91.953ZM110.546 91.615C111.657 92.0381 112.805 92.1751 113.704 91.9532L113.464 90.9823C112.824 91.1404 111.891 91.0574 110.902 90.6805L110.546 91.615ZM102.929 88.766C105.475 89.7194 108.016 90.6694 110.549 91.6161L110.899 90.6794C108.366 89.7328 105.826 88.7828 103.279 87.8295L102.929 88.766ZM100.328 88.4821C100.978 88.3156 101.929 88.3983 102.931 88.767L103.277 87.8285C102.159 87.4172 100.99 87.2799 100.08 87.5134L100.328 88.4821ZM92.5014 90.5113C95.1068 89.8249 97.7155 89.1486 100.328 88.4822L100.08 87.5133C97.4658 88.1803 94.8546 88.8572 92.2467 89.5442L92.5014 90.5113ZM86.7737 88.744C87.5416 89.4574 88.5502 90.0013 89.561 90.3175C90.5651 90.6315 91.6284 90.7382 92.4998 90.5117L92.2482 89.5438C91.6197 89.7073 90.758 89.644 89.8595 89.363C88.9679 89.0842 88.0965 88.608 87.4543 88.0114L86.7737 88.744ZM56.0397 59.8702C66.9747 70.2585 76.5527 79.2165 86.7731 88.7435L87.455 88.012C77.2353 78.4857 67.66 69.5303 56.7284 59.1452L56.0397 59.8702ZM54.3894 58.3C54.9361 58.82 55.486 59.3433 56.0393 59.8699L56.7287 59.1456C56.1754 58.6189 55.6253 58.0955 55.0786 57.5755L54.3894 58.3ZM54.0587 54.7577L54.2348 57.9652L55.2333 57.9103L55.0572 54.7029L54.0587 54.7577ZM54.6888 54.1789C54.591 54.2 54.4965 54.225 54.4055 54.2541L54.7104 55.2065C54.7683 55.188 54.8311 55.1712 54.8992 55.1566L54.6888 54.1789ZM53.6924 43.7224L54.2948 54.6952L55.2933 54.6403L54.6909 43.6675L53.6924 43.7224ZM52.8976 29.2455L53.6924 43.7224L54.6909 43.6675L53.896 29.1907L52.8976 29.2455ZM52.7048 25.7351L52.8976 29.2455L53.896 29.1907L53.7033 25.6803L52.7048 25.7351ZM53.4894 28.616C52.7542 27.914 52.4929 27.3079 52.5002 26.9247C52.5036 26.7491 52.5614 26.613 52.669 26.5021C52.7831 26.3846 52.9822 26.2668 53.3093 26.1965L53.0989 25.2189C52.6359 25.3185 52.2388 25.5095 51.9514 25.8057C51.6574 26.1086 51.5083 26.4912 51.5004 26.9056C51.4852 27.7024 51.984 28.5613 52.7988 29.3393L53.4894 28.616ZM85.6057 27.2092L93.8657 25.6692L93.6824 24.6861L85.4224 26.2261L85.6057 27.2092ZM93.8642 25.6695L100.524 24.4495L100.344 23.4658L93.684 24.6858L93.8642 25.6695ZM52.7995 29.3399L53.0522 29.5803L53.7414 28.8558L53.4887 28.6154L52.7995 29.3399ZM55.1387 30.1854L53.7415 28.8559L53.0521 29.5803L54.4494 30.9099L55.1387 30.1854ZM145.707 77.0991L145.7 77.1004L145.903 78.0797L145.91 78.0783L145.707 77.0991ZM104.797 60.0323L102.6 59.2101L102.249 60.1467L104.446 60.9689L104.797 60.0323ZM102.6 59.2102L101.689 58.8694L101.339 59.8059L102.249 60.1467L102.6 59.2102ZM112.771 61.7996L111.874 62.0224L112.115 62.9929L113.012 62.7701L112.771 61.7996ZM52.6448 29.0051L53.4398 43.4851L54.4383 43.4303L53.6433 28.9503L52.6448 29.0051ZM54.5339 43.3305L54.2814 43.0933L53.5967 43.8221L53.8493 44.0594L54.5339 43.3305ZM53.4398 43.4851L54.0587 54.7577L55.0572 54.7029L54.4383 43.4303L53.4398 43.4851ZM55.0793 57.5761C54.3855 56.9136 54.1103 56.3323 54.0911 55.9447C54.0822 55.7635 54.1278 55.6267 54.21 55.5189C54.2954 55.4069 54.4483 55.2904 54.7104 55.2065L54.4055 54.2541C53.9963 54.3851 53.6518 54.6018 53.4149 54.9124C53.1749 55.2271 53.073 55.6023 53.0924 55.994C53.1298 56.7521 53.6139 57.5596 54.3887 58.2994L55.0793 57.5761ZM242.472 57.4365L242.32 57.3265L241.734 58.1366L241.886 58.2466L242.472 57.4365ZM86.614 60.5006V88.3777H87.614V60.5006H86.614ZM99.5013 59.1654L99.5001 59.9993L100.5 60.0007L100.501 59.1668L99.5013 59.1654ZM99.5317 63.4997L99.5254 75.4997L100.525 75.5003L100.532 63.5003L99.5317 63.4997ZM99.5001 60.0049L99.5224 62.2897L100.522 62.28L100.5 59.9951L99.5001 60.0049ZM100.525 75.4999L100.524 71.4999L99.5245 71.5001L99.5254 75.5001L100.525 75.4999ZM100.524 71.4999L100.522 62.2847L99.5223 62.285L99.5245 71.5001L100.524 71.4999ZM100.679 84.494L100.524 71.494L99.5245 71.506L99.6795 84.506L100.679 84.494ZM100.704 88.1443L100.663 82.2105L99.6634 82.2173L99.704 88.1512L100.704 88.1443ZM111.224 91.1344L110.5 63.9867L109.5 64.0133L110.224 91.1611L111.224 91.1344ZM110.5 64.0139L110.543 62.4771L109.543 62.4493L109.5 63.9861L110.5 64.0139ZM112.899 63.0995H112.969V62.0995H112.899V63.0995ZM112.469 62.6087L113 91.5092L114 91.4908L113.469 62.5903L112.469 62.6087ZM113.621 91.9851L122.805 89.6945L122.563 88.7243L113.379 91.0149L113.621 91.9851ZM122.804 89.6947L123.214 89.5931L122.974 88.6224L122.564 88.7241L122.804 89.6947ZM121.004 60.1679L122.184 89.2297L123.184 89.1891L122.004 60.1274L121.004 60.1679ZM54.4542 30.9144L86.7742 60.8673L87.4539 60.1339L55.1339 30.1809L54.4542 30.9144ZM87.0377 60.9947L90.7077 61.5618L90.8604 60.5735L87.1904 60.0064L87.0377 60.9947ZM100.007 58.5312L98.4733 58.5092L98.4589 59.509L99.9931 59.5311L100.007 58.5312ZM90.9135 61.5506L98.6295 59.483L98.3707 58.517L90.6547 60.5847L90.9135 61.5506ZM99.9011 59.5213L101.415 59.8277L101.613 58.8476L100.1 58.5411L99.9011 59.5213ZM110.213 61.9931L104.792 60.0304L104.452 60.9707L109.873 62.9333L110.213 61.9931ZM110.034 62.9631L111.991 63L112.009 62.0001L110.052 61.9633L110.034 62.9631ZM112.117 62.9861L113.008 62.7709L112.774 61.7988L111.883 62.014L112.117 62.9861ZM121.384 59.6623L121.363 59.6674L121.604 60.6381L121.624 60.633L121.384 59.6623ZM121.363 59.6675L111.874 62.0224L112.115 62.9929L121.604 60.638L121.363 59.6675ZM122.371 58.798L121.17 59.7631L121.797 60.5424L122.997 59.5774L122.371 58.798ZM123.162 59.3345L124.932 53.5745L123.976 53.2808L122.206 59.0408L123.162 59.3345ZM125.355 52.0844L124.145 53.0344L124.763 53.8209L125.973 52.8709L125.355 52.0844ZM125.765 52.9673L132.104 51.6589L131.902 50.6796L125.563 51.988L125.765 52.9673ZM132.105 51.6582L240.78 34.0612L240.62 33.0741L131.945 50.6711L132.105 51.6582ZM240.837 34.0486C241.804 33.7738 242.475 33.5562 242.945 33.3352C243.431 33.1068 243.748 32.8539 243.963 32.49L243.102 31.982C243.022 32.1174 242.892 32.2551 242.52 32.4302C242.132 32.6125 241.534 32.8112 240.563 33.0867L240.837 34.0486Z" fill="#EDC052"/>
<path fill-rule="evenodd" clip-rule="evenodd" d="M22.1808 129.779C28.1886 130.562 34.2047 131.363 40.2291 132.18C41.2086 132.313 42.3999 132.972 43.4343 133.936C45.3878 135.77 47.3423 137.601 49.2979 139.428C50.3009 140.361 51.4765 141.004 52.4433 141.143L60.7591 142.345L67.4571 143.336C68.19 143.448 68.7477 143.268 69.0254 142.855C70.0873 141.266 71.147 139.683 72.2046 138.106C72.4823 137.694 73.0241 137.529 73.7476 137.638C82.8845 139.015 92.0854 140.441 101.35 141.918C124.076 145.848 147.277 149.992 170.955 154.352C172.866 154.727 175.713 156.573 177.289 158.461C181.023 164.387 184.4 170.035 187.54 175.287L187.54 175.287C192.311 183.267 196.535 190.333 200.636 196.066C200.728 196.529 200.591 196.913 200.281 197.198L200.261 197.268L192.813 223.995C193.073 225.309 191.488 225.995 189.328 225.545L190.732 221.073L197.151 197.616L193.239 211.58L190.623 220.919L189.328 225.545C178.387 223.61 167.595 221.551 156.977 219.526C134.863 215.307 113.504 211.232 93.1369 208.724L93.1303 208.723C89.9654 208.334 86.466 208.073 82.9896 207.814L82.9892 207.814C79.4727 207.551 75.9797 207.291 72.8804 206.901C71.6939 208.525 70.5169 210.153 69.3493 211.784C69.0654 212.184 68.5677 212.373 67.923 212.312L67.5021 212.277C64.3851 212.011 61.2709 211.747 58.1597 211.483C57.3695 211.415 56.4204 210.976 55.5552 210.259C53.4618 208.547 51.3632 206.829 49.2594 205.106C48.3815 204.396 47.4134 203.95 46.6106 203.888C43.9218 203.678 41.233 203.477 38.544 203.288C36.9984 203.174 35.0088 201.726 34.0959 200.031C27.4894 187.72 21.3083 176.156 14.3035 162.801C13.9493 162.125 13.5972 161.452 13.2472 160.784L14.1137 157.69C14.1918 157.692 14.273 157.697 14.3573 157.707L17.3216 147.125L21.2325 133.164L22.1808 129.779Z" fill="#6480A7"/>
<path d="M40.2291 132.18L40.1619 132.676L40.1621 132.676L40.2291 132.18ZM22.1808 129.779L22.2455 129.283L21.8161 129.227L21.6993 129.644L22.1808 129.779ZM43.4343 133.936L43.7765 133.572L43.7753 133.571L43.4343 133.936ZM49.2979 139.428L48.9565 139.793L48.9574 139.794L49.2979 139.428ZM52.4433 141.143L52.5148 140.648L52.5143 140.648L52.4433 141.143ZM60.7591 142.345L60.8322 141.851L60.8306 141.851L60.7591 142.345ZM67.4571 143.336L67.5326 142.841L67.5302 142.841L67.4571 143.336ZM69.0254 142.855L69.4402 143.135L69.4411 143.133L69.0254 142.855ZM72.2046 138.106L71.7898 137.827L71.7894 137.828L72.2046 138.106ZM73.7476 137.638L73.8221 137.144L73.822 137.144L73.7476 137.638ZM101.35 141.918L101.436 141.425L101.429 141.424L101.35 141.918ZM170.955 154.352L171.052 153.861L171.046 153.86L170.955 154.352ZM177.289 158.461L177.712 158.195L177.694 158.166L177.673 158.141L177.289 158.461ZM187.54 175.287L187.111 175.544L187.115 175.55L187.54 175.287ZM187.54 175.287L187.97 175.031L187.966 175.025L187.54 175.287ZM200.636 196.066L201.127 195.969L201.106 195.863L201.043 195.775L200.636 196.066ZM200.281 197.198L199.943 196.83L199.837 196.926L199.799 197.064L200.281 197.198ZM200.261 197.268L200.743 197.402L200.743 197.402L200.261 197.268ZM192.813 223.995L192.331 223.861L192.299 223.975L192.322 224.092L192.813 223.995ZM190.732 221.073L191.209 221.222L191.212 221.213L191.214 221.205L190.732 221.073ZM197.151 197.616L197.633 197.748L196.67 197.481L197.151 197.616ZM193.239 211.58L192.758 211.446L193.239 211.58ZM190.623 220.919L191.105 221.054L190.623 220.919ZM156.977 219.526L156.883 220.017L156.977 219.526ZM93.1369 208.724L93.0752 209.22L93.0758 209.22L93.1369 208.724ZM93.1303 208.723L93.1921 208.227L93.1914 208.227L93.1303 208.723ZM82.9896 207.814L83.0267 207.315L83.0144 207.314L82.9896 207.814ZM82.9892 207.814L82.952 208.312L82.9644 208.313L82.9892 207.814ZM72.8804 206.901L72.9429 206.405L72.6505 206.368L72.4766 206.606L72.8804 206.901ZM69.3493 211.784L68.9428 211.493L68.9417 211.494L69.3493 211.784ZM67.923 212.312L67.97 211.815L67.9654 211.814L67.923 212.312ZM67.5021 212.277L67.5445 211.778L67.5445 211.778L67.5021 212.277ZM58.1596 211.483L58.1167 211.981L58.1175 211.982L58.1596 211.483ZM55.5552 210.259L55.8742 209.874L55.8717 209.872L55.5552 210.259ZM49.2594 205.106L49.5762 204.72L49.574 204.718L49.2594 205.106ZM46.6106 203.888L46.5715 204.387L46.5721 204.387L46.6106 203.888ZM38.544 203.288L38.5073 203.786L38.5089 203.787L38.544 203.288ZM34.0959 200.031L33.6553 200.268L33.6557 200.269L34.0959 200.031ZM14.3035 162.801L13.8605 163.033L13.8607 163.034L14.3035 162.801ZM13.2472 160.784L12.7657 160.649L12.7122 160.84L12.8043 161.016L13.2472 160.784ZM14.1137 157.69L14.1227 157.191L13.7364 157.184L13.6322 157.556L14.1137 157.69ZM14.3573 157.707L14.2995 158.204L14.7236 158.253L14.8388 157.842L14.3573 157.707ZM17.3216 147.125L16.8401 146.99L17.3216 147.125ZM21.2325 133.164L20.751 133.029L21.2325 133.164ZM22.1229 130.275C22.3972 130.307 22.6455 130.111 22.6774 129.837C22.7094 129.562 22.5129 129.314 22.2387 129.282L22.1229 130.275ZM52.5148 140.648C52.2415 140.608 51.9879 140.798 51.9484 141.071C51.9089 141.344 52.0984 141.598 52.3717 141.637L52.5148 140.648ZM60.7591 142.345L60.8322 141.851L60.8306 141.851L60.7591 142.345ZM67.3839 143.83C67.6571 143.871 67.9113 143.682 67.9517 143.409C67.9921 143.136 67.8034 142.881 67.5302 142.841L67.3839 143.83ZM21.2325 133.164L21.6754 132.932L21.6754 132.932L21.2325 133.164ZM22.127 134.873L21.684 135.105L21.6871 135.111L22.127 134.873ZM93.0752 209.22C93.3492 209.254 93.599 209.06 93.6331 208.786C93.6672 208.512 93.4727 208.262 93.1987 208.228L93.0752 209.22ZM93.1921 208.227C92.918 208.193 92.6682 208.387 92.6341 208.662C92.6 208.936 92.7945 209.185 93.0685 209.219L93.1921 208.227ZM59.6502 179.28L59.3335 179.667L59.3377 179.67L59.6502 179.28ZM57.8349 177.794L57.5182 178.181L57.5182 178.181L57.8349 177.794ZM57.0828 177.178L57.3996 176.791L57.3689 176.766L57.3346 176.746L57.0828 177.178ZM66.9041 183.633L66.8619 184.131L66.9495 183.135L66.9041 183.633ZM65.9831 183.555L66.0253 183.056L65.9408 184.053L65.9831 183.555ZM16.8801 147.36C17.0098 147.604 17.3125 147.696 17.5563 147.567C17.8001 147.437 17.8927 147.134 17.7631 146.891L16.8801 147.36ZM14.1137 157.69L14.1046 158.19L14.4909 158.197L14.5951 157.825L14.1137 157.69ZM12.8038 161.015C12.9315 161.26 13.2334 161.355 13.4783 161.227C13.7232 161.099 13.8182 160.797 13.6906 160.553L12.8038 161.015ZM190.324 221.362C190.484 221.587 190.796 221.64 191.021 221.481C191.246 221.321 191.299 221.009 191.14 220.783L190.324 221.362ZM191.031 220.63C190.872 220.405 190.56 220.352 190.334 220.511C190.109 220.671 190.056 220.983 190.215 221.209L191.031 220.63ZM33.6226 199.87C33.5336 200.132 33.6734 200.416 33.9348 200.505C34.1963 200.594 34.4803 200.454 34.5693 200.192L33.6226 199.87ZM56.1791 176.69C56.2684 176.428 56.129 176.144 55.8677 176.055C55.6064 175.966 55.3221 176.105 55.2328 176.366L56.1791 176.69ZM55.4362 177.317L54.963 177.155L54.9613 177.161L55.4362 177.317ZM54.812 180.802C54.9011 180.541 54.7614 180.257 54.5 180.168C54.2387 180.078 53.9546 180.218 53.8655 180.479L54.812 180.802ZM50.4673 191.999L49.9939 191.838L50.9405 192.16L50.4673 191.999ZM54.7213 179.487L55.1947 179.648L55.1962 179.644L54.7213 179.487ZM51.7549 188.212L51.2815 188.051L51.7549 188.212ZM47.2388 200.414C47.1529 200.676 47.2961 200.958 47.5586 201.044C47.8211 201.13 48.1034 200.987 48.1892 200.724L47.2388 200.414ZM46.0878 203.872C46.0007 204.134 46.1424 204.418 46.4045 204.505C46.6665 204.592 46.9496 204.45 47.0367 204.188L46.0878 203.872ZM48.9096 198.557C48.9968 198.295 48.855 198.012 48.593 197.925C48.331 197.838 48.0479 197.98 47.9607 198.242L48.9096 198.557ZM55.0777 210.111C54.9957 210.374 55.1431 210.655 55.4068 210.737C55.6705 210.819 55.9507 210.671 56.0326 210.407L55.0777 210.111ZM63.6147 184.325L63.146 184.151L63.1413 184.164L63.1372 184.177L63.6147 184.325ZM66.9709 183.46C66.7094 183.371 66.4254 183.51 66.3364 183.772C66.2475 184.033 66.3873 184.317 66.6487 184.406L66.9709 183.46ZM66.8763 183.956L67.3526 184.108L67.5021 183.64L67.0374 183.482L66.8763 183.956ZM58.0698 211.487L57.5936 211.334L57.4022 211.933L58.0281 211.985L58.0698 211.487ZM67.8806 212.811C68.1557 212.834 68.3978 212.63 68.4212 212.355C68.4446 212.08 68.2406 211.838 67.9654 211.814L67.8806 212.811ZM75.7464 184.384L76.2259 184.526L76.3997 183.938L75.7889 183.886L75.7464 184.384ZM46.3675 175.359L46.136 175.802L46.2294 175.851L46.3344 175.858L46.3675 175.359ZM55.7485 176.4L56.0003 175.968L55.9601 175.945L55.9163 175.929L55.7485 176.4ZM54.471 175.414C54.2109 175.321 53.9249 175.457 53.8322 175.717C53.7395 175.977 53.8752 176.263 54.1353 176.356L54.471 175.414ZM54.3052 176.386C54.5808 176.404 54.8189 176.196 54.8372 175.92C54.8554 175.645 54.6469 175.407 54.3713 175.388L54.3052 176.386ZM65.9912 183.549L65.8213 184.02L65.8818 184.041L65.9458 184.047L65.9912 183.549ZM77.1728 183.855L77.3438 184.325L77.488 184.272L77.5779 184.148L77.1728 183.855ZM80.7038 178.972L80.5382 178.501L80.3904 178.552L80.2987 178.679L80.7038 178.972ZM82.1554 178.463L82.2174 177.967L82.1007 177.952L81.9897 177.991L82.1554 178.463ZM88.5155 179.762C88.7895 179.796 89.0394 179.602 89.0737 179.328C89.1079 179.054 88.9136 178.804 88.6396 178.77L88.5155 179.762ZM88.6835 178.776C88.4112 178.73 88.1532 178.913 88.1071 179.185C88.0611 179.458 88.2445 179.716 88.5168 179.762L88.6835 178.776ZM197.151 197.616L197.068 198.109L197.096 198.114L197.125 198.116L197.151 197.616ZM200.587 197.647C200.797 197.467 200.82 197.151 200.64 196.942C200.46 196.732 200.145 196.709 199.935 196.889L200.587 197.647ZM40.2964 131.685C34.2711 130.867 28.2541 130.067 22.2455 129.283L22.1161 130.274C28.123 131.058 34.1383 131.858 40.1619 132.676L40.2964 131.685ZM43.7753 133.571C42.6987 132.567 41.4158 131.836 40.2962 131.685L40.1621 132.676C41.0015 132.79 42.1011 133.377 43.0933 134.302L43.7753 133.571ZM49.6393 139.063C47.684 137.236 45.7297 135.405 43.7765 133.572L43.0921 134.301C45.0458 136.135 47.0007 137.966 48.9565 139.793L49.6393 139.063ZM52.5143 140.648C51.6822 140.528 50.5966 139.953 49.6384 139.062L48.9574 139.794C50.0053 140.769 51.2707 141.479 52.3722 141.637L52.5143 140.648ZM60.8306 141.851L52.5148 140.648L52.3717 141.637L60.6875 142.84L60.8306 141.851ZM67.5302 142.841L60.8322 141.851L60.6859 142.84L67.3839 143.83L67.5302 142.841ZM68.6106 142.576C68.486 142.761 68.1694 142.939 67.5326 142.841L67.3815 143.83C68.2107 143.957 69.0095 143.774 69.4402 143.135L68.6106 142.576ZM71.7894 137.828C70.7316 139.405 69.6717 140.988 68.6097 142.578L69.4411 143.133C70.5029 141.544 71.5624 139.961 72.6199 138.385L71.7894 137.828ZM73.822 137.144C73.0099 137.022 72.2231 137.183 71.7898 137.827L72.6194 138.385C72.7415 138.204 73.0383 138.037 73.6732 138.133L73.822 137.144ZM101.429 141.424C92.1627 139.947 82.9604 138.521 73.8221 137.144L73.6731 138.133C82.8086 139.509 92.0081 140.935 101.272 142.412L101.429 141.424ZM171.046 153.86C147.366 149.5 124.163 145.355 101.436 141.425L101.265 142.411C123.989 146.34 147.189 150.484 170.865 154.844L171.046 153.86ZM177.673 158.141C176.846 157.15 175.7 156.185 174.52 155.42C173.346 154.658 172.095 154.066 171.052 153.861L170.859 154.842C171.726 155.013 172.854 155.531 173.976 156.259C175.091 156.982 176.156 157.884 176.905 158.782L177.673 158.141ZM187.969 175.03C184.83 169.779 181.45 164.126 177.712 158.195L176.866 158.728C180.597 164.648 183.971 170.291 187.111 175.543L187.969 175.03ZM187.966 175.025L187.966 175.024L187.115 175.55L187.115 175.55L187.966 175.025ZM201.043 195.775C196.956 190.062 192.744 183.016 187.969 175.031L187.111 175.544C191.879 183.518 196.114 190.603 200.229 196.357L201.043 195.775ZM200.619 197.566C201.059 197.162 201.252 196.601 201.127 195.969L200.146 196.163C200.204 196.456 200.123 196.664 199.943 196.83L200.619 197.566ZM200.743 197.402L200.762 197.332L199.799 197.064L199.78 197.134L200.743 197.402ZM193.294 224.129L200.743 197.402L199.78 197.134L192.331 223.861L193.294 224.129ZM189.226 226.034C190.365 226.272 191.417 226.225 192.18 225.889C192.566 225.719 192.899 225.464 193.11 225.112C193.326 224.754 193.39 224.336 193.303 223.898L192.322 224.092C192.366 224.311 192.329 224.471 192.254 224.597C192.174 224.729 192.024 224.864 191.776 224.974C191.271 225.197 190.45 225.268 189.43 225.055L189.226 226.034ZM190.255 220.923L188.851 225.395L189.805 225.695L191.209 221.222L190.255 220.923ZM196.669 197.484L190.25 220.941L191.214 221.205L197.633 197.748L196.669 197.484ZM193.721 211.715L197.633 197.751L196.67 197.481L192.758 211.446L193.721 211.715ZM191.105 221.054L193.721 211.715L192.758 211.446L190.142 220.785L191.105 221.054ZM189.809 225.68L191.105 221.054L190.142 220.785L188.846 225.41L189.809 225.68ZM156.883 220.017C167.501 222.042 178.296 224.102 189.241 226.037L189.415 225.052C178.478 223.118 167.689 221.06 157.071 219.034L156.883 220.017ZM93.0758 209.22C113.424 211.726 134.766 215.797 156.883 220.017L157.071 219.034C134.96 214.816 113.585 210.738 93.198 208.228L93.0758 209.22ZM93.0685 209.219L93.0752 209.22L93.1987 208.228L93.1921 208.227L93.0685 209.219ZM82.9524 208.312C86.4316 208.572 89.9185 208.832 93.0692 209.22L93.1914 208.227C90.0123 207.836 86.5003 207.574 83.0267 207.315L82.9524 208.312ZM82.9644 208.313L82.9647 208.313L83.0144 207.314L83.014 207.314L82.9644 208.313ZM72.8179 207.397C75.9323 207.789 79.4387 208.05 82.9521 208.312L83.0264 207.315C79.5066 207.053 76.0271 206.793 72.9429 206.405L72.8179 207.397ZM69.7559 212.075C70.9225 210.445 72.0986 208.819 73.2842 207.196L72.4766 206.606C71.2892 208.232 70.1113 209.861 68.9428 211.493L69.7559 212.075ZM67.8759 212.81C68.6399 212.882 69.3395 212.661 69.757 212.073L68.9417 211.494C68.7913 211.706 68.4955 211.864 67.97 211.815L67.8759 212.81ZM67.4597 212.775L67.8806 212.811L67.9654 211.814L67.5445 211.778L67.4597 212.775ZM58.1175 211.982C61.2286 212.245 64.3427 212.509 67.4597 212.775L67.5445 211.778C64.4274 211.513 61.3132 211.249 58.2018 210.985L58.1175 211.982ZM55.2362 210.644C56.1514 211.402 57.1938 211.902 58.1167 211.981L58.2026 210.985C57.5451 210.928 56.6893 210.549 55.8742 209.874L55.2362 210.644ZM48.9426 205.493C51.0465 207.216 53.1452 208.934 55.2386 210.646L55.8717 209.872C53.7784 208.16 51.6799 206.442 49.5762 204.72L48.9426 205.493ZM46.5721 204.387C47.2405 204.438 48.1149 204.823 48.9448 205.495L49.574 204.718C48.6481 203.968 47.5863 203.462 46.649 203.39L46.5721 204.387ZM38.5089 203.787C41.1965 203.976 43.884 204.176 46.5715 204.387L46.6496 203.39C43.9596 203.179 41.2694 202.979 38.5792 202.789L38.5089 203.787ZM33.6557 200.269C34.1529 201.191 34.9325 202.031 35.7877 202.656C36.637 203.277 37.6093 203.72 38.5073 203.786L38.5808 202.789C37.9331 202.741 37.1377 202.404 36.3777 201.849C35.6234 201.297 34.9518 200.566 34.5361 199.794L33.6557 200.269ZM13.8607 163.034C20.8666 176.391 27.0486 187.956 33.6553 200.268L34.5365 199.795C27.9302 187.485 21.75 175.922 14.7463 162.569L13.8607 163.034ZM12.8043 161.016C13.1543 161.684 13.5063 162.356 13.8605 163.033L14.7465 162.57C14.3923 161.893 14.0402 161.22 13.6901 160.552L12.8043 161.016ZM13.6322 157.556L12.7657 160.649L13.7287 160.919L14.5951 157.825L13.6322 157.556ZM14.4152 157.211C14.3158 157.199 14.2182 157.192 14.1227 157.191L14.1046 158.19C14.1654 158.191 14.2303 158.196 14.2995 158.204L14.4152 157.211ZM16.8401 146.99L13.8759 157.572L14.8388 157.842L17.8031 147.26L16.8401 146.99ZM20.751 133.029L16.8401 146.99L17.8031 147.26L21.7139 133.299L20.751 133.029ZM21.6993 129.644L20.751 133.029L21.7139 133.299L22.6623 129.914L21.6993 129.644ZM21.514 132.624C21.0441 131.722 20.9921 131.065 21.1224 130.704C21.1821 130.539 21.2807 130.429 21.4183 130.358C21.5642 130.284 21.7907 130.237 22.1229 130.275L22.2387 129.282C21.7683 129.227 21.3308 129.28 20.9633 129.468C20.5874 129.66 20.323 129.974 20.182 130.364C19.911 131.113 20.1065 132.087 20.6273 133.086L21.514 132.624ZM52.3717 141.637L60.6875 142.84L60.8306 141.851L52.5148 140.648L52.3717 141.637ZM60.6859 142.84L67.3839 143.83L67.5302 142.841L60.8322 141.851L60.6859 142.84ZM20.6277 133.087L20.7895 133.396L21.6754 132.932L21.5136 132.623L20.6277 133.087ZM22.5699 134.641L21.6754 132.932L20.7895 133.396L21.684 135.105L22.5699 134.641ZM93.1987 208.228L93.1921 208.227L93.0685 209.219L93.0752 209.22L93.1987 208.228ZM59.967 178.893L58.1517 177.407L57.5182 178.181L59.3335 179.667L59.967 178.893ZM58.1517 177.407L57.3996 176.791L56.7661 177.565L57.5182 178.181L58.1517 177.407ZM66.9463 183.134L66.0253 183.056L65.9409 184.053L66.8619 184.131L66.9463 183.134ZM20.5892 132.72L16.6775 146.684L17.6404 146.954L21.5521 132.99L20.5892 132.72ZM17.7631 146.891L17.6004 146.585L16.7174 147.054L16.8801 147.36L17.7631 146.891ZM16.6775 146.684L13.6322 157.556L14.5951 157.825L17.6404 146.954L16.6775 146.684ZM13.6906 160.553C13.2471 159.702 13.1738 159.063 13.2806 158.69C13.3305 158.515 13.4177 158.4 13.5303 158.325C13.6472 158.246 13.8294 158.185 14.1046 158.19L14.1228 157.191C13.6931 157.183 13.2973 157.277 12.9729 157.495C12.6443 157.715 12.427 158.038 12.3191 158.415C12.1104 159.144 12.3086 160.065 12.8038 161.015L13.6906 160.553ZM191.14 220.783L191.031 220.63L190.215 221.209L190.324 221.362L191.14 220.783ZM42.6024 173.479L33.6226 199.87L34.5693 200.192L43.5491 173.801L42.6024 173.479ZM55.2328 176.366L54.9631 177.155L55.9093 177.479L56.1791 176.69L55.2328 176.366ZM53.8655 180.479L49.994 191.838L50.9405 192.16L54.812 180.802L53.8655 180.479ZM54.9613 177.161L54.2464 179.331L55.1962 179.644L55.9111 177.474L54.9613 177.161ZM50.9407 192.16L52.2283 188.373L51.2815 188.051L49.9939 191.838L50.9407 192.16ZM52.2283 188.373L55.1946 179.648L54.2479 179.326L51.2815 188.051L52.2283 188.373ZM48.1892 200.724L52.2301 188.367L51.2796 188.057L47.2388 200.414L48.1892 200.724ZM47.0367 204.188L48.9096 198.557L47.9607 198.242L46.0878 203.872L47.0367 204.188ZM56.0326 210.407L64.0922 184.474L63.1372 184.177L55.0777 210.111L56.0326 210.407ZM64.0834 184.499L64.619 183.058L63.6816 182.71L63.146 184.151L64.0834 184.499ZM66.6487 184.406L66.7153 184.429L67.0374 183.482L66.9709 183.46L66.6487 184.406ZM66.4001 183.803L57.5936 211.334L58.546 211.639L67.3526 184.108L66.4001 183.803ZM58.0281 211.985L67.4604 212.775L67.5438 211.778L58.1115 210.989L58.0281 211.985ZM67.4597 212.775L67.8806 212.811L67.9654 211.814L67.5445 211.778L67.4597 212.775ZM75.2669 184.242L67.0226 212.135L67.9816 212.418L76.2259 184.526L75.2669 184.242ZM21.6871 135.111L42.6359 173.878L43.5156 173.402L22.5669 134.635L21.6871 135.111ZM42.8443 174.083L46.136 175.802L46.599 174.916L43.3072 173.197L42.8443 174.083ZM55.9163 175.929L54.471 175.414L54.1353 176.356L55.5806 176.871L55.9163 175.929ZM46.3344 175.858L54.3052 176.386L54.3713 175.388L46.4005 174.86L46.3344 175.858ZM55.4967 176.832L56.8311 177.61L57.3346 176.746L56.0003 175.968L55.4967 176.832ZM64.4628 182.494L59.9628 178.89L59.3377 179.67L63.8377 183.274L64.4628 182.494ZM63.9803 183.354L65.8213 184.02L66.1612 183.079L64.3202 182.414L63.9803 183.354ZM65.9458 184.047L66.8587 184.131L66.9495 183.135L66.0367 183.051L65.9458 184.047ZM75.7889 183.886L75.7678 183.884L75.6829 184.88L75.704 184.882L75.7889 183.886ZM75.7677 183.884L66.0254 183.056L65.9408 184.053L75.683 184.88L75.7677 183.884ZM77.0017 183.385L75.5543 183.912L75.8964 184.852L77.3438 184.325L77.0017 183.385ZM77.5779 184.148L81.109 179.265L80.2987 178.679L76.7676 183.562L77.5779 184.148ZM81.9897 177.991L80.5382 178.501L80.8695 179.444L82.321 178.934L81.9897 177.991ZM82.0933 178.959L88.5155 179.762L88.6396 178.77L82.2174 177.967L82.0933 178.959ZM88.5168 179.762L197.068 198.109L197.234 197.123L88.6835 178.776L88.5168 179.762ZM197.125 198.116C198.13 198.167 198.835 198.177 199.351 198.119C199.885 198.06 200.267 197.922 200.587 197.647L199.935 196.889C199.816 196.991 199.649 197.08 199.24 197.125C198.814 197.173 198.184 197.169 197.177 197.117L197.125 198.116Z" fill="#29375B"/>
</svg>
