<svg width="159" height="30" viewBox="0 0 159 30" fill="none" xmlns="http://www.w3.org/2000/svg">
<path fill-rule="evenodd" clip-rule="evenodd" d="M158.074 0.323567C156.72 0.860034 154.871 1.47268 151.666 2.44652C144.609 4.59122 141.155 5.48341 128.02 11.9165C119.086 16.2917 116.284 17.5408 113.134 18.5505C111.748 18.9947 109.852 19.1385 109.154 18.8521L108.773 18.6958L108.843 18.2379C108.997 17.2299 109.615 15.96 111.383 13.0127C114.2 8.31646 113.915 7.50268 113.781 5.38679C113.454 0.190153 106.846 1.16699 94.1347 8.29129C93.209 8.81016 91.4141 9.48568 88.9238 11.0147C79.1836 16.9952 77.2832 18.0402 76.1147 18.0578L75.5232 18.0667L75.546 17.6182C75.582 16.9117 75.9823 15.8109 77.2905 12.822C79.9503 6.74476 79.3096 5.24699 77.7795 3.47266C76.3395 1.80284 71.7794 2.4704 66.1435 5.17593C61.9085 7.20888 54.1484 11.4483 42.3 19.0348C31.2969 26.0799 29.5947 27.0776 29.1981 26.7139C29.0636 26.5905 29.6593 25.4485 32.2962 20.7737C37.3918 11.7401 37.2392 10.7797 37.2514 7.9971C37.2737 2.89134 33.6651 3.53724 22.8991 10.566C16.8202 14.1876 13.5028 16.3626 5.23725 24.3109C0.874352 28.5063 0 29.4193 0 29.7801C0 30.0545 0.257899 30.0795 0.343964 29.8133C0.412481 29.6019 1.91798 28.2053 3.94341 26.4745C4.67541 25.849 6.07286 24.609 7.04885 23.719C11.7841 19.401 17.1222 15.6406 21.0055 12.9707C28.2276 8.00554 32.3 6.22421 34.4976 6.02428C35.754 5.91001 35.9727 6.24036 35.8991 8.14211C35.8051 10.5677 35.7072 12.0619 31.0689 20.387C27.4987 26.7953 27.2858 27.4031 28.4259 27.9338C29.8686 28.6051 31.7807 27.6253 43.4337 20.2431C64.7002 6.77086 71.7542 3.681 75.8455 4.27654C77.7914 4.5598 78.4856 6.4993 75.8817 12.5405C73.8585 17.2342 73.6438 18.5091 74.754 19.236C76.2974 20.2466 78.3268 19.3406 90.2617 12.3125C100.67 6.18345 105.492 4.50953 109.265 4.12592C111.467 3.90201 111.913 4.26513 111.811 6.19821C111.729 7.7378 112.108 8.12852 109.738 12.0727C106.198 17.9641 105.979 20.0395 108.819 20.781C111.857 21.5741 114.971 20.4695 129.006 13.6196C136.5 9.9623 138.089 9.75905 143.707 7.32393C145.7 6.45991 148.495 5.16868 149.918 4.45462C151.34 3.74046 153.724 2.57036 155.215 1.85437C156.706 1.13837 158.193 0.424692 158.518 0.26846C159.306 -0.110034 159.107 -0.085284 158.074 0.323567Z" fill="#FCD95B"/>
</svg>
