<svg width="51" height="62" viewBox="0 0 51 62" fill="none" xmlns="http://www.w3.org/2000/svg">
<path d="M48 1.32275H3C1.89543 1.32275 1 2.21819 1 3.32276V59.3228C1 60.4273 1.89543 61.3228 3 61.3228H48C49.1046 61.3228 50 60.4273 50 59.3228V3.32275C50 2.21818 49.1046 1.32275 48 1.32275Z" fill="#EDF2F7" stroke="#6480A7" stroke-miterlimit="10"/>
<path d="M50 44.9651C50 44.5003 49.8381 44.05 49.5421 43.6916L35.0881 26.19C34.2881 25.2214 32.8038 25.2214 32.0039 26.1901L20.8945 39.6424C20.0946 40.6111 18.6102 40.6111 17.8103 39.6425L13.8127 34.802C13.0127 33.8334 11.5284 33.8334 10.7285 34.802L1.45791 46.0272C1.16191 46.3856 1 46.836 1 47.3008V59.3228C1 60.4273 1.89543 61.3228 3 61.3228H48C49.1046 61.3228 50 60.4273 50 59.3228V44.9651Z" fill="#C0D2E6" stroke="#6480A7" stroke-miterlimit="10"/>
<path d="M18.5 21.3228C20.9853 21.3228 23 19.308 23 16.8228C23 14.3375 20.9853 12.3228 18.5 12.3228C16.0147 12.3228 14 14.3375 14 16.8228C14 19.308 16.0147 21.3228 18.5 21.3228Z" fill="#C0D2E6" stroke="#6480A7" stroke-miterlimit="10"/>
</svg>
