<svg width="50" height="50" viewBox="0 0 50 50" fill="none" xmlns="http://www.w3.org/2000/svg">
<path d="M50 25C50 38.8071 38.8071 50 25 50C11.1929 50 0 38.8071 0 25C0 11.1929 11.1929 0 25 0C38.8071 0 50 11.1929 50 25Z" fill="white"/>
<path d="M25.5 18.2109C24.2561 18.2109 23.0402 18.5798 22.006 19.2708C20.9718 19.9619 20.1657 20.9441 19.6897 22.0933C19.2137 23.2425 19.0891 24.507 19.3318 25.7269C19.5744 26.9469 20.1734 28.0675 21.053 28.947C21.9325 29.8266 23.0531 30.4256 24.2731 30.6682C25.493 30.9109 26.7575 30.7863 27.9067 30.3103C29.0559 29.8343 30.0381 29.0282 30.7292 27.994C31.4202 26.9598 31.7891 25.7439 31.7891 24.5C31.7891 22.832 31.1265 21.2324 29.947 20.053C28.7676 18.8735 27.168 18.2109 25.5 18.2109ZM25.5 27.5078C24.9051 27.5078 24.3236 27.3314 23.8289 27.0009C23.3343 26.6704 22.9488 26.2006 22.7211 25.651C22.4935 25.1014 22.4339 24.4967 22.55 23.9132C22.666 23.3297 22.9525 22.7938 23.3732 22.3732C23.7938 21.9525 24.3297 21.666 24.9132 21.55C25.4967 21.4339 26.1014 21.4935 26.651 21.7211C27.2006 21.9488 27.6704 22.3343 28.0009 22.8289C28.3314 23.3236 28.5078 23.9051 28.5078 24.5C28.5042 25.2966 28.1862 26.0596 27.6229 26.6229C27.0596 27.1862 26.2966 27.5042 25.5 27.5078ZM32.0625 9.73438H18.9375C16.7619 9.73438 14.6754 10.5986 13.137 12.137C11.5986 13.6754 10.7344 15.7619 10.7344 17.9375V31.0625C10.7344 33.2381 11.5986 35.3246 13.137 36.863C14.6754 38.4014 16.7619 39.2656 18.9375 39.2656H32.0625C34.2381 39.2656 36.3246 38.4014 37.863 36.863C39.4014 35.3246 40.2656 33.2381 40.2656 31.0625V17.9375C40.2656 15.7619 39.4014 13.6754 37.863 12.137C36.3246 10.5986 34.2381 9.73438 32.0625 9.73438ZM36.9844 31.0625C36.9844 32.3679 36.4658 33.6198 35.5428 34.5428C34.6198 35.4658 33.3679 35.9844 32.0625 35.9844H18.9375C17.6321 35.9844 16.3802 35.4658 15.4572 34.5428C14.5342 33.6198 14.0156 32.3679 14.0156 31.0625V17.9375C14.0156 16.6321 14.5342 15.3802 15.4572 14.4572C16.3802 13.5342 17.6321 13.0156 18.9375 13.0156H32.0625C33.3679 13.0156 34.6198 13.5342 35.5428 14.4572C36.4658 15.3802 36.9844 16.6321 36.9844 17.9375V31.0625ZM34.7969 17.3906C34.7969 17.8233 34.6686 18.2462 34.4282 18.6059C34.1878 18.9657 33.8462 19.246 33.4465 19.4116C33.0468 19.5772 32.607 19.6205 32.1826 19.5361C31.7583 19.4517 31.3685 19.2433 31.0626 18.9374C30.7567 18.6315 30.5483 18.2417 30.4639 17.8174C30.3795 17.3931 30.4228 16.9532 30.5884 16.5535C30.754 16.1538 31.0343 15.8122 31.3941 15.5718C31.7538 15.3314 32.1767 15.2031 32.6094 15.2031C33.1895 15.2031 33.7459 15.4336 34.1562 15.8438C34.5664 16.2541 34.7969 16.8105 34.7969 17.3906Z" fill="#29375B"/>
</svg>
