<svg width="39" height="39" viewBox="0 0 39 39" fill="none" xmlns="http://www.w3.org/2000/svg">
<path d="M6.5 17.875V30.875H13V17.875H6.5ZM16.25 8.125V30.875H22.75V8.125H16.25ZM26 21.125V30.875H32.5V21.125H26ZM32.5 34.125H6.5C5.60625 34.125 4.84088 33.8065 4.20388 33.1695C3.56688 32.5325 3.24892 31.7677 3.25 30.875V17.875C3.25 16.9813 3.5685 16.2159 4.2055 15.5789C4.8425 14.9419 5.60734 14.6239 6.5 14.625H13V8.125C13 7.23125 13.3185 6.46588 13.9555 5.82888C14.5925 5.19188 15.3573 4.87392 16.25 4.875H22.75C23.6438 4.875 24.4091 5.1935 25.0461 5.8305C25.6831 6.4675 26.0011 7.23234 26 8.125V17.875H32.5C33.3938 17.875 34.1591 18.1935 34.7961 18.8305C35.4331 19.4675 35.7511 20.2323 35.75 21.125V30.875C35.75 31.7688 35.4315 32.5341 34.7945 33.1711C34.1575 33.8081 33.3927 34.1261 32.5 34.125Z" fill="#29375B"/>
</svg>
