<svg width="140" height="63" viewBox="0 0 190 98" fill="none" xmlns="http://www.w3.org/2000/svg">
<path fill-rule="evenodd" clip-rule="evenodd" d="M10.3518 0.782318C16.3596 1.56599 22.3757 2.36658 28.4002 3.1841C29.3797 3.31668 30.571 3.97553 31.6054 4.94015C33.5588 6.77381 35.5134 8.60431 37.469 10.4317C38.472 11.3645 39.6475 12.0074 40.6143 12.1462L48.9301 13.349L55.6281 14.3394C56.3611 14.4515 56.9188 14.2715 57.1965 13.859C58.2584 12.2697 59.3181 10.6866 60.3757 9.10995C60.6534 8.69741 61.1952 8.53318 61.9187 8.64203C71.0556 10.0186 80.2565 11.4451 89.5214 12.9216C112.247 16.8514 135.448 20.996 159.126 25.3555C161.037 25.7311 163.884 27.5766 165.46 29.4648C169.195 35.3903 172.571 41.0385 175.711 46.2906L175.711 46.2909C180.482 54.2709 184.706 61.3363 188.807 67.0698C188.899 67.5323 188.762 67.9169 188.452 68.2016L188.432 68.2715L180.984 94.9985C181.244 96.3125 179.659 96.9983 177.499 96.5485L178.903 92.0762L185.322 68.6199L181.41 82.5842L178.794 91.9231L177.499 96.5485C166.558 94.6138 155.766 92.5549 145.148 90.5293C123.034 86.3105 101.675 82.2359 81.308 79.7278L81.3014 79.7269C78.1365 79.3372 74.637 79.0764 71.1606 78.8173L71.1603 78.8173C67.6437 78.5552 64.1508 78.2948 61.0515 77.9046C59.865 79.529 58.688 81.1566 57.5204 82.7874C57.2365 83.1873 56.7388 83.3771 56.094 83.3161L55.6732 83.2803C52.5561 83.0149 49.442 82.7504 46.3307 82.487C45.5406 82.4188 44.5914 81.9797 43.7262 81.2628C41.6329 79.5505 39.5343 77.833 37.4304 76.1101C36.5526 75.3994 35.5845 74.9539 34.7817 74.8919C32.0929 74.6813 29.404 74.4811 26.7151 74.2915C25.1694 74.1776 23.1798 72.7295 22.267 71.0351C15.6605 58.7241 9.47938 47.16 2.47458 33.8051C2.12039 33.1283 1.76828 32.4557 1.41826 31.7873L2.28473 28.6941C2.36285 28.6956 2.44409 28.7011 2.5284 28.7109L5.49265 18.129L9.40353 4.1677L10.3518 0.782318Z" fill="#6480A7"/>
<path d="M28.4002 3.1841L28.333 3.67955L28.3331 3.67958L28.4002 3.1841ZM10.3518 0.782318L10.4165 0.286518L9.98718 0.230512L9.87038 0.647449L10.3518 0.782318ZM31.6054 4.94015L31.9476 4.57559L31.9464 4.57448L31.6054 4.94015ZM37.469 10.4317L37.1276 10.797L37.1285 10.7978L37.469 10.4317ZM40.6143 12.1462L40.6859 11.6514L40.6854 11.6513L40.6143 12.1462ZM48.9301 13.349L49.0033 12.8544L49.0017 12.8542L48.9301 13.349ZM55.6281 14.3394L55.7037 13.8451L55.7013 13.8448L55.6281 14.3394ZM57.1965 13.859L57.6113 14.1382L57.6122 14.1368L57.1965 13.859ZM60.3757 9.10995L59.9609 8.83075L59.9605 8.83142L60.3757 9.10995ZM61.9187 8.64203L61.9932 8.14761L61.9931 8.1476L61.9187 8.64203ZM89.5214 12.9216L89.6066 12.4288L89.6001 12.4278L89.5214 12.9216ZM159.126 25.3555L159.223 24.8649L159.217 24.8638L159.126 25.3555ZM165.46 29.4648L165.883 29.1983L165.865 29.1701L165.844 29.1445L165.46 29.4648ZM175.711 46.2906L175.282 46.5472L175.286 46.5532L175.711 46.2906ZM175.711 46.2909L176.141 46.0343L176.137 46.0282L175.711 46.2909ZM188.807 67.0698L189.298 66.9726L189.277 66.8667L189.214 66.779L188.807 67.0698ZM188.452 68.2016L188.114 67.8333L188.009 67.9298L187.97 68.0674L188.452 68.2016ZM188.432 68.2715L188.914 68.4057L188.914 68.4057L188.432 68.2715ZM180.984 94.9985L180.502 94.8642L180.47 94.979L180.493 95.0958L180.984 94.9985ZM178.903 92.0762L179.38 92.226L179.383 92.2172L179.385 92.2082L178.903 92.0762ZM185.322 68.6199L185.804 68.7518L184.841 68.485L185.322 68.6199ZM181.41 82.5842L180.929 82.4493L181.41 82.5842ZM178.794 91.9231L179.276 92.058L178.794 91.9231ZM145.148 90.5293L145.054 91.0204L145.148 90.5293ZM81.308 79.7278L81.2462 80.2239L81.2469 80.224L81.308 79.7278ZM81.3014 79.7269L81.3631 79.2308L81.3625 79.2307L81.3014 79.7269ZM71.1606 78.8173L71.1978 78.3185L71.1854 78.3179L71.1606 78.8173ZM71.1603 78.8173L71.1231 79.316L71.1355 79.3167L71.1603 78.8173ZM61.0515 77.9046L61.1139 77.4085L60.8215 77.3717L60.6477 77.6097L61.0515 77.9046ZM57.5204 82.7874L57.1138 82.4963L57.1127 82.4979L57.5204 82.7874ZM56.094 83.3161L56.1411 82.8183L56.1365 82.8179L56.094 83.3161ZM55.6732 83.2803L55.7156 82.7821L55.7156 82.7821L55.6732 83.2803ZM46.3307 82.487L46.2877 82.9851L46.2885 82.9852L46.3307 82.487ZM43.7262 81.2628L44.0453 80.8777L44.0428 80.8757L43.7262 81.2628ZM37.4304 76.1101L37.7472 75.7233L37.745 75.7215L37.4304 76.1101ZM34.7817 74.8919L34.7426 75.3904L34.7432 75.3905L34.7817 74.8919ZM26.7151 74.2915L26.6783 74.7902L26.6799 74.7903L26.7151 74.2915ZM22.267 71.0351L21.8264 71.2715L21.8268 71.2723L22.267 71.0351ZM2.47458 33.8051L2.03157 34.037L2.03179 34.0374L2.47458 33.8051ZM1.41826 31.7873L0.93679 31.6525L0.883268 31.8435L0.97532 32.0193L1.41826 31.7873ZM2.28473 28.6941L2.29381 28.1942L1.90748 28.1872L1.80326 28.5593L2.28473 28.6941ZM2.5284 28.7109L2.47053 29.2076L2.89468 29.257L3.00986 28.8458L2.5284 28.7109ZM5.49265 18.129L5.01119 17.9941L5.49265 18.129ZM9.40353 4.1677L8.92206 4.03283L9.40353 4.1677ZM10.294 1.27896C10.5683 1.31092 10.8165 1.11448 10.8485 0.840195C10.8805 0.565909 10.684 0.317643 10.4097 0.28568L10.294 1.27896ZM40.6859 11.6514C40.4126 11.6118 40.159 11.8014 40.1195 12.0747C40.0799 12.3479 40.2695 12.6015 40.5428 12.6411L40.6859 11.6514ZM48.9301 13.349L49.0033 12.8544L49.0017 12.8542L48.9301 13.349ZM55.555 14.834C55.8282 14.8744 56.0824 14.6857 56.1228 14.4125C56.1631 14.1394 55.9744 13.8852 55.7013 13.8448L55.555 14.834ZM9.40353 4.1677L9.8465 3.93582L9.84647 3.93575L9.40353 4.1677ZM10.298 5.87651L9.85502 6.10842L9.85815 6.11421L10.298 5.87651ZM81.2462 80.2239C81.5202 80.2581 81.77 80.0636 81.8041 79.7895C81.8383 79.5155 81.6438 79.2657 81.3697 79.2316L81.2462 80.2239ZM81.3631 79.2308C81.0891 79.1967 80.8393 79.3912 80.8052 79.6652C80.7711 79.9392 80.9656 80.189 81.2396 80.2231L81.3631 79.2308ZM47.8213 50.2834L47.5045 50.6703L47.5087 50.6737L47.8213 50.2834ZM46.006 48.7973L45.6892 49.1842L45.6893 49.1842L46.006 48.7973ZM45.2539 48.1815L45.5707 47.7946L45.54 47.7695L45.5057 47.7495L45.2539 48.1815ZM55.0751 54.6364L55.0329 55.1346L55.1206 54.1384L55.0751 54.6364ZM54.1542 54.5583L54.1964 54.0601L54.1119 55.0565L54.1542 54.5583ZM5.05118 18.3637C5.18081 18.6075 5.48356 18.7001 5.72738 18.5704C5.9712 18.4408 6.06377 18.1381 5.93413 17.8942L5.05118 18.3637ZM2.28473 28.6941L2.27563 29.1941L2.66197 29.2011L2.76619 28.829L2.28473 28.6941ZM0.97488 32.0184C1.10253 32.2633 1.40451 32.3583 1.64938 32.2307C1.89425 32.1031 1.98928 31.8011 1.86163 31.5562L0.97488 32.0184ZM178.495 92.3653C178.655 92.5906 178.967 92.6438 179.192 92.4842C179.417 92.3245 179.47 92.0124 179.311 91.7871L178.495 92.3653ZM179.202 91.634C179.043 91.4087 178.731 91.3555 178.505 91.5151C178.28 91.6748 178.227 91.9869 178.386 92.2122L179.202 91.634ZM21.7936 70.874C21.7047 71.1355 21.8445 71.4195 22.1059 71.5084C22.3673 71.5974 22.6514 71.4576 22.7403 71.1962L21.7936 70.874ZM44.3501 47.6934C44.4394 47.4321 44.3 47.1479 44.0387 47.0586C43.7774 46.9693 43.4932 47.1087 43.4039 47.37L44.3501 47.6934ZM43.6073 48.3208L43.1341 48.1591L43.1324 48.1644L43.6073 48.3208ZM42.9831 51.8058C43.0722 51.5444 42.9325 51.2603 42.6711 51.1712C42.4097 51.0821 42.1256 51.2218 42.0365 51.4831L42.9831 51.8058ZM38.6383 63.0028L38.165 62.8418L39.1116 63.1641L38.6383 63.0028ZM42.8923 50.491L43.3657 50.652L43.3672 50.6475L42.8923 50.491ZM39.9259 59.2157L39.4526 59.0548L39.9259 59.2157ZM35.4098 71.4173C35.324 71.6798 35.4672 71.9621 35.7297 72.0479C35.9921 72.1338 36.2745 71.9906 36.3603 71.7281L35.4098 71.4173ZM34.2589 74.8761C34.1717 75.1382 34.3135 75.4212 34.5755 75.5084C34.8376 75.5955 35.1206 75.4538 35.2078 75.1917L34.2589 74.8761ZM37.0807 69.5611C37.1678 69.2991 37.0261 69.016 36.7641 68.9289C36.502 68.8417 36.219 68.9835 36.1318 69.2455L37.0807 69.5611ZM43.2488 81.1144C43.1668 81.3781 43.3141 81.6583 43.5779 81.7402C43.8416 81.8222 44.1218 81.6748 44.2037 81.4111L43.2488 81.1144ZM51.7857 55.3288L51.3171 55.1546L51.3123 55.1674L51.3083 55.1804L51.7857 55.3288ZM55.1419 54.4633C54.8805 54.3743 54.5965 54.5141 54.5075 54.7756C54.4186 55.037 54.5584 55.321 54.8198 55.41L55.1419 54.4633ZM55.0474 54.9593L55.5236 55.1116L55.6732 54.644L55.2085 54.4859L55.0474 54.9593ZM46.2409 82.4905L45.7646 82.3381L45.5733 82.9363L46.1991 82.9887L46.2409 82.4905ZM56.0516 83.8143C56.3268 83.8378 56.5688 83.6337 56.5922 83.3586C56.6157 83.0834 56.4116 82.8414 56.1365 82.8179L56.0516 83.8143ZM63.9175 55.3875L64.397 55.5292L64.5707 54.9414L63.9599 54.8893L63.9175 55.3875ZM34.5386 46.3629L34.3071 46.8061L34.4004 46.8548L34.5055 46.8618L34.5386 46.3629ZM43.9195 47.4037L44.1713 46.9717L44.1312 46.9483L44.0874 46.9327L43.9195 47.4037ZM42.6421 46.4176C42.382 46.3249 42.096 46.4606 42.0033 46.7208C41.9106 46.9809 42.0463 47.2669 42.3064 47.3596L42.6421 46.4176ZM42.4763 47.3898C42.7518 47.4081 42.99 47.1995 43.0082 46.924C43.0265 46.6484 42.8179 46.4103 42.5424 46.392L42.4763 47.3898ZM54.1623 54.5531L53.9924 55.0233L54.0528 55.0452L54.1169 55.051L54.1623 54.5531ZM65.3438 54.8588L65.5149 55.3286L65.6591 55.2761L65.749 55.1518L65.3438 54.8588ZM68.8749 49.9759L68.7093 49.5042L68.5615 49.5561L68.4697 49.683L68.8749 49.9759ZM70.3264 49.4664L70.3885 48.9702L70.2718 48.9556L70.1608 48.9946L70.3264 49.4664ZM76.6865 50.7656C76.9606 50.7999 77.2105 50.6055 77.2447 50.3315C77.279 50.0575 77.0846 49.8076 76.8106 49.7733L76.6865 50.7656ZM76.8546 49.7793C76.5823 49.7333 76.3242 49.9167 76.2782 50.189C76.2322 50.4612 76.4156 50.7193 76.6879 50.7653L76.8546 49.7793ZM185.322 68.6199L185.239 69.1129L185.267 69.1177L185.297 69.1192L185.322 68.6199ZM188.758 68.6507C188.968 68.4707 188.992 68.155 188.812 67.9456C188.632 67.7362 188.316 67.7123 188.106 67.8923L188.758 68.6507ZM28.4674 2.68864C22.4421 1.87101 16.4252 1.07031 10.4165 0.286518L10.2872 1.27812C16.2941 2.06168 22.3094 2.86216 28.333 3.67955L28.4674 2.68864ZM31.9464 4.57448C30.8697 3.57046 29.5868 2.84016 28.4673 2.68861L28.3331 3.67958C29.1726 3.7932 30.2722 4.3806 31.2644 5.30582L31.9464 4.57448ZM37.8104 10.0663C35.855 8.23924 33.9008 6.40899 31.9476 4.5756L31.2632 5.30471C33.2169 7.13862 35.1717 8.96938 37.1276 10.797L37.8104 10.0663ZM40.6854 11.6513C39.8533 11.5318 38.7676 10.9566 37.8095 10.0655L37.1285 10.7978C38.1763 11.7723 39.4418 12.483 40.5433 12.6412L40.6854 11.6513ZM49.0017 12.8542L40.6859 11.6514L40.5428 12.6411L48.8586 13.8439L49.0017 12.8542ZM55.7013 13.8448L49.0033 12.8544L48.857 13.8437L55.555 14.834L55.7013 13.8448ZM56.7817 13.5798C56.657 13.765 56.3404 13.9425 55.7037 13.8451L55.5525 14.8336C56.3818 14.9604 57.1805 14.7781 57.6113 14.1382L56.7817 13.5798ZM59.9605 8.83142C58.9027 10.4084 57.8428 11.9916 56.7807 13.5812L57.6122 14.1368C58.6739 12.5477 59.7335 10.9649 60.7909 9.38848L59.9605 8.83142ZM61.9931 8.1476C61.1809 8.02541 60.3942 8.18709 59.9609 8.83075L60.7905 9.38915C60.9126 9.20773 61.2094 9.04094 61.8443 9.13647L61.9931 8.1476ZM89.6001 12.4278C80.3338 10.9511 71.1315 9.5244 61.9932 8.14761L61.8442 9.13645C70.9797 10.5128 80.1792 11.9391 89.4427 13.4153L89.6001 12.4278ZM159.217 24.8638C135.537 20.504 112.334 16.359 89.6066 12.4289L89.4362 13.4143C112.16 17.3438 135.36 21.4881 159.036 25.8473L159.217 24.8638ZM165.844 29.1445C165.017 28.1538 163.871 27.1886 162.691 26.4234C161.517 25.662 160.266 25.07 159.223 24.8649L159.03 25.8461C159.897 26.0166 161.025 26.5351 162.147 27.2624C163.262 27.986 164.327 28.8877 165.076 29.7852L165.844 29.1445ZM176.14 46.034C173.001 40.7825 169.621 35.1294 165.883 29.1983L165.037 29.7314C168.768 35.6512 172.142 41.2946 175.282 46.5472L176.14 46.034ZM176.137 46.0282L176.137 46.028L175.286 46.5532L175.286 46.5535L176.137 46.0282ZM189.214 66.779C185.127 61.0656 180.915 54.0198 176.141 46.0343L175.282 46.5474C180.05 54.522 184.285 61.607 188.401 67.3607L189.214 66.779ZM188.79 68.57C189.23 68.1661 189.423 67.6044 189.298 66.9726L188.317 67.1671C188.375 67.4601 188.294 67.6677 188.114 67.8333L188.79 68.57ZM188.914 68.4057L188.933 68.3358L187.97 68.0674L187.951 68.1373L188.914 68.4057ZM181.465 95.1327L188.914 68.4057L187.951 68.1373L180.502 94.8642L181.465 95.1327ZM177.397 97.038C178.537 97.2753 179.588 97.2286 180.351 96.8924C180.737 96.7223 181.07 96.4676 181.281 96.1162C181.497 95.7575 181.561 95.3396 181.474 94.9012L180.493 95.0958C180.537 95.3143 180.5 95.4749 180.425 95.6004C180.345 95.733 180.195 95.8681 179.947 95.9774C179.442 96.2002 178.621 96.2715 177.601 96.059L177.397 97.038ZM178.426 91.9264L177.022 96.3987L177.976 96.6983L179.38 92.226L178.426 91.9264ZM184.84 68.4879L178.421 91.9442L179.385 92.2082L185.804 68.7518L184.84 68.4879ZM181.892 82.719L185.804 68.7547L184.841 68.485L180.929 82.4493L181.892 82.719ZM179.276 92.058L181.892 82.719L180.929 82.4493L178.313 91.7882L179.276 92.058ZM177.98 96.6834L179.276 92.058L178.313 91.7882L177.017 96.4136L177.98 96.6834ZM145.054 91.0204C155.672 93.046 166.467 95.1055 177.412 97.0408L177.586 96.0561C166.649 94.1221 155.86 92.0639 145.242 90.0382L145.054 91.0204ZM81.2469 80.224C101.595 82.7297 122.937 86.801 145.054 91.0204L145.242 90.0382C123.131 85.82 101.756 81.742 81.3691 79.2315L81.2469 80.224ZM81.2396 80.2231L81.2462 80.2239L81.3697 79.2316L81.3631 79.2308L81.2396 80.2231ZM71.1235 79.3159C74.6027 79.5752 78.0896 79.8352 81.2403 80.2232L81.3625 79.2307C78.1834 78.8392 74.6714 78.5776 71.1978 78.3187L71.1235 79.3159ZM71.1355 79.3167L71.1358 79.3167L71.1854 78.3179L71.1851 78.3179L71.1355 79.3167ZM60.989 78.4007C64.1034 78.7928 67.6098 79.054 71.1231 79.3159L71.1975 78.3187C67.6777 78.0563 64.1982 77.7968 61.1139 77.4085L60.989 78.4007ZM57.9269 83.0785C59.0936 81.4489 60.2697 79.8226 61.4552 78.1995L60.6477 77.6097C59.4603 79.2353 58.2823 80.8642 57.1138 82.4963L57.9269 83.0785ZM56.047 83.8139C56.811 83.8861 57.5106 83.6649 57.9281 83.0769L57.1127 82.4979C56.9624 82.7097 56.6666 82.868 56.1411 82.8184L56.047 83.8139ZM55.6307 83.7785L56.0516 83.8143L56.1365 82.8179L55.7156 82.7821L55.6307 83.7785ZM46.2885 82.9852C49.3997 83.2486 52.5138 83.5131 55.6308 83.7785L55.7156 82.7821C52.5985 82.5167 49.4842 82.2522 46.3729 81.9888L46.2885 82.9852ZM43.4072 81.6478C44.3225 82.4062 45.3649 82.9055 46.2877 82.9851L46.3737 81.9888C45.7162 81.9321 44.8604 81.5532 44.0453 80.8777L43.4072 81.6478ZM37.1137 76.4969C39.2176 78.2199 41.3162 79.9375 43.4097 81.6498L44.0428 80.8757C41.9495 79.1635 39.851 77.4461 37.7472 75.7233L37.1137 76.4969ZM34.7432 75.3905C35.4116 75.442 36.2859 75.8269 37.1158 76.4987L37.745 75.7215C36.8192 74.972 35.7574 74.4657 34.8201 74.3934L34.7432 75.3905ZM26.6799 74.7903C29.3676 74.9798 32.0551 75.1798 34.7426 75.3904L34.8207 74.3935C32.1306 74.1827 29.4405 73.9824 26.7503 73.7928L26.6799 74.7903ZM21.8268 71.2723C22.3239 72.195 23.1036 73.0347 23.9587 73.6597C24.8081 74.2804 25.7803 74.724 26.6783 74.7902L26.7519 73.7929C26.1042 73.7451 25.3088 73.4077 24.5487 72.8523C23.7945 72.3011 23.1229 71.5696 22.7071 70.7979L21.8268 71.2723ZM2.03179 34.0374C9.03769 47.3944 15.2196 58.9601 21.8264 71.2715L22.7075 70.7987C16.1013 58.4882 9.92108 46.9257 2.91737 33.5729L2.03179 34.0374ZM0.97532 32.0193C1.32532 32.6876 1.67741 33.3602 2.03157 34.037L2.91759 33.5733C2.56337 32.8964 2.21124 32.2238 1.86119 31.5554L0.97532 32.0193ZM1.80326 28.5593L0.93679 31.6525L1.89972 31.9222L2.76619 28.829L1.80326 28.5593ZM2.58626 28.2143C2.48684 28.2027 2.38929 28.196 2.29381 28.1942L2.27564 29.1941C2.33642 29.1952 2.40135 29.1995 2.47053 29.2076L2.58626 28.2143ZM5.01119 17.9941L2.04693 28.5761L3.00986 28.8458L5.97412 18.2638L5.01119 17.9941ZM8.92206 4.03283L5.01119 17.9941L5.97412 18.2638L9.88499 4.30257L8.92206 4.03283ZM9.87038 0.647449L8.92206 4.03283L9.88499 4.30257L10.8333 0.917187L9.87038 0.647449ZM9.68509 3.62757C9.21519 2.72615 9.16312 2.06823 9.29349 1.70776C9.35321 1.54263 9.45178 1.43237 9.58934 1.36208C9.73525 1.28753 9.96172 1.24024 10.294 1.27896L10.4097 0.28568C9.93932 0.23086 9.50187 0.283798 9.13434 0.471591C8.75847 0.663646 8.49409 0.977844 8.35311 1.36765C8.08207 2.11703 8.27758 3.09083 8.79833 4.08982L9.68509 3.62757ZM40.5428 12.6411L48.8586 13.8439L49.0017 12.8542L40.6859 11.6514L40.5428 12.6411ZM48.857 13.8437L55.555 14.834L55.7013 13.8448L49.0033 12.8544L48.857 13.8437ZM8.79877 4.09065L8.96058 4.39965L9.84647 3.93575L9.68465 3.62674L8.79877 4.09065ZM10.741 5.64463L9.8465 3.93582L8.96055 4.39959L9.85505 6.1084L10.741 5.64463ZM81.3697 79.2316L81.3631 79.2308L81.2396 80.2231L81.2462 80.2239L81.3697 79.2316ZM48.138 49.8965L46.3227 48.4104L45.6893 49.1842L47.5046 50.6703L48.138 49.8965ZM46.3228 48.4105L45.5707 47.7946L44.9371 48.5683L45.6892 49.1842L46.3228 48.4105ZM55.1173 54.1381L54.1964 54.0601L54.112 55.0566L55.0329 55.1346L55.1173 54.1381ZM8.76024 3.72383L4.84852 17.6881L5.81145 17.9579L9.72318 3.99356L8.76024 3.72383ZM5.93413 17.8942L5.77146 17.5883L4.88851 18.0577L5.05118 18.3637L5.93413 17.8942ZM4.84852 17.6881L1.80326 28.5593L2.76619 28.829L5.81145 17.9579L4.84852 17.6881ZM1.86163 31.5562C1.4182 30.7055 1.3449 30.0665 1.45163 29.6934C1.50152 29.519 1.58875 29.4042 1.70136 29.3286C1.8183 29.2501 2.00046 29.1891 2.27563 29.1941L2.29382 28.1942C1.8642 28.1864 1.46833 28.2806 1.144 28.4983C0.815344 28.7189 0.59806 29.0414 0.490202 29.4184C0.281439 30.1481 0.479695 31.0685 0.97488 32.0184L1.86163 31.5562ZM179.311 91.7871L179.202 91.634L178.386 92.2122L178.495 92.3653L179.311 91.7871ZM30.7734 44.4828L21.7936 70.874L22.7403 71.1962L31.7201 44.8049L30.7734 44.4828ZM43.4039 47.37L43.1341 48.1591L44.0804 48.4825L44.3501 47.6934L43.4039 47.37ZM42.0365 51.4831L38.1651 62.8415L39.1116 63.1641L42.9831 51.8058L42.0365 51.4831ZM43.1324 48.1644L42.4174 50.3346L43.3672 50.6475L44.0821 48.4773L43.1324 48.1644ZM39.1117 63.1637L40.3993 59.3767L39.4526 59.0548L38.165 62.8418L39.1117 63.1637ZM40.3993 59.3767L43.3657 50.652L42.4189 50.3301L39.4526 59.0548L40.3993 59.3767ZM36.3603 71.7281L40.4012 59.3711L39.4507 59.0603L35.4098 71.4173L36.3603 71.7281ZM35.2078 75.1917L37.0807 69.5611L36.1318 69.2455L34.2589 74.8761L35.2078 75.1917ZM44.2037 81.4111L52.2632 55.4772L51.3083 55.1804L43.2488 81.1144L44.2037 81.4111ZM52.2544 55.503L52.79 54.0619L51.8527 53.7136L51.3171 55.1546L52.2544 55.503ZM54.8198 55.41L54.8863 55.4326L55.2085 54.4859L55.1419 54.4633L54.8198 55.41ZM54.5712 54.8069L45.7646 82.3381L46.7171 82.6428L55.5236 55.1116L54.5712 54.8069ZM46.1991 82.9887L55.6315 83.7786L55.7149 82.782L46.2826 81.9922L46.1991 82.9887ZM55.6307 83.7785L56.0516 83.8143L56.1365 82.8179L55.7156 82.7821L55.6307 83.7785ZM63.438 55.2458L55.1937 83.1386L56.1527 83.422L64.397 55.5292L63.438 55.2458ZM9.85815 6.11421L30.8069 44.8815L31.6867 44.4061L10.7379 5.63881L9.85815 6.11421ZM31.0153 45.087L34.3071 46.8061L34.77 45.9197L31.4783 44.2006L31.0153 45.087ZM44.0874 46.9327L42.6421 46.4176L42.3064 47.3596L43.7517 47.8747L44.0874 46.9327ZM34.5055 46.8618L42.4763 47.3898L42.5424 46.392L34.5716 45.864L34.5055 46.8618ZM43.6678 47.8357L45.0021 48.6135L45.5057 47.7495L44.1713 46.9717L43.6678 47.8357ZM52.6339 53.4975L48.1339 49.8932L47.5087 50.6737L52.0088 54.278L52.6339 53.4975ZM52.1514 54.358L53.9924 55.0233L54.3323 54.0828L52.4913 53.4175L52.1514 54.358ZM54.1169 55.051L55.0297 55.1343L55.1206 54.1384L54.2077 54.0551L54.1169 55.051ZM63.9599 54.8893L63.9389 54.8875L63.854 55.8839L63.875 55.8857L63.9599 54.8893ZM63.9387 54.8875L54.1965 54.0601L54.1119 55.0565L63.8541 55.8839L63.9387 54.8875ZM65.1728 54.3889L63.7254 54.9159L64.0675 55.8555L65.5149 55.3286L65.1728 54.3889ZM65.749 55.1518L69.2801 50.2689L68.4697 49.683L64.9387 54.5658L65.749 55.1518ZM70.1608 48.9946L68.7093 49.5042L69.0405 50.4477L70.492 49.9381L70.1608 48.9946ZM70.2644 49.9625L76.6865 50.7656L76.8106 49.7733L70.3885 48.9702L70.2644 49.9625ZM76.6879 50.7653L185.239 69.1129L185.405 68.1268L76.8546 49.7793L76.6879 50.7653ZM185.297 69.1192C186.301 69.1708 187.006 69.1808 187.523 69.123C188.056 69.0632 188.438 68.9261 188.758 68.6507L188.106 67.8923C187.987 67.9947 187.82 68.0834 187.411 68.1292C186.985 68.1769 186.355 68.1722 185.348 68.1205L185.297 69.1192Z" fill="#29375B"/>
</svg>
