<svg width="140" height="63" viewBox="0 0 195 93" fill="none" xmlns="http://www.w3.org/2000/svg">
<path fill-rule="evenodd" clip-rule="evenodd" d="M2.20399 25.7113C8.14399 24.518 14.0973 23.338 20.064 22.1713C21.034 21.9813 22.374 22.2213 23.664 22.8013C26.104 23.908 28.544 25.0113 30.984 26.1113C32.234 26.6713 33.554 26.9013 34.514 26.7213L42.774 25.1813L49.434 23.9613C50.164 23.8313 50.634 23.4813 50.764 23.0013C51.2573 21.1547 51.7507 19.3147 52.244 17.4813C52.374 17.0013 52.834 16.6713 53.554 16.5413C62.6473 14.9013 71.8173 13.288 81.064 11.7013C103.844 8.10132 127.144 4.55132 150.964 1.05132C152.894 0.791323 156.184 1.62132 158.284 2.90132C163.728 7.30801 168.744 11.5675 173.409 15.5281L173.409 15.5283C180.496 21.5462 186.771 26.8744 192.5 30.9813C192.736 31.3896 192.73 31.7978 192.528 32.1672L192.532 32.2397L194.09 59.9414C194.76 61.1014 193.48 62.2614 191.29 62.5314L191.179 57.8452L189.7 33.5713L190.495 48.0514L191.027 57.7352L191.29 62.5314C180.31 64.224 169.429 65.7513 158.725 67.2539C136.43 70.3834 114.898 73.406 94.8081 77.5924L94.8015 77.5937C91.6798 78.2442 88.2829 79.1246 84.9083 79.9991L84.908 79.9992C81.4944 80.8838 78.1038 81.7625 75.044 82.3914C74.444 84.3114 73.854 86.2314 73.274 88.1514C73.134 88.6214 72.724 88.9614 72.094 89.1114L71.684 89.2131C68.6476 89.9658 65.6142 90.7186 62.5839 91.4714C61.8139 91.6614 60.7739 91.5514 59.7239 91.1514C57.1906 90.2048 54.6506 89.2547 52.1039 88.3014C51.0439 87.9114 49.9839 87.8014 49.2039 88.0014C46.5906 88.6681 43.9806 89.3447 41.3739 90.0314C39.8739 90.4214 37.5239 89.6914 36.1139 88.3814C25.8939 78.8547 16.3173 69.8981 5.38395 59.5114C4.83062 58.9847 4.28062 58.4614 3.73395 57.9414L3.55786 54.734C3.63228 54.7102 3.71098 54.6893 3.79395 54.6714L3.19153 43.6986L2.39672 29.2217L2.20399 25.7113Z" fill="#FCDD6B"/>
<path d="M20.064 22.1713L20.1599 22.662L20.1601 22.662L20.064 22.1713ZM2.20399 25.7113L2.10551 25.2211L1.68101 25.3064L1.70474 25.7387L2.20399 25.7113ZM23.664 22.8013L23.8705 22.346L23.869 22.3453L23.664 22.8013ZM30.984 26.1113L30.7785 26.5671L30.7796 26.5676L30.984 26.1113ZM34.514 26.7213L34.4223 26.2298L34.4218 26.2299L34.514 26.7213ZM42.774 25.1813L42.6839 24.6895L42.6824 24.6898L42.774 25.1813ZM49.434 23.9613L49.3463 23.4691L49.3439 23.4695L49.434 23.9613ZM50.764 23.0013L51.2466 23.132L51.2471 23.1304L50.764 23.0013ZM52.244 17.4813L51.7614 17.3506L51.7612 17.3514L52.244 17.4813ZM53.554 16.5413L53.4652 16.0493L53.4651 16.0493L53.554 16.5413ZM81.064 11.7013L80.9859 11.2074L80.9794 11.2085L81.064 11.7013ZM150.964 1.05132L150.897 0.555764L150.891 0.556635L150.964 1.05132ZM158.284 2.90132L158.599 2.51269L158.573 2.49172L158.544 2.47438L158.284 2.90132ZM173.409 15.5281L173.085 15.9093L173.09 15.9138L173.409 15.5281ZM173.409 15.5283L173.733 15.1472L173.727 15.1426L173.409 15.5283ZM192.5 30.9813L192.933 30.7312L192.879 30.6378L192.791 30.5749L192.5 30.9813ZM192.528 32.1672L192.089 31.9275L192.021 32.0528L192.029 32.1953L192.528 32.1672ZM192.532 32.2397L193.031 32.2116V32.2116L192.532 32.2397ZM194.09 59.9414L193.591 59.9695L193.597 60.0884L193.657 60.1915L194.09 59.9414ZM191.179 57.8452L191.679 57.8333L191.678 57.8241L191.678 57.8148L191.179 57.8452ZM189.7 33.5713L190.199 33.5409L189.201 33.5987L189.7 33.5713ZM190.495 48.0514L189.996 48.0788L190.495 48.0514ZM191.027 57.7352L191.526 57.7078L191.027 57.7352ZM158.725 67.2539L158.794 67.7491L158.725 67.2539ZM94.8081 77.5924L94.9094 78.082L94.9101 78.0818L94.8081 77.5924ZM94.8015 77.5937L94.7002 77.1041L94.6995 77.1042L94.8015 77.5937ZM84.9083 79.9991L84.7828 79.5149L84.7709 79.5183L84.9083 79.9991ZM84.908 79.9992L85.0334 80.4833L85.0453 80.4799L84.908 79.9992ZM75.044 82.3914L74.9433 81.9016L74.6546 81.961L74.5667 82.2423L75.044 82.3914ZM73.274 88.1514L72.7953 88.0068L72.7948 88.0087L73.274 88.1514ZM72.094 89.1114L71.9782 88.625L71.9737 88.6261L72.094 89.1114ZM71.684 89.2131L71.5637 88.7277H71.5637L71.684 89.2131ZM62.5839 91.4714L62.7037 91.9569L62.7045 91.9567L62.5839 91.4714ZM59.7239 91.1514L59.9019 90.6842L59.899 90.683L59.7239 91.1514ZM52.1039 88.3014L52.2792 87.8331L52.2766 87.8322L52.1039 88.3014ZM49.2039 88.0014L49.3275 88.4859L49.3281 88.4857L49.2039 88.0014ZM41.3739 90.0314L41.4998 90.5153L41.5013 90.5149L41.3739 90.0314ZM36.1139 88.3814L35.773 88.7471L35.7736 88.7477L36.1139 88.3814ZM5.38395 59.5114L5.03924 59.8736L5.03958 59.8739L5.38395 59.5114ZM3.73395 57.9414L3.2347 57.9688L3.24558 58.1669L3.38935 58.3037L3.73395 57.9414ZM3.55786 54.734L3.40542 54.2578L3.03743 54.3756L3.05861 54.7614L3.55786 54.734ZM3.79395 54.6714L3.89915 55.1602L4.31661 55.0704L4.2932 54.644L3.79395 54.6714ZM3.19153 43.6986L2.69228 43.726L3.19153 43.6986ZM2.39672 29.2217L1.89747 29.2491L2.39672 29.2217ZM2.30918 26.2001C2.57914 26.142 2.7509 25.8761 2.6928 25.6061C2.63471 25.3362 2.36877 25.1644 2.09881 25.2225L2.30918 26.2001ZM34.4223 26.2298C34.1509 26.2804 33.9718 26.5415 34.0225 26.813C34.0731 27.0844 34.3342 27.2635 34.6056 27.2129L34.4223 26.2298ZM42.774 25.1813L42.6839 24.6895L42.6824 24.6898L42.774 25.1813ZM49.5241 24.4531C49.7957 24.4034 49.9756 24.1429 49.9258 23.8712C49.8761 23.5996 49.6155 23.4198 49.3439 23.4695L49.5241 24.4531ZM2.39672 29.2217L2.74139 28.8595L2.74134 28.8595L2.39672 29.2217ZM3.79399 30.5513L3.44929 30.9136L3.45412 30.9181L3.79399 30.5513ZM94.9094 78.082C95.1798 78.026 95.3537 77.7614 95.2977 77.491C95.2417 77.2206 94.9771 77.0468 94.7067 77.1027L94.9094 78.082ZM94.7002 77.1041C94.4298 77.1601 94.2559 77.4247 94.3119 77.6951C94.3679 77.9655 94.6325 78.1393 94.9029 78.0833L94.7002 77.1041ZM53.6216 60.5042L53.4464 60.9726L53.4514 60.9744L53.6216 60.5042ZM51.4244 59.6821L51.2491 60.1504L51.2492 60.1504L51.4244 59.6821ZM50.514 59.3413L50.6893 58.8731L50.6521 58.8591L50.6132 58.8513L50.514 59.3413ZM61.891 62.2885L62.0115 62.7738L61.7736 61.8025L61.891 62.2885ZM60.994 62.5113L60.8735 62.0261L61.1144 62.9966L60.994 62.5113ZM2.84919 44.063C3.05046 44.2521 3.36689 44.2422 3.55595 44.0409C3.74502 43.8397 3.73513 43.5233 3.53386 43.3342L2.84919 44.063ZM3.55786 54.734L3.71029 55.2102L4.07829 55.0924L4.05711 54.7066L3.55786 54.734ZM3.38866 58.303C3.58838 58.4937 3.90488 58.4864 4.09558 58.2867C4.28628 58.087 4.27897 57.7705 4.07925 57.5798L3.38866 58.303ZM190.886 58.2503C191.109 58.4122 191.422 58.362 191.584 58.1383C191.746 57.9146 191.696 57.602 191.472 57.4401L190.886 58.2503ZM191.32 57.3301C191.096 57.1682 190.783 57.2184 190.622 57.4421C190.46 57.6658 190.51 57.9784 190.734 58.1403L191.32 57.3301ZM35.6139 88.3814C35.6139 88.6575 35.8378 88.8814 36.1139 88.8814C36.3901 88.8814 36.6139 88.6575 36.6139 88.3814H35.6139ZM49.5012 59.1704C49.5016 58.8943 49.278 58.6701 49.0019 58.6697C48.7257 58.6693 48.5016 58.8929 48.5012 59.169L49.5012 59.1704ZM49 60.0037L48.5 60.003L48.5 60.0085L49 60.0037ZM49.5317 63.5039C49.5318 63.2278 49.3081 63.0038 49.0319 63.0037C48.7558 63.0035 48.5318 63.2273 48.5317 63.5034L49.5317 63.5039ZM49.0253 75.5037L48.5253 75.5038L49.5253 75.5039L49.0253 75.5037ZM49.0223 62.2885L49.5223 62.2884L49.5222 62.2836L49.0223 62.2885ZM49.0244 71.5037L48.5244 71.5038L49.0244 71.5037ZM48.6794 84.5096C48.6827 84.7857 48.9092 85.0069 49.1853 85.0036C49.4614 85.0003 49.6826 84.7738 49.6793 84.4977L48.6794 84.5096ZM48.704 88.1548C48.7059 88.431 48.9312 88.6533 49.2074 88.6514C49.4835 88.6495 49.7058 88.4241 49.7039 88.148L48.704 88.1548ZM49.6633 82.2142C49.6614 81.938 49.436 81.7157 49.1598 81.7176C48.8837 81.7195 48.6614 81.9449 48.6633 82.221L49.6633 82.2142ZM59.2241 91.1647C59.2315 91.4408 59.4612 91.6586 59.7373 91.6512C60.0133 91.6439 60.2311 91.4141 60.2238 91.1381L59.2241 91.1647ZM59 64.0037L58.5002 63.9897L58.4998 64.0034L58.5002 64.017L59 64.0037ZM61.8985 62.1032C61.6223 62.1032 61.3985 62.327 61.3985 62.6032C61.3985 62.8793 61.6223 63.1032 61.8985 63.1032V62.1032ZM61.9687 62.6032L62.4687 62.594L62.4596 62.1032H61.9687V62.6032ZM62.5 91.5037L62.0001 91.5128L62.0116 92.1408L62.621 91.9888L62.5 91.5037ZM72.2143 89.5967C72.4823 89.5303 72.6457 89.2591 72.5793 88.9911C72.5128 88.7231 72.2417 88.5597 71.9737 88.6261L72.2143 89.5967ZM70.504 60.1513L71.0036 60.131L70.9787 59.5185L70.3837 59.666L70.504 60.1513ZM39.784 61.0713L39.7076 61.5655L39.8117 61.5815L39.9134 61.5543L39.784 61.0713ZM49.0002 59.0349L49.0994 58.5448L49.0539 58.5356L49.0074 58.5349L49.0002 59.0349ZM47.4732 58.5128C47.1971 58.5088 46.9701 58.7295 46.9661 59.0056C46.9621 59.2817 47.1827 59.5087 47.4588 59.5127L47.4732 58.5128ZM47.6294 59.4866C47.8961 59.4151 48.0544 59.141 47.983 58.8742C47.9115 58.6075 47.6373 58.4492 47.3706 58.5207L47.6294 59.4866ZM61 62.5037L60.9906 63.0036L61.0549 63.0048L61.1174 62.9897L61 62.5037ZM71.684 59.1913L71.9973 59.581L72.1169 59.4849L72.1619 59.3382L71.684 59.1913ZM73.454 53.4313L73.1452 53.0381L73.022 53.1348L72.976 53.2845L73.454 53.4313ZM74.664 52.4813L74.5629 51.9916L74.4477 52.0154L74.3552 52.0881L74.664 52.4813ZM81.1036 51.6626C81.3741 51.6068 81.548 51.3423 81.4922 51.0718C81.4364 50.8014 81.1719 50.6274 80.9015 50.6832L81.1036 51.6626ZM80.945 50.6747C80.6724 50.7189 80.4872 50.9756 80.5313 51.2482C80.5755 51.5208 80.8322 51.706 81.1048 51.6619L80.945 50.6747ZM189.7 33.5713L189.78 34.0649L189.809 34.0602L189.837 34.0523L189.7 33.5713ZM192.963 32.4937C193.103 32.2558 193.024 31.9493 192.786 31.809C192.548 31.6687 192.242 31.7478 192.102 31.9857L192.963 32.4937ZM19.968 21.6806C14.0005 22.8474 8.04636 24.0276 2.10551 25.2211L2.30247 26.2015C8.24163 25.0084 14.1941 23.8285 20.1599 22.662L19.968 21.6806ZM23.869 22.3453C22.5263 21.7416 21.0766 21.4635 19.9679 21.6806L20.1601 22.662C20.9914 22.4992 22.2216 22.701 23.459 23.2573L23.869 22.3453ZM31.1895 25.6555C28.7498 24.5557 26.3102 23.4525 23.8705 22.346L23.4575 23.2567C25.8978 24.3635 28.3382 25.467 30.7785 26.5671L31.1895 25.6555ZM34.4218 26.2299C33.5956 26.3848 32.3825 26.19 31.1884 25.655L30.7796 26.5676C32.0855 27.1527 33.5124 27.4178 34.6061 27.2128L34.4218 26.2299ZM42.6824 24.6898L34.4223 26.2298L34.6056 27.2129L42.8656 25.6729L42.6824 24.6898ZM49.3439 23.4695L42.6839 24.6895L42.8641 25.6731L49.5241 24.4531L49.3439 23.4695ZM50.2814 22.8706C50.223 23.0861 49.9805 23.3561 49.3463 23.4691L49.5217 24.4536C50.3475 24.3065 51.045 23.8765 51.2466 23.132L50.2814 22.8706ZM51.7612 17.3514C51.2678 19.185 50.7743 21.0253 50.2809 22.8723L51.2471 23.1304C51.7403 21.284 52.2336 19.4443 52.7268 17.6112L51.7612 17.3514ZM53.4651 16.0493C52.657 16.1952 51.9642 16.6017 51.7614 17.3506L52.7266 17.612C52.7838 17.4009 53.011 17.1474 53.6428 17.0334L53.4651 16.0493ZM80.9794 11.2085C71.7314 12.7954 62.56 14.409 53.4652 16.0493L53.6427 17.0334C62.7347 15.3936 71.9033 13.7806 81.1485 12.1941L80.9794 11.2085ZM150.891 0.556635C127.07 4.05689 103.768 7.60716 80.9859 11.2075L81.142 12.1952C103.92 8.59549 127.218 5.04576 151.037 1.54601L150.891 0.556635ZM158.544 2.47438C157.442 1.80279 156.046 1.25842 154.683 0.914049C153.326 0.571359 151.951 0.413834 150.897 0.555799L151.031 1.54685C151.907 1.42881 153.142 1.55629 154.438 1.8836C155.727 2.20923 157.026 2.71985 158.024 3.32826L158.544 2.47438ZM173.732 15.147C169.068 11.1867 164.048 6.92361 158.599 2.51269L157.969 3.28996C163.408 7.69242 168.42 11.9482 173.085 15.9093L173.732 15.147ZM173.727 15.1426L173.727 15.1424L173.09 15.9138L173.091 15.914L173.727 15.1426ZM192.791 30.5749C187.082 26.4825 180.824 21.1692 173.733 15.1472L173.085 15.9095C180.167 21.9232 186.459 27.2663 192.209 31.3877L192.791 30.5749ZM192.967 32.407C193.253 31.883 193.255 31.2891 192.933 30.7312L192.067 31.2314C192.216 31.4901 192.207 31.7126 192.089 31.9275L192.967 32.407ZM193.031 32.2116L193.027 32.1392L192.029 32.1953L192.033 32.2677L193.031 32.2116ZM194.589 59.9133L193.031 32.2116L192.033 32.2677L193.591 59.9695L194.589 59.9133ZM191.351 63.0277C192.507 62.8852 193.487 62.5022 194.101 61.9383C194.411 61.653 194.645 61.3046 194.732 60.9037C194.821 60.4946 194.746 60.0784 194.523 59.6913L193.657 60.1915C193.768 60.3844 193.786 60.5483 193.754 60.6913C193.722 60.8426 193.624 61.0186 193.424 61.202C193.018 61.5757 192.263 61.9076 191.229 62.0352L191.351 63.0277ZM190.679 57.8571L190.79 62.5433L191.79 62.5195L191.679 57.8333L190.679 57.8571ZM189.201 33.6017L190.68 57.8756L191.678 57.8148L190.199 33.5409L189.201 33.6017ZM190.994 48.024L190.199 33.5439L189.201 33.5987L189.996 48.0788L190.994 48.024ZM191.526 57.7078L190.994 48.024L189.996 48.0788L190.527 57.7626L191.526 57.7078ZM191.789 62.504L191.526 57.7078L190.527 57.7626L190.791 62.5588L191.789 62.504ZM158.794 67.7491C169.498 66.2465 180.382 64.7188 191.366 63.0256L191.214 62.0372C180.237 63.7292 169.36 65.2561 158.655 66.7588L158.794 67.7491ZM94.9101 78.0818C114.981 73.8995 136.496 70.8791 158.794 67.7491L158.655 66.7588C136.364 69.8878 114.815 72.9126 94.7061 77.1029L94.9101 78.0818ZM94.9029 78.0833L94.9094 78.082L94.7067 77.1027L94.7002 77.1041L94.9029 78.0833ZM85.0337 80.4831C88.4111 79.6079 91.7958 78.7308 94.9035 78.0832L94.6995 77.1042C91.5638 77.7577 88.1547 78.6413 84.7829 79.5151L85.0337 80.4831ZM85.0453 80.4799L85.0457 80.4799L84.7709 79.5183L84.7706 79.5184L85.0453 80.4799ZM75.1446 82.8812C78.2193 82.2492 81.623 81.367 85.0334 80.4832L84.7825 79.5152C81.3659 80.4006 77.9882 81.2758 74.9433 81.9016L75.1446 82.8812ZM73.7526 88.296C74.3321 86.3775 74.9217 84.459 75.5212 82.5406L74.5667 82.2423C73.9663 84.1638 73.3758 86.0853 72.7953 88.0068L73.7526 88.296ZM72.2098 89.5978C72.9563 89.4201 73.5473 88.9853 73.7532 88.2941L72.7948 88.0087C72.7206 88.2576 72.4917 88.5027 71.9782 88.625L72.2098 89.5978ZM71.8043 89.6984L72.2143 89.5967L71.9737 88.6261L71.5637 88.7277L71.8043 89.6984ZM62.7045 91.9567C65.7347 91.2039 68.768 90.4511 71.8043 89.6984L71.5637 88.7277C68.5272 89.4805 65.4938 90.2334 62.4634 90.9862L62.7045 91.9567ZM59.5459 91.6187C60.6567 92.0418 61.8044 92.1788 62.7037 91.9569L62.4642 90.986C61.8235 91.1441 60.8912 91.061 59.9019 90.6842L59.5459 91.6187ZM51.9287 88.7697C54.4754 89.723 57.0155 90.6731 59.5489 91.6198L59.899 90.683C57.3657 89.7364 54.8258 88.7864 52.2792 87.8332L51.9287 88.7697ZM49.3281 88.4857C49.9775 88.3192 50.9292 88.402 51.9313 88.7707L52.2766 87.8322C51.1587 87.4209 49.9904 87.2836 49.0798 87.5171L49.3281 88.4857ZM41.5013 90.5149C44.1067 89.8286 46.7155 89.1522 49.3275 88.4859L49.0804 87.5169C46.4658 88.1839 43.8545 88.8609 41.2466 89.5479L41.5013 90.5149ZM35.7736 88.7477C36.5415 89.4611 37.5501 90.005 38.561 90.3211C39.565 90.6351 40.6283 90.7419 41.4998 90.5153L41.2481 89.5475C40.6196 89.7109 39.7579 89.6477 38.8594 89.3667C37.9678 89.0878 37.0964 88.6117 36.4543 88.0151L35.7736 88.7477ZM5.03958 59.8739C15.9746 70.2622 25.5526 79.2201 35.773 88.7471L36.4549 88.0157C26.2353 78.4894 16.66 69.534 5.72833 59.1489L5.03958 59.8739ZM3.38935 58.3037C3.93598 58.8237 4.48594 59.347 5.03924 59.8736L5.72867 59.1492C5.1753 58.6225 4.62526 58.0992 4.07856 57.5791L3.38935 58.3037ZM3.05861 54.7614L3.2347 57.9688L4.2332 57.914L4.05711 54.7066L3.05861 54.7614ZM3.68876 54.1826C3.5909 54.2037 3.49637 54.2287 3.40542 54.2578L3.7103 55.2102C3.76819 55.1917 3.83106 55.1749 3.89915 55.1602L3.68876 54.1826ZM2.69228 43.726L3.2947 54.6988L4.2932 54.644L3.69077 43.6712L2.69228 43.726ZM1.89747 29.2491L2.69228 43.726L3.69077 43.6712L2.89597 29.1943L1.89747 29.2491ZM1.70474 25.7387L1.89747 29.2491L2.89597 29.1943L2.70324 25.6839L1.70474 25.7387ZM2.48929 28.6197C1.75407 27.9177 1.49284 27.3116 1.50015 26.9284C1.5035 26.7528 1.56129 26.6167 1.66888 26.5058C1.783 26.3882 1.98217 26.2705 2.30918 26.2001L2.09881 25.2225C1.63582 25.3221 1.23874 25.5132 0.951288 25.8093C0.657316 26.1122 0.508236 26.4949 0.500333 26.9093C0.485141 27.706 0.98391 28.565 1.7987 29.3429L2.48929 28.6197ZM34.6056 27.2129L42.8656 25.6729L42.6824 24.6898L34.4223 26.2298L34.6056 27.2129ZM42.8641 25.6731L49.5241 24.4531L49.3439 23.4695L42.6839 24.6895L42.8641 25.6731ZM1.79938 29.3436L2.0521 29.584L2.74134 28.8595L2.48861 28.6191L1.79938 29.3436ZM4.13866 30.1891L2.74139 28.8595L2.05205 29.584L3.44932 30.9135L4.13866 30.1891ZM94.7067 77.1027L94.7002 77.1041L94.9029 78.0833L94.9094 78.082L94.7067 77.1027ZM53.7968 60.0359L51.5996 59.2138L51.2492 60.1504L53.4464 60.9725L53.7968 60.0359ZM51.5997 59.2138L50.6893 58.8731L50.3387 59.8096L51.2491 60.1504L51.5997 59.2138ZM61.7705 61.8033L60.8735 62.0261L61.1145 62.9966L62.0115 62.7738L61.7705 61.8033ZM1.64474 29.0087L2.43972 43.4888L3.43822 43.434L2.64324 28.9539L1.64474 29.0087ZM3.53386 43.3342L3.28131 43.0969L2.59664 43.8258L2.84919 44.063L3.53386 43.3342ZM2.43972 43.4888L3.05861 54.7614L4.05711 54.7066L3.43822 43.434L2.43972 43.4888ZM4.07925 57.5798C3.38543 56.9173 3.1102 56.3359 3.09106 55.9484C3.08211 55.7672 3.12769 55.6304 3.20995 55.5225C3.29537 55.4105 3.44817 55.2941 3.71029 55.2102L3.40543 54.2578C2.9962 54.3888 2.65176 54.6054 2.41485 54.916C2.17478 55.2308 2.07294 55.606 2.09228 55.9977C2.12971 56.7558 2.61387 57.5632 3.38866 58.303L4.07925 57.5798ZM191.472 57.4401L191.32 57.3301L190.734 58.1403L190.886 58.2503L191.472 57.4401ZM35.6139 60.5042V88.3814H36.6139V60.5042H35.6139ZM48.5012 59.169L48.5 60.003L49.5 60.0044L49.5012 59.1704L48.5012 59.169ZM48.5317 63.5034L48.5253 75.5034L49.5253 75.5039L49.5317 63.5039L48.5317 63.5034ZM48.5 60.0085L48.5223 62.2934L49.5222 62.2836L49.5 59.9988L48.5 60.0085ZM49.5253 75.5035L49.5244 71.5035L48.5244 71.5038L48.5253 75.5038L49.5253 75.5035ZM49.5244 71.5035L49.5223 62.2884L48.5223 62.2886L48.5244 71.5038L49.5244 71.5035ZM49.6793 84.4977L49.5244 71.4977L48.5244 71.5096L48.6794 84.5096L49.6793 84.4977ZM49.7039 88.148L49.6633 82.2142L48.6633 82.221L48.704 88.1548L49.7039 88.148ZM60.2238 91.1381L59.4998 63.9903L58.5002 64.017L59.2241 91.1647L60.2238 91.1381ZM59.4998 64.0176L59.5426 62.4808L58.543 62.4529L58.5002 63.9897L59.4998 64.0176ZM61.8985 63.1032H61.9687V62.1032H61.8985V63.1032ZM61.4688 62.6124L62.0001 91.5128L62.9999 91.4945L62.4687 62.594L61.4688 62.6124ZM62.621 91.9888L71.805 89.6982L71.563 88.7279L62.379 91.0185L62.621 91.9888ZM71.8043 89.6984L72.2143 89.5967L71.9737 88.6261L71.5637 88.7277L71.8043 89.6984ZM70.0044 60.1716L71.1844 89.2333L72.1836 89.1928L71.0036 60.131L70.0044 60.1716ZM3.45412 30.9181L35.7741 60.871L36.4538 60.1375L4.13386 30.1846L3.45412 30.9181ZM36.0376 60.9984L39.7076 61.5655L39.8603 60.5772L36.1903 60.0101L36.0376 60.9984ZM49.0074 58.5349L47.4732 58.5128L47.4588 59.5127L48.993 59.5348L49.0074 58.5349ZM39.9134 61.5543L47.6294 59.4866L47.3706 58.5207L39.6546 60.5884L39.9134 61.5543ZM48.901 59.5249L50.4148 59.8314L50.6132 58.8513L49.0994 58.5448L48.901 59.5249ZM59.213 61.9967L53.7918 60.0341L53.4514 60.9744L58.8726 62.937L59.213 61.9967ZM59.0334 62.9668L60.9906 63.0036L61.0094 62.0038L59.0522 61.967L59.0334 62.9668ZM61.1174 62.9897L62.0084 62.7745L61.7736 61.8025L60.8826 62.0177L61.1174 62.9897ZM70.3837 59.666L70.3632 59.6711L70.6038 60.6417L70.6243 60.6366L70.3837 59.666ZM70.363 59.6711L60.8736 62.026L61.1144 62.9966L70.6039 60.6417L70.363 59.6711ZM71.3707 58.8016L70.1702 59.7667L70.7967 60.5461L71.9973 59.581L71.3707 58.8016ZM72.1619 59.3382L73.9319 53.5782L72.976 53.2845L71.206 59.0445L72.1619 59.3382ZM74.3552 52.0881L73.1452 53.0381L73.7628 53.8246L74.9728 52.8746L74.3552 52.0881ZM74.7651 52.971L81.1036 51.6626L80.9015 50.6832L74.5629 51.9916L74.7651 52.971ZM81.1048 51.6619L189.78 34.0649L189.62 33.0778L80.945 50.6747L81.1048 51.6619ZM189.837 34.0523C190.804 33.7775 191.475 33.5599 191.945 33.3388C192.431 33.1105 192.748 32.8576 192.963 32.4937L192.102 31.9857C192.022 32.121 191.892 32.2588 191.52 32.4339C191.132 32.6162 190.534 32.8148 189.563 33.0903L189.837 34.0523Z" fill="#EDC052"/>
</svg>
