<svg width="145" height="20" viewBox="0 0 145 20" fill="none" xmlns="http://www.w3.org/2000/svg">
<path fill-rule="evenodd" clip-rule="evenodd" d="M68.7843 0.0507003C59.7739 0.469058 42.4729 4.31487 26.1987 9.51697C24.8863 9.93651 23.1574 10.4895 22.3566 10.7459C11.5588 14.2036 5.75162 16.3841 1.68677 18.5074C0.100387 19.336 -0.0359034 19.4365 0.00607567 19.7461C0.0673861 20.1979 0.325489 20.1281 3.26912 18.8639C6.31515 17.5557 9.04532 16.6057 16.533 14.249C41.5582 6.37227 53.2468 3.48466 66.3578 1.94015C68.927 1.63745 73.0308 1.69017 73.0308 2.02582C73.0308 2.47416 70.4569 4.00322 64.4974 7.09511C57.166 10.8989 52.7029 13.4222 52.3076 13.9868C51.6322 14.9515 52.375 15.6476 53.9825 15.5564C54.901 15.5043 55.1096 15.4648 59.3208 14.5468C71.4119 11.9111 79.1393 10.5734 89.6121 9.30306C105.561 7.36841 115.722 6.6547 134.826 6.1272C141.691 5.9377 142.046 5.91125 143.313 5.49636C143.802 5.33644 144.385 5.18014 144.61 5.14897C145.136 5.07606 145.13 4.98279 144.593 4.91402C144.36 4.88403 143.823 4.74092 143.4 4.59595C142.358 4.2385 141.667 4.21983 135.716 4.38812C115.766 4.95221 105.268 5.67361 90.0569 7.5258C82.0569 8.49989 78.4922 9.02917 72.6668 10.1078C68.6843 10.8452 58.1728 12.9919 56.7003 13.3684C55.8968 13.5739 59.3843 11.6357 65.51 8.47243C73.2586 4.47099 74.8012 3.38421 74.8084 1.92224C74.8165 0.273651 73.4082 -0.163885 68.7843 0.0507003Z" fill="#FCD95B"/>
</svg>
