<svg width="50" height="50" viewBox="0 0 50 50" fill="none" xmlns="http://www.w3.org/2000/svg">
<path d="M50 25C50 38.8071 38.8071 50 25 50C11.1929 50 0 38.8071 0 25C0 11.1929 11.1929 0 25 0C38.8071 0 50 11.1929 50 25Z" fill="white"/>
<path d="M18.1208 14.2917C18.1204 15.0652 17.8128 15.8069 17.2655 16.3536C16.7183 16.9003 15.9763 17.2073 15.2027 17.2069C14.4292 17.2065 13.6874 16.8988 13.1407 16.3516C12.594 15.8043 12.2871 15.0623 12.2875 14.2887C12.2879 13.5152 12.5955 12.7735 13.1428 12.2268C13.6901 11.6801 14.4321 11.3732 15.2056 11.3735C15.9792 11.3739 16.7209 11.6816 17.2676 12.2288C17.8143 12.7761 18.1212 13.5181 18.1208 14.2917ZM18.2083 19.3667H12.375V37.625H18.2083V19.3667ZM27.425 19.3667H21.6208V37.625H27.3667V28.0438C27.3667 22.7063 34.3229 22.2104 34.3229 28.0438V37.625H40.0833V26.0604C40.0833 17.0625 29.7875 17.3979 27.3667 21.8167L27.425 19.3667Z" fill="#29375B"/>
</svg>
