<svg width="135" height="162" viewBox="0 0 135 162" fill="none" xmlns="http://www.w3.org/2000/svg">
<path d="M54.5215 67.8412V67.7656H54.3332C54.4085 67.7656 54.4462 67.8034 54.5215 67.8412Z" fill="#465B81"/>
<path d="M112.2 54.9664L112.086 54.3569C112.162 54.5093 112.162 54.7378 112.2 54.9664ZM56.8379 62.9275L56.8383 62.9243C56.9141 62.2397 56.9899 61.5551 57.0657 60.8325C57.1796 59.9564 57.2935 59.1183 57.4834 58.2803C57.8251 56.6424 58.2808 55.0425 58.8124 53.5189C59.0023 53.0618 59.1541 52.6047 59.344 52.1857C59.7997 51.1572 60.2553 50.1287 60.7869 49.2145C61.1666 48.567 61.5463 47.9194 61.964 47.3099C63.7487 44.6435 65.989 42.3199 68.4951 40.3772C71.0771 38.3965 74.0389 36.53 77.2284 35.7682C79.3548 35.273 81.5572 34.9301 83.7595 34.8159C83.9873 34.8159 84.2152 34.8159 84.443 34.7778C84.6708 34.7778 84.8987 34.7778 85.1265 34.8159C87.3288 34.9301 89.4932 35.273 91.6575 35.7682C94.8471 36.53 97.8468 38.3584 100.391 40.3772C102.935 42.3199 105.137 44.6435 106.922 47.3099C107.34 47.9194 107.719 48.567 108.099 49.2145C108.631 50.1668 109.086 51.1572 109.542 52.1857C109.732 52.6428 109.922 53.0618 110.074 53.5189C110.605 55.0425 111.061 56.6043 111.403 58.2803C111.592 59.1183 111.706 59.9564 111.82 60.8325C111.934 61.5181 111.972 62.2038 112.048 62.9275C112.124 64.0703 112.162 65.0987 112.048 66.051L112.01 66.3558C111.972 66.889 111.554 67.3081 111.099 67.3081L57.7872 67.3081C57.2936 67.3081 56.9138 66.889 56.8759 66.3558L56.8379 66.051C56.724 65.0987 56.762 64.0703 56.8379 62.9275Z" fill="#465B81"/>
<path fill-rule="evenodd" clip-rule="evenodd" d="M112.2 54.9664L112.086 54.3569C112.162 54.5093 112.162 54.7378 112.2 54.9664ZM56.8383 62.9243L56.8379 62.9275C56.762 64.0703 56.724 65.0987 56.8379 66.051L56.8759 66.3558C56.9138 66.889 57.2936 67.3081 57.7872 67.3081L111.099 67.3081C111.554 67.3081 111.972 66.889 112.01 66.3558L112.048 66.051C112.162 65.0987 112.124 64.0703 112.048 62.9275C111.972 62.2038 111.934 61.5181 111.82 60.8325C111.706 59.9564 111.592 59.1183 111.403 58.2803C111.061 56.6043 110.605 55.0425 110.074 53.5189C109.922 53.0618 109.732 52.6428 109.542 52.1857C109.086 51.1572 108.631 50.1668 108.099 49.2145C107.719 48.567 107.34 47.9194 106.922 47.3099C105.137 44.6435 102.935 42.3199 100.391 40.3772C97.8468 38.3584 94.8471 36.53 91.6575 35.7682C89.4932 35.273 87.3288 34.9301 85.1265 34.8159C84.8987 34.7778 84.6708 34.7778 84.443 34.7778C84.2152 34.8159 83.9873 34.8159 83.7595 34.8159C81.5572 34.9301 79.3548 35.273 77.2284 35.7682C74.0389 36.53 71.0771 38.3965 68.4951 40.3772C65.989 42.3199 63.7487 44.6435 61.964 47.3099C61.5463 47.9194 61.1666 48.567 60.7869 49.2145C60.2553 50.1287 59.7997 51.1572 59.344 52.1857C59.1541 52.6047 59.0023 53.0618 58.8124 53.5189C58.2808 55.0425 57.8251 56.6424 57.4834 58.2803C57.2935 59.1183 57.1796 59.9564 57.0657 60.8325C56.9899 61.5551 56.9141 62.2397 56.8383 62.9243Z" fill="#465B81"/>
<path fill-rule="evenodd" clip-rule="evenodd" d="M53.0408 66.4319C52.9648 66.7367 52.9269 67.0414 52.8509 67.3461C52.775 67.7652 52.6611 68.4127 53.0788 68.9079C53.4964 69.4031 54.066 69.365 54.4457 69.365H54.6735C59.5714 69.3269 64.4692 69.3269 69.405 69.3269H69.4064L99.5176 69.3269H99.5189C104.417 69.3269 109.315 69.3269 114.25 69.365H114.478C114.896 69.365 115.732 69.3365 115.789 68.8794V66.8144C115.845 65.638 116.743 65.6607 117.847 65.5754C123.199 65.1624 131.482 66.8144 134.726 63.9234C137.866 61.1267 112.97 38.2319 112.089 37.8634C112.085 37.8772 112.083 37.8909 112.083 37.9045C112.056 37.8641 112.059 37.8509 112.089 37.8634C112.191 37.4601 113.73 36.9418 113.73 32.9485C113.73 28.8186 112.083 25.9276 106.731 25.9276C102.323 25.9276 100.428 29.0104 99.8973 30.097V30.4705H105.496C106.731 30.4705 106.731 32.9485 106.731 32.9485C106.731 32.9485 106.731 35.0135 105.496 35.0135H100.144V36.6655C100.144 36.6655 100.669 37.3417 101.525 38.1169C102.069 38.506 102.601 38.9124 103.121 39.3352C104.066 39.9257 105.168 40.3791 106.32 40.3772C109.613 40.372 110.947 39.1435 110.947 39.1435C112.06 41.3902 134.726 61.8584 131.021 62.9275C127.573 63.9223 118.889 62.9275 116.419 62.9275C115.596 62.9275 114.667 62.9656 114.554 62.9275C113.604 58.0518 113.415 53.0618 110.947 48.6431C108.97 45.0792 106.28 41.9057 103.121 39.3352C102.516 38.9574 101.975 38.5235 101.525 38.1169C100.993 37.7362 100.45 37.372 99.8973 37.0252V30.4705H99.7326C99.7326 30.4705 99.7837 30.3295 99.8973 30.097L99.8973 14.5892C102.024 15.1987 103.922 15.5034 105.631 15.5034C118.237 15.2368 120.44 9.34554e-05 120.44 9.34554e-05L88.6958 9.34554e-05C87.8984 5.86621 95.4546 13.1036 95.4546 13.1036L95.4546 34.7778C92.1512 33.4065 88.6198 32.6446 85.0505 32.6446H84.405H83.7595C80.1523 32.6446 76.6209 33.4065 73.3554 34.7778L73.3554 13.1036C73.3554 13.1036 80.9116 5.86621 80.1142 9.34554e-05H48.4083C48.4083 9.34554e-05 50.5726 15.2748 63.2171 15.5034C64.9258 15.5034 66.8243 15.2368 68.9507 14.5892V37.0252C64.3562 39.8821 60.4831 43.9198 57.8631 48.6431C55.5469 52.8332 54.7115 57.4804 53.8002 62.0895L21.0992 79.6174C21.0992 79.6174 19.0408 74.6614 13.6888 74.6614C8.33678 74.6614 5.45493 78.7914 5.45493 82.0954C5.45493 85.3994 7.51339 87.8774 7.51339 87.8774L0.102923 91.5944C0.102923 91.5944 -0.30877 93.6593 0.514615 94.8983C1.338 96.1373 3.80816 95.3113 3.80816 95.3113C3.80816 95.3113 9.98355 92.8333 16.5706 90.3554C23.1577 87.8774 21.9226 81.6824 21.9226 81.6824L53.0408 66.4319ZM112.2 54.9664L112.086 54.3569C112.162 54.5093 112.162 54.7378 112.2 54.9664ZM57.4834 58.2803C57.2935 59.1183 57.1796 59.9564 57.0657 60.8325C56.9899 61.5551 56.9141 62.2397 56.8383 62.9243L56.8379 62.9275C56.762 64.0703 56.724 65.0987 56.8379 66.051L56.8759 66.3558C56.9138 66.889 57.2936 67.3081 57.7872 67.3081L111.099 67.3081C111.554 67.3081 111.972 66.889 112.01 66.3558L112.048 66.051C112.162 65.0987 112.124 64.0703 112.048 62.9275C111.972 62.2038 111.934 61.5181 111.82 60.8325C111.706 59.9564 111.592 59.1183 111.403 58.2803C111.061 56.6043 110.605 55.0425 110.074 53.5189C109.922 53.0618 109.732 52.6428 109.542 52.1857C109.086 51.1572 108.631 50.1668 108.099 49.2145C107.719 48.567 107.34 47.9194 106.922 47.3099C105.137 44.6435 102.935 42.3199 100.391 40.3772C97.8468 38.3584 94.8471 36.53 91.6575 35.7682C89.4932 35.273 87.3288 34.9301 85.1265 34.8159C84.8987 34.7778 84.6708 34.7778 84.443 34.7778C84.2152 34.8159 83.9873 34.8159 83.7595 34.8159C81.5572 34.9301 79.3548 35.273 77.2284 35.7682C74.0389 36.53 71.0771 38.3965 68.4951 40.3772C65.989 42.3199 63.7487 44.6435 61.964 47.3099C61.5463 47.9194 61.1666 48.567 60.7869 49.2145C60.2553 50.1287 59.7997 51.1572 59.344 52.1857C59.1541 52.6047 59.0023 53.0618 58.8124 53.5189C58.2808 55.0425 57.8251 56.6424 57.4834 58.2803Z" fill="#465B81"/>
<path d="M54.2196 67.7649C54.2196 67.7284 54.2196 67.7284 54.2196 67.7649C54.2569 67.7284 54.2942 67.7649 54.3315 67.7649H54.2196Z" fill="#465B81"/>
<path d="M54.5215 67.8412V67.7656H54.3332C54.4085 67.7656 54.4462 67.8034 54.5215 67.8412ZM54.5215 67.8412V67.7656H54.3332C54.4085 67.7656 54.4462 67.8034 54.5215 67.8412ZM54.5215 67.8412V67.7656H54.3332C54.4085 67.7656 54.4462 67.8034 54.5215 67.8412Z" fill="#465B81"/>
<path d="M111.365 54.7758C111.403 54.9663 111.441 55.1948 111.479 55.3853L111.365 54.7758Z" fill="#465B81"/>
<path fill-rule="evenodd" clip-rule="evenodd" d="M57.2936 107.114C58.8125 112.942 63.9386 117.246 70.2418 117.284C79.3929 117.36 88.5819 117.36 97.733 117.284C103.922 117.246 109.086 113.17 110.681 107.304V96.9051L57.2936 96.9051V107.114ZM73.5453 101.971C71.1152 101.971 69.1407 103.952 69.1407 106.428C69.1407 108.904 71.1152 110.885 73.5453 110.847C75.9375 110.847 77.95 108.828 77.95 106.428C77.9879 103.99 75.9755 101.971 73.5453 101.971ZM94.2396 101.971C91.7715 101.971 89.759 103.952 89.759 106.39C89.759 108.866 91.7335 110.847 94.1637 110.847C96.6318 110.847 98.6063 108.866 98.6063 106.39C98.6063 103.99 96.6318 101.971 94.2396 101.971Z" fill="#FCD95B"/>
<path fill-rule="evenodd" clip-rule="evenodd" d="M70.6975 135.263L62.6096 151.071C60.9389 151.262 59.42 152.252 58.6226 153.852C57.3316 156.404 58.3189 159.528 60.8629 160.823C63.407 162.118 66.5206 161.128 67.8117 158.575C68.647 156.976 68.5331 155.147 67.7357 153.7L75.9755 137.625H78.7094C80.0764 137.816 81.5193 137.93 82.9622 137.93H86.7973C88.1642 137.93 89.5312 137.816 90.8602 137.625H91.8474L100.087 153.7C99.2898 155.147 99.1759 156.976 100.011 158.575C101.302 161.128 104.416 162.118 106.96 160.823C109.504 159.528 110.491 156.404 109.2 153.852C108.365 152.252 106.846 151.262 105.213 151.071L97.3912 135.797C105.821 132.254 112.276 124.674 113.795 115.532L114.061 96.6003L114.061 76.2213L53.9522 76.2213V107.914C53.9142 120.065 60.6351 130.54 70.6975 135.263ZM110.681 111.113C110.681 124.064 99.2898 134.578 86.3796 134.578H82.6204C68.1154 134.578 57.2936 122.807 57.2936 108.256V107.114V96.9051V79.6115L110.681 79.6115V96.9051V107.304V111.113Z" fill="#465B81"/>
<path d="M113.795 115.532C116.567 119.074 120.288 120.979 124.958 121.093C124.996 121.093 125.044 121.103 125.091 121.112C125.106 121.115 125.121 121.118 125.135 121.121C125.167 121.127 125.198 121.131 125.224 121.131V119.341C125.148 118.998 125.081 118.651 125.013 118.304C124.878 117.61 124.743 116.916 124.541 116.256C123.212 111.875 120.744 108.447 116.491 106.466C116.453 106.447 116.424 106.428 116.396 106.409C116.367 106.39 116.339 106.371 116.301 106.352C116.301 106.352 116.301 106.314 116.263 106.238C116.291 106.223 116.319 106.204 116.35 106.183C116.401 106.148 116.457 106.109 116.529 106.085C121.579 103.571 124.161 99.3429 125.034 93.8958C125.072 93.6673 125.11 93.4387 125.186 93.2483V91.458C121.959 91.5342 118.997 92.4103 116.453 94.391C115.826 94.8772 115.241 95.4493 114.651 96.0266C114.456 96.2183 114.259 96.4105 114.061 96.6003L113.795 115.532Z" fill="#FCD95B"/>
</svg>
