<svg width="90" height="109" viewBox="0 0 165 200" fill="none" xmlns="http://www.w3.org/2000/svg">
<path d="M86.1814 18.6845C83.5825 19.4374 81.262 19.7198 79.1736 19.6727C81.262 19.6727 83.5825 19.2963 86.1814 18.5433V18.6845Z" fill="#465B81"/>
<path d="M79.1736 19.6726C63.348 19.7667 60.6099 0.51939 60.6099 0.51939H61.074C61.1204 0.51939 63.7657 19.3432 79.1736 19.6726Z" fill="#465B81"/>
<path d="M130.92 19.6728C128.831 19.7199 126.511 19.3905 123.912 18.6846V18.5434C126.511 19.2963 128.831 19.6728 130.92 19.6728Z" fill="#465B81"/>
<path d="M66.6375 83.8143V83.721H66.4074C66.4994 83.721 66.5454 83.7677 66.6375 83.8143Z" fill="#465B81"/>
<path d="M137.133 67.908L136.994 67.155C137.087 67.3432 137.087 67.6256 137.133 67.908ZM69.4686 77.7435L69.469 77.7396C69.5617 76.8939 69.6544 76.048 69.747 75.1552C69.8862 74.0729 70.0255 73.0375 70.2575 72.0022C70.6752 69.9786 71.2321 68.0021 71.8818 66.1197C72.1139 65.555 72.2995 64.9902 72.5316 64.4726C73.0885 63.202 73.6454 61.9313 74.2951 60.8019C74.7592 60.0018 75.2233 59.2018 75.7338 58.4489C77.915 55.1546 80.6532 52.284 83.7162 49.8839C86.872 47.4368 90.4919 45.1308 94.3903 44.1896C96.9892 43.5778 99.681 43.1543 102.373 43.0131C102.651 43.0131 102.93 43.0131 103.208 42.966C103.487 42.966 103.765 42.966 104.043 43.0131C106.735 43.1543 109.381 43.5778 112.026 44.1896C115.924 45.1308 119.591 47.3897 122.7 49.8839C125.809 52.284 128.501 55.1546 130.682 58.4489C131.193 59.2018 131.657 60.0018 132.121 60.8019C132.771 61.9784 133.328 63.202 133.885 64.4726C134.117 65.0373 134.349 65.555 134.534 66.1197C135.184 68.0021 135.741 69.9316 136.159 72.0022C136.391 73.0375 136.53 74.0729 136.669 75.1552C136.808 76.0023 136.855 76.8494 136.948 77.7435C137.04 79.1554 137.087 80.426 136.948 81.6025L136.901 81.979C136.855 82.6378 136.344 83.1555 135.787 83.1555L70.6288 83.1555C70.0255 83.1555 69.5614 82.6378 69.515 81.979L69.4686 81.6025C69.3293 80.426 69.3757 79.1554 69.4686 77.7435Z" fill="#465B81"/>
<path fill-rule="evenodd" clip-rule="evenodd" d="M137.133 67.908L136.994 67.155C137.087 67.3432 137.087 67.6256 137.133 67.908ZM69.469 77.7396L69.4686 77.7435C69.3757 79.1554 69.3293 80.426 69.4686 81.6025L69.515 81.979C69.5614 82.6378 70.0255 83.1555 70.6288 83.1555L135.787 83.1555C136.344 83.1555 136.855 82.6378 136.901 81.979L136.948 81.6025C137.087 80.426 137.04 79.1554 136.948 77.7435C136.855 76.8494 136.808 76.0023 136.669 75.1552C136.53 74.0729 136.391 73.0375 136.159 72.0022C135.741 69.9316 135.184 68.0021 134.534 66.1197C134.349 65.555 134.117 65.0373 133.885 64.4726C133.328 63.202 132.771 61.9784 132.121 60.8019C131.657 60.0018 131.193 59.2018 130.682 58.4489C128.501 55.1546 125.809 52.284 122.7 49.8839C119.591 47.3897 115.924 45.1308 112.026 44.1896C109.381 43.5778 106.735 43.1543 104.043 43.0131C103.765 42.966 103.487 42.966 103.208 42.966C102.93 43.0131 102.651 43.0131 102.373 43.0131C99.681 43.1543 96.9892 43.5778 94.3903 44.1896C90.4919 45.1308 86.872 47.4368 83.7162 49.8839C80.6532 52.284 77.915 55.1546 75.7338 58.4489C75.2233 59.2018 74.7592 60.0018 74.2951 60.8019C73.6454 61.9313 73.0885 63.202 72.5316 64.4726C72.2995 64.9902 72.1139 65.555 71.8818 66.1197C71.2321 68.0021 70.6752 69.9786 70.2575 72.0022C70.0255 73.0375 69.8862 74.0729 69.747 75.1552C69.6544 76.048 69.5617 76.8939 69.469 77.7396Z" fill="#465B81"/>
<path fill-rule="evenodd" clip-rule="evenodd" d="M64.8276 82.0731C64.7348 82.4496 64.6884 82.8261 64.5956 83.2025C64.5028 83.7202 64.3635 84.5202 64.8741 85.132C65.3846 85.7438 66.0807 85.6967 66.5448 85.6967H66.8232C72.8095 85.6497 78.7957 85.6497 84.8284 85.6497H84.83L121.633 85.6497H121.634C127.62 85.6497 133.607 85.6497 139.639 85.6967H139.918C140.428 85.6967 141.45 85.6615 141.519 85.0968V82.5456C141.589 81.0923 142.686 81.1202 144.035 81.0149C150.577 80.5047 160.7 82.5456 164.666 78.974C168.502 75.5188 138.075 47.2335 136.997 46.7781C136.993 46.7952 136.991 46.8121 136.991 46.829C136.958 46.7791 136.961 46.7628 136.997 46.7781C137.122 46.2799 139.003 45.6396 139.003 40.7061C139.003 35.6038 136.991 32.0321 130.449 32.0321C125.061 32.0321 122.745 35.8408 122.097 37.1832V37.6447H128.94C130.449 37.6447 130.449 40.7061 130.449 40.7061C130.449 40.7061 130.449 43.2573 128.94 43.2573H122.399V45.2983C122.399 45.2983 123.039 46.1337 124.087 47.0913C124.751 47.5721 125.402 48.0742 126.037 48.5965C127.192 49.326 128.538 49.8862 129.946 49.8839C133.972 49.8774 135.602 48.3597 135.602 48.3597C136.962 51.1353 164.666 76.4228 160.137 77.7435C155.923 78.9726 145.309 77.7435 142.29 77.7435C141.284 77.7435 140.149 77.7906 140.01 77.7435C138.85 71.7198 138.618 65.555 135.602 60.096C133.186 55.6929 129.897 51.7722 126.037 48.5965C125.297 48.1297 124.636 47.5937 124.087 47.0913C123.436 46.621 122.773 46.1711 122.097 45.7426L122.097 37.6447H121.895C121.895 37.6447 121.958 37.4704 122.097 37.1832V18.0241C124.696 18.7771 127.016 19.1536 129.104 19.1536C144.512 18.8242 147.204 7.62939e-05 147.204 7.62939e-05L108.406 7.62939e-05C107.431 7.24735 116.667 16.1888 116.667 16.1888V42.966C112.629 41.2719 108.313 40.3307 103.951 40.3307H103.162H102.373C97.9639 40.3307 93.6478 41.2719 89.6566 42.966L89.6566 16.1888C89.6566 16.1888 98.892 7.24735 97.9174 7.62939e-05L59.1657 7.62939e-05C59.1657 7.62939e-05 61.811 18.8712 77.2653 19.1536C79.3537 19.1536 81.6742 18.8242 84.2731 18.0241L84.2731 45.7426C78.6576 49.2721 73.9238 54.2605 70.7216 60.096C67.8906 65.2726 66.8696 71.0139 65.7558 76.7082L25.788 98.363C25.788 98.363 23.2721 92.2402 16.7308 92.2402C10.1894 92.2402 6.66716 97.3425 6.66716 101.424C6.66716 105.506 9.18306 108.568 9.18306 108.568L0.125824 113.16C0.125824 113.16 -0.37735 115.711 0.628998 117.242C1.63536 118.773 4.65443 117.752 4.65443 117.752C4.65443 117.752 12.2021 114.691 20.253 111.629C28.3039 108.568 26.7943 100.914 26.7943 100.914L64.8276 82.0731ZM137.133 67.908L136.994 67.155C137.087 67.3432 137.087 67.6256 137.133 67.908ZM70.2575 72.0022C70.0255 73.0375 69.8862 74.0729 69.747 75.1552C69.6544 76.048 69.5617 76.8939 69.469 77.7396L69.4686 77.7435C69.3757 79.1554 69.3293 80.426 69.4686 81.6025L69.515 81.979C69.5614 82.6378 70.0255 83.1555 70.6288 83.1555L135.787 83.1555C136.344 83.1555 136.855 82.6378 136.901 81.979L136.948 81.6025C137.087 80.426 137.04 79.1554 136.948 77.7435C136.855 76.8494 136.808 76.0023 136.669 75.1552C136.53 74.0729 136.391 73.0375 136.159 72.0022C135.741 69.9316 135.184 68.0021 134.534 66.1197C134.349 65.555 134.117 65.0373 133.885 64.4726C133.328 63.202 132.771 61.9784 132.121 60.8019C131.657 60.0018 131.193 59.2018 130.682 58.4489C128.501 55.1546 125.809 52.284 122.7 49.8839C119.591 47.3897 115.924 45.1308 112.026 44.1896C109.381 43.5778 106.735 43.1543 104.043 43.0131C103.765 42.966 103.487 42.966 103.208 42.966C102.93 43.0131 102.651 43.0131 102.373 43.0131C99.681 43.1543 96.9892 43.5778 94.3903 44.1896C90.4919 45.1308 86.872 47.4368 83.7162 49.8839C80.6532 52.284 77.915 55.1546 75.7338 58.4489C75.2233 59.2018 74.7592 60.0018 74.2951 60.8019C73.6454 61.9313 73.0885 63.202 72.5316 64.4726C72.2995 64.9902 72.1139 65.555 71.8818 66.1197C71.2321 68.0021 70.6752 69.9786 70.2575 72.0022Z" fill="#465B81"/>
<path d="M66.2666 83.72C66.2666 83.6745 66.2666 83.6745 66.2666 83.72C66.3129 83.6745 66.3592 83.72 66.4055 83.72H66.2666Z" fill="#465B81"/>
<path d="M66.6375 83.8142V83.7209H66.4074C66.4994 83.7209 66.5454 83.7675 66.6375 83.8142ZM66.6375 83.8142V83.7209H66.4074C66.4994 83.7209 66.5454 83.7675 66.6375 83.8142ZM66.6375 83.8142V83.7209H66.4074C66.4994 83.7209 66.5454 83.7675 66.6375 83.8142Z" fill="#465B81"/>
<path d="M136.112 67.6726C136.159 67.9079 136.205 68.1902 136.251 68.4255L136.112 67.6726Z" fill="#465B81"/>
<path fill-rule="evenodd" clip-rule="evenodd" d="M70.0256 132.333C71.882 139.533 78.1472 144.851 85.8512 144.898C97.0358 144.992 108.267 144.992 119.451 144.898C127.016 144.851 133.328 139.816 135.277 132.569V119.721L70.0256 119.721V132.333ZM89.8888 125.98C86.9186 125.98 84.5053 128.427 84.5053 131.486C84.5053 134.545 86.9186 136.992 89.8888 136.945C92.8126 136.945 95.2723 134.451 95.2723 131.486C95.3187 128.474 92.859 125.98 89.8888 125.98ZM115.182 125.98C112.165 125.98 109.706 128.427 109.706 131.439C109.706 134.498 112.119 136.945 115.089 136.945C118.106 136.945 120.519 134.498 120.519 131.439C120.519 128.474 118.106 125.98 115.182 125.98Z" fill="#29375B"/>
<path fill-rule="evenodd" clip-rule="evenodd" d="M86.4081 167.111L76.5229 186.641C74.4809 186.876 72.6245 188.1 71.6499 190.076C70.072 193.229 71.2787 197.088 74.3881 198.688C77.4975 200.288 81.3031 199.065 82.881 195.912C83.902 193.935 83.7628 191.676 82.7882 189.888L92.859 170.028H96.2004C97.8712 170.264 99.6347 170.405 101.398 170.405H106.086C107.756 170.405 109.427 170.264 111.051 170.028H112.258L122.329 189.888C121.354 191.676 121.215 193.935 122.236 195.912C123.814 199.065 127.619 200.288 130.729 198.688C133.838 197.088 135.045 193.229 133.467 190.076C132.446 188.1 130.59 186.876 128.594 186.641L119.034 167.77C129.337 163.393 137.226 154.028 139.083 142.734L139.407 119.345V94.1674L65.9416 94.1674L65.9416 133.322C65.8952 148.334 74.1096 161.275 86.4081 167.111ZM135.277 137.275C135.277 153.275 121.354 166.264 105.575 166.264H100.981C83.2523 166.264 70.0256 151.722 70.0256 133.745V132.333V119.721L70.0256 98.3558L135.277 98.3558V119.721V132.569L135.277 137.275Z" fill="#465B81"/>
<path d="M139.083 142.734C142.47 147.11 147.019 149.463 152.727 149.604C152.773 149.604 152.831 149.616 152.889 149.628C152.907 149.632 152.926 149.635 152.943 149.639C152.982 149.646 153.02 149.651 153.052 149.651V147.44C152.959 147.016 152.876 146.587 152.794 146.159C152.629 145.301 152.464 144.443 152.216 143.628C150.592 138.216 147.575 133.98 142.378 131.533C142.331 131.51 142.296 131.486 142.262 131.463C142.227 131.439 142.192 131.416 142.146 131.392C142.146 131.392 142.146 131.345 142.099 131.251C142.134 131.233 142.168 131.209 142.205 131.184C142.268 131.14 142.337 131.092 142.424 131.063C148.596 127.957 151.752 122.733 152.82 116.003C152.866 115.721 152.913 115.439 153.005 115.203V112.992C149.061 113.086 145.441 114.168 142.331 116.615C141.565 117.216 140.85 117.923 140.13 118.636C139.89 118.873 139.65 119.11 139.407 119.345L139.083 142.734Z" fill="#29375B"/>
</svg>
