<svg width="40" height="40" viewBox="0 0 54 59" fill="none" xmlns="http://www.w3.org/2000/svg">
<path d="M42.3999 5.33333L37.1245 16.9999H22.7245L17.7 5.83333L20.5 4.5L25.9245 16.111H34.3245L39.9999 4L42.3999 5.33333Z" fill="#FCD95B" stroke="#FCD95B"/>
<circle cx="17.9999" cy="3" r="3" fill="#FCD95B"/>
<circle cx="41.9999" cy="3" r="3" fill="#FCD95B"/>
<path d="M8.00381 25.7496C10.0288 28.1512 9.11307 29.3493 9.48831 29.3921L10.2382 29.4775L9.30897 37.633L7.05876 37.3767C7.05876 37.3767 6.6834 38.1701 4.60499 39.0318C2.52659 39.8934 1.41763 40.2073 1.09143 39.736C0.765231 39.2646 2.25483 36.1953 3.86297 34.6661C5.4711 33.1368 6.84743 32.5646 6.84743 32.5646C7.14401 32.2974 6.89627 32.136 6.89627 32.136C6.89627 32.136 4.44081 29.5945 3.86588 27.3884C3.29094 25.1823 3.37252 23.0511 3.74755 23.0938C3.74755 23.0938 5.9788 23.348 8.00381 25.7496Z" fill="#FCD95B" stroke="#FCD95B"/>
<path d="M39.2791 28.245C36.4827 27.9248 26.3664 27.9137 23.7209 28.2394C21.0754 28.5651 19.713 29.4943 16.9767 31.6194C14.2405 33.7445 12 35.0371 12 35.0371V39.5651H50V35.0371C50 35.0371 48.0754 33.5652 46.0233 31.6173C43.9711 29.6694 42.0754 28.5652 39.2791 28.245Z" fill="white" stroke="white"/>
<circle cx="24" cy="33.5652" r="3" fill="#29375B"/>
<circle cx="38" cy="33.5652" r="3" fill="#29375B"/>
<path d="M51.9244 38C51.9244 43.1797 51.9207 46.8744 51.5804 49.6042C51.2413 52.3245 50.6113 53.6489 49.7187 54.4445C48.7779 55.283 47.1695 55.8779 44.0242 56.1894C40.912 56.4976 36.7181 56.5 30.9244 56.5C25.1308 56.5 20.9369 56.4976 17.8247 56.1894C14.6794 55.8779 13.0709 55.283 12.1302 54.4445C11.2376 53.6489 10.6076 52.3245 10.2685 49.6042C9.92816 46.8744 9.92444 43.1797 9.92444 38C9.92444 26.402 19.3265 17 30.9244 17C42.5224 17 51.9244 26.402 51.9244 38Z" stroke="#FCD95B" stroke-width="4"/>
</svg>