<svg width="193" height="60" viewBox="0 0 193 60" fill="none" xmlns="http://www.w3.org/2000/svg">
<path d="M120.204 28.6798C117.407 28.3596 107.291 28.3486 104.645 28.6743C102 28.9999 100.638 29.9291 97.9013 32.0542C95.165 34.1793 92.9246 35.4719 92.9246 35.4719V39.9999H130.925V35.4719C130.925 35.4719 129 34 126.948 32.0521C124.896 30.1042 123 29 120.204 28.6798Z" fill="#FCD95B" stroke="#FCD95B"/>
<circle cx="104.925" cy="34" r="3" fill="white"/>
<circle cx="118.925" cy="34" r="3" fill="white"/>
<path d="M123.4 5.33333L118.124 16.9999H103.724L98.7 5.83333L101.5 4.5L106.924 16.111H115.324L121 4L123.4 5.33333Z" fill="#29375B" stroke="#29375B"/>
<circle cx="99" cy="3" r="3" fill="#29375B"/>
<circle cx="123" cy="3" r="3" fill="#29375B"/>
<path d="M89.0039 25.7496C91.0289 28.1512 90.1132 29.3493 90.4884 29.3921L91.2383 29.4775L90.3091 37.633L88.0589 37.3767C88.0589 37.3767 87.6835 38.1701 85.6051 39.0318C83.5267 39.8934 82.4178 40.2073 82.0916 39.736C81.7654 39.2646 83.2549 36.1953 84.8631 34.6661C86.4712 33.1368 87.8476 32.5646 87.8476 32.5646C88.1441 32.2974 87.8964 32.136 87.8964 32.136C87.8964 32.136 85.4409 29.5945 84.866 27.3884C84.2911 25.1823 84.3726 23.0511 84.7477 23.0938C84.7477 23.0938 86.9789 23.348 89.0039 25.7496Z" fill="#29375B" stroke="#29375B"/>
<path d="M132.925 38C132.925 43.1797 132.921 46.8744 132.581 49.6042C132.241 52.3245 131.611 53.6489 130.719 54.4445C129.778 55.283 128.17 55.8779 125.024 56.1894C121.912 56.4976 117.718 56.5 111.925 56.5C106.131 56.5 101.937 56.4976 98.8248 56.1894C95.6795 55.8779 94.0711 55.283 93.1303 54.4445C92.2377 53.6489 91.6077 52.3245 91.2686 49.6042C90.9283 46.8744 90.9246 43.1797 90.9246 38C90.9246 26.402 100.327 17 111.925 17C123.523 17 132.925 26.402 132.925 38Z" stroke="#29375B" stroke-width="4"/>
<path d="M19.1602 24.3516H29.2852V29.1855H27.123V51H21.2871L10.1953 33.7734V46.1836H12.4277V51H2.32031V46.1836H4.51758V29.1855H2.35547V24.3516H10.4062L21.4277 41.8066V29.1855H19.1602V24.3516ZM31.5879 32.7891H39.7617V46.1836H42.293V51H31.5879V46.1836H34.3301V37.6055H31.5879V32.7891ZM34.0488 26.918C34.0488 26.4844 34.125 26.0801 34.2773 25.7051C34.4414 25.3184 34.6641 24.9844 34.9453 24.7031C35.2266 24.4219 35.5547 24.1992 35.9297 24.0352C36.3164 23.8711 36.7324 23.7891 37.1777 23.7891C37.5996 23.7891 37.998 23.8711 38.373 24.0352C38.748 24.1992 39.0762 24.4219 39.3574 24.7031C39.6387 24.9844 39.8613 25.3184 40.0254 25.7051C40.1895 26.0801 40.2715 26.4844 40.2715 26.918C40.2715 27.3516 40.1895 27.7617 40.0254 28.1484C39.8613 28.5234 39.6387 28.8516 39.3574 29.1328C39.0762 29.4141 38.748 29.6367 38.373 29.8008C37.998 29.9648 37.5996 30.0469 37.1777 30.0469C36.7324 30.0469 36.3164 29.9648 35.9297 29.8008C35.5547 29.6367 35.2266 29.4141 34.9453 29.1328C34.6641 28.8516 34.4414 28.5234 34.2773 28.1484C34.125 27.7617 34.0488 27.3516 34.0488 26.918ZM60.4512 40.5234C60.4512 39.5039 60.1816 38.707 59.6426 38.1328C59.1035 37.5469 58.3887 37.2539 57.498 37.2539C56.8887 37.2539 56.2734 37.3887 55.6523 37.6582C55.0312 37.9277 54.4277 38.4316 53.8418 39.1699V46.1836H56.7949V51H45.4746V46.1836H48.1465V37.6055H45.5098V32.7891H53.8066V34.3887C54.5684 33.791 55.418 33.3223 56.3555 32.9824C57.3047 32.6309 58.3008 32.4551 59.3438 32.4551C61.5352 32.4551 63.2227 33.0703 64.4062 34.3008C65.5898 35.5195 66.1816 37.3066 66.1816 39.6621V46.1836H68.7656V51H60.4512V40.5234ZM70.6289 32.7891H78.627V51.3164C78.627 52.7109 78.4512 53.9062 78.0996 54.9023C77.7598 55.8984 77.2559 56.7188 76.5879 57.3633C75.9316 58.0078 75.1172 58.4824 74.1445 58.7871C73.1719 59.0918 72.0586 59.2441 70.8047 59.2441L70.7344 55.2539C71.5781 55.2188 72.2051 54.8789 72.6152 54.2344C73.0254 53.6016 73.2305 52.752 73.2305 51.6855V37.6055H70.6289V32.7891ZM72.9316 26.918C72.9316 26.4844 73.0078 26.0801 73.1602 25.7051C73.3242 25.3184 73.5469 24.9844 73.8281 24.7031C74.1094 24.4219 74.4375 24.1992 74.8125 24.0352C75.1992 23.8711 75.6152 23.7891 76.0605 23.7891C76.4824 23.7891 76.8809 23.8711 77.2559 24.0352C77.6426 24.1992 77.9766 24.4219 78.2578 24.7031C78.5508 24.9844 78.7793 25.3184 78.9434 25.7051C79.1191 26.0801 79.207 26.4844 79.207 26.918C79.207 27.3516 79.1191 27.7617 78.9434 28.1484C78.7793 28.5234 78.5508 28.8516 78.2578 29.1328C77.9766 29.4141 77.6426 29.6367 77.2559 29.8008C76.8809 29.9648 76.4824 30.0469 76.0605 30.0469C75.6152 30.0469 75.1992 29.9648 74.8125 29.8008C74.4375 29.6367 74.1094 29.4141 73.8281 29.1328C73.5469 28.8516 73.3242 28.5234 73.1602 28.1484C73.0078 27.7617 72.9316 27.3516 72.9316 26.918Z" fill="#29375B"/>
<path d="M156.545 34.4551C155.889 33.5176 155.297 32.8555 154.77 32.4688C154.242 32.0703 153.674 31.7891 153.064 31.625C152.455 31.4492 151.816 31.3613 151.148 31.3613C150.164 31.3613 149.25 31.584 148.406 32.0293C147.562 32.4629 146.83 33.0605 146.209 33.8223C145.6 34.5723 145.119 35.4512 144.768 36.459C144.416 37.4551 144.24 38.5156 144.24 39.6406C144.24 40.7773 144.41 41.8496 144.75 42.8574C145.102 43.8535 145.582 44.7266 146.191 45.4766C146.801 46.2266 147.527 46.8242 148.371 47.2695C149.215 47.7031 150.141 47.9199 151.148 47.9199C151.852 47.9199 152.508 47.8086 153.117 47.5859C153.727 47.3516 154.277 47.0469 154.77 46.6719C155.273 46.2969 155.713 45.8691 156.088 45.3887C156.463 44.8965 156.756 44.3867 156.967 43.8594L162.627 45.4414C162.264 46.5898 161.73 47.6562 161.027 48.6406C160.324 49.6133 159.475 50.457 158.479 51.1719C157.494 51.8867 156.381 52.4492 155.139 52.8594C153.908 53.2695 152.578 53.4746 151.148 53.4746C149.941 53.4746 148.787 53.3105 147.686 52.9824C146.584 52.6543 145.553 52.1914 144.592 51.5938C143.643 50.9961 142.775 50.2754 141.99 49.4316C141.217 48.5879 140.555 47.6562 140.004 46.6367C139.453 45.6055 139.025 44.5039 138.721 43.332C138.416 42.1484 138.264 40.918 138.264 39.6406C138.264 37.7305 138.598 35.9434 139.266 34.2793C139.934 32.6035 140.848 31.1445 142.008 29.9023C143.168 28.6484 144.527 27.6641 146.086 26.9492C147.656 26.2227 149.344 25.8594 151.148 25.8594C152.59 25.8594 153.803 26.041 154.787 26.4043C155.771 26.7559 156.855 27.459 158.039 28.5137H161.977V34.4551H156.545ZM178.465 53.4746C177.258 53.4746 176.104 53.3105 175.002 52.9824C173.9 52.6543 172.869 52.1914 171.908 51.5938C170.959 50.9961 170.092 50.2812 169.307 49.4492C168.533 48.6055 167.871 47.6738 167.32 46.6543C166.77 45.623 166.342 44.5215 166.037 43.3496C165.732 42.1777 165.58 40.9531 165.58 39.6758C165.58 38.3984 165.732 37.1738 166.037 36.002C166.342 34.8184 166.77 33.7168 167.32 32.6973C167.871 31.666 168.533 30.7344 169.307 29.9023C170.092 29.0586 170.959 28.3379 171.908 27.7402C172.869 27.1426 173.9 26.6797 175.002 26.3516C176.104 26.0234 177.258 25.8594 178.465 25.8594C179.672 25.8594 180.826 26.0234 181.928 26.3516C183.041 26.6797 184.072 27.1426 185.021 27.7402C185.982 28.3379 186.85 29.0586 187.623 29.9023C188.408 30.7344 189.076 31.666 189.627 32.6973C190.189 33.7168 190.623 34.8184 190.928 36.002C191.232 37.1738 191.385 38.3984 191.385 39.6758C191.385 40.9414 191.232 42.166 190.928 43.3496C190.623 44.5215 190.189 45.623 189.627 46.6543C189.076 47.6738 188.408 48.6055 187.623 49.4492C186.85 50.2812 185.982 50.9961 185.021 51.5938C184.072 52.1914 183.041 52.6543 181.928 52.9824C180.826 53.3105 179.672 53.4746 178.465 53.4746ZM178.465 47.9551C179.484 47.9551 180.416 47.7383 181.26 47.3047C182.115 46.8594 182.848 46.2617 183.457 45.5117C184.066 44.75 184.535 43.8711 184.863 42.875C185.203 41.8672 185.373 40.8008 185.373 39.6758C185.373 38.5391 185.203 37.4668 184.863 36.459C184.523 35.4512 184.043 34.5723 183.422 33.8223C182.812 33.0605 182.086 32.4629 181.242 32.0293C180.398 31.584 179.473 31.3613 178.465 31.3613C177.457 31.3613 176.531 31.584 175.688 32.0293C174.844 32.4629 174.117 33.0605 173.508 33.8223C172.898 34.5723 172.418 35.4512 172.066 36.459C171.727 37.4668 171.557 38.5391 171.557 39.6758C171.557 40.8008 171.727 41.8672 172.066 42.875C172.418 43.8711 172.898 44.75 173.508 45.5117C174.117 46.2617 174.844 46.8594 175.688 47.3047C176.531 47.7383 177.457 47.9551 178.465 47.9551Z" fill="#29375B"/>
</svg>
