<svg width="136" height="97" viewBox="0 0 136 97" fill="none" xmlns="http://www.w3.org/2000/svg">
<path d="M8.22196 29.693L8.20687 29.6854C8.20687 29.6854 0.472656 76.9165 0.472656 83.7252C0.472656 90.6632 5.53704 96.2851 11.7855 96.2851C14.3498 96.2851 16.6877 95.3038 18.5845 93.7062L56.92 59.7083L8.22196 29.693ZM127.723 29.693L127.738 29.6854C127.738 29.6854 135.473 76.9165 135.473 83.7252C135.473 90.6632 130.408 96.2851 124.16 96.2851C121.596 96.2851 119.258 95.3038 117.361 93.7062L79.0253 59.7083L127.723 29.693Z" fill="#E6B44E"/>
<path d="M98.1404 64.6684C115.843 64.6684 130.193 50.193 130.193 32.3366C130.193 14.4803 115.843 0.00482178 98.1404 0.00482178C80.438 0.00482178 66.0874 14.4803 66.0874 32.3366C66.0874 50.193 80.438 64.6684 98.1404 64.6684Z" fill="#FCD95B"/>
<path d="M37.8053 64.6684C55.5077 64.6684 69.8583 50.193 69.8583 32.3366C69.8583 14.4803 55.5077 0.00482178 37.8053 0.00482178C20.1028 0.00482178 5.7522 14.4803 5.7522 32.3366C5.7522 50.193 20.1028 64.6684 37.8053 64.6684Z" fill="#FCD95B"/>
<path d="M37.8053 0.00482178H98.1404L98.1405 64.1739H37.8053L37.8053 0.00482178Z" fill="#FCD95B"/>
<path d="M49.4953 80.8342C59.9085 80.8342 68.3501 72.3193 68.3501 61.8155C68.3501 51.3118 59.9085 42.7968 49.4953 42.7968C39.0821 42.7968 30.6405 51.3118 30.6405 61.8155C30.6405 72.3193 39.0821 80.8342 49.4953 80.8342Z" fill="#FCD95B"/>
<path d="M86.4506 80.8342C96.8638 80.8342 105.305 72.3193 105.305 61.8155C105.305 51.3118 96.8638 42.7968 86.4506 42.7968C76.0374 42.7968 67.5959 51.3118 67.5959 61.8155C67.5959 72.3193 76.0374 80.8342 86.4506 80.8342Z" fill="#FCD95B"/>
<path d="M86.4694 73.2869C92.7173 73.2869 97.7822 68.1779 97.7822 61.8757C97.7822 55.5734 92.7173 50.4644 86.4694 50.4644C80.2215 50.4644 75.1565 55.5734 75.1565 61.8757C75.1565 68.1779 80.2215 73.2869 86.4694 73.2869Z" fill="#FEECAD"/>
<path d="M49.5142 73.2869C55.7621 73.2869 60.827 68.1779 60.827 61.8757C60.827 55.5734 55.7621 50.4644 49.5142 50.4644C43.2662 50.4644 38.2013 55.5734 38.2013 61.8757C38.2013 68.1779 43.2662 73.2869 49.5142 73.2869Z" fill="#FEECAD"/>
<path d="M97.2355 21.629C100.574 21.629 103.28 18.8991 103.28 15.5316C103.28 12.1641 100.574 9.4342 97.2355 9.4342C93.8971 9.4342 91.1907 12.1641 91.1907 15.5316C91.1907 18.8991 93.8971 21.629 97.2355 21.629Z" fill="#2DD4BF"/>
<path d="M97.2355 46.2544C100.574 46.2544 103.28 43.5245 103.28 40.157C103.28 36.7895 100.574 34.0596 97.2355 34.0596C93.8971 34.0596 91.1907 36.7895 91.1907 40.157C91.1907 43.5245 93.8971 46.2544 97.2355 46.2544Z" fill="#77B255"/>
<path d="M85.029 33.9417C88.3674 33.9417 91.0738 31.2118 91.0738 27.8443C91.0738 24.4768 88.3674 21.7469 85.029 21.7469C81.6905 21.7469 78.9841 24.4768 78.9841 27.8443C78.9841 31.2118 81.6905 33.9417 85.029 33.9417Z" fill="#50A5E6"/>
<path d="M109.442 33.9417C112.781 33.9417 115.487 31.2118 115.487 27.8443C115.487 24.4768 112.781 21.7469 109.442 21.7469C106.104 21.7469 103.397 24.4768 103.397 27.8443C103.397 31.2118 106.104 33.9417 109.442 33.9417Z" fill="#FB7185"/>
<path d="M42.2287 20.7846V12.5381C42.2287 12.0286 42.028 11.54 41.6709 11.1798C41.3138 10.8195 40.8294 10.6172 40.3243 10.6172H34.4492C33.9442 10.6172 33.4598 10.8195 33.1026 11.1798C32.7455 11.54 32.5449 12.0286 32.5449 12.5381V20.7846L37.3868 25.6724L42.2287 20.7846ZM32.5411 34.5921V42.8387C32.5411 43.8999 33.3933 44.7595 34.4454 44.7595H40.3206C40.8256 44.7595 41.31 44.5572 41.6671 44.1969C42.0243 43.8367 42.2249 43.3481 42.2249 42.8387V34.5921L37.383 29.7043L32.5411 34.5921ZM52.4102 22.8005H44.2348L39.3892 27.6884L44.2348 32.5762H52.4102C52.915 32.5752 53.3988 32.3725 53.7557 32.0124C54.1126 31.6524 54.3136 31.1644 54.3146 30.6553V24.7252C54.3146 24.2154 54.1141 23.7265 53.757 23.3656C53.4 23.0048 52.9157 22.8016 52.4102 22.8005ZM30.5425 22.8005H22.3633C21.8586 22.8016 21.3748 23.0043 21.0179 23.3643C20.6609 23.7243 20.46 24.2123 20.459 24.7214V30.6477C20.459 31.7089 21.3112 32.5686 22.3633 32.5686H30.5387L35.3844 27.6807L30.5425 22.8005Z" fill="#6480A7"/>
</svg>
