<svg width="40" height="40" viewBox="0 0 54 54" fill="none" xmlns="http://www.w3.org/2000/svg">
<rect width="54" height="54" rx="27" fill="white"/>
<path d="M27.306 20.9L20.556 37.1C20.436 37.42 20.256 37.67 20.016 37.85C19.776 38.03 19.506 38.12 19.206 38.12C18.766 38.12 18.436 38 18.216 37.76C17.996 37.5 17.876 37.18 17.856 36.8C17.856 36.66 17.886 36.5 17.946 36.32L25.566 17.9C25.706 17.56 25.906 17.3 26.166 17.12C26.446 16.94 26.746 16.86 27.066 16.88C27.366 16.88 27.646 16.97 27.906 17.15C28.166 17.33 28.356 17.58 28.476 17.9L36.006 36.05C36.086 36.25 36.126 36.45 36.126 36.65C36.126 37.09 35.976 37.45 35.676 37.73C35.396 37.99 35.076 38.12 34.716 38.12C34.416 38.12 34.136 38.03 33.876 37.85C33.636 37.65 33.456 37.4 33.336 37.1L26.526 20.99L27.306 20.9ZM21.756 32.84L23.106 29.96H31.596L32.106 32.84H21.756Z" fill="black"/>
</svg>
