<?xml version="1.0" standalone="no"?>
<!DOCTYPE svg PUBLIC "-//W3C//DTD SVG 20010904//EN"
 "http://www.w3.org/TR/2001/REC-SVG-20010904/DTD/svg10.dtd">
<svg version="1.0" xmlns="http://www.w3.org/2000/svg"
 width="944.000000pt" height="944.000000pt" viewBox="0 0 944.000000 944.000000"
 preserveAspectRatio="xMidYMid meet">
<metadata>
Created by potrace 1.14, written by Peter Selinger 2001-2017
</metadata>
<g transform="translate(0.000000,944.000000) scale(0.100000,-0.100000)"
fill="#000000" stroke="none">
<path d="M3161 9424 c-211 -57 -350 -231 -356 -449 -6 -197 90 -356 269 -446
78 -39 80 -41 106 -102 15 -34 39 -89 55 -122 15 -33 41 -89 57 -125 28 -60
48 -108 50 -120 1 -3 17 -35 35 -72 18 -37 33 -69 33 -72 0 -2 17 -42 39 -88
76 -163 113 -246 115 -258 1 -3 14 -30 30 -60 15 -30 28 -57 28 -60 0 -3 8
-24 19 -47 10 -24 28 -62 38 -85 11 -24 67 -149 126 -278 59 -129 108 -240
109 -247 1 -7 5 -16 9 -19 14 -14 6 -23 -30 -35 -21 -6 -99 -42 -173 -79 -177
-89 -204 -104 -208 -113 -2 -4 -8 -5 -13 -1 -5 3 -9 0 -9 -6 0 -6 -10 -14 -22
-19 -25 -9 -217 -135 -284 -185 -23 -17 -54 -40 -70 -51 -15 -11 -46 -35 -68
-54 -23 -18 -61 -50 -86 -70 -68 -54 -380 -367 -380 -380 0 -6 -4 -11 -8 -11
-5 0 -33 -30 -62 -67 -30 -38 -58 -69 -62 -71 -4 -2 -8 -10 -8 -17 0 -7 -4
-15 -8 -17 -22 -8 -290 -408 -274 -408 4 0 2 -4 -3 -8 -11 -8 -52 -83 -127
-232 -26 -52 -48 -88 -48 -80 -2 41 -14 99 -26 135 -8 22 -17 47 -19 57 -6 27
-75 156 -91 168 -8 7 -14 18 -14 25 0 8 -3 15 -7 17 -5 2 -28 30 -53 63 -40
53 -210 230 -210 219 0 -3 -12 7 -27 21 -16 14 -57 44 -93 68 -36 23 -68 46
-72 52 -4 5 -8 7 -8 2 0 -4 -19 5 -42 19 -22 14 -46 27 -52 28 -6 1 -25 10
-43 19 -18 9 -40 17 -51 17 -10 0 -22 3 -26 7 -3 4 -12 8 -19 10 -7 1 -32 7
-57 14 -66 16 -82 17 -112 2 -64 -31 -86 -113 -83 -303 2 -74 6 -154 9 -177 4
-23 9 -55 11 -70 5 -35 28 -151 41 -203 3 -14 8 -37 11 -53 3 -15 9 -30 14
-33 5 -3 9 -12 9 -20 0 -35 171 -349 210 -384 3 -3 21 -27 39 -55 19 -27 37
-52 40 -55 4 -3 22 -25 42 -50 20 -25 45 -55 55 -67 44 -50 55 -65 52 -67
-289 -170 -476 -326 -605 -508 -21 -29 -41 -54 -45 -56 -5 -2 -8 -7 -8 -12 0
-4 -18 -35 -40 -68 -22 -33 -40 -64 -40 -70 0 -6 -4 -12 -9 -14 -9 -3 -112
-201 -115 -222 -1 -6 -7 -20 -13 -31 -16 -30 -42 -126 -44 -165 -8 -125 117
-193 274 -149 23 7 45 12 49 11 4 -1 20 3 35 9 15 6 35 12 43 14 13 3 74 25
135 50 11 4 25 9 30 10 6 2 31 11 55 22 25 11 65 28 90 39 131 55 231 115 317
190 49 43 59 48 96 45 23 -2 45 -7 48 -13 4 -5 7 -206 8 -446 3 -633 5 -772
11 -772 3 0 5 -46 6 -103 1 -128 19 -417 30 -487 8 -48 14 -101 14 -125 0 -11
8 -58 16 -105 9 -47 18 -94 20 -105 2 -11 8 -41 14 -66 6 -26 13 -53 14 -60 2
-8 5 -21 8 -29 3 -8 11 -35 19 -60 7 -25 17 -51 22 -58 5 -6 7 -12 4 -12 -6 0
15 -53 51 -130 134 -289 395 -480 792 -582 112 -28 113 -28 145 -32 17 -2 44
-6 60 -9 52 -11 89 -17 130 -22 22 -3 56 -7 75 -10 34 -5 132 -15 195 -20 17
-2 30 -3 30 -4 0 -1 45 -4 100 -6 56 -3 125 -7 155 -9 99 -9 460 -19 737 -20
150 0 273 -5 273 -9 0 -4 8 -4 18 0 21 10 83 10 100 -1 6 -4 12 -4 12 1 0 10
52 9 68 -1 7 -4 12 -2 12 4 0 7 6 8 19 1 10 -6 21 -7 25 -4 8 9 56 10 56 2 0
-4 15 -3 34 1 19 4 40 4 47 -1 7 -4 17 -5 23 -2 14 9 67 9 72 1 3 -4 15 -3 27
1 13 5 30 5 39 0 10 -6 19 -6 23 0 3 6 12 8 19 5 22 -9 97 -10 102 -2 3 5 13
4 23 -1 10 -6 23 -6 31 -1 8 5 21 5 31 -1 11 -6 20 -5 24 1 4 6 12 7 22 1 9
-5 29 -5 45 -1 15 5 30 5 33 0 3 -5 16 -5 30 0 14 5 25 6 25 2 0 -4 21 -6 47
-5 79 4 128 5 136 3 19 -6 34 -6 54 2 13 4 25 3 28 -3 4 -6 13 -6 23 0 9 5 26
5 38 1 12 -5 24 -7 27 -4 8 9 78 10 83 2 3 -5 10 -5 17 -1 16 10 58 10 63 1 3
-5 10 -6 15 -2 6 3 153 8 327 9 390 4 586 11 877 30 95 7 114 9 210 19 33 4
78 9 100 11 22 2 60 7 85 11 25 3 55 7 67 9 12 2 36 6 53 10 17 4 41 8 53 10
32 5 79 15 99 21 10 3 30 8 45 10 98 18 317 102 408 157 132 79 241 182 319
301 54 82 116 205 116 229 0 8 3 17 7 21 5 4 8 11 9 14 0 4 3 14 7 22 7 20 28
88 31 103 2 7 8 30 14 52 6 22 14 58 18 80 3 22 7 42 9 45 2 3 6 26 10 50 3
25 9 59 12 75 3 17 6 41 8 55 1 14 5 48 9 75 37 293 49 627 49 1445 1 570 -2
690 -17 815 -2 17 -7 55 -10 85 -3 30 -8 66 -11 80 -3 14 -8 48 -11 75 -3 28
-8 53 -11 58 -2 4 -8 28 -13 55 -4 26 -11 58 -14 72 -7 33 -20 84 -21 90 -1 3
-5 19 -9 35 -5 17 -26 89 -49 160 -22 72 -42 132 -42 135 -1 3 -5 14 -10 25
-4 11 -21 54 -37 95 -110 281 -328 669 -480 851 -21 26 -38 50 -38 53 0 3 -8
15 -17 25 -21 22 -52 58 -113 131 -56 66 -246 258 -320 323 -30 27 -66 58 -80
71 -127 111 -507 376 -540 376 -4 0 -13 7 -20 15 -7 9 -15 13 -18 11 -3 -3
-17 3 -31 13 -14 10 -57 33 -96 52 -38 19 -73 38 -76 42 -3 5 -9 8 -13 8 -3
-1 -23 6 -44 15 -20 10 -39 18 -42 19 -3 0 -26 11 -52 22 -26 12 -87 36 -135
54 -49 17 -97 35 -108 39 -11 5 -28 11 -37 14 -17 5 9 70 163 404 16 35 29 68
29 73 0 5 4 9 8 9 5 0 9 6 9 13 0 6 19 50 41 97 21 47 54 119 72 160 18 41 48
107 67 145 19 39 34 71 34 72 0 4 33 81 69 158 18 39 49 108 70 155 21 47 49
109 64 139 14 30 26 61 26 68 0 7 5 13 10 13 6 0 10 6 10 13 0 20 44 117 54
117 33 0 177 84 218 127 48 48 107 133 113 162 2 9 9 32 15 51 7 19 13 59 15
87 2 29 6 57 10 63 3 5 3 10 -2 10 -4 0 -9 16 -10 35 -4 83 -61 198 -135 274
-58 60 -162 118 -233 129 -62 9 -163 10 -199 1 -22 -5 -49 -11 -59 -14 -72
-17 -191 -108 -246 -190 -74 -107 -99 -279 -59 -400 11 -33 20 -67 20 -75 0
-8 -26 -69 -57 -135 -32 -66 -71 -149 -87 -185 -16 -36 -41 -87 -54 -113 -13
-27 -24 -54 -24 -60 0 -6 -7 -18 -16 -28 -8 -9 -17 -23 -18 -31 -1 -7 -10 -27
-19 -44 -9 -17 -13 -34 -10 -38 4 -3 1 -6 -5 -6 -7 0 -12 -4 -12 -9 0 -9 -48
-114 -128 -281 -20 -41 -36 -77 -37 -80 -2 -8 -74 -160 -104 -220 -16 -30 -29
-58 -29 -63 -1 -4 -35 -76 -76 -161 -40 -84 -77 -164 -81 -176 -4 -13 -16 -37
-26 -54 -11 -17 -19 -39 -19 -49 0 -10 -3 -16 -7 -14 -5 3 -42 8 -83 11 -41 4
-91 9 -110 12 -19 2 -90 6 -157 8 -67 2 -126 7 -132 10 -5 4 -12 2 -16 -3 -3
-7 -15 -7 -29 -1 -13 5 -26 6 -29 3 -3 -3 -61 -7 -129 -9 -138 -4 -226 -11
-348 -30 -19 -2 -53 -7 -75 -10 -22 -3 -51 -7 -65 -10 -115 -23 -112 -24 -135
29 -10 23 -47 102 -82 176 -34 73 -63 135 -63 136 0 2 -21 47 -47 101 -26 55
-48 101 -48 104 -1 3 -22 48 -47 100 -25 52 -58 122 -73 155 -15 33 -44 94
-63 135 -20 41 -36 77 -37 80 -2 7 -91 196 -185 395 -82 173 -104 220 -105
225 0 3 -9 20 -18 38 -10 17 -14 32 -10 32 5 0 4 4 -2 8 -5 4 -20 28 -32 54
-21 44 -21 50 -8 94 18 62 14 194 -10 264 -44 133 -164 258 -290 301 -79 27
-210 33 -284 13z m2226 -3023 c13 5 23 5 23 1 0 -4 35 -7 78 -8 108 -2 271
-17 352 -34 45 -9 111 -21 140 -25 25 -4 61 -13 125 -30 33 -9 65 -18 70 -19
6 -1 44 -13 85 -26 41 -13 78 -23 83 -22 4 1 7 -3 7 -9 0 -5 5 -7 10 -4 6 4
16 2 23 -3 7 -5 30 -15 52 -22 22 -7 46 -18 54 -24 8 -6 16 -10 17 -9 2 1 19
-4 39 -13 19 -8 36 -14 37 -13 4 2 282 -143 288 -150 3 -3 23 -15 45 -26 22
-11 42 -23 45 -26 3 -3 32 -23 65 -44 33 -21 62 -40 65 -44 3 -3 28 -21 55
-40 28 -19 87 -66 133 -104 81 -67 98 -82 177 -156 72 -67 227 -239 287 -319
32 -42 64 -84 71 -92 27 -34 97 -141 97 -149 0 -5 3 -11 8 -13 9 -4 72 -106
72 -117 0 -5 7 -14 15 -21 9 -7 13 -15 10 -18 -3 -3 -1 -10 4 -16 13 -16 110
-206 105 -206 -3 0 5 -19 17 -42 30 -59 119 -307 134 -373 2 -11 11 -45 19
-75 16 -57 25 -100 31 -137 2 -11 6 -31 10 -44 l7 -22 -30 21 c-16 12 -45 35
-64 51 -18 16 -71 61 -118 101 -79 67 -188 164 -299 268 -25 23 -49 42 -53 42
-5 0 -8 8 -8 17 0 9 -3 14 -6 11 -3 -3 -15 4 -28 16 -63 61 -228 189 -311 241
-134 85 -385 192 -494 211 -14 3 -42 9 -61 14 -40 10 -152 27 -225 35 -46 5
-130 10 -327 19 -42 2 -81 7 -87 11 -6 3 -11 2 -11 -2 0 -5 -26 -6 -57 -2 -69
7 -1504 4 -1648 -5 -334 -19 -412 -28 -570 -67 -105 -26 -154 -44 -282 -105
-110 -52 -406 -242 -448 -288 -6 -6 -18 -15 -26 -21 -23 -14 -133 -97 -139
-105 -3 -3 -21 -17 -40 -30 -19 -13 -37 -27 -40 -30 -9 -11 -323 -235 -410
-291 -115 -75 -200 -129 -204 -129 -2 0 0 16 4 35 4 19 6 35 3 35 -2 0 -1 5 3
12 4 7 9 21 10 33 3 27 48 197 70 265 3 8 5 16 5 17 0 4 66 184 80 218 7 17
13 32 13 35 1 3 14 31 29 64 15 32 27 62 27 67 0 5 5 9 10 9 6 0 9 3 8 8 -3 9
45 106 55 110 4 2 7 8 7 14 0 14 90 164 158 263 85 124 95 138 120 161 12 12
22 26 22 32 0 6 3 12 8 14 4 2 32 32 62 67 89 105 243 256 351 346 86 71 129
103 162 124 20 12 37 27 37 32 0 5 6 9 13 9 7 0 23 9 35 20 12 11 23 20 26 20
2 0 47 27 99 60 98 62 394 210 419 210 8 0 18 4 23 9 20 19 368 131 458 147
70 12 85 15 157 29 41 7 102 17 135 21 33 3 74 8 90 10 17 2 83 6 148 8 65 2
121 7 124 10 3 3 13 2 21 -3 9 -5 26 -5 39 0z m1173 -2008 c183 -15 323 -194
315 -405 -6 -178 -105 -321 -255 -369 -45 -14 -184 -18 -250 -7 -195 32 -326
264 -275 486 42 179 159 283 334 297 36 3 67 7 69 10 3 2 10 1 16 -2 6 -4 26
-8 46 -10z m-2215 -3 c0 -1 10 -3 22 -6 77 -14 176 -91 215 -168 76 -149 71
-318 -14 -452 -40 -63 -87 -103 -157 -133 -47 -20 -73 -25 -161 -25 -113 -1
-168 11 -234 52 -173 107 -225 377 -110 568 19 32 44 65 55 74 11 8 32 25 47
38 46 38 135 59 242 57 52 -2 95 -3 95 -5z m-1882 -1434 c7 8 153 8 164 1 5
-3 28 -2 51 3 24 4 59 4 78 0 19 -4 36 -4 39 0 2 4 23 4 45 0 22 -4 58 -4 81
0 22 4 56 4 75 0 19 -4 36 -4 39 0 2 4 23 4 45 0 22 -4 58 -4 81 0 22 4 56 4
75 0 19 -4 36 -4 39 0 2 4 23 4 45 0 22 -4 58 -4 81 0 22 4 56 4 75 0 19 -4
36 -4 39 0 2 4 23 4 45 0 22 -4 58 -4 81 0 22 4 56 4 75 0 19 -4 36 -4 39 0 2
4 22 4 42 1 21 -4 49 -4 63 -1 14 4 39 4 55 1 17 -3 57 -4 90 -1 33 3 80 3
105 0 25 -3 57 -3 70 0 14 4 39 4 55 1 17 -3 57 -4 90 -1 33 3 80 3 105 0 25
-3 57 -3 70 0 14 4 39 4 55 1 17 -3 57 -4 90 -1 33 3 80 3 105 0 25 -3 57 -3
70 0 14 4 39 4 55 1 17 -3 57 -4 90 -1 33 3 80 3 105 0 25 -3 57 -3 70 0 14 4
39 4 55 1 17 -3 57 -4 90 -1 33 3 80 3 105 0 25 -3 57 -3 70 0 14 4 39 4 55 1
17 -3 57 -4 90 -1 33 3 80 3 105 0 25 -3 57 -3 70 0 14 4 39 4 55 1 17 -3 57
-4 90 -1 33 3 80 3 105 0 25 -3 57 -3 70 0 14 4 39 4 55 1 17 -3 57 -4 90 -1
33 3 81 2 108 -1 26 -3 47 -2 47 2 0 4 16 3 35 -1 19 -4 37 -4 40 0 2 4 23 4
45 0 22 -4 58 -4 81 0 22 4 56 4 75 0 19 -4 36 -4 39 0 2 4 23 4 45 0 22 -4
58 -4 81 0 22 4 56 4 75 0 19 -4 36 -4 39 0 2 4 23 4 45 0 22 -4 58 -4 81 0
22 4 56 4 75 0 19 -4 36 -4 39 0 2 4 23 4 45 0 22 -4 58 -4 81 0 22 4 56 4 75
0 19 -4 36 -4 39 0 2 4 23 4 45 0 22 -4 58 -4 81 0 22 4 56 4 75 0 19 -4 36
-4 39 0 2 4 23 4 45 0 22 -4 58 -4 81 0 22 4 56 4 75 0 19 -4 36 -4 39 0 2 4
23 4 45 0 22 -4 58 -4 81 0 22 4 56 4 75 0 19 -4 36 -4 39 0 2 4 23 4 45 0 22
-4 57 -4 78 -1 20 4 53 4 72 1 l35 -5 -1 -295 c-2 -451 -17 -857 -39 -1030 -3
-19 -7 -57 -10 -85 -3 -27 -7 -61 -10 -75 -3 -14 -8 -43 -10 -64 -17 -129 -76
-315 -113 -358 -8 -10 -13 -18 -9 -18 12 0 -50 -63 -88 -89 -35 -24 -152 -76
-195 -87 -8 -2 -35 -9 -60 -15 -25 -6 -54 -13 -65 -15 -11 -2 -42 -8 -70 -14
-49 -10 -96 -17 -165 -25 -19 -2 -48 -6 -65 -9 -26 -4 -72 -8 -230 -22 -22 -2
-94 -6 -160 -8 -66 -3 -120 -6 -120 -6 0 -3 -303 -11 -500 -13 -127 -2 -236
-6 -243 -11 -6 -4 -12 -4 -12 1 0 9 -131 9 -155 -1 -8 -3 -15 -2 -15 3 0 9
-31 8 -47 -2 -6 -4 -14 -4 -17 1 -4 7 -48 8 -82 1 -5 -1 -11 0 -14 1 -14 5
-70 4 -70 -2 0 -4 -14 -3 -30 2 -19 5 -30 5 -30 -1 0 -6 -6 -7 -17 0 -10 5
-26 5 -39 1 -12 -5 -24 -6 -27 -4 -7 7 -127 11 -127 4 0 -4 -67 -4 -80 0 -14
5 -47 4 -61 -2 -8 -4 -21 -3 -29 2 -8 5 -21 5 -31 -1 -11 -5 -20 -5 -24 0 -3
5 -17 6 -33 2 -15 -5 -37 -5 -49 0 -13 5 -25 4 -28 -1 -3 -5 -15 -6 -28 -1
-12 5 -34 5 -48 1 -15 -4 -32 -4 -39 0 -7 5 -23 4 -36 0 -12 -5 -25 -6 -28 -3
-5 6 -72 6 -149 0 -21 -1 -43 1 -50 5 -6 3 -18 3 -28 -2 -9 -5 -19 -6 -23 -3
-7 8 -126 10 -126 3 0 -3 -19 -4 -42 -2 -24 1 -180 4 -348 7 -168 2 -361 6
-430 9 -182 8 -338 16 -395 21 -27 2 -81 7 -120 10 -38 3 -83 8 -100 10 -16 2
-56 7 -88 10 -32 4 -68 8 -80 11 -12 3 -35 7 -52 9 -16 3 -37 7 -45 8 -8 2
-33 8 -55 12 -22 5 -42 10 -45 10 -52 13 -74 20 -124 37 -33 12 -82 33 -110
48 -51 29 -126 96 -126 113 0 6 -6 18 -13 26 -8 9 -19 30 -25 46 -6 17 -17 44
-23 60 -7 17 -13 37 -14 45 -1 8 -4 22 -8 30 -14 36 -43 184 -51 265 -2 17 -4
30 -5 30 -1 0 -4 23 -6 50 -2 28 -6 68 -9 90 -9 66 -18 233 -20 342 0 57 -4
103 -7 103 -4 0 -3 16 1 35 4 19 5 35 1 35 -6 0 -8 105 -11 575 l-2 190 58 3
c32 1 60 4 62 7 3 3 10 0 17 -5 7 -5 15 -7 18 -4z"/>
</g>
</svg>
