<svg width="39" height="39" viewBox="0 0 39 39" fill="none" xmlns="http://www.w3.org/2000/svg">
<path d="M33.9219 36.1968L29.9812 32.2968C29.4396 32.676 28.8367 32.9604 28.1726 33.15C27.5096 33.3395 26.826 33.4343 26.1219 33.4343C24.0906 33.4343 22.3643 32.7231 20.943 31.3007C19.5206 29.8794 18.8094 28.1531 18.8094 26.1218C18.8094 24.0906 19.5206 22.3637 20.943 20.9413C22.3643 19.52 24.0906 18.8093 26.1219 18.8093C28.1531 18.8093 29.8799 19.52 31.3024 20.9413C32.7237 22.3637 33.4344 24.0906 33.4344 26.1218C33.4344 26.826 33.3396 27.5096 33.15 28.1726C32.9604 28.8367 32.676 29.4531 32.2969 30.0218L36.1969 33.9218C36.5219 34.2468 36.6914 34.626 36.7055 35.0593C36.7185 35.4927 36.5625 35.8718 36.2375 36.1968C35.9125 36.5218 35.5263 36.6843 35.0789 36.6843C34.6325 36.6843 34.2469 36.5218 33.9219 36.1968ZM26.1219 30.1843C27.2594 30.1843 28.2208 29.7916 29.0062 29.0062C29.7917 28.2208 30.1844 27.2593 30.1844 26.1218C30.1844 24.9843 29.7917 24.0229 29.0062 23.2375C28.2208 22.452 27.2594 22.0593 26.1219 22.0593C24.9844 22.0593 24.0229 22.452 23.2375 23.2375C22.4521 24.0229 22.0594 24.9843 22.0594 26.1218C22.0594 27.2593 22.4521 28.2208 23.2375 29.0062C24.0229 29.7916 24.9844 30.1843 26.1219 30.1843ZM2.84374 28.5187C2.49165 28.275 2.28203 27.9435 2.21486 27.5242C2.14661 27.1039 2.22082 26.7041 2.43749 26.325L8.57186 16.4937C8.86978 16.0333 9.28307 15.783 9.81174 15.743C10.3393 15.7018 10.7927 15.8843 11.1719 16.2906L14.625 20.3125L19.7844 11.9031C20.0823 11.3885 20.5362 11.1312 21.1461 11.1312C21.7549 11.1312 22.2219 11.375 22.5469 11.8625L25.5531 16.3718C24.9302 16.3989 24.3409 16.4731 23.7851 16.5945C23.2304 16.7169 22.6823 16.8864 22.1406 17.1031L21.2469 15.7625L16.25 23.8875C15.9521 24.3479 15.5323 24.6052 14.9906 24.6593C14.4489 24.7135 13.9885 24.5239 13.6094 24.0906L10.1562 20.0687L5.19999 28.0718C4.95624 28.4781 4.59765 28.7283 4.12424 28.8226C3.64974 28.9179 3.2229 28.8166 2.84374 28.5187ZM29.7375 17.1843C29.2229 16.9677 28.6877 16.7916 28.132 16.6562C27.5773 16.5208 27.0021 16.4395 26.4062 16.4125L33.8 4.71245C34.0437 4.33328 34.3958 4.08953 34.8562 3.9812C35.3167 3.87287 35.7364 3.96766 36.1156 4.26557C36.4677 4.50932 36.6844 4.84082 36.7656 5.26007C36.8469 5.68041 36.7792 6.08016 36.5625 6.45932L29.7375 17.1843Z" fill="#29375B"/>
</svg>