<svg width="16" height="16" viewBox="0 0 16 16" fill="none" xmlns="http://www.w3.org/2000/svg">
<path d="M14.75 9.94157C12.6655 10.7853 10.387 11.25 8 11.25C5.61298 11.25 3.33447 10.7853 1.25 9.94157M11 4.5V3C11 2.17157 10.3284 1.5 9.5 1.5H6.5C5.67157 1.5 5 2.17157 5 3V4.5M8 9H8.0075M2.75 15H13.25C14.0784 15 14.75 14.3284 14.75 13.5V6C14.75 5.17157 14.0784 4.5 13.25 4.5H2.75C1.92157 4.5 1.25 5.17157 1.25 6V13.5C1.25 14.3284 1.92157 15 2.75 15Z" stroke="#465B81" stroke-width="1.5" stroke-linecap="round" stroke-linejoin="round"/>
</svg>
