<svg width="434" height="455" viewBox="0 0 434 455" fill="none" xmlns="http://www.w3.org/2000/svg">
<path d="M388.929 417.643C420.96 388.849 431.539 279.989 430.979 186.4C430.979 186.4 411.403 324.234 309.144 373.216C338.345 400.424 345.88 415.406 327.123 441.125C354.652 436.079 376.736 428.603 388.929 417.643Z" fill="#A7BFDC"/>
<path d="M12.4822 33.7565C-6.62108 39.4522 6.86459 462.069 20.3482 451.816C31.0715 443.663 220.184 460.726 327.123 441.125C345.88 415.406 338.345 400.424 309.144 373.216C411.403 324.234 430.979 186.4 430.979 186.4C430.498 105.971 421.791 36.8198 411.403 39.4522C403.183 41.5354 350.163 40.5707 285.281 38.7878L277.68 49.7042L291.164 57.6781L277.68 71.3476L131.596 80.4606L137.215 64.5128L120.359 54.2607L137.215 39.4522L131.642 34.2942C69.2307 32.5935 19.3021 31.7232 12.4822 33.7565Z" fill="#DBE4EE"/>
<path d="M430.979 186.4C430.498 105.971 421.791 36.8198 411.403 39.4522C403.183 41.5354 350.163 40.5707 285.281 38.7878M430.979 186.4C431.539 279.989 420.96 388.849 388.929 417.643C376.736 428.603 354.652 436.079 327.123 441.125M430.979 186.4C430.979 186.4 411.403 324.234 309.144 373.216C338.345 400.424 345.88 415.406 327.123 441.125M327.123 441.125C220.184 460.726 31.0715 443.663 20.3482 451.816C6.86459 462.069 -6.62108 39.4522 12.4822 33.7565C19.3021 31.7232 69.2307 32.5935 131.642 34.2942M131.642 34.2942L111.369 15.5303L285.546 2.99994L272.061 21.226L291.164 30.339L285.281 38.7878M131.642 34.2942L137.215 39.4522L120.359 54.2607L137.215 64.5128L131.596 80.4606L277.68 71.3476L291.164 57.6781L277.68 49.7042L285.281 38.7878" stroke="#29375B" stroke-width="4.5" stroke-linecap="round"/>
</svg>
