<svg width="434" height="449" viewBox="0 0 434 449" fill="none" xmlns="http://www.w3.org/2000/svg">
<path d="M384.929 412.643C416.96 383.848 431.557 274.4 430.997 180.81C430.997 180.81 411.421 318.644 309.162 367.627C338.363 394.834 345.898 409.816 327.141 435.535C354.67 430.489 372.736 423.603 384.929 412.643Z" fill="#FDE48C"/>
<path d="M12.5 28.167C-6.60326 33.8626 6.88241 456.479 20.3661 446.227C31.0893 438.073 220.202 455.136 327.141 435.535C345.898 409.816 338.363 394.834 309.162 367.627C411.421 318.644 430.997 180.81 430.997 180.81C430.516 100.382 421.809 31.2302 411.421 33.8626C403.201 35.9458 350.181 34.9811 285.299 33.1982L279 42L291.5 50.5L283.316 63.387L135.5 72.5L141 54.5L123 45L137.232 33.8626L131.66 28.7046C69.2485 27.0039 19.3199 26.1336 12.5 28.167Z" fill="#FEF4CE"/>
<path d="M430.997 180.81C430.516 100.382 421.809 31.2302 411.421 33.8626C403.201 35.9458 350.181 34.9811 285.299 33.1982M430.997 180.81C431.557 274.4 416.96 383.848 384.929 412.643C372.736 423.603 354.67 430.489 327.141 435.535M430.997 180.81C430.997 180.81 411.421 318.644 309.162 367.627C338.363 394.834 345.898 409.816 327.141 435.535M327.141 435.535C220.202 455.136 31.0893 438.073 20.3661 446.227C6.88241 456.479 -6.60326 33.8626 12.5 28.167C19.3199 26.1336 69.2485 27.0039 131.66 28.7046M131.66 28.7046L125 13.5L290.5 3L281.281 17L290.5 22L285.299 33.1982M131.66 28.7046L137.232 33.8626L123 45L141 54.5L135.5 72.5L283.316 63.387L291.5 50.5L279 42L285.299 33.1982" stroke="#29375B" stroke-width="4.5" stroke-linecap="round"/>
</svg>
