<svg width="348" height="207" viewBox="0 0 348 207" fill="none" xmlns="http://www.w3.org/2000/svg">
<rect width="348" height="207" rx="20" fill="#29375B"/>
<path d="M138 112C138 109.791 139.791 108 142 108H165C167.209 108 169 109.791 169 112V182H138V112Z" fill="#465B81"/>
<path d="M174 153C174 150.791 175.791 149 178 149H200C202.209 149 204 150.791 204 153V182H174V153Z" fill="#465B81"/>
<path d="M209 97C209 94.7909 210.791 93 213 93H235C237.209 93 239 94.7909 239 97V182H209V97Z" fill="#FDE17C"/>
<path d="M244 132C244 129.791 245.791 128 248 128H270C272.209 128 274 129.791 274 132V182H244V132Z" fill="#465B81"/>
<path d="M279 124C279 121.791 280.791 120 283 120H305C307.209 120 309 121.791 309 124V182H279V124Z" fill="#465B81"/>
<path d="M46.5 27.0755C47.691 25.7261 49.4336 24.875 51.375 24.875C54.9649 24.875 57.875 27.7851 57.875 31.375C57.875 34.9649 54.9649 37.875 51.375 37.875C49.4336 37.875 47.691 37.0239 46.5 35.6745M51.375 54.125H31.875V52.5C31.875 47.1152 36.2402 42.75 41.625 42.75C47.0098 42.75 51.375 47.1152 51.375 52.5V54.125ZM51.375 54.125H61.125V52.5C61.125 47.1152 56.7598 42.75 51.375 42.75C49.5991 42.75 47.9341 43.2248 46.5 44.0544M48.125 31.375C48.125 34.9649 45.2149 37.875 41.625 37.875C38.0351 37.875 35.125 34.9649 35.125 31.375C35.125 27.7851 38.0351 24.875 41.625 24.875C45.2149 24.875 48.125 27.7851 48.125 31.375Z" stroke="#A7BFDC" stroke-width="2" stroke-linecap="round" stroke-linejoin="round"/>
<path d="M32.9516 92C32.6636 92 32.4296 91.916 32.2496 91.748C32.0816 91.568 31.9976 91.346 31.9976 91.082V80.3H33.9236V91.082C33.9236 91.346 33.8276 91.568 33.6356 91.748C33.4556 91.916 33.2276 92 32.9516 92ZM28.8656 81.128C28.6136 81.128 28.3976 81.05 28.2176 80.894C28.0376 80.726 27.9476 80.51 27.9476 80.246C27.9476 79.994 28.0376 79.79 28.2176 79.634C28.3976 79.478 28.6136 79.4 28.8656 79.4H37.0556C37.3076 79.4 37.5176 79.484 37.6856 79.652C37.8656 79.808 37.9556 80.012 37.9556 80.264C37.9556 80.528 37.8656 80.738 37.6856 80.894C37.5176 81.05 37.3076 81.128 37.0556 81.128H28.8656ZM46.7041 87.266C46.7041 88.226 46.4941 89.078 46.0741 89.822C45.6541 90.554 45.0841 91.13 44.3641 91.55C43.6441 91.97 42.8341 92.18 41.9341 92.18C41.0341 92.18 40.2241 91.97 39.5041 91.55C38.7841 91.13 38.2081 90.554 37.7761 89.822C37.3561 89.078 37.1461 88.226 37.1461 87.266C37.1461 86.294 37.3561 85.442 37.7761 84.71C38.2081 83.966 38.7841 83.384 39.5041 82.964C40.2241 82.532 41.0341 82.316 41.9341 82.316C42.8341 82.316 43.6441 82.532 44.3641 82.964C45.0841 83.384 45.6541 83.966 46.0741 84.71C46.4941 85.442 46.7041 86.294 46.7041 87.266ZM44.9041 87.266C44.9041 86.606 44.7721 86.036 44.5081 85.556C44.2441 85.064 43.8841 84.68 43.4281 84.404C42.9841 84.116 42.4861 83.972 41.9341 83.972C41.3821 83.972 40.8781 84.116 40.4221 84.404C39.9661 84.68 39.6061 85.064 39.3421 85.556C39.0781 86.036 38.9461 86.606 38.9461 87.266C38.9461 87.902 39.0781 88.466 39.3421 88.958C39.6061 89.45 39.9661 89.834 40.4221 90.11C40.8781 90.386 41.3821 90.524 41.9341 90.524C42.4861 90.524 42.9841 90.386 43.4281 90.11C43.8841 89.834 44.2441 89.45 44.5081 88.958C44.7721 88.466 44.9041 87.902 44.9041 87.266ZM48.6154 82.64H52.8454C53.0854 82.64 53.2834 82.724 53.4394 82.892C53.6074 83.048 53.6914 83.246 53.6914 83.486C53.6914 83.714 53.6074 83.906 53.4394 84.062C53.2834 84.218 53.0854 84.296 52.8454 84.296H48.6154C48.3754 84.296 48.1714 84.218 48.0034 84.062C47.8474 83.894 47.7694 83.696 47.7694 83.468C47.7694 83.228 47.8474 83.03 48.0034 82.874C48.1714 82.718 48.3754 82.64 48.6154 82.64ZM50.5054 80.3C50.7694 80.3 50.9854 80.39 51.1534 80.57C51.3214 80.738 51.4054 80.954 51.4054 81.218V89.57C51.4054 89.786 51.4414 89.96 51.5134 90.092C51.5854 90.224 51.6814 90.314 51.8014 90.362C51.9334 90.41 52.0654 90.434 52.1974 90.434C52.3294 90.434 52.4434 90.41 52.5394 90.362C52.6474 90.314 52.7734 90.29 52.9174 90.29C53.0614 90.29 53.1934 90.356 53.3134 90.488C53.4334 90.62 53.4934 90.8 53.4934 91.028C53.4934 91.316 53.3374 91.55 53.0254 91.73C52.7134 91.91 52.3774 92 52.0174 92C51.8134 92 51.5734 91.982 51.2974 91.946C51.0214 91.91 50.7514 91.82 50.4874 91.676C50.2354 91.532 50.0254 91.304 49.8574 90.992C49.6894 90.668 49.6054 90.218 49.6054 89.642V81.218C49.6054 80.954 49.6894 80.738 49.8574 80.57C50.0374 80.39 50.2534 80.3 50.5054 80.3ZM63.4428 82.388C63.7068 82.388 63.9228 82.478 64.0908 82.658C64.2588 82.826 64.3428 83.042 64.3428 83.306V91.082C64.3428 91.346 64.2588 91.568 64.0908 91.748C63.9228 91.916 63.7068 92 63.4428 92C63.1908 92 62.9748 91.916 62.7948 91.748C62.6268 91.568 62.5428 91.346 62.5428 91.082V89.786L62.9208 89.84C62.9208 90.056 62.8308 90.296 62.6508 90.56C62.4828 90.824 62.2488 91.082 61.9488 91.334C61.6488 91.574 61.2948 91.778 60.8868 91.946C60.4788 92.102 60.0408 92.18 59.5728 92.18C58.7448 92.18 58.0008 91.97 57.3408 91.55C56.6808 91.118 56.1588 90.53 55.7748 89.786C55.3908 89.042 55.1988 88.196 55.1988 87.248C55.1988 86.276 55.3908 85.424 55.7748 84.692C56.1588 83.948 56.6748 83.366 57.3228 82.946C57.9828 82.526 58.7148 82.316 59.5188 82.316C60.0348 82.316 60.5088 82.4 60.9408 82.568C61.3848 82.736 61.7688 82.952 62.0928 83.216C62.4168 83.48 62.6628 83.762 62.8308 84.062C63.0108 84.35 63.1008 84.626 63.1008 84.89L62.5428 84.944V83.306C62.5428 83.054 62.6268 82.838 62.7948 82.658C62.9748 82.478 63.1908 82.388 63.4428 82.388ZM59.7708 90.524C60.3348 90.524 60.8328 90.38 61.2648 90.092C61.6968 89.804 62.0328 89.414 62.2728 88.922C62.5128 88.418 62.6328 87.86 62.6328 87.248C62.6328 86.624 62.5128 86.066 62.2728 85.574C62.0328 85.082 61.6968 84.692 61.2648 84.404C60.8328 84.116 60.3348 83.972 59.7708 83.972C59.2188 83.972 58.7268 84.116 58.2948 84.404C57.8748 84.692 57.5388 85.082 57.2868 85.574C57.0468 86.066 56.9268 86.624 56.9268 87.248C56.9268 87.86 57.0468 88.418 57.2868 88.922C57.5388 89.414 57.8748 89.804 58.2948 90.092C58.7268 90.38 59.2188 90.524 59.7708 90.524ZM68.8085 91.082C68.8085 91.346 68.7185 91.568 68.5385 91.748C68.3705 91.916 68.1605 92 67.9085 92C67.6565 92 67.4405 91.916 67.2605 91.748C67.0925 91.568 67.0085 91.346 67.0085 91.082V79.598C67.0085 79.334 67.0985 79.118 67.2785 78.95C67.4585 78.77 67.6745 78.68 67.9265 78.68C68.1905 78.68 68.4005 78.77 68.5565 78.95C68.7245 79.118 68.8085 79.334 68.8085 79.598V91.082ZM85.6413 80.12C85.9053 80.252 86.0553 80.456 86.0913 80.732C86.1393 81.008 86.0733 81.26 85.8933 81.488C85.7613 81.668 85.5873 81.77 85.3713 81.794C85.1673 81.818 84.9633 81.776 84.7593 81.668C84.4113 81.488 84.0453 81.344 83.6613 81.236C83.2773 81.128 82.8693 81.074 82.4373 81.074C81.7533 81.074 81.1353 81.188 80.5833 81.416C80.0433 81.632 79.5753 81.95 79.1793 82.37C78.7833 82.778 78.4773 83.264 78.2613 83.828C78.0573 84.392 77.9553 85.016 77.9553 85.7C77.9553 86.456 78.0693 87.128 78.2973 87.716C78.5253 88.292 78.8373 88.784 79.2333 89.192C79.6413 89.588 80.1153 89.888 80.6553 90.092C81.2073 90.284 81.8013 90.38 82.4373 90.38C82.8453 90.38 83.2413 90.332 83.6253 90.236C84.0213 90.14 84.3933 89.996 84.7413 89.804C84.9573 89.696 85.1673 89.66 85.3713 89.696C85.5873 89.72 85.7613 89.822 85.8933 90.002C86.0973 90.254 86.1693 90.512 86.1093 90.776C86.0613 91.028 85.9113 91.22 85.6593 91.352C85.3593 91.52 85.0293 91.664 84.6693 91.784C84.3093 91.904 83.9433 92 83.5713 92.072C83.1993 92.144 82.8213 92.18 82.4373 92.18C81.5733 92.18 80.7573 92.036 79.9893 91.748C79.2213 91.46 78.5373 91.04 77.9373 90.488C77.3373 89.936 76.8633 89.258 76.5153 88.454C76.1793 87.65 76.0113 86.732 76.0113 85.7C76.0113 84.776 76.1673 83.924 76.4793 83.144C76.8033 82.352 77.2533 81.674 77.8293 81.11C78.4173 80.534 79.1013 80.09 79.8813 79.778C80.6613 79.454 81.5133 79.292 82.4373 79.292C83.0133 79.292 83.5713 79.364 84.1113 79.508C84.6633 79.652 85.1733 79.856 85.6413 80.12ZM88.8407 92C88.5767 92 88.3607 91.916 88.1927 91.748C88.0247 91.568 87.9407 91.346 87.9407 91.082V83.45C87.9407 83.186 88.0247 82.97 88.1927 82.802C88.3607 82.622 88.5767 82.532 88.8407 82.532C89.0927 82.532 89.3027 82.622 89.4707 82.802C89.6507 82.97 89.7407 83.186 89.7407 83.45V85.466L89.5607 84.692C89.6567 84.356 89.8007 84.044 89.9927 83.756C90.1967 83.468 90.4367 83.216 90.7127 83C90.9887 82.784 91.2947 82.616 91.6307 82.496C91.9787 82.376 92.3387 82.316 92.7107 82.316C93.0227 82.316 93.2927 82.4 93.5207 82.568C93.7487 82.736 93.8627 82.946 93.8627 83.198C93.8627 83.522 93.7787 83.762 93.6107 83.918C93.4427 84.062 93.2567 84.134 93.0527 84.134C92.8727 84.134 92.6987 84.098 92.5307 84.026C92.3627 83.942 92.1647 83.9 91.9367 83.9C91.6847 83.9 91.4267 83.966 91.1627 84.098C90.8987 84.23 90.6587 84.428 90.4427 84.692C90.2267 84.944 90.0527 85.244 89.9207 85.592C89.8007 85.94 89.7407 86.33 89.7407 86.762V91.082C89.7407 91.346 89.6507 91.568 89.4707 91.748C89.3027 91.916 89.0927 92 88.8407 92ZM99.4698 92.18C98.4738 92.18 97.6098 91.976 96.8778 91.568C96.1458 91.148 95.5758 90.578 95.1678 89.858C94.7718 89.126 94.5738 88.292 94.5738 87.356C94.5738 86.3 94.7838 85.4 95.2038 84.656C95.6358 83.9 96.1938 83.324 96.8778 82.928C97.5618 82.52 98.2878 82.316 99.0558 82.316C99.6438 82.316 100.202 82.436 100.73 82.676C101.258 82.904 101.726 83.228 102.134 83.648C102.554 84.056 102.884 84.542 103.124 85.106C103.364 85.658 103.49 86.264 103.502 86.924C103.49 87.164 103.394 87.362 103.214 87.518C103.034 87.674 102.824 87.752 102.584 87.752H95.5818L95.1498 86.222H101.918L101.576 86.546V86.096C101.552 85.676 101.414 85.31 101.162 84.998C100.91 84.674 100.598 84.428 100.226 84.26C99.8538 84.08 99.4638 83.99 99.0558 83.99C98.6958 83.99 98.3478 84.05 98.0118 84.17C97.6878 84.278 97.3938 84.458 97.1298 84.71C96.8778 84.962 96.6738 85.298 96.5178 85.718C96.3738 86.126 96.3018 86.636 96.3018 87.248C96.3018 87.908 96.4398 88.484 96.7158 88.976C96.9918 89.468 97.3638 89.852 97.8318 90.128C98.2998 90.392 98.8158 90.524 99.3798 90.524C99.8238 90.524 100.19 90.482 100.478 90.398C100.766 90.302 101.006 90.188 101.198 90.056C101.39 89.924 101.558 89.798 101.702 89.678C101.882 89.57 102.062 89.516 102.242 89.516C102.458 89.516 102.638 89.594 102.782 89.75C102.926 89.894 102.998 90.068 102.998 90.272C102.998 90.536 102.866 90.776 102.602 90.992C102.278 91.304 101.828 91.58 101.252 91.82C100.688 92.06 100.094 92.18 99.4698 92.18ZM113.365 82.388C113.629 82.388 113.845 82.478 114.013 82.658C114.181 82.826 114.265 83.042 114.265 83.306V91.082C114.265 91.346 114.181 91.568 114.013 91.748C113.845 91.916 113.629 92 113.365 92C113.113 92 112.897 91.916 112.717 91.748C112.549 91.568 112.465 91.346 112.465 91.082V89.786L112.843 89.84C112.843 90.056 112.753 90.296 112.573 90.56C112.405 90.824 112.171 91.082 111.871 91.334C111.571 91.574 111.217 91.778 110.809 91.946C110.401 92.102 109.963 92.18 109.495 92.18C108.667 92.18 107.923 91.97 107.263 91.55C106.603 91.118 106.081 90.53 105.697 89.786C105.313 89.042 105.121 88.196 105.121 87.248C105.121 86.276 105.313 85.424 105.697 84.692C106.081 83.948 106.597 83.366 107.245 82.946C107.905 82.526 108.637 82.316 109.441 82.316C109.957 82.316 110.431 82.4 110.863 82.568C111.307 82.736 111.691 82.952 112.015 83.216C112.339 83.48 112.585 83.762 112.753 84.062C112.933 84.35 113.023 84.626 113.023 84.89L112.465 84.944V83.306C112.465 83.054 112.549 82.838 112.717 82.658C112.897 82.478 113.113 82.388 113.365 82.388ZM109.693 90.524C110.257 90.524 110.755 90.38 111.187 90.092C111.619 89.804 111.955 89.414 112.195 88.922C112.435 88.418 112.555 87.86 112.555 87.248C112.555 86.624 112.435 86.066 112.195 85.574C111.955 85.082 111.619 84.692 111.187 84.404C110.755 84.116 110.257 83.972 109.693 83.972C109.141 83.972 108.649 84.116 108.217 84.404C107.797 84.692 107.461 85.082 107.209 85.574C106.969 86.066 106.849 86.624 106.849 87.248C106.849 87.86 106.969 88.418 107.209 88.922C107.461 89.414 107.797 89.804 108.217 90.092C108.649 90.38 109.141 90.524 109.693 90.524ZM116.66 82.64H120.89C121.13 82.64 121.328 82.724 121.484 82.892C121.652 83.048 121.736 83.246 121.736 83.486C121.736 83.714 121.652 83.906 121.484 84.062C121.328 84.218 121.13 84.296 120.89 84.296H116.66C116.42 84.296 116.216 84.218 116.048 84.062C115.892 83.894 115.814 83.696 115.814 83.468C115.814 83.228 115.892 83.03 116.048 82.874C116.216 82.718 116.42 82.64 116.66 82.64ZM118.55 80.3C118.814 80.3 119.03 80.39 119.198 80.57C119.366 80.738 119.45 80.954 119.45 81.218V89.57C119.45 89.786 119.486 89.96 119.558 90.092C119.63 90.224 119.726 90.314 119.846 90.362C119.978 90.41 120.11 90.434 120.242 90.434C120.374 90.434 120.488 90.41 120.584 90.362C120.692 90.314 120.818 90.29 120.962 90.29C121.106 90.29 121.238 90.356 121.358 90.488C121.478 90.62 121.538 90.8 121.538 91.028C121.538 91.316 121.382 91.55 121.07 91.73C120.758 91.91 120.422 92 120.062 92C119.858 92 119.618 91.982 119.342 91.946C119.066 91.91 118.796 91.82 118.532 91.676C118.28 91.532 118.07 91.304 117.902 90.992C117.734 90.668 117.65 90.218 117.65 89.642V81.218C117.65 80.954 117.734 80.738 117.902 80.57C118.082 80.39 118.298 80.3 118.55 80.3ZM132.714 87.266C132.714 88.226 132.504 89.078 132.084 89.822C131.664 90.554 131.094 91.13 130.374 91.55C129.654 91.97 128.844 92.18 127.944 92.18C127.044 92.18 126.234 91.97 125.514 91.55C124.794 91.13 124.218 90.554 123.786 89.822C123.366 89.078 123.156 88.226 123.156 87.266C123.156 86.294 123.366 85.442 123.786 84.71C124.218 83.966 124.794 83.384 125.514 82.964C126.234 82.532 127.044 82.316 127.944 82.316C128.844 82.316 129.654 82.532 130.374 82.964C131.094 83.384 131.664 83.966 132.084 84.71C132.504 85.442 132.714 86.294 132.714 87.266ZM130.914 87.266C130.914 86.606 130.782 86.036 130.518 85.556C130.254 85.064 129.894 84.68 129.438 84.404C128.994 84.116 128.496 83.972 127.944 83.972C127.392 83.972 126.888 84.116 126.432 84.404C125.976 84.68 125.616 85.064 125.352 85.556C125.088 86.036 124.956 86.606 124.956 87.266C124.956 87.902 125.088 88.466 125.352 88.958C125.616 89.45 125.976 89.834 126.432 90.11C126.888 90.386 127.392 90.524 127.944 90.524C128.496 90.524 128.994 90.386 129.438 90.11C129.894 89.834 130.254 89.45 130.518 88.958C130.782 88.466 130.914 87.902 130.914 87.266ZM135.651 92C135.387 92 135.171 91.916 135.003 91.748C134.835 91.568 134.751 91.346 134.751 91.082V83.45C134.751 83.186 134.835 82.97 135.003 82.802C135.171 82.622 135.387 82.532 135.651 82.532C135.903 82.532 136.113 82.622 136.281 82.802C136.461 82.97 136.551 83.186 136.551 83.45V85.466L136.371 84.692C136.467 84.356 136.611 84.044 136.803 83.756C137.007 83.468 137.247 83.216 137.523 83C137.799 82.784 138.105 82.616 138.441 82.496C138.789 82.376 139.149 82.316 139.521 82.316C139.833 82.316 140.103 82.4 140.331 82.568C140.559 82.736 140.673 82.946 140.673 83.198C140.673 83.522 140.589 83.762 140.421 83.918C140.253 84.062 140.067 84.134 139.863 84.134C139.683 84.134 139.509 84.098 139.341 84.026C139.173 83.942 138.975 83.9 138.747 83.9C138.495 83.9 138.237 83.966 137.973 84.098C137.709 84.23 137.469 84.428 137.253 84.692C137.037 84.944 136.863 85.244 136.731 85.592C136.611 85.94 136.551 86.33 136.551 86.762V91.082C136.551 91.346 136.461 91.568 136.281 91.748C136.113 91.916 135.903 92 135.651 92ZM141.717 90.524C141.609 90.356 141.561 90.164 141.573 89.948C141.585 89.72 141.711 89.528 141.951 89.372C142.119 89.264 142.293 89.222 142.473 89.246C142.665 89.258 142.845 89.348 143.013 89.516C143.349 89.888 143.721 90.182 144.129 90.398C144.549 90.614 145.053 90.722 145.641 90.722C145.881 90.71 146.127 90.674 146.379 90.614C146.631 90.542 146.847 90.422 147.027 90.254C147.207 90.074 147.297 89.816 147.297 89.48C147.297 89.18 147.201 88.94 147.009 88.76C146.817 88.58 146.565 88.436 146.253 88.328C145.941 88.208 145.605 88.1 145.245 88.004C144.861 87.896 144.471 87.776 144.075 87.644C143.691 87.512 143.343 87.344 143.031 87.14C142.719 86.924 142.461 86.648 142.257 86.312C142.065 85.976 141.969 85.562 141.969 85.07C141.969 84.506 142.125 84.02 142.437 83.612C142.761 83.204 143.175 82.886 143.679 82.658C144.195 82.43 144.753 82.316 145.353 82.316C145.701 82.316 146.067 82.364 146.451 82.46C146.835 82.544 147.207 82.682 147.567 82.874C147.927 83.066 148.239 83.318 148.503 83.63C148.623 83.786 148.689 83.972 148.701 84.188C148.725 84.404 148.629 84.596 148.413 84.764C148.269 84.884 148.095 84.938 147.891 84.926C147.687 84.914 147.519 84.848 147.387 84.728C147.159 84.44 146.865 84.218 146.505 84.062C146.145 83.894 145.737 83.81 145.281 83.81C145.053 83.81 144.813 83.846 144.561 83.918C144.321 83.978 144.117 84.092 143.949 84.26C143.781 84.428 143.697 84.674 143.697 84.998C143.697 85.298 143.793 85.538 143.985 85.718C144.189 85.898 144.453 86.048 144.777 86.168C145.101 86.288 145.455 86.396 145.839 86.492C146.211 86.588 146.577 86.702 146.937 86.834C147.309 86.966 147.639 87.14 147.927 87.356C148.227 87.56 148.467 87.83 148.647 88.166C148.839 88.49 148.935 88.904 148.935 89.408C148.935 89.996 148.761 90.5 148.413 90.92C148.077 91.328 147.645 91.64 147.117 91.856C146.601 92.072 146.055 92.18 145.479 92.18C144.795 92.18 144.111 92.06 143.427 91.82C142.755 91.568 142.185 91.136 141.717 90.524Z" fill="#DBE4EE"/>
</svg>
