<svg width="348" height="207" viewBox="0 0 348 207" fill="none" xmlns="http://www.w3.org/2000/svg">
<rect width="348" height="207" rx="20" fill="#29375B"/>
<path d="M138 132C138 129.791 139.791 128 142 128H164C166.209 128 168 129.791 168 132V182H138V132Z" fill="#465B81"/>
<path d="M173 112C173 109.791 174.791 108 177 108H200C202.209 108 204 109.791 204 112V182H173V112Z" fill="#465B81"/>
<path d="M209 153C209 150.791 210.791 149 213 149H235C237.209 149 239 150.791 239 153V182H209V153Z" fill="#465B81"/>
<path d="M244 97C244 94.7909 245.791 93 248 93H270C272.209 93 274 94.7909 274 97V182H244V97Z" fill="#FDE17C"/>
<path d="M279 124C279 121.791 280.791 120 283 120H305C307.209 120 309 121.791 309 124V182H279V124Z" fill="#465B81"/>
<path d="M54.625 52.5H62.75V49.25C62.75 46.5576 60.5674 44.375 57.875 44.375C56.3221 44.375 54.9389 45.101 54.0461 46.2322M54.625 52.5H38.375M54.625 52.5V49.25C54.625 48.1836 54.4196 47.1652 54.0461 46.2322M38.375 52.5H30.25V49.25C30.25 46.5576 32.4326 44.375 35.125 44.375C36.6779 44.375 38.0611 45.101 38.9539 46.2322M38.375 52.5V49.25C38.375 48.1836 38.5804 47.1652 38.9539 46.2322M38.9539 46.2322C40.1519 43.2392 43.0791 41.125 46.5 41.125C49.9209 41.125 52.8481 43.2392 54.0461 46.2322M51.375 31.375C51.375 34.0674 49.1924 36.25 46.5 36.25C43.8076 36.25 41.625 34.0674 41.625 31.375C41.625 28.6826 43.8076 26.5 46.5 26.5C49.1924 26.5 51.375 28.6826 51.375 31.375ZM61.125 36.25C61.125 38.0449 59.6699 39.5 57.875 39.5C56.0801 39.5 54.625 38.0449 54.625 36.25C54.625 34.4551 56.0801 33 57.875 33C59.6699 33 61.125 34.4551 61.125 36.25ZM38.375 36.25C38.375 38.0449 36.9199 39.5 35.125 39.5C33.3301 39.5 31.875 38.0449 31.875 36.25C31.875 34.4551 33.3301 33 35.125 33C36.9199 33 38.375 34.4551 38.375 36.25Z" stroke="#A7BFDC" stroke-width="2" stroke-linecap="round" stroke-linejoin="round"/>
<path d="M32.6704 92C32.3824 92 32.1484 91.916 31.9684 91.748C31.8004 91.568 31.7164 91.346 31.7164 91.082V80.3H33.6424V91.082C33.6424 91.346 33.5464 91.568 33.3544 91.748C33.1744 91.916 32.9464 92 32.6704 92ZM28.5844 81.128C28.3324 81.128 28.1164 81.05 27.9364 80.894C27.7564 80.726 27.6664 80.51 27.6664 80.246C27.6664 79.994 27.7564 79.79 27.9364 79.634C28.1164 79.478 28.3324 79.4 28.5844 79.4H36.7744C37.0264 79.4 37.2364 79.484 37.4044 79.652C37.5844 79.808 37.6744 80.012 37.6744 80.264C37.6744 80.528 37.5844 80.738 37.4044 80.894C37.2364 81.05 37.0264 81.128 36.7744 81.128H28.5844ZM46.4228 87.266C46.4228 88.226 46.2128 89.078 45.7928 89.822C45.3728 90.554 44.8028 91.13 44.0828 91.55C43.3628 91.97 42.5528 92.18 41.6528 92.18C40.7528 92.18 39.9428 91.97 39.2228 91.55C38.5028 91.13 37.9268 90.554 37.4948 89.822C37.0748 89.078 36.8648 88.226 36.8648 87.266C36.8648 86.294 37.0748 85.442 37.4948 84.71C37.9268 83.966 38.5028 83.384 39.2228 82.964C39.9428 82.532 40.7528 82.316 41.6528 82.316C42.5528 82.316 43.3628 82.532 44.0828 82.964C44.8028 83.384 45.3728 83.966 45.7928 84.71C46.2128 85.442 46.4228 86.294 46.4228 87.266ZM44.6228 87.266C44.6228 86.606 44.4908 86.036 44.2268 85.556C43.9628 85.064 43.6028 84.68 43.1468 84.404C42.7028 84.116 42.2048 83.972 41.6528 83.972C41.1008 83.972 40.5968 84.116 40.1408 84.404C39.6848 84.68 39.3248 85.064 39.0608 85.556C38.7968 86.036 38.6648 86.606 38.6648 87.266C38.6648 87.902 38.7968 88.466 39.0608 88.958C39.3248 89.45 39.6848 89.834 40.1408 90.11C40.5968 90.386 41.1008 90.524 41.6528 90.524C42.2048 90.524 42.7028 90.386 43.1468 90.11C43.6028 89.834 43.9628 89.45 44.2268 88.958C44.4908 88.466 44.6228 87.902 44.6228 87.266ZM48.3342 82.64H52.5642C52.8042 82.64 53.0022 82.724 53.1582 82.892C53.3262 83.048 53.4102 83.246 53.4102 83.486C53.4102 83.714 53.3262 83.906 53.1582 84.062C53.0022 84.218 52.8042 84.296 52.5642 84.296H48.3342C48.0942 84.296 47.8902 84.218 47.7222 84.062C47.5662 83.894 47.4882 83.696 47.4882 83.468C47.4882 83.228 47.5662 83.03 47.7222 82.874C47.8902 82.718 48.0942 82.64 48.3342 82.64ZM50.2242 80.3C50.4882 80.3 50.7042 80.39 50.8722 80.57C51.0402 80.738 51.1242 80.954 51.1242 81.218V89.57C51.1242 89.786 51.1602 89.96 51.2322 90.092C51.3042 90.224 51.4002 90.314 51.5202 90.362C51.6522 90.41 51.7842 90.434 51.9162 90.434C52.0482 90.434 52.1622 90.41 52.2582 90.362C52.3662 90.314 52.4922 90.29 52.6362 90.29C52.7802 90.29 52.9122 90.356 53.0322 90.488C53.1522 90.62 53.2122 90.8 53.2122 91.028C53.2122 91.316 53.0562 91.55 52.7442 91.73C52.4322 91.91 52.0962 92 51.7362 92C51.5322 92 51.2922 91.982 51.0162 91.946C50.7402 91.91 50.4702 91.82 50.2062 91.676C49.9542 91.532 49.7442 91.304 49.5762 90.992C49.4082 90.668 49.3242 90.218 49.3242 89.642V81.218C49.3242 80.954 49.4082 80.738 49.5762 80.57C49.7562 80.39 49.9722 80.3 50.2242 80.3ZM63.1616 82.388C63.4256 82.388 63.6416 82.478 63.8096 82.658C63.9776 82.826 64.0616 83.042 64.0616 83.306V91.082C64.0616 91.346 63.9776 91.568 63.8096 91.748C63.6416 91.916 63.4256 92 63.1616 92C62.9096 92 62.6936 91.916 62.5136 91.748C62.3456 91.568 62.2616 91.346 62.2616 91.082V89.786L62.6396 89.84C62.6396 90.056 62.5496 90.296 62.3696 90.56C62.2016 90.824 61.9676 91.082 61.6676 91.334C61.3676 91.574 61.0136 91.778 60.6056 91.946C60.1976 92.102 59.7596 92.18 59.2916 92.18C58.4636 92.18 57.7196 91.97 57.0596 91.55C56.3996 91.118 55.8776 90.53 55.4936 89.786C55.1096 89.042 54.9176 88.196 54.9176 87.248C54.9176 86.276 55.1096 85.424 55.4936 84.692C55.8776 83.948 56.3936 83.366 57.0416 82.946C57.7016 82.526 58.4336 82.316 59.2376 82.316C59.7536 82.316 60.2276 82.4 60.6596 82.568C61.1036 82.736 61.4876 82.952 61.8116 83.216C62.1356 83.48 62.3816 83.762 62.5496 84.062C62.7296 84.35 62.8196 84.626 62.8196 84.89L62.2616 84.944V83.306C62.2616 83.054 62.3456 82.838 62.5136 82.658C62.6936 82.478 62.9096 82.388 63.1616 82.388ZM59.4896 90.524C60.0536 90.524 60.5516 90.38 60.9836 90.092C61.4156 89.804 61.7516 89.414 61.9916 88.922C62.2316 88.418 62.3516 87.86 62.3516 87.248C62.3516 86.624 62.2316 86.066 61.9916 85.574C61.7516 85.082 61.4156 84.692 60.9836 84.404C60.5516 84.116 60.0536 83.972 59.4896 83.972C58.9376 83.972 58.4456 84.116 58.0136 84.404C57.5936 84.692 57.2576 85.082 57.0056 85.574C56.7656 86.066 56.6456 86.624 56.6456 87.248C56.6456 87.86 56.7656 88.418 57.0056 88.922C57.2576 89.414 57.5936 89.804 58.0136 90.092C58.4456 90.38 58.9376 90.524 59.4896 90.524ZM68.5272 91.082C68.5272 91.346 68.4372 91.568 68.2572 91.748C68.0892 91.916 67.8792 92 67.6272 92C67.3752 92 67.1592 91.916 66.9792 91.748C66.8112 91.568 66.7272 91.346 66.7272 91.082V79.598C66.7272 79.334 66.8172 79.118 66.9972 78.95C67.1772 78.77 67.3932 78.68 67.6452 78.68C67.9092 78.68 68.1192 78.77 68.2752 78.95C68.4432 79.118 68.5272 79.334 68.5272 79.598V91.082ZM85.3601 79.382C85.6241 79.382 85.8341 79.472 85.9901 79.652C86.1461 79.82 86.2241 80.036 86.2241 80.3V87.122C86.2241 88.082 86.0141 88.94 85.5941 89.696C85.1741 90.452 84.5981 91.046 83.8661 91.478C83.1341 91.898 82.2881 92.108 81.3281 92.108C80.3801 92.108 79.5341 91.898 78.7901 91.478C78.0581 91.046 77.4761 90.452 77.0441 89.696C76.6241 88.94 76.4141 88.082 76.4141 87.122V80.3C76.4141 80.036 76.5041 79.82 76.6841 79.652C76.8641 79.472 77.0981 79.382 77.3861 79.382C77.6141 79.382 77.8181 79.472 77.9981 79.652C78.1901 79.82 78.2861 80.036 78.2861 80.3V87.122C78.2861 87.758 78.4241 88.316 78.7001 88.796C78.9881 89.264 79.3661 89.636 79.8341 89.912C80.3021 90.176 80.8001 90.308 81.3281 90.308C81.9041 90.308 82.4321 90.176 82.9121 89.912C83.3921 89.636 83.7761 89.264 84.0641 88.796C84.3641 88.316 84.5141 87.758 84.5141 87.122V80.3C84.5141 80.036 84.5861 79.82 84.7301 79.652C84.8861 79.472 85.0961 79.382 85.3601 79.382ZM88.4022 90.524C88.2942 90.356 88.2462 90.164 88.2582 89.948C88.2702 89.72 88.3962 89.528 88.6362 89.372C88.8042 89.264 88.9782 89.222 89.1582 89.246C89.3502 89.258 89.5302 89.348 89.6982 89.516C90.0342 89.888 90.4062 90.182 90.8142 90.398C91.2342 90.614 91.7382 90.722 92.3262 90.722C92.5662 90.71 92.8122 90.674 93.0642 90.614C93.3162 90.542 93.5322 90.422 93.7122 90.254C93.8922 90.074 93.9822 89.816 93.9822 89.48C93.9822 89.18 93.8862 88.94 93.6942 88.76C93.5022 88.58 93.2502 88.436 92.9382 88.328C92.6262 88.208 92.2902 88.1 91.9302 88.004C91.5462 87.896 91.1562 87.776 90.7602 87.644C90.3762 87.512 90.0282 87.344 89.7162 87.14C89.4042 86.924 89.1462 86.648 88.9422 86.312C88.7502 85.976 88.6542 85.562 88.6542 85.07C88.6542 84.506 88.8102 84.02 89.1222 83.612C89.4462 83.204 89.8602 82.886 90.3642 82.658C90.8802 82.43 91.4382 82.316 92.0382 82.316C92.3862 82.316 92.7522 82.364 93.1362 82.46C93.5202 82.544 93.8922 82.682 94.2522 82.874C94.6122 83.066 94.9242 83.318 95.1882 83.63C95.3082 83.786 95.3742 83.972 95.3862 84.188C95.4102 84.404 95.3142 84.596 95.0982 84.764C94.9542 84.884 94.7802 84.938 94.5762 84.926C94.3722 84.914 94.2042 84.848 94.0722 84.728C93.8442 84.44 93.5502 84.218 93.1902 84.062C92.8302 83.894 92.4222 83.81 91.9662 83.81C91.7382 83.81 91.4982 83.846 91.2462 83.918C91.0062 83.978 90.8022 84.092 90.6342 84.26C90.4662 84.428 90.3822 84.674 90.3822 84.998C90.3822 85.298 90.4782 85.538 90.6702 85.718C90.8742 85.898 91.1382 86.048 91.4622 86.168C91.7862 86.288 92.1402 86.396 92.5242 86.492C92.8962 86.588 93.2622 86.702 93.6222 86.834C93.9942 86.966 94.3242 87.14 94.6122 87.356C94.9122 87.56 95.1522 87.83 95.3322 88.166C95.5242 88.49 95.6202 88.904 95.6202 89.408C95.6202 89.996 95.4462 90.5 95.0982 90.92C94.7622 91.328 94.3302 91.64 93.8022 91.856C93.2862 92.072 92.7402 92.18 92.1642 92.18C91.4802 92.18 90.7962 92.06 90.1122 91.82C89.4402 91.568 88.8702 91.136 88.4022 90.524ZM101.966 92.18C100.97 92.18 100.106 91.976 99.3739 91.568C98.6419 91.148 98.0719 90.578 97.6639 89.858C97.2679 89.126 97.0699 88.292 97.0699 87.356C97.0699 86.3 97.2799 85.4 97.6999 84.656C98.1319 83.9 98.6899 83.324 99.3739 82.928C100.058 82.52 100.784 82.316 101.552 82.316C102.14 82.316 102.698 82.436 103.226 82.676C103.754 82.904 104.222 83.228 104.63 83.648C105.05 84.056 105.38 84.542 105.62 85.106C105.86 85.658 105.986 86.264 105.998 86.924C105.986 87.164 105.89 87.362 105.71 87.518C105.53 87.674 105.32 87.752 105.08 87.752H98.0779L97.6459 86.222H104.414L104.072 86.546V86.096C104.048 85.676 103.91 85.31 103.658 84.998C103.406 84.674 103.094 84.428 102.722 84.26C102.35 84.08 101.96 83.99 101.552 83.99C101.192 83.99 100.844 84.05 100.508 84.17C100.184 84.278 99.8899 84.458 99.6259 84.71C99.3739 84.962 99.1699 85.298 99.0139 85.718C98.8699 86.126 98.7979 86.636 98.7979 87.248C98.7979 87.908 98.9359 88.484 99.2119 88.976C99.4879 89.468 99.8599 89.852 100.328 90.128C100.796 90.392 101.312 90.524 101.876 90.524C102.32 90.524 102.686 90.482 102.974 90.398C103.262 90.302 103.502 90.188 103.694 90.056C103.886 89.924 104.054 89.798 104.198 89.678C104.378 89.57 104.558 89.516 104.738 89.516C104.954 89.516 105.134 89.594 105.278 89.75C105.422 89.894 105.494 90.068 105.494 90.272C105.494 90.536 105.362 90.776 105.098 90.992C104.774 91.304 104.324 91.58 103.748 91.82C103.184 92.06 102.59 92.18 101.966 92.18ZM108.932 92C108.668 92 108.452 91.916 108.284 91.748C108.116 91.568 108.032 91.346 108.032 91.082V83.45C108.032 83.186 108.116 82.97 108.284 82.802C108.452 82.622 108.668 82.532 108.932 82.532C109.184 82.532 109.394 82.622 109.562 82.802C109.742 82.97 109.832 83.186 109.832 83.45V85.466L109.652 84.692C109.748 84.356 109.892 84.044 110.084 83.756C110.288 83.468 110.528 83.216 110.804 83C111.08 82.784 111.386 82.616 111.722 82.496C112.07 82.376 112.43 82.316 112.802 82.316C113.114 82.316 113.384 82.4 113.612 82.568C113.84 82.736 113.954 82.946 113.954 83.198C113.954 83.522 113.87 83.762 113.702 83.918C113.534 84.062 113.348 84.134 113.144 84.134C112.964 84.134 112.79 84.098 112.622 84.026C112.454 83.942 112.256 83.9 112.028 83.9C111.776 83.9 111.518 83.966 111.254 84.098C110.99 84.23 110.75 84.428 110.534 84.692C110.318 84.944 110.144 85.244 110.012 85.592C109.892 85.94 109.832 86.33 109.832 86.762V91.082C109.832 91.346 109.742 91.568 109.562 91.748C109.394 91.916 109.184 92 108.932 92ZM114.998 90.524C114.89 90.356 114.842 90.164 114.854 89.948C114.866 89.72 114.992 89.528 115.232 89.372C115.4 89.264 115.574 89.222 115.754 89.246C115.946 89.258 116.126 89.348 116.294 89.516C116.63 89.888 117.002 90.182 117.41 90.398C117.83 90.614 118.334 90.722 118.922 90.722C119.162 90.71 119.408 90.674 119.66 90.614C119.912 90.542 120.128 90.422 120.308 90.254C120.488 90.074 120.578 89.816 120.578 89.48C120.578 89.18 120.482 88.94 120.29 88.76C120.098 88.58 119.846 88.436 119.534 88.328C119.222 88.208 118.886 88.1 118.526 88.004C118.142 87.896 117.752 87.776 117.356 87.644C116.972 87.512 116.624 87.344 116.312 87.14C116 86.924 115.742 86.648 115.538 86.312C115.346 85.976 115.25 85.562 115.25 85.07C115.25 84.506 115.406 84.02 115.718 83.612C116.042 83.204 116.456 82.886 116.96 82.658C117.476 82.43 118.034 82.316 118.634 82.316C118.982 82.316 119.348 82.364 119.732 82.46C120.116 82.544 120.488 82.682 120.848 82.874C121.208 83.066 121.52 83.318 121.784 83.63C121.904 83.786 121.97 83.972 121.982 84.188C122.006 84.404 121.91 84.596 121.694 84.764C121.55 84.884 121.376 84.938 121.172 84.926C120.968 84.914 120.8 84.848 120.668 84.728C120.44 84.44 120.146 84.218 119.786 84.062C119.426 83.894 119.018 83.81 118.562 83.81C118.334 83.81 118.094 83.846 117.842 83.918C117.602 83.978 117.398 84.092 117.23 84.26C117.062 84.428 116.978 84.674 116.978 84.998C116.978 85.298 117.074 85.538 117.266 85.718C117.47 85.898 117.734 86.048 118.058 86.168C118.382 86.288 118.736 86.396 119.12 86.492C119.492 86.588 119.858 86.702 120.218 86.834C120.59 86.966 120.92 87.14 121.208 87.356C121.508 87.56 121.748 87.83 121.928 88.166C122.12 88.49 122.216 88.904 122.216 89.408C122.216 89.996 122.042 90.5 121.694 90.92C121.358 91.328 120.926 91.64 120.398 91.856C119.882 92.072 119.336 92.18 118.76 92.18C118.076 92.18 117.392 92.06 116.708 91.82C116.036 91.568 115.466 91.136 114.998 90.524Z" fill="#DBE4EE"/>
</svg>
