<svg width="348" height="207" viewBox="0 0 348 207" fill="none" xmlns="http://www.w3.org/2000/svg">
<rect width="348" height="207" rx="20" fill="#29375B"/>
<path d="M138 146C138 143.791 139.791 142 142 142H164C166.209 142 168 143.791 168 146V182H138V146Z" fill="#465B81"/>
<path d="M173 108C173 105.791 174.791 104 177 104H199C201.209 104 203 105.791 203 108V182H173V108Z" fill="#FDE17C"/>
<path d="M208 132C208 129.791 209.791 128 212 128H234C236.209 128 238 129.791 238 132V182H208V132Z" fill="#465B81"/>
<path d="M243 118C243 115.791 244.791 114 247 114H270C272.209 114 274 115.791 274 118V182H243V118Z" fill="#465B81"/>
<path d="M279 153C279 150.791 280.791 149 283 149H305C307.209 149 309 150.791 309 153V182H279V153Z" fill="#465B81"/>
<path d="M46.5 30.1608V51.2858M46.5 30.1608C44.6022 28.8999 42.0256 28.125 39.1875 28.125C36.3495 28.125 33.7728 28.8999 31.875 30.1608V51.2858C33.7728 50.0249 36.3495 49.25 39.1875 49.25C42.0256 49.25 44.6022 50.0249 46.5 51.2858M46.5 30.1608C48.3978 28.8999 50.9744 28.125 53.8125 28.125C56.6506 28.125 59.2272 28.8999 61.125 30.1608V51.2858C59.2272 50.0249 56.6506 49.25 53.8125 49.25C50.9744 49.25 48.3978 50.0249 46.5 51.2858" stroke="#A7BFDC" stroke-width="2" stroke-linecap="round" stroke-linejoin="round"/>
<path d="M33.0366 92C32.7486 92 32.5146 91.916 32.3346 91.748C32.1666 91.568 32.0826 91.346 32.0826 91.082V80.3H34.0086V91.082C34.0086 91.346 33.9126 91.568 33.7206 91.748C33.5406 91.916 33.3126 92 33.0366 92ZM28.9506 81.128C28.6986 81.128 28.4826 81.05 28.3026 80.894C28.1226 80.726 28.0326 80.51 28.0326 80.246C28.0326 79.994 28.1226 79.79 28.3026 79.634C28.4826 79.478 28.6986 79.4 28.9506 79.4H37.1406C37.3926 79.4 37.6026 79.484 37.7706 79.652C37.9506 79.808 38.0406 80.012 38.0406 80.264C38.0406 80.528 37.9506 80.738 37.7706 80.894C37.6026 81.05 37.3926 81.128 37.1406 81.128H28.9506ZM46.789 87.266C46.789 88.226 46.579 89.078 46.159 89.822C45.739 90.554 45.169 91.13 44.449 91.55C43.729 91.97 42.919 92.18 42.019 92.18C41.119 92.18 40.309 91.97 39.589 91.55C38.869 91.13 38.293 90.554 37.861 89.822C37.441 89.078 37.231 88.226 37.231 87.266C37.231 86.294 37.441 85.442 37.861 84.71C38.293 83.966 38.869 83.384 39.589 82.964C40.309 82.532 41.119 82.316 42.019 82.316C42.919 82.316 43.729 82.532 44.449 82.964C45.169 83.384 45.739 83.966 46.159 84.71C46.579 85.442 46.789 86.294 46.789 87.266ZM44.989 87.266C44.989 86.606 44.857 86.036 44.593 85.556C44.329 85.064 43.969 84.68 43.513 84.404C43.069 84.116 42.571 83.972 42.019 83.972C41.467 83.972 40.963 84.116 40.507 84.404C40.051 84.68 39.691 85.064 39.427 85.556C39.163 86.036 39.031 86.606 39.031 87.266C39.031 87.902 39.163 88.466 39.427 88.958C39.691 89.45 40.051 89.834 40.507 90.11C40.963 90.386 41.467 90.524 42.019 90.524C42.571 90.524 43.069 90.386 43.513 90.11C43.969 89.834 44.329 89.45 44.593 88.958C44.857 88.466 44.989 87.902 44.989 87.266ZM48.7004 82.64H52.9304C53.1704 82.64 53.3684 82.724 53.5244 82.892C53.6924 83.048 53.7764 83.246 53.7764 83.486C53.7764 83.714 53.6924 83.906 53.5244 84.062C53.3684 84.218 53.1704 84.296 52.9304 84.296H48.7004C48.4604 84.296 48.2564 84.218 48.0884 84.062C47.9324 83.894 47.8544 83.696 47.8544 83.468C47.8544 83.228 47.9324 83.03 48.0884 82.874C48.2564 82.718 48.4604 82.64 48.7004 82.64ZM50.5904 80.3C50.8544 80.3 51.0704 80.39 51.2384 80.57C51.4064 80.738 51.4904 80.954 51.4904 81.218V89.57C51.4904 89.786 51.5264 89.96 51.5984 90.092C51.6704 90.224 51.7664 90.314 51.8864 90.362C52.0184 90.41 52.1504 90.434 52.2824 90.434C52.4144 90.434 52.5284 90.41 52.6244 90.362C52.7324 90.314 52.8584 90.29 53.0024 90.29C53.1464 90.29 53.2784 90.356 53.3984 90.488C53.5184 90.62 53.5784 90.8 53.5784 91.028C53.5784 91.316 53.4224 91.55 53.1104 91.73C52.7984 91.91 52.4624 92 52.1024 92C51.8984 92 51.6584 91.982 51.3824 91.946C51.1064 91.91 50.8364 91.82 50.5724 91.676C50.3204 91.532 50.1104 91.304 49.9424 90.992C49.7744 90.668 49.6904 90.218 49.6904 89.642V81.218C49.6904 80.954 49.7744 80.738 49.9424 80.57C50.1224 80.39 50.3384 80.3 50.5904 80.3ZM63.5278 82.388C63.7918 82.388 64.0078 82.478 64.1758 82.658C64.3438 82.826 64.4278 83.042 64.4278 83.306V91.082C64.4278 91.346 64.3438 91.568 64.1758 91.748C64.0078 91.916 63.7918 92 63.5278 92C63.2758 92 63.0598 91.916 62.8798 91.748C62.7118 91.568 62.6278 91.346 62.6278 91.082V89.786L63.0058 89.84C63.0058 90.056 62.9158 90.296 62.7358 90.56C62.5678 90.824 62.3338 91.082 62.0338 91.334C61.7338 91.574 61.3798 91.778 60.9718 91.946C60.5638 92.102 60.1258 92.18 59.6578 92.18C58.8298 92.18 58.0858 91.97 57.4258 91.55C56.7658 91.118 56.2438 90.53 55.8598 89.786C55.4758 89.042 55.2838 88.196 55.2838 87.248C55.2838 86.276 55.4758 85.424 55.8598 84.692C56.2438 83.948 56.7598 83.366 57.4078 82.946C58.0678 82.526 58.7998 82.316 59.6038 82.316C60.1198 82.316 60.5938 82.4 61.0258 82.568C61.4698 82.736 61.8538 82.952 62.1778 83.216C62.5018 83.48 62.7478 83.762 62.9158 84.062C63.0958 84.35 63.1858 84.626 63.1858 84.89L62.6278 84.944V83.306C62.6278 83.054 62.7118 82.838 62.8798 82.658C63.0598 82.478 63.2758 82.388 63.5278 82.388ZM59.8558 90.524C60.4198 90.524 60.9178 90.38 61.3498 90.092C61.7818 89.804 62.1178 89.414 62.3578 88.922C62.5978 88.418 62.7178 87.86 62.7178 87.248C62.7178 86.624 62.5978 86.066 62.3578 85.574C62.1178 85.082 61.7818 84.692 61.3498 84.404C60.9178 84.116 60.4198 83.972 59.8558 83.972C59.3038 83.972 58.8118 84.116 58.3798 84.404C57.9598 84.692 57.6238 85.082 57.3718 85.574C57.1318 86.066 57.0118 86.624 57.0118 87.248C57.0118 87.86 57.1318 88.418 57.3718 88.922C57.6238 89.414 57.9598 89.804 58.3798 90.092C58.8118 90.38 59.3038 90.524 59.8558 90.524ZM68.8935 91.082C68.8935 91.346 68.8035 91.568 68.6235 91.748C68.4555 91.916 68.2455 92 67.9935 92C67.7415 92 67.5255 91.916 67.3455 91.748C67.1775 91.568 67.0935 91.346 67.0935 91.082V79.598C67.0935 79.334 67.1835 79.118 67.3635 78.95C67.5435 78.77 67.7595 78.68 68.0115 78.68C68.2755 78.68 68.4855 78.77 68.6415 78.95C68.8095 79.118 68.8935 79.334 68.8935 79.598V91.082ZM85.7263 80.12C85.9903 80.252 86.1403 80.456 86.1763 80.732C86.2243 81.008 86.1583 81.26 85.9783 81.488C85.8463 81.668 85.6723 81.77 85.4563 81.794C85.2523 81.818 85.0483 81.776 84.8443 81.668C84.4963 81.488 84.1303 81.344 83.7463 81.236C83.3623 81.128 82.9543 81.074 82.5223 81.074C81.8383 81.074 81.2203 81.188 80.6683 81.416C80.1283 81.632 79.6603 81.95 79.2643 82.37C78.8683 82.778 78.5623 83.264 78.3463 83.828C78.1423 84.392 78.0403 85.016 78.0403 85.7C78.0403 86.456 78.1543 87.128 78.3823 87.716C78.6103 88.292 78.9223 88.784 79.3183 89.192C79.7263 89.588 80.2003 89.888 80.7403 90.092C81.2923 90.284 81.8863 90.38 82.5223 90.38C82.9303 90.38 83.3263 90.332 83.7103 90.236C84.1063 90.14 84.4783 89.996 84.8263 89.804C85.0423 89.696 85.2523 89.66 85.4563 89.696C85.6723 89.72 85.8463 89.822 85.9783 90.002C86.1823 90.254 86.2543 90.512 86.1943 90.776C86.1463 91.028 85.9963 91.22 85.7443 91.352C85.4443 91.52 85.1143 91.664 84.7543 91.784C84.3943 91.904 84.0283 92 83.6563 92.072C83.2843 92.144 82.9063 92.18 82.5223 92.18C81.6583 92.18 80.8423 92.036 80.0743 91.748C79.3063 91.46 78.6223 91.04 78.0223 90.488C77.4223 89.936 76.9483 89.258 76.6003 88.454C76.2643 87.65 76.0963 86.732 76.0963 85.7C76.0963 84.776 76.2523 83.924 76.5643 83.144C76.8883 82.352 77.3383 81.674 77.9143 81.11C78.5023 80.534 79.1863 80.09 79.9663 79.778C80.7463 79.454 81.5983 79.292 82.5223 79.292C83.0983 79.292 83.6563 79.364 84.1963 79.508C84.7483 79.652 85.2583 79.856 85.7263 80.12ZM97.0976 87.266C97.0976 88.226 96.8876 89.078 96.4676 89.822C96.0476 90.554 95.4776 91.13 94.7576 91.55C94.0376 91.97 93.2276 92.18 92.3276 92.18C91.4276 92.18 90.6176 91.97 89.8976 91.55C89.1776 91.13 88.6016 90.554 88.1696 89.822C87.7496 89.078 87.5396 88.226 87.5396 87.266C87.5396 86.294 87.7496 85.442 88.1696 84.71C88.6016 83.966 89.1776 83.384 89.8976 82.964C90.6176 82.532 91.4276 82.316 92.3276 82.316C93.2276 82.316 94.0376 82.532 94.7576 82.964C95.4776 83.384 96.0476 83.966 96.4676 84.71C96.8876 85.442 97.0976 86.294 97.0976 87.266ZM95.2976 87.266C95.2976 86.606 95.1656 86.036 94.9016 85.556C94.6376 85.064 94.2776 84.68 93.8216 84.404C93.3776 84.116 92.8796 83.972 92.3276 83.972C91.7756 83.972 91.2716 84.116 90.8156 84.404C90.3596 84.68 89.9996 85.064 89.7356 85.556C89.4716 86.036 89.3396 86.606 89.3396 87.266C89.3396 87.902 89.4716 88.466 89.7356 88.958C89.9996 89.45 90.3596 89.834 90.8156 90.11C91.2716 90.386 91.7756 90.524 92.3276 90.524C92.8796 90.524 93.3776 90.386 93.8216 90.11C94.2776 89.834 94.6376 89.45 94.9016 88.958C95.1656 88.466 95.2976 87.902 95.2976 87.266ZM106.191 82.532C106.443 82.532 106.653 82.622 106.821 82.802C107.001 82.97 107.091 83.186 107.091 83.45V88.184C107.091 89.432 106.743 90.41 106.047 91.118C105.351 91.814 104.367 92.162 103.095 92.162C101.835 92.162 100.857 91.814 100.161 91.118C99.477 90.41 99.135 89.432 99.135 88.184V83.45C99.135 83.186 99.219 82.97 99.387 82.802C99.555 82.622 99.771 82.532 100.035 82.532C100.287 82.532 100.497 82.622 100.665 82.802C100.845 82.97 100.935 83.186 100.935 83.45V88.184C100.935 88.964 101.115 89.546 101.475 89.93C101.847 90.314 102.387 90.506 103.095 90.506C103.815 90.506 104.361 90.314 104.733 89.93C105.105 89.546 105.291 88.964 105.291 88.184V83.45C105.291 83.186 105.375 82.97 105.543 82.802C105.711 82.622 105.927 82.532 106.191 82.532ZM110.494 92C110.23 92 110.014 91.916 109.846 91.748C109.678 91.568 109.594 91.346 109.594 91.082V83.45C109.594 83.186 109.678 82.97 109.846 82.802C110.014 82.622 110.23 82.532 110.494 82.532C110.746 82.532 110.956 82.622 111.124 82.802C111.304 82.97 111.394 83.186 111.394 83.45V85.466L111.214 84.692C111.31 84.356 111.454 84.044 111.646 83.756C111.85 83.468 112.09 83.216 112.366 83C112.642 82.784 112.948 82.616 113.284 82.496C113.632 82.376 113.992 82.316 114.364 82.316C114.676 82.316 114.946 82.4 115.174 82.568C115.402 82.736 115.516 82.946 115.516 83.198C115.516 83.522 115.432 83.762 115.264 83.918C115.096 84.062 114.91 84.134 114.706 84.134C114.526 84.134 114.352 84.098 114.184 84.026C114.016 83.942 113.818 83.9 113.59 83.9C113.338 83.9 113.08 83.966 112.816 84.098C112.552 84.23 112.312 84.428 112.096 84.692C111.88 84.944 111.706 85.244 111.574 85.592C111.454 85.94 111.394 86.33 111.394 86.762V91.082C111.394 91.346 111.304 91.568 111.124 91.748C110.956 91.916 110.746 92 110.494 92ZM116.559 90.524C116.451 90.356 116.403 90.164 116.415 89.948C116.427 89.72 116.553 89.528 116.793 89.372C116.961 89.264 117.135 89.222 117.315 89.246C117.507 89.258 117.687 89.348 117.855 89.516C118.191 89.888 118.563 90.182 118.971 90.398C119.391 90.614 119.895 90.722 120.483 90.722C120.723 90.71 120.969 90.674 121.221 90.614C121.473 90.542 121.689 90.422 121.869 90.254C122.049 90.074 122.139 89.816 122.139 89.48C122.139 89.18 122.043 88.94 121.851 88.76C121.659 88.58 121.407 88.436 121.095 88.328C120.783 88.208 120.447 88.1 120.087 88.004C119.703 87.896 119.313 87.776 118.917 87.644C118.533 87.512 118.185 87.344 117.873 87.14C117.561 86.924 117.303 86.648 117.099 86.312C116.907 85.976 116.811 85.562 116.811 85.07C116.811 84.506 116.967 84.02 117.279 83.612C117.603 83.204 118.017 82.886 118.521 82.658C119.037 82.43 119.595 82.316 120.195 82.316C120.543 82.316 120.909 82.364 121.293 82.46C121.677 82.544 122.049 82.682 122.409 82.874C122.769 83.066 123.081 83.318 123.345 83.63C123.465 83.786 123.531 83.972 123.543 84.188C123.567 84.404 123.471 84.596 123.255 84.764C123.111 84.884 122.937 84.938 122.733 84.926C122.529 84.914 122.361 84.848 122.229 84.728C122.001 84.44 121.707 84.218 121.347 84.062C120.987 83.894 120.579 83.81 120.123 83.81C119.895 83.81 119.655 83.846 119.403 83.918C119.163 83.978 118.959 84.092 118.791 84.26C118.623 84.428 118.539 84.674 118.539 84.998C118.539 85.298 118.635 85.538 118.827 85.718C119.031 85.898 119.295 86.048 119.619 86.168C119.943 86.288 120.297 86.396 120.681 86.492C121.053 86.588 121.419 86.702 121.779 86.834C122.151 86.966 122.481 87.14 122.769 87.356C123.069 87.56 123.309 87.83 123.489 88.166C123.681 88.49 123.777 88.904 123.777 89.408C123.777 89.996 123.603 90.5 123.255 90.92C122.919 91.328 122.487 91.64 121.959 91.856C121.443 92.072 120.897 92.18 120.321 92.18C119.637 92.18 118.953 92.06 118.269 91.82C117.597 91.568 117.027 91.136 116.559 90.524ZM130.123 92.18C129.127 92.18 128.263 91.976 127.531 91.568C126.799 91.148 126.229 90.578 125.821 89.858C125.425 89.126 125.227 88.292 125.227 87.356C125.227 86.3 125.437 85.4 125.857 84.656C126.289 83.9 126.847 83.324 127.531 82.928C128.215 82.52 128.941 82.316 129.709 82.316C130.297 82.316 130.855 82.436 131.383 82.676C131.911 82.904 132.379 83.228 132.787 83.648C133.207 84.056 133.537 84.542 133.777 85.106C134.017 85.658 134.143 86.264 134.155 86.924C134.143 87.164 134.047 87.362 133.867 87.518C133.687 87.674 133.477 87.752 133.237 87.752H126.235L125.803 86.222H132.571L132.229 86.546V86.096C132.205 85.676 132.067 85.31 131.815 84.998C131.563 84.674 131.251 84.428 130.879 84.26C130.507 84.08 130.117 83.99 129.709 83.99C129.349 83.99 129.001 84.05 128.665 84.17C128.341 84.278 128.047 84.458 127.783 84.71C127.531 84.962 127.327 85.298 127.171 85.718C127.027 86.126 126.955 86.636 126.955 87.248C126.955 87.908 127.093 88.484 127.369 88.976C127.645 89.468 128.017 89.852 128.485 90.128C128.953 90.392 129.469 90.524 130.033 90.524C130.477 90.524 130.843 90.482 131.131 90.398C131.419 90.302 131.659 90.188 131.851 90.056C132.043 89.924 132.211 89.798 132.355 89.678C132.535 89.57 132.715 89.516 132.895 89.516C133.111 89.516 133.291 89.594 133.435 89.75C133.579 89.894 133.651 90.068 133.651 90.272C133.651 90.536 133.519 90.776 133.255 90.992C132.931 91.304 132.481 91.58 131.905 91.82C131.341 92.06 130.747 92.18 130.123 92.18ZM135.632 90.524C135.524 90.356 135.476 90.164 135.488 89.948C135.5 89.72 135.626 89.528 135.866 89.372C136.034 89.264 136.208 89.222 136.388 89.246C136.58 89.258 136.76 89.348 136.928 89.516C137.264 89.888 137.636 90.182 138.044 90.398C138.464 90.614 138.968 90.722 139.556 90.722C139.796 90.71 140.042 90.674 140.294 90.614C140.546 90.542 140.762 90.422 140.942 90.254C141.122 90.074 141.212 89.816 141.212 89.48C141.212 89.18 141.116 88.94 140.924 88.76C140.732 88.58 140.48 88.436 140.168 88.328C139.856 88.208 139.52 88.1 139.16 88.004C138.776 87.896 138.386 87.776 137.99 87.644C137.606 87.512 137.258 87.344 136.946 87.14C136.634 86.924 136.376 86.648 136.172 86.312C135.98 85.976 135.884 85.562 135.884 85.07C135.884 84.506 136.04 84.02 136.352 83.612C136.676 83.204 137.09 82.886 137.594 82.658C138.11 82.43 138.668 82.316 139.268 82.316C139.616 82.316 139.982 82.364 140.366 82.46C140.75 82.544 141.122 82.682 141.482 82.874C141.842 83.066 142.154 83.318 142.418 83.63C142.538 83.786 142.604 83.972 142.616 84.188C142.64 84.404 142.544 84.596 142.328 84.764C142.184 84.884 142.01 84.938 141.806 84.926C141.602 84.914 141.434 84.848 141.302 84.728C141.074 84.44 140.78 84.218 140.42 84.062C140.06 83.894 139.652 83.81 139.196 83.81C138.968 83.81 138.728 83.846 138.476 83.918C138.236 83.978 138.032 84.092 137.864 84.26C137.696 84.428 137.612 84.674 137.612 84.998C137.612 85.298 137.708 85.538 137.9 85.718C138.104 85.898 138.368 86.048 138.692 86.168C139.016 86.288 139.37 86.396 139.754 86.492C140.126 86.588 140.492 86.702 140.852 86.834C141.224 86.966 141.554 87.14 141.842 87.356C142.142 87.56 142.382 87.83 142.562 88.166C142.754 88.49 142.85 88.904 142.85 89.408C142.85 89.996 142.676 90.5 142.328 90.92C141.992 91.328 141.56 91.64 141.032 91.856C140.516 92.072 139.97 92.18 139.394 92.18C138.71 92.18 138.026 92.06 137.342 91.82C136.67 91.568 136.1 91.136 135.632 90.524Z" fill="#DBE4EE"/>

</svg>
