<svg width="116" height="117" viewBox="0 0 116 117" fill="none" xmlns="http://www.w3.org/2000/svg">
<g clip-path="url(#clip0_45_178)">
<path d="M7.27674 47.8742L7.26396 47.8677C7.26396 47.8677 0.712158 87.8781 0.712158 93.6458C0.712158 99.5232 5.0023 104.286 10.2955 104.286C12.4677 104.286 14.4483 103.454 16.0551 102.101L48.5298 73.3007L7.27674 47.8742ZM108.509 47.8742L108.521 47.8677C108.521 47.8677 115.073 87.8781 115.073 93.6458C115.073 99.5232 110.783 104.286 105.49 104.286C103.318 104.286 101.337 103.454 99.7304 102.101L67.2556 73.3007L108.509 47.8742Z" fill="#E6B44E"/>
<path d="M83.4484 77.5025C98.4445 77.5025 110.601 65.2401 110.601 50.1136C110.601 34.9872 98.4445 22.7247 83.4484 22.7247C68.4524 22.7247 56.2957 34.9872 56.2957 50.1136C56.2957 65.2401 68.4524 77.5025 83.4484 77.5025Z" fill="#FCD95B"/>
<path d="M32.3373 77.5025C47.3334 77.5025 59.4901 65.2401 59.4901 50.1136C59.4901 34.9872 47.3334 22.7247 32.3373 22.7247C17.3413 22.7247 5.18457 34.9872 5.18457 50.1136C5.18457 65.2401 17.3413 77.5025 32.3373 77.5025Z" fill="#FCD95B"/>
<path d="M32.3374 22.7247H83.4485V77.0836H32.3374V22.7247Z" fill="#FCD95B"/>
<path d="M42.24 91.197C51.0613 91.197 58.2123 83.9838 58.2123 75.0858C58.2123 66.1879 51.0613 58.9747 42.24 58.9747C33.4188 58.9747 26.2678 66.1879 26.2678 75.0858C26.2678 83.9838 33.4188 91.197 42.24 91.197Z" fill="#FCD95B"/>
<path d="M73.5455 91.197C82.3667 91.197 89.5177 83.9838 89.5177 75.0858C89.5177 66.1879 82.3667 58.9747 73.5455 58.9747C64.7242 58.9747 57.5732 66.1879 57.5732 75.0858C57.5732 83.9838 64.7242 91.197 73.5455 91.197Z" fill="#FCD95B"/>
<path d="M73.5614 84.8034C78.8541 84.8034 83.1447 80.4755 83.1447 75.1368C83.1447 69.798 78.8541 65.4701 73.5614 65.4701C68.2686 65.4701 63.978 69.798 63.978 75.1368C63.978 80.4755 68.2686 84.8034 73.5614 84.8034Z" fill="#FEECAD"/>
<path d="M42.2559 84.8034C47.5487 84.8034 51.8393 80.4755 51.8393 75.1368C51.8393 69.798 47.5487 65.4701 42.2559 65.4701C36.9632 65.4701 32.6726 69.798 32.6726 75.1368C32.6726 80.4755 36.9632 84.8034 42.2559 84.8034Z" fill="#FEECAD"/>
<path d="M82.6817 41.043C85.5098 41.043 87.8024 38.7305 87.8024 35.8778C87.8024 33.0251 85.5098 30.7126 82.6817 30.7126C79.8537 30.7126 77.561 33.0251 77.561 35.8778C77.561 38.7305 79.8537 41.043 82.6817 41.043Z" fill="#2DD4BF"/>
<path d="M82.6817 61.9037C85.5098 61.9037 87.8024 59.5911 87.8024 56.7385C87.8024 53.8858 85.5098 51.5732 82.6817 51.5732C79.8537 51.5732 77.561 53.8858 77.561 56.7385C77.561 59.5911 79.8537 61.9037 82.6817 61.9037Z" fill="#77B255"/>
<path d="M72.3411 51.4734C75.1692 51.4734 77.4618 49.1608 77.4618 46.3082C77.4618 43.4555 75.1692 41.1429 72.3411 41.1429C69.5131 41.1429 67.2205 43.4555 67.2205 46.3082C67.2205 49.1608 69.5131 51.4734 72.3411 51.4734Z" fill="#50A5E6"/>
<path d="M93.0221 51.4734C95.8501 51.4734 98.1428 49.1608 98.1428 46.3082C98.1428 43.4555 95.8501 41.1429 93.0221 41.1429C90.194 41.1429 87.9014 43.4555 87.9014 46.3082C87.9014 49.1608 90.194 51.4734 93.0221 51.4734Z" fill="#FB7185"/>
<path d="M36.0844 40.3277V33.3419C36.0844 32.9104 35.9144 32.4965 35.6119 32.1913C35.3093 31.8862 34.899 31.7147 34.4712 31.7147H29.4942C29.0664 31.7147 28.656 31.8862 28.3535 32.1913C28.051 32.4965 27.881 32.9104 27.881 33.3419V40.3277L31.9827 44.4683L36.0844 40.3277ZM27.8778 52.0244V59.0102C27.8778 59.9092 28.5998 60.6374 29.491 60.6374H34.468C34.8958 60.6374 35.3061 60.466 35.6087 60.1608C35.9112 59.8556 36.0812 59.4417 36.0812 59.0102V52.0244L31.9795 47.8838L27.8778 52.0244ZM44.7094 42.0355H37.7838L33.6789 46.1761L37.7838 50.3166H44.7094C45.1369 50.3158 45.5468 50.144 45.8491 49.8391C46.1515 49.5341 46.3217 49.1207 46.3225 48.6894V43.6659C46.3225 43.2341 46.1527 42.8199 45.8502 42.5142C45.5478 42.2085 45.1375 42.0364 44.7094 42.0355ZM26.1848 42.0355H19.256C18.8284 42.0364 18.4186 42.2081 18.1162 42.513C17.8139 42.818 17.6437 43.2314 17.6428 43.6627V48.6829C17.6428 49.5819 18.3648 50.3102 19.256 50.3102H26.1816L30.2864 46.1696L26.1848 42.0355Z" fill="#6480A7"/>
</g>
<defs>
<clipPath id="clip0_45_178">
<rect width="115" height="116" fill="white" transform="translate(0.472656 0.00482178)"/>
</clipPath>
</defs>
</svg>
