<svg width="50" height="50" viewBox="0 0 50 50" fill="none" xmlns="http://www.w3.org/2000/svg">
<path d="M50 25C50 38.8071 38.8071 50 25 50C11.1929 50 0 38.8071 0 25C0 11.1929 11.1929 0 25 0C38.8071 0 50 11.1929 50 25Z" fill="white"/>
<path d="M40.7542 15.75C39.6312 16.2604 38.4208 16.5958 37.1667 16.7563C38.45 15.9833 39.4417 14.7583 39.9083 13.2854C38.6979 14.0146 37.3562 14.525 35.9417 14.8167C34.7896 13.5625 33.1708 12.8333 31.3333 12.8333C27.9063 12.8333 25.1063 15.6333 25.1063 19.0896C25.1063 19.5854 25.1646 20.0667 25.2667 20.5187C20.075 20.2562 15.4521 17.7625 12.375 13.9854C11.8354 14.9042 11.5292 15.9833 11.5292 17.1208C11.5292 19.2938 12.6229 21.2188 14.3146 22.3125C13.2792 22.3125 12.3167 22.0208 11.4708 21.5833V21.6271C11.4708 24.6604 13.6292 27.1979 16.4875 27.7667C15.5698 28.0178 14.6064 28.0527 13.6729 27.8687C14.069 29.1119 14.8447 30.1998 15.8911 30.9793C16.9374 31.7588 18.2017 32.1908 19.5063 32.2146C17.2949 33.9652 14.5537 34.9115 11.7333 34.8979C11.2375 34.8979 10.7417 34.8687 10.2458 34.8104C13.0167 36.5896 16.3125 37.625 19.8417 37.625C31.3333 37.625 37.6479 28.0875 37.6479 19.8188C37.6479 19.5417 37.6479 19.2792 37.6333 19.0021C38.8583 18.1271 39.9083 17.0187 40.7542 15.75Z" fill="#29375B"/>
</svg>
