<svg width="424" height="157" viewBox="0 0 424 157" fill="none" xmlns="http://www.w3.org/2000/svg">
<path fill-rule="evenodd" clip-rule="evenodd" d="M230.936 89.7077C236.876 88.5143 242.829 87.3343 248.796 86.1677C249.766 85.9777 251.106 86.2177 252.396 86.7977C254.836 87.9043 257.276 89.0077 259.716 90.1077C260.966 90.6677 262.286 90.8977 263.246 90.7177L271.506 89.1777L278.166 87.9577C278.896 87.8277 279.366 87.4777 279.496 86.9977C279.989 85.151 280.483 83.311 280.976 81.4777C281.106 80.9977 281.566 80.6677 282.286 80.5377C291.379 78.8977 300.549 77.2843 309.796 75.6977C332.576 72.0977 355.876 68.5477 379.696 65.0477C381.626 64.7877 384.916 65.6177 387.016 66.8977C392.46 71.3044 397.476 75.5638 402.141 79.5245L402.141 79.5247C409.228 85.5425 415.503 90.8707 421.232 94.9777C421.468 95.3859 421.462 95.7941 421.26 96.1636L421.264 96.236L422.822 123.938C423.492 125.098 422.212 126.258 420.022 126.528L419.911 121.842L418.432 97.5677L419.227 112.048L419.759 121.732L420.022 126.528C409.041 128.22 398.161 129.748 387.457 131.25C365.162 134.38 343.63 137.402 323.54 141.589L323.533 141.59C320.412 142.241 317.015 143.121 313.64 143.995L313.64 143.996C310.226 144.88 306.836 145.759 303.776 146.388C303.176 148.308 302.586 150.228 302.006 152.148C301.866 152.618 301.456 152.958 300.826 153.108L300.416 153.209C297.38 153.962 294.346 154.715 291.316 155.468C290.546 155.658 289.506 155.548 288.456 155.148C285.923 154.201 283.383 153.251 280.836 152.298C279.776 151.908 278.716 151.798 277.936 151.998C275.323 152.664 272.713 153.341 270.106 154.028C268.606 154.418 266.256 153.688 264.846 152.378C254.626 142.851 245.049 133.894 234.116 123.508C233.563 122.981 233.013 122.458 232.466 121.938L232.29 118.73C232.364 118.707 232.443 118.686 232.526 118.668L231.923 107.695L231.129 93.2181L230.936 89.7077Z" fill="#FCDD6B"/>
<path d="M248.796 86.1677L248.892 86.6584L248.892 86.6583L248.796 86.1677ZM230.936 89.7077L230.837 89.2175L230.413 89.3027L230.437 89.7351L230.936 89.7077ZM252.396 86.7977L252.602 86.3423L252.601 86.3416L252.396 86.7977ZM259.716 90.1077L259.51 90.5635L259.512 90.564L259.716 90.1077ZM263.246 90.7177L263.154 90.2261L263.154 90.2262L263.246 90.7177ZM271.506 89.1777L271.416 88.6858L271.414 88.6861L271.506 89.1777ZM278.166 87.9577L278.078 87.4654L278.076 87.4658L278.166 87.9577ZM279.496 86.9977L279.979 87.1284L279.979 87.1267L279.496 86.9977ZM280.976 81.4777L280.493 81.347L280.493 81.3477L280.976 81.4777ZM282.286 80.5377L282.197 80.0456L282.197 80.0456L282.286 80.5377ZM309.796 75.6977L309.718 75.2037L309.711 75.2049L309.796 75.6977ZM379.696 65.0477L379.629 64.5521L379.623 64.553L379.696 65.0477ZM387.016 66.8977L387.331 66.509L387.305 66.4881L387.276 66.4707L387.016 66.8977ZM402.141 79.5245L401.817 79.9056L401.822 79.9102L402.141 79.5245ZM402.141 79.5247L402.464 79.1435L402.459 79.139L402.141 79.5247ZM421.232 94.9777L421.665 94.7276L421.611 94.6341L421.523 94.5713L421.232 94.9777ZM421.26 96.1636L420.821 95.9238L420.753 96.0491L420.761 96.1917L421.26 96.1636ZM421.264 96.236L421.763 96.2079V96.2079L421.264 96.236ZM422.822 123.938L422.323 123.966L422.329 124.085L422.389 124.188L422.822 123.938ZM419.911 121.842L420.41 121.83L420.41 121.82L420.41 121.811L419.911 121.842ZM418.432 97.5677L418.931 97.5373L417.933 97.5951L418.432 97.5677ZM419.227 112.048L418.728 112.075L419.227 112.048ZM419.759 121.732L420.258 121.704L419.759 121.732ZM387.457 131.25L387.526 131.745L387.457 131.25ZM323.54 141.589L323.641 142.078L323.642 142.078L323.54 141.589ZM323.533 141.59L323.432 141.1L323.431 141.101L323.533 141.59ZM313.64 143.995L313.515 143.511L313.503 143.515L313.64 143.995ZM313.64 143.996L313.765 144.48L313.777 144.476L313.64 143.996ZM303.776 146.388L303.675 145.898L303.387 145.957L303.299 146.239L303.776 146.388ZM302.006 152.148L301.527 152.003L301.527 152.005L302.006 152.148ZM300.826 153.108L300.71 152.621L300.706 152.622L300.826 153.108ZM300.416 153.209L300.296 152.724L300.416 153.209ZM291.316 155.468L291.436 155.953L291.436 155.953L291.316 155.468ZM288.456 155.148L288.634 154.68L288.631 154.679L288.456 155.148ZM280.836 152.298L281.011 151.829L281.009 151.829L280.836 152.298ZM277.936 151.998L278.059 152.482L278.06 152.482L277.936 151.998ZM270.106 154.028L270.232 154.512L270.233 154.511L270.106 154.028ZM264.846 152.378L264.505 152.743L264.506 152.744L264.846 152.378ZM234.116 123.508L233.771 123.87L233.772 123.87L234.116 123.508ZM232.466 121.938L231.967 121.965L231.978 122.163L232.121 122.3L232.466 121.938ZM232.29 118.73L232.137 118.254L231.769 118.372L231.791 118.758L232.29 118.73ZM232.526 118.668L232.631 119.157L233.049 119.067L233.025 118.64L232.526 118.668ZM231.923 107.695L231.424 107.722L231.923 107.695ZM231.129 93.2181L230.629 93.2455L231.129 93.2181ZM231.041 90.1965C231.311 90.1384 231.483 89.8724 231.425 89.6025C231.367 89.3325 231.101 89.1608 230.831 89.2189L231.041 90.1965ZM263.154 90.2261C262.883 90.2767 262.704 90.5378 262.754 90.8093C262.805 91.0808 263.066 91.2598 263.338 91.2092L263.154 90.2261ZM271.506 89.1777L271.416 88.6858L271.414 88.6861L271.506 89.1777ZM278.256 88.4495C278.528 88.3997 278.708 88.1392 278.658 87.8676C278.608 87.5959 278.347 87.4161 278.076 87.4658L278.256 88.4495ZM231.129 93.2181L231.473 92.8559L231.473 92.8558L231.129 93.2181ZM232.526 94.5477L232.181 94.9099L232.186 94.9144L232.526 94.5477ZM323.641 142.078C323.912 142.022 324.086 141.758 324.03 141.487C323.974 141.217 323.709 141.043 323.439 141.099L323.641 142.078ZM323.432 141.1C323.162 141.156 322.988 141.421 323.044 141.691C323.1 141.962 323.364 142.136 323.635 142.08L323.432 141.1ZM282.354 124.501L282.178 124.969L282.183 124.971L282.354 124.501ZM280.156 123.678L279.981 124.147L279.981 124.147L280.156 123.678ZM279.246 123.338L279.421 122.869L279.384 122.855L279.345 122.848L279.246 123.338ZM290.623 126.285L290.743 126.77L290.506 125.799L290.623 126.285ZM289.726 126.508L289.605 126.022L289.846 126.993L289.726 126.508ZM231.581 108.059C231.782 108.248 232.099 108.239 232.288 108.037C232.477 107.836 232.467 107.52 232.266 107.331L231.581 108.059ZM232.29 118.73L232.442 119.207L232.81 119.089L232.789 118.703L232.29 118.73ZM232.121 122.299C232.32 122.49 232.637 122.483 232.828 122.283C233.018 122.083 233.011 121.767 232.811 121.576L232.121 122.299ZM419.618 122.247C419.841 122.409 420.154 122.358 420.316 122.135C420.478 121.911 420.427 121.598 420.204 121.436L419.618 122.247ZM420.052 121.326C419.828 121.165 419.515 121.215 419.353 121.438C419.192 121.662 419.242 121.975 419.465 122.137L420.052 121.326ZM264.346 152.378C264.346 152.654 264.57 152.878 264.846 152.878C265.122 152.878 265.346 152.654 265.346 152.378H264.346ZM278.233 123.167C278.233 122.891 278.01 122.666 277.734 122.666C277.458 122.666 277.233 122.889 277.233 123.165L278.233 123.167ZM277.732 124L277.232 123.999L277.232 124.005L277.732 124ZM278.264 127.5C278.264 127.224 278.04 127 277.764 127C277.488 127 277.264 127.224 277.264 127.5L278.264 127.5ZM277.757 139.5L277.257 139.5L278.257 139.5L277.757 139.5ZM277.754 126.285L278.254 126.285L278.254 126.28L277.754 126.285ZM277.411 148.506C277.415 148.782 277.641 149.003 277.917 149C278.193 148.997 278.415 148.77 278.411 148.494L277.411 148.506ZM277.436 152.151C277.438 152.427 277.663 152.65 277.939 152.648C278.215 152.646 278.438 152.42 278.436 152.144L277.436 152.151ZM278.395 146.21C278.393 145.934 278.168 145.712 277.892 145.714C277.616 145.716 277.393 145.941 277.395 146.217L278.395 146.21ZM287.956 155.161C287.963 155.437 288.193 155.655 288.469 155.648C288.745 155.64 288.963 155.41 288.956 155.134L287.956 155.161ZM287.732 128L287.232 127.986L287.232 128L287.232 128.013L287.732 128ZM290.63 126.099C290.354 126.099 290.13 126.323 290.13 126.599C290.13 126.876 290.354 127.099 290.63 127.099V126.099ZM290.701 126.599L291.201 126.59L291.192 126.099H290.701V126.599ZM291.232 155.5L290.732 155.509L290.744 156.137L291.353 155.985L291.232 155.5ZM300.946 153.593C301.214 153.527 301.378 153.255 301.311 152.987C301.245 152.719 300.974 152.556 300.706 152.622L300.946 153.593ZM299.236 124.148L299.736 124.127L299.711 123.515L299.116 123.662L299.236 124.148ZM268.516 125.068L268.44 125.562L268.544 125.578L268.645 125.551L268.516 125.068ZM277.732 123.031L277.831 122.541L277.786 122.532L277.739 122.531L277.732 123.031ZM276.205 122.509C275.929 122.505 275.702 122.726 275.698 123.002C275.694 123.278 275.915 123.505 276.191 123.509L276.205 122.509ZM276.361 123.483C276.628 123.411 276.786 123.137 276.715 122.871C276.643 122.604 276.369 122.446 276.103 122.517L276.361 123.483ZM289.732 126.5L289.723 127L289.787 127.001L289.849 126.986L289.732 126.5ZM300.416 123.188L300.729 123.577L300.849 123.481L300.894 123.335L300.416 123.188ZM302.186 117.428L301.877 117.034L301.754 117.131L301.708 117.281L302.186 117.428ZM303.396 116.478L303.295 115.988L303.18 116.012L303.087 116.084L303.396 116.478ZM309.836 115.659C310.106 115.603 310.28 115.339 310.224 115.068C310.168 114.798 309.904 114.624 309.633 114.68L309.836 115.659ZM309.677 114.671C309.404 114.715 309.219 114.972 309.263 115.245C309.307 115.517 309.564 115.702 309.837 115.658L309.677 114.671ZM418.432 97.5677L418.512 98.0612L418.541 98.0566L418.569 98.0486L418.432 97.5677ZM421.695 96.49C421.835 96.2521 421.756 95.9456 421.518 95.8053C421.28 95.665 420.974 95.7441 420.833 95.982L421.695 96.49ZM248.7 85.677C242.732 86.8438 236.778 88.024 230.837 89.2175L231.034 90.1979C236.974 89.0047 242.926 87.8249 248.892 86.6584L248.7 85.677ZM252.601 86.3416C251.258 85.7379 249.809 85.4598 248.7 85.677L248.892 86.6583C249.723 86.4955 250.954 86.6974 252.191 87.2537L252.601 86.3416ZM259.921 89.6518C257.482 88.552 255.042 87.4488 252.602 86.3423L252.189 87.253C254.63 88.3598 257.07 89.4633 259.51 90.5635L259.921 89.6518ZM263.154 90.2262C262.328 90.3811 261.114 90.1863 259.92 89.6514L259.512 90.564C260.817 91.149 262.244 91.4142 263.338 91.2091L263.154 90.2262ZM271.414 88.6861L263.154 90.2261L263.338 91.2092L271.598 89.6692L271.414 88.6861ZM278.076 87.4658L271.416 88.6858L271.596 89.6695L278.256 88.4495L278.076 87.4658ZM279.013 86.867C278.955 87.0824 278.712 87.3525 278.078 87.4654L278.254 88.4499C279.079 88.3028 279.777 87.8729 279.979 87.1284L279.013 86.867ZM280.493 81.3477C280 83.1814 279.506 85.0217 279.013 86.8686L279.979 87.1267C280.472 85.2803 280.965 83.4406 281.459 81.6076L280.493 81.3477ZM282.197 80.0456C281.389 80.1915 280.696 80.598 280.493 81.347L281.459 81.6084C281.516 81.3973 281.743 81.1438 282.375 81.0297L282.197 80.0456ZM309.711 75.2049C300.463 76.7918 291.292 78.4053 282.197 80.0456L282.375 81.0297C291.467 79.39 300.635 77.7769 309.88 76.1905L309.711 75.2049ZM379.623 64.553C355.802 68.0532 332.5 71.6035 309.718 75.2038L309.874 76.1915C332.652 72.5918 355.95 69.0421 379.769 65.5423L379.623 64.553ZM387.276 66.4707C386.174 65.7991 384.778 65.2548 383.415 64.9104C382.058 64.5677 380.683 64.4102 379.629 64.5521L379.763 65.5432C380.639 65.4252 381.874 65.5526 383.17 65.8799C384.459 66.2056 385.758 66.7162 386.756 67.3246L387.276 66.4707ZM402.464 79.1433C397.8 75.183 392.78 70.9199 387.331 66.509L386.701 67.2863C392.14 71.6888 397.152 75.9445 401.817 79.9056L402.464 79.1433ZM402.459 79.139L402.459 79.1388L401.822 79.9102L401.823 79.9103L402.459 79.139ZM421.523 94.5713C415.814 90.4788 409.556 85.1656 402.464 79.1435L401.817 79.9058C408.899 85.9195 415.191 91.2626 420.941 95.384L421.523 94.5713ZM421.699 96.4034C421.985 95.8793 421.987 95.2854 421.665 94.7276L420.799 95.2277C420.948 95.4864 420.939 95.709 420.821 95.9238L421.699 96.4034ZM421.763 96.2079L421.759 96.1355L420.761 96.1917L420.765 96.2641L421.763 96.2079ZM423.321 123.91L421.763 96.2079L420.765 96.2641L422.323 123.966L423.321 123.91ZM420.083 127.024C421.239 126.882 422.219 126.499 422.833 125.935C423.143 125.649 423.376 125.301 423.464 124.9C423.553 124.491 423.478 124.075 423.255 123.688L422.389 124.188C422.5 124.381 422.518 124.545 422.486 124.688C422.454 124.839 422.356 125.015 422.156 125.198C421.75 125.572 420.995 125.904 419.961 126.032L420.083 127.024ZM419.411 121.853L419.522 126.54L420.522 126.516L420.41 121.83L419.411 121.853ZM417.933 97.5981L419.412 121.872L420.41 121.811L418.931 97.5373L417.933 97.5981ZM419.726 112.02L418.931 97.5403L417.933 97.5951L418.728 112.075L419.726 112.02ZM420.258 121.704L419.726 112.02L418.728 112.075L419.259 121.759L420.258 121.704ZM420.521 126.5L420.258 121.704L419.259 121.759L419.523 126.555L420.521 126.5ZM387.526 131.745C398.23 130.243 409.114 128.715 420.098 127.022L419.946 126.034C408.969 127.726 398.092 129.252 387.387 130.755L387.526 131.745ZM323.642 142.078C343.713 137.896 365.228 134.875 387.526 131.745L387.387 130.755C365.096 133.884 343.547 136.909 323.438 141.099L323.642 142.078ZM323.635 142.08L323.641 142.078L323.439 141.099L323.432 141.1L323.635 142.08ZM313.766 144.479C317.143 143.604 320.528 142.727 323.635 142.08L323.431 141.101C320.296 141.754 316.887 142.638 313.515 143.511L313.766 144.479ZM313.777 144.476L313.778 144.476L313.503 143.515L313.503 143.515L313.777 144.476ZM303.877 146.878C306.951 146.246 310.355 145.363 313.765 144.48L313.514 143.512C310.098 144.397 306.72 145.272 303.675 145.898L303.877 146.878ZM302.485 152.292C303.064 150.374 303.654 148.455 304.253 146.537L303.299 146.239C302.698 148.16 302.108 150.082 301.527 152.003L302.485 152.292ZM300.942 153.594C301.688 153.416 302.279 152.982 302.485 152.29L301.527 152.005C301.453 152.254 301.224 152.499 300.71 152.621L300.942 153.594ZM300.536 153.695L300.946 153.593L300.706 152.622L300.296 152.724L300.536 153.695ZM291.436 155.953C294.467 155.2 297.5 154.447 300.536 153.695L300.296 152.724C297.259 153.477 294.226 154.23 291.195 154.983L291.436 155.953ZM288.278 155.615C289.389 156.038 290.536 156.175 291.436 155.953L291.196 154.982C290.555 155.14 289.623 155.057 288.634 154.681L288.278 155.615ZM280.661 152.766C283.207 153.719 285.747 154.669 288.281 155.616L288.631 154.679C286.098 153.733 283.558 152.783 281.011 151.829L280.661 152.766ZM278.06 152.482C278.709 152.316 279.661 152.398 280.663 152.767L281.009 151.829C279.891 151.417 278.722 151.28 277.812 151.513L278.06 152.482ZM270.233 154.511C272.839 153.825 275.447 153.149 278.059 152.482L277.812 151.513C275.198 152.18 272.586 152.857 269.979 153.544L270.233 154.511ZM264.506 152.744C265.273 153.457 266.282 154.001 267.293 154.317C268.297 154.631 269.36 154.738 270.232 154.512L269.98 153.544C269.352 153.707 268.49 153.644 267.591 153.363C266.7 153.084 265.828 152.608 265.186 152.011L264.506 152.744ZM233.772 123.87C244.707 134.259 254.285 143.216 264.505 152.743L265.187 152.012C254.967 142.486 245.392 133.53 234.46 123.145L233.772 123.87ZM232.121 122.3C232.668 122.82 233.218 123.343 233.771 123.87L234.461 123.146C233.907 122.619 233.357 122.096 232.81 121.575L232.121 122.3ZM231.791 118.758L231.967 121.965L232.965 121.91L232.789 118.703L231.791 118.758ZM232.421 118.179C232.323 118.2 232.228 118.225 232.137 118.254L232.442 119.207C232.5 119.188 232.563 119.171 232.631 119.157L232.421 118.179ZM231.424 107.722L232.027 118.695L233.025 118.64L232.423 107.668L231.424 107.722ZM230.629 93.2455L231.424 107.722L232.423 107.668L231.628 93.1907L230.629 93.2455ZM230.437 89.7351L230.629 93.2455L231.628 93.1907L231.435 89.6803L230.437 89.7351ZM231.221 92.616C230.486 91.914 230.225 91.3079 230.232 90.9247C230.235 90.7491 230.293 90.613 230.401 90.5021C230.515 90.3846 230.714 90.2668 231.041 90.1965L230.831 89.2189C230.368 89.3185 229.971 89.5095 229.683 89.8057C229.389 90.1086 229.24 90.4912 229.232 90.9056C229.217 91.7024 229.716 92.5613 230.531 93.3393L231.221 92.616ZM263.338 91.2092L271.598 89.6692L271.414 88.6861L263.154 90.2261L263.338 91.2092ZM271.596 89.6695L278.256 88.4495L278.076 87.4658L271.416 88.6858L271.596 89.6695ZM230.531 93.3399L230.784 93.5803L231.473 92.8558L231.221 92.6154L230.531 93.3399ZM232.871 94.1854L231.473 92.8559L230.784 93.5803L232.181 94.9099L232.871 94.1854ZM323.439 141.099L323.432 141.1L323.635 142.08L323.641 142.078L323.439 141.099ZM282.529 124.032L280.332 123.21L279.981 124.147L282.178 124.969L282.529 124.032ZM280.332 123.21L279.421 122.869L279.071 123.806L279.981 124.147L280.332 123.21ZM290.502 125.8L289.605 126.022L289.846 126.993L290.743 126.77L290.502 125.8ZM230.377 93.0051L231.172 107.485L232.17 107.43L231.375 92.9503L230.377 93.0051ZM232.266 107.331L232.013 107.093L231.329 107.822L231.581 108.059L232.266 107.331ZM231.172 107.485L231.791 118.758L232.789 118.703L232.17 107.43L231.172 107.485ZM232.811 121.576C232.117 120.914 231.842 120.332 231.823 119.945C231.814 119.764 231.86 119.627 231.942 119.519C232.027 119.407 232.18 119.29 232.442 119.207L232.137 118.254C231.728 118.385 231.384 118.602 231.147 118.912C230.907 119.227 230.805 119.602 230.824 119.994C230.862 120.752 231.346 121.56 232.121 122.299L232.811 121.576ZM420.204 121.436L420.052 121.326L419.465 122.137L419.618 122.247L420.204 121.436ZM264.346 124.501V152.378H265.346V124.501H264.346ZM277.233 123.165L277.232 123.999L278.232 124.001L278.233 123.167L277.233 123.165ZM277.264 127.5L277.257 139.5L278.257 139.5L278.264 127.5L277.264 127.5ZM277.232 124.005L277.254 126.29L278.254 126.28L278.232 123.995L277.232 124.005ZM278.257 139.5L278.256 135.5L277.256 135.5L277.257 139.5L278.257 139.5ZM278.256 135.5L278.254 126.285L277.254 126.285L277.256 135.5L278.256 135.5ZM278.411 148.494L278.256 135.494L277.256 135.506L277.411 148.506L278.411 148.494ZM278.436 152.144L278.395 146.21L277.395 146.217L277.436 152.151L278.436 152.144ZM288.956 155.134L288.232 127.987L287.232 128.013L287.956 155.161L288.956 155.134ZM288.232 128.014L288.275 126.477L287.275 126.449L287.232 127.986L288.232 128.014ZM290.63 127.099H290.701V126.099H290.63V127.099ZM290.201 126.609L290.732 155.509L291.732 155.491L291.201 126.59L290.201 126.609ZM291.353 155.985L300.537 153.695L300.295 152.724L291.111 155.015L291.353 155.985ZM300.536 153.695L300.946 153.593L300.706 152.622L300.296 152.724L300.536 153.695ZM298.736 124.168L299.916 153.23L300.916 153.189L299.736 124.127L298.736 124.168ZM232.186 94.9144L264.506 124.867L265.186 124.134L232.866 94.1809L232.186 94.9144ZM264.77 124.995L268.44 125.562L268.592 124.574L264.922 124.006L264.77 124.995ZM277.739 122.531L276.205 122.509L276.191 123.509L277.725 123.531L277.739 122.531ZM268.645 125.551L276.361 123.483L276.103 122.517L268.387 124.585L268.645 125.551ZM277.633 123.521L279.147 123.828L279.345 122.848L277.831 122.541L277.633 123.521ZM287.945 125.993L282.524 124.03L282.183 124.971L287.605 126.933L287.945 125.993ZM287.765 126.963L289.723 127L289.741 126L287.784 125.963L287.765 126.963ZM289.849 126.986L290.74 126.771L290.506 125.799L289.615 126.014L289.849 126.986ZM299.116 123.662L299.095 123.667L299.336 124.638L299.356 124.633L299.116 123.662ZM299.095 123.667L289.605 126.022L289.846 126.993L299.336 124.638L299.095 123.667ZM300.103 122.798L298.902 123.763L299.529 124.542L300.729 123.577L300.103 122.798ZM300.894 123.335L302.664 117.575L301.708 117.281L299.938 123.041L300.894 123.335ZM303.087 116.084L301.877 117.034L302.495 117.821L303.705 116.871L303.087 116.084ZM303.497 116.967L309.836 115.659L309.633 114.68L303.295 115.988L303.497 116.967ZM309.837 115.658L418.512 98.0612L418.352 97.0741L309.677 114.671L309.837 115.658ZM418.569 98.0486C419.536 97.7738 420.207 97.5562 420.677 97.3352C421.163 97.1068 421.48 96.8539 421.695 96.49L420.833 95.982C420.754 96.1174 420.624 96.2551 420.252 96.4302C419.864 96.6125 419.266 96.8112 418.295 97.0867L418.569 98.0486Z" fill="#EDC052"/>
<path fill-rule="evenodd" clip-rule="evenodd" d="M23.0838 23.7785C29.0916 24.5622 35.1077 25.3628 41.1321 26.1803C42.1116 26.3129 43.3029 26.9717 44.3373 27.9364C46.2908 29.77 48.2453 31.6005 50.2009 33.4279C51.2039 34.3607 52.3795 35.0036 53.3463 35.1424L61.6621 36.3453L68.3601 37.3356C69.093 37.4477 69.6507 37.2677 69.9284 36.8552C70.9903 35.2659 72.05 33.6829 73.1076 32.1062C73.3853 31.6936 73.9271 31.5294 74.6506 31.6382C83.7875 33.0148 92.9884 34.4413 102.253 35.9178C124.979 39.8476 148.18 43.9922 171.858 48.3517C173.769 48.7273 176.616 50.5728 178.192 52.4611C181.926 58.3865 185.303 64.0348 188.443 69.2868L188.443 69.2871C193.214 77.2671 197.438 84.3325 201.539 90.0661C201.631 90.5285 201.494 90.9131 201.184 91.1978L201.164 91.2677L193.716 117.995C193.976 119.309 192.391 119.995 190.231 119.545L191.635 115.072L198.054 91.6161L194.142 105.58L191.526 114.919L190.231 119.545C179.29 117.61 168.498 115.551 157.88 113.526C135.766 109.307 114.407 105.232 94.0399 102.724L94.0333 102.723C90.8684 102.333 87.369 102.073 83.8926 101.814L83.8922 101.813C80.3757 101.551 76.8827 101.291 73.7834 100.901C72.5969 102.525 71.4199 104.153 70.2523 105.784C69.9684 106.183 69.4707 106.373 68.826 106.312L68.4051 106.277C65.2881 106.011 62.1739 105.747 59.0626 105.483C58.2725 105.415 57.3234 104.976 56.4582 104.259C54.3648 102.547 52.2662 100.829 50.1624 99.1063C49.2845 98.3957 48.3164 97.9501 47.5136 97.8882C44.8248 97.6775 42.136 97.4773 39.447 97.2877C37.9014 97.1738 35.9118 95.7257 34.9989 94.0313C28.3924 81.7204 22.2113 70.1563 15.2065 56.8014C14.8523 56.1245 14.5002 55.4519 14.1502 54.7835L15.0167 51.6904C15.0948 51.6918 15.176 51.6973 15.2603 51.7072L18.2246 41.1252L22.1355 27.1639L23.0838 23.7785Z" fill="#6480A7"/>
<path d="M41.1321 26.1803L41.0649 26.6758L41.0651 26.6758L41.1321 26.1803ZM23.0838 23.7785L23.1485 23.2827L22.7191 23.2267L22.6023 23.6437L23.0838 23.7785ZM44.3373 27.9364L44.6795 27.5718L44.6783 27.5707L44.3373 27.9364ZM50.2009 33.4279L49.8595 33.7932L49.8604 33.794L50.2009 33.4279ZM53.3463 35.1424L53.4178 34.6476L53.4173 34.6475L53.3463 35.1424ZM61.6621 36.3453L61.7352 35.8506L61.7336 35.8504L61.6621 36.3453ZM68.3601 37.3356L68.4356 36.8413L68.4332 36.841L68.3601 37.3356ZM69.9284 36.8552L70.3432 37.1344L70.3441 37.133L69.9284 36.8552ZM73.1076 32.1062L72.6928 31.827L72.6924 31.8276L73.1076 32.1062ZM74.6506 31.6382L74.7251 31.1438L74.725 31.1438L74.6506 31.6382ZM102.253 35.9178L102.339 35.4251L102.332 35.424L102.253 35.9178ZM171.858 48.3517L171.955 47.8611L171.949 47.86L171.858 48.3517ZM178.192 52.4611L178.615 52.1945L178.597 52.1663L178.576 52.1407L178.192 52.4611ZM188.443 69.2868L188.014 69.5434L188.018 69.5495L188.443 69.2868ZM188.443 69.2871L188.873 69.0305L188.869 69.0244L188.443 69.2871ZM201.539 90.0661L202.03 89.9688L202.009 89.8629L201.946 89.7752L201.539 90.0661ZM201.184 91.1978L200.846 90.8295L200.74 90.9261L200.702 91.0636L201.184 91.1978ZM201.164 91.2677L201.646 91.4019L201.646 91.4019L201.164 91.2677ZM193.716 117.995L193.234 117.86L193.202 117.975L193.225 118.092L193.716 117.995ZM191.635 115.072L192.112 115.222L192.115 115.213L192.117 115.204L191.635 115.072ZM198.054 91.6161L198.536 91.748L197.573 91.4812L198.054 91.6161ZM194.142 105.58L193.661 105.446L194.142 105.58ZM191.526 114.919L192.008 115.054L191.526 114.919ZM157.88 113.526L157.786 114.017L157.88 113.526ZM94.0399 102.724L93.9782 103.22L93.9788 103.22L94.0399 102.724ZM94.0333 102.723L94.0951 102.227L94.0944 102.227L94.0333 102.723ZM83.8926 101.814L83.9297 101.315L83.9174 101.314L83.8926 101.814ZM83.8922 101.813L83.855 102.312L83.8674 102.313L83.8922 101.813ZM73.7834 100.901L73.8459 100.405L73.5535 100.368L73.3796 100.606L73.7834 100.901ZM70.2523 105.784L69.8458 105.493L69.8447 105.494L70.2523 105.784ZM68.826 106.312L68.873 105.815L68.8684 105.814L68.826 106.312ZM68.4051 106.277L68.4475 105.778L68.4051 106.277ZM59.0626 105.483L59.0197 105.981L59.0205 105.981L59.0626 105.483ZM56.4582 104.259L56.7772 103.874L56.7747 103.872L56.4582 104.259ZM50.1624 99.1063L50.4792 98.7195L50.477 98.7177L50.1624 99.1063ZM47.5136 97.8882L47.4745 98.3866L47.4751 98.3867L47.5136 97.8882ZM39.447 97.2877L39.4103 97.7864L39.4119 97.7865L39.447 97.2877ZM34.9989 94.0313L34.5583 94.2677L34.5587 94.2685L34.9989 94.0313ZM15.2065 56.8014L14.7635 57.0332L14.7637 57.0336L15.2065 56.8014ZM14.1502 54.7835L13.6687 54.6487L13.6152 54.8397L13.7073 55.0155L14.1502 54.7835ZM15.0167 51.6904L15.0257 51.1904L14.6394 51.1834L14.5352 51.5555L15.0167 51.6904ZM15.2603 51.7072L15.2025 52.2038L15.6266 52.2532L15.7418 51.842L15.2603 51.7072ZM18.2246 41.1252L17.7431 40.9903L18.2246 41.1252ZM22.1355 27.1639L21.654 27.029L22.1355 27.1639ZM23.0259 24.2752C23.3002 24.3071 23.5485 24.1107 23.5804 23.8364C23.6124 23.5621 23.4159 23.3139 23.1417 23.2819L23.0259 24.2752ZM53.4178 34.6476C53.1445 34.6081 52.8909 34.7976 52.8514 35.0709C52.8119 35.3442 53.0014 35.5978 53.2747 35.6373L53.4178 34.6476ZM61.6621 36.3453L61.7352 35.8506L61.7336 35.8504L61.6621 36.3453ZM68.2869 37.8302C68.5601 37.8706 68.8143 37.6819 68.8547 37.4087C68.8951 37.1356 68.7064 36.8814 68.4332 36.841L68.2869 37.8302ZM22.1355 27.1639L22.5784 26.932L22.5784 26.932L22.1355 27.1639ZM23.03 28.8727L22.5869 29.1046L22.5901 29.1104L23.03 28.8727ZM93.9782 103.22C94.2522 103.254 94.502 103.06 94.5361 102.786C94.5702 102.512 94.3757 102.262 94.1017 102.228L93.9782 103.22ZM94.0951 102.227C93.821 102.193 93.5712 102.387 93.5371 102.661C93.503 102.935 93.6975 103.185 93.9715 103.219L94.0951 102.227ZM60.5532 73.2797L60.2365 73.6666L60.2407 73.6699L60.5532 73.2797ZM58.7379 71.7935L58.4212 72.1804L58.4212 72.1804L58.7379 71.7935ZM57.9858 71.1777L58.3026 70.7908L58.2719 70.7657L58.2376 70.7457L57.9858 71.1777ZM67.8071 77.6326L67.7649 78.1308L67.8525 77.1346L67.8071 77.6326ZM66.8861 77.5546L66.9283 77.0563L66.8438 78.0528L66.8861 77.5546ZM17.7831 41.3599C17.9127 41.6037 18.2155 41.6963 18.4593 41.5667C18.7031 41.437 18.7957 41.1343 18.6661 40.8904L17.7831 41.3599ZM15.0167 51.6904L15.0076 52.1903L15.3939 52.1973L15.4981 51.8252L15.0167 51.6904ZM13.7068 55.0147C13.8345 55.2595 14.1364 55.3546 14.3813 55.2269C14.6262 55.0993 14.7212 54.7973 14.5936 54.5524L13.7068 55.0147ZM191.227 115.362C191.387 115.587 191.699 115.64 191.924 115.48C192.149 115.321 192.202 115.009 192.043 114.783L191.227 115.362ZM191.934 114.63C191.775 114.405 191.463 114.352 191.237 114.511C191.012 114.671 190.959 114.983 191.118 115.208L191.934 114.63ZM34.5256 93.8703C34.4366 94.1317 34.5764 94.4157 34.8378 94.5047C35.0993 94.5936 35.3833 94.4538 35.4723 94.1924L34.5256 93.8703ZM57.082 70.6896C57.1714 70.4283 57.0319 70.1441 56.7707 70.0548C56.5094 69.9655 56.2251 70.1049 56.1358 70.3662L57.082 70.6896ZM56.3392 71.317L55.866 71.1553L55.8643 71.1606L56.3392 71.317ZM55.715 74.802C55.8041 74.5406 55.6644 74.2565 55.403 74.1674C55.1417 74.0783 54.8576 74.218 54.7685 74.4794L55.715 74.802ZM51.3703 85.999L50.8969 85.8381L51.8435 86.1603L51.3703 85.999ZM55.6243 73.4873L56.0977 73.6482L56.0992 73.6437L55.6243 73.4873ZM48.1418 94.4135C48.0559 94.676 48.1991 94.9583 48.4616 95.0441C48.7241 95.13 49.0064 94.9868 49.0922 94.7243L48.1418 94.4135ZM46.9908 97.8723C46.9037 98.1344 47.0454 98.4174 47.3075 98.5046C47.5695 98.5917 47.8526 98.45 47.9397 98.188L46.9908 97.8723ZM49.8126 92.5573C49.8998 92.2953 49.758 92.0122 49.496 91.9251C49.234 91.8379 48.9509 91.9797 48.8637 92.2417L49.8126 92.5573ZM55.9807 104.111C55.8987 104.374 56.0461 104.654 56.3098 104.736C56.5735 104.818 56.8537 104.671 56.9356 104.407L55.9807 104.111ZM64.5177 78.325L64.049 78.1509L64.0443 78.1636L64.0402 78.1767L64.5177 78.325ZM67.8739 77.4595C67.6124 77.3705 67.3284 77.5104 67.2395 77.7718C67.1505 78.0332 67.2903 78.3172 67.5517 78.4062L67.8739 77.4595ZM67.7793 77.9555L68.2556 78.1078L68.4051 77.6403L67.9404 77.4821L67.7793 77.9555ZM58.9728 105.487L58.4966 105.334L58.3052 105.933L58.9311 105.985L58.9728 105.487ZM68.7836 106.811C69.0587 106.834 69.3007 106.63 69.3242 106.355C69.3476 106.08 69.1436 105.838 68.8684 105.814L68.7836 106.811ZM76.6494 78.3837L77.1289 78.5254L77.3027 77.9376L76.6919 77.8855L76.6494 78.3837ZM47.2705 69.3591L47.039 69.8023L47.1324 69.8511L47.2374 69.858L47.2705 69.3591ZM56.6515 70.3999L56.9033 69.968L56.8631 69.9446L56.8193 69.929L56.6515 70.3999ZM55.374 69.4138C55.1139 69.3211 54.8279 69.4569 54.7352 69.717C54.6425 69.9771 54.7782 70.2631 55.0383 70.3558L55.374 69.4138ZM55.2082 70.3861C55.4838 70.4043 55.7219 70.1957 55.7402 69.9202C55.7584 69.6447 55.5499 69.4065 55.2743 69.3882L55.2082 70.3861ZM66.8942 77.5493L66.7243 78.0195L66.7848 78.0414L66.8488 78.0472L66.8942 77.5493ZM78.0758 77.855L78.2468 78.3248L78.391 78.2723L78.4809 78.148L78.0758 77.855ZM81.6068 72.9722L81.4412 72.5004L81.2934 72.5523L81.2017 72.6792L81.6068 72.9722ZM83.0583 72.4626L83.1204 71.9664L83.0037 71.9518L82.8927 71.9908L83.0583 72.4626ZM89.4185 73.7618C89.6925 73.7961 89.9424 73.6017 89.9767 73.3277C90.0109 73.0537 89.8166 72.8038 89.5426 72.7695L89.4185 73.7618ZM89.5865 72.7755C89.3142 72.7295 89.0562 72.9129 89.0102 73.1852C88.9641 73.4575 89.1475 73.7155 89.4198 73.7615L89.5865 72.7755ZM198.054 91.6161L197.971 92.1091L197.999 92.1139L198.028 92.1154L198.054 91.6161ZM201.49 91.6469C201.7 91.4669 201.723 91.1512 201.543 90.9418C201.363 90.7324 201.048 90.7085 200.838 90.8885L201.49 91.6469ZM41.1994 25.6849C35.1741 24.8672 29.1571 24.0665 23.1485 23.2827L23.0191 24.2743C29.026 25.0579 35.0413 25.8584 41.0649 26.6758L41.1994 25.6849ZM44.6783 27.5707C43.6016 26.5667 42.3188 25.8364 41.1992 25.6848L41.0651 26.6758C41.9045 26.7894 43.0041 27.3768 43.9963 28.302L44.6783 27.5707ZM50.5423 33.0625C48.5869 31.2355 46.6327 29.4052 44.6795 27.5718L43.9951 28.3009C45.9488 30.1348 47.9037 31.9656 49.8595 33.7932L50.5423 33.0625ZM53.4173 34.6475C52.5852 34.528 51.4995 33.9528 50.5414 33.0617L49.8604 33.794C50.9082 34.7685 52.1737 35.4792 53.2752 35.6374L53.4173 34.6475ZM61.7336 35.8504L53.4178 34.6476L53.2747 35.6373L61.5905 36.8401L61.7336 35.8504ZM68.4332 36.841L61.7352 35.8506L61.5889 36.8399L68.2869 37.8302L68.4332 36.841ZM69.5136 36.576C69.389 36.7612 69.0724 36.9387 68.4356 36.8414L68.2845 37.8299C69.1137 37.9567 69.9125 37.7743 70.3432 37.1344L69.5136 36.576ZM72.6924 31.8276C71.6346 33.4046 70.5747 34.9879 69.5127 36.5774L70.3441 37.133C71.4059 35.5439 72.4654 33.9611 73.5229 32.3847L72.6924 31.8276ZM74.725 31.1438C73.9129 31.0216 73.1261 31.1833 72.6928 31.827L73.5224 32.3854C73.6445 32.2039 73.9413 32.0372 74.5762 32.1327L74.725 31.1438ZM102.332 35.424C93.0657 33.9473 83.8634 32.5206 74.7251 31.1438L74.5761 32.1327C83.7116 33.509 92.9111 34.9353 102.175 36.4116L102.332 35.424ZM171.949 47.86C148.269 43.5002 125.066 39.3552 102.339 35.4251L102.168 36.4105C124.892 40.34 148.092 44.4843 171.768 48.8435L171.949 47.86ZM178.576 52.1407C177.749 51.15 176.603 50.1848 175.423 49.4197C174.249 48.6582 172.998 48.0662 171.955 47.8611L171.762 48.8424C172.629 49.0128 173.757 49.5314 174.879 50.2586C175.994 50.9822 177.059 51.8839 177.808 52.7814L178.576 52.1407ZM188.872 69.0303C185.733 63.7787 182.353 58.1256 178.615 52.1945L177.769 52.7277C181.5 58.6474 184.874 64.2908 188.014 69.5434L188.872 69.0303ZM188.869 69.0244L188.869 69.0242L188.018 69.5495L188.018 69.5497L188.869 69.0244ZM201.946 89.7752C197.859 84.0618 193.647 77.016 188.873 69.0305L188.014 69.5436C192.782 77.5182 197.017 84.6032 201.132 90.3569L201.946 89.7752ZM201.522 91.5662C201.962 91.1623 202.155 90.6007 202.03 89.9688L201.049 90.1633C201.107 90.4563 201.026 90.6639 200.846 90.8295L201.522 91.5662ZM201.646 91.4019L201.665 91.3321L200.702 91.0636L200.683 91.1335L201.646 91.4019ZM194.197 118.129L201.646 91.4019L200.683 91.1335L193.234 117.86L194.197 118.129ZM190.129 120.034C191.268 120.272 192.32 120.225 193.083 119.889C193.469 119.718 193.802 119.464 194.013 119.112C194.229 118.754 194.293 118.336 194.206 117.897L193.225 118.092C193.269 118.311 193.232 118.471 193.157 118.597C193.077 118.729 192.927 118.864 192.679 118.974C192.174 119.196 191.353 119.268 190.333 119.055L190.129 120.034ZM191.158 114.923L189.754 119.395L190.708 119.694L192.112 115.222L191.158 114.923ZM197.572 91.4841L191.153 114.94L192.117 115.204L198.536 91.748L197.572 91.4841ZM194.624 105.715L198.536 91.7509L197.573 91.4812L193.661 105.446L194.624 105.715ZM192.008 115.054L194.624 105.715L193.661 105.446L191.045 114.784L192.008 115.054ZM190.712 119.68L192.008 115.054L191.045 114.784L189.749 119.41L190.712 119.68ZM157.786 114.017C168.404 116.042 179.199 118.102 190.144 120.037L190.318 119.052C179.381 117.118 168.592 115.06 157.974 113.034L157.786 114.017ZM93.9788 103.22C114.327 105.726 135.669 109.797 157.786 114.017L157.974 113.034C135.863 108.816 114.488 104.738 94.101 102.228L93.9788 103.22ZM93.9715 103.219L93.9782 103.22L94.1017 102.228L94.0951 102.227L93.9715 103.219ZM83.8554 102.312C87.3346 102.571 90.8215 102.831 93.9722 103.219L94.0944 102.227C90.9153 101.835 87.4033 101.574 83.9297 101.315L83.8554 102.312ZM83.8674 102.313L83.8677 102.313L83.9174 101.314L83.917 101.314L83.8674 102.313ZM73.7209 101.397C76.8353 101.789 80.3417 102.05 83.8551 102.312L83.9294 101.315C80.4096 101.053 76.9301 100.793 73.8459 100.405L73.7209 101.397ZM70.6589 106.075C71.8255 104.445 73.0016 102.819 74.1872 101.196L73.3796 100.606C72.1922 102.232 71.0143 103.86 69.8458 105.493L70.6589 106.075ZM68.7789 106.81C69.5429 106.882 70.2425 106.661 70.66 106.073L69.8447 105.494C69.6943 105.706 69.3985 105.864 68.873 105.815L68.7789 106.81ZM68.3627 106.775L68.7836 106.811L68.8684 105.814L68.4475 105.778L68.3627 106.775ZM59.0205 105.981C62.1316 106.245 65.2457 106.509 68.3627 106.775L68.4475 105.778C65.3304 105.513 62.2162 105.248 59.1048 104.985L59.0205 105.981ZM56.1392 104.644C57.0544 105.402 58.0968 105.902 59.0197 105.981L59.1056 104.985C58.4481 104.928 57.5923 104.549 56.7772 103.874L56.1392 104.644ZM49.8456 99.4932C51.9495 101.216 54.0482 102.934 56.1416 104.646L56.7747 103.872C54.6814 102.16 52.5829 100.442 50.4792 98.7195L49.8456 99.4932ZM47.4751 98.3867C48.1435 98.4382 49.0179 98.8231 49.8478 99.4949L50.477 98.7177C49.5511 97.9682 48.4893 97.4619 47.552 97.3896L47.4751 98.3867ZM39.4119 97.7865C42.0995 97.976 44.787 98.176 47.4745 98.3866L47.5526 97.3897C44.8626 97.1789 42.1724 96.9787 39.4822 96.789L39.4119 97.7865ZM34.5587 94.2685C35.0559 95.1912 35.8355 96.031 36.6907 96.6559C37.54 97.2766 38.5123 97.7202 39.4103 97.7864L39.4838 96.7891C38.8361 96.7413 38.0407 96.4039 37.2807 95.8485C36.5264 95.2973 35.8548 94.5658 35.4391 93.7942L34.5587 94.2685ZM14.7637 57.0336C21.7696 70.3906 27.9516 81.9563 34.5583 94.2677L35.4395 93.7949C28.8332 81.4844 22.653 69.9219 15.6493 56.5691L14.7637 57.0336ZM13.7073 55.0155C14.0573 55.6838 14.4093 56.3564 14.7635 57.0332L15.6495 56.5695C15.2953 55.8926 14.9432 55.22 14.5931 54.5516L13.7073 55.0155ZM14.5352 51.5555L13.6687 54.6487L14.6317 54.9184L15.4981 51.8252L14.5352 51.5555ZM15.3182 51.2105C15.2188 51.1989 15.1212 51.1922 15.0257 51.1904L15.0076 52.1903C15.0684 52.1914 15.1333 52.1957 15.2025 52.2038L15.3182 51.2105ZM17.7431 40.9903L14.7789 51.5723L15.7418 51.842L18.7061 41.26L17.7431 40.9903ZM21.654 27.029L17.7431 40.9903L18.7061 41.26L22.6169 27.2988L21.654 27.029ZM22.6023 23.6437L21.654 27.029L22.6169 27.2988L23.5652 23.9134L22.6023 23.6437ZM22.417 26.6238C21.9471 25.7224 21.8951 25.0644 22.0254 24.704C22.0851 24.5388 22.1837 24.4286 22.3213 24.3583C22.4672 24.2837 22.6937 24.2365 23.0259 24.2752L23.1417 23.2819C22.6713 23.2271 22.2338 23.28 21.8663 23.4678C21.4904 23.6599 21.226 23.9741 21.085 24.3639C20.814 25.1132 21.0095 26.087 21.5303 27.086L22.417 26.6238ZM53.2747 35.6373L61.5905 36.8401L61.7336 35.8504L53.4178 34.6476L53.2747 35.6373ZM61.5889 36.8399L68.2869 37.8302L68.4332 36.841L61.7352 35.8506L61.5889 36.8399ZM21.5307 27.0869L21.6925 27.3959L22.5784 26.932L22.4166 26.623L21.5307 27.0869ZM23.4729 28.6408L22.5784 26.932L21.6925 27.3958L22.587 29.1046L23.4729 28.6408ZM94.1017 102.228L94.0951 102.227L93.9715 103.219L93.9782 103.22L94.1017 102.228ZM60.87 72.8928L59.0547 71.4067L58.4212 72.1804L60.2365 73.6665L60.87 72.8928ZM59.0547 71.4067L58.3026 70.7908L57.6691 71.5645L58.4212 72.1804L59.0547 71.4067ZM67.8493 77.1344L66.9283 77.0563L66.8439 78.0528L67.7649 78.1308L67.8493 77.1344ZM21.4922 26.72L17.5805 40.6844L18.5434 40.9541L22.4551 26.9898L21.4922 26.72ZM18.6661 40.8904L18.5034 40.5845L17.6204 41.054L17.7831 41.3599L18.6661 40.8904ZM17.5805 40.6844L14.5352 51.5555L15.4981 51.8252L18.5434 40.9541L17.5805 40.6844ZM14.5936 54.5524C14.1501 53.7018 14.0768 53.0627 14.1836 52.6896C14.2335 52.5152 14.3207 52.4004 14.4333 52.3248C14.5502 52.2463 14.7324 52.1853 15.0076 52.1903L15.0258 51.1904C14.5961 51.1826 14.2003 51.2768 13.8759 51.4945C13.5473 51.7151 13.33 52.0376 13.2221 52.4146C13.0134 53.1443 13.2116 54.0647 13.7068 55.0147L14.5936 54.5524ZM192.043 114.783L191.934 114.63L191.118 115.208L191.227 115.362L192.043 114.783ZM43.5054 67.479L34.5256 93.8703L35.4723 94.1924L44.4521 67.8011L43.5054 67.479ZM56.1358 70.3662L55.8661 71.1553L56.8123 71.4788L57.082 70.6896L56.1358 70.3662ZM54.7685 74.4794L50.897 85.8377L51.8435 86.1603L55.715 74.802L54.7685 74.4794ZM55.8643 71.1606L55.1494 73.3308L56.0992 73.6437L56.8141 71.4735L55.8643 71.1606ZM51.8437 86.16L53.1313 82.3729L52.1845 82.051L50.8969 85.8381L51.8437 86.16ZM53.1313 82.3729L56.0976 73.6482L55.1509 73.3263L52.1845 82.051L53.1313 82.3729ZM49.0922 94.7243L53.1331 82.3673L52.1826 82.0565L48.1418 94.4135L49.0922 94.7243ZM47.9397 98.188L49.8126 92.5573L48.8637 92.2417L46.9908 97.8723L47.9397 98.188ZM56.9356 104.407L64.9952 78.4734L64.0402 78.1767L55.9807 104.111L56.9356 104.407ZM64.9864 78.4992L65.522 77.0581L64.5846 76.7098L64.049 78.1509L64.9864 78.4992ZM67.5517 78.4062L67.6183 78.4288L67.9404 77.4821L67.8739 77.4595L67.5517 78.4062ZM67.3031 77.8032L58.4966 105.334L59.449 105.639L68.2556 78.1078L67.3031 77.8032ZM58.9311 105.985L68.3634 106.775L68.4468 105.778L59.0145 104.988L58.9311 105.985ZM68.3627 106.775L68.7836 106.811L68.8684 105.814L68.4475 105.778L68.3627 106.775ZM76.1699 78.242L67.9256 106.135L68.8846 106.418L77.1289 78.5254L76.1699 78.242ZM22.5901 29.1104L43.5389 67.8778L44.4186 67.4024L23.4698 28.635L22.5901 29.1104ZM43.7473 68.0833L47.039 69.8023L47.5019 68.9159L44.2102 67.1968L43.7473 68.0833ZM56.8193 69.929L55.374 69.4138L55.0383 70.3558L56.4836 70.8709L56.8193 69.929ZM47.2374 69.858L55.2082 70.3861L55.2743 69.3882L47.3035 68.8602L47.2374 69.858ZM56.3997 70.8319L57.7341 71.6097L58.2376 70.7457L56.9033 69.968L56.3997 70.8319ZM65.3658 76.4937L60.8658 72.8894L60.2407 73.6699L64.7407 77.2742L65.3658 76.4937ZM64.8833 77.3542L66.7243 78.0195L67.0642 77.0791L65.2232 76.4137L64.8833 77.3542ZM66.8488 78.0472L67.7617 78.1305L67.8525 77.1346L66.9397 77.0514L66.8488 78.0472ZM76.6919 77.8855L76.6708 77.8837L76.5859 78.8801L76.607 78.8819L76.6919 77.8855ZM76.6707 77.8837L66.9284 77.0564L66.8438 78.0528L76.586 78.8801L76.6707 77.8837ZM77.9047 77.3852L76.4573 77.9121L76.7994 78.8518L78.2468 78.3248L77.9047 77.3852ZM78.4809 78.148L82.012 73.2652L81.2017 72.6792L77.6706 77.562L78.4809 78.148ZM82.8927 71.9908L81.4412 72.5004L81.7725 73.4439L83.224 72.9343L82.8927 71.9908ZM82.9963 72.9587L89.4185 73.7618L89.5426 72.7695L83.1204 71.9664L82.9963 72.9587ZM89.4198 73.7615L197.971 92.1091L198.137 91.1231L89.5865 72.7755L89.4198 73.7615ZM198.028 92.1154C199.033 92.167 199.738 92.177 200.254 92.1192C200.788 92.0594 201.17 91.9223 201.49 91.6469L200.838 90.8885C200.719 90.9909 200.552 91.0796 200.143 91.1254C199.717 91.1731 199.087 91.1684 198.08 91.1167L198.028 92.1154Z" fill="#29375B"/>
<g clip-path="url(#clip0_783_1305)">
<path d="M302.531 78.5404C301.441 78.4731 300.502 78.5646 299.683 78.7641C300.506 78.5829 301.453 78.528 302.543 78.5953L302.531 78.5404Z" fill="#465B81"/>
<path d="M299.683 78.7643C293.434 80.1009 294.001 87.8235 294.001 87.8235L294.184 87.7832C294.203 87.7792 293.635 80.2294 299.683 78.7643Z" fill="#465B81"/>
<path d="M320.087 74.274C319.26 74.4369 318.373 74.7664 317.409 75.2664L317.421 75.3213C318.381 74.803 319.264 74.4552 320.087 74.274Z" fill="#465B81"/>
<path d="M317.545 48.6821L317.553 48.7184L317.644 48.6985C317.607 48.7064 317.585 48.6923 317.545 48.6821Z" fill="#465B81"/>
<path d="M329.323 61.4013C328.966 60.0408 328.536 58.6965 328.106 57.3521C327.692 56.081 326.908 55.6586 325.575 55.8754C325.388 55.8974 325.209 55.9559 325.099 55.9801C324.341 54.631 323.71 53.331 322.904 52.1078C321.945 50.6302 320.688 49.4488 318.928 48.9533C318.866 48.9288 318.784 48.9083 318.725 48.9021C318.73 48.7476 318.716 48.5972 318.72 48.4427C318.712 48.2334 318.699 47.9102 318.445 47.7166C318.192 47.523 317.921 47.6017 317.738 47.6419L317.628 47.6661C315.272 48.2039 312.911 48.7234 310.532 49.2469L296.019 52.4405C293.659 52.96 291.298 53.4795 288.915 53.9847L288.805 54.0089C288.604 54.0532 288.325 54.0953 288.194 54.3735C288.046 54.6557 288.169 54.9547 288.25 55.148C288.28 55.1988 288.288 55.2354 288.319 55.2863C288.032 55.4646 287.767 55.6571 287.506 55.8679C286.136 57.0521 285.495 58.6706 285.223 60.3997C285.019 61.8261 284.977 63.2934 284.856 64.8358C284.764 64.856 284.581 64.8962 284.38 64.9405C283.06 65.3077 282.541 65.9977 282.702 67.3435C282.858 68.7483 283.05 70.145 283.297 71.5296C283.488 72.658 284.2 73.192 285.319 73.0418C286.66 72.8617 288 72.586 289.348 72.3469C289.92 72.2404 290.244 71.8813 290.355 71.3389C290.519 70.5161 290.108 69.6087 290.748 68.854C290.78 68.8276 290.764 68.7544 290.756 68.7178C290.541 67.6524 290.358 66.5605 290.088 65.5072C289.862 64.6551 289.18 64.3448 288.353 64.3349C287.875 64.3441 287.391 64.4122 286.885 64.466C286.751 62.6345 286.797 60.8399 287.53 59.2012C287.847 58.46 288.437 57.8312 288.991 57.2104C289.05 57.2166 289.105 57.2045 289.164 57.2108C290.137 59.4525 291.041 61.7287 292.698 63.5898C294.46 65.5812 296.753 67.1103 299.251 67.9996L301.623 78.7786C300.534 78.7113 299.587 78.7663 298.763 78.9475C292.716 80.4126 293.265 87.9664 293.265 87.9664L308.564 84.5997C308.329 81.6969 303.922 79.0212 303.922 79.0212L301.63 68.6082C303.367 68.9166 305.15 68.9081 306.87 68.5295C306.98 68.5054 307.071 68.4852 307.181 68.4611C307.291 68.4369 307.382 68.4168 307.492 68.3926C309.231 68.01 310.852 67.2695 312.281 66.2644L314.573 76.6774C314.573 76.6774 311.696 80.9559 312.7 83.6896L327.981 80.3269C327.981 80.3269 325.323 73.2179 319.205 74.4492C318.382 74.6304 317.495 74.9599 316.538 75.4965L314.166 64.7175C316.079 62.8576 317.518 60.507 318.282 57.9599C318.955 55.7012 318.866 53.3799 318.818 51.0689C319.375 51.3302 319.913 51.5955 320.365 51.9948C321.722 53.1927 322.518 54.802 323.161 56.5025C322.679 56.6661 322.211 56.8075 321.774 56.9996C321.023 57.3375 320.538 57.9239 320.691 58.7921C320.888 59.8615 321.18 60.9292 321.432 61.9866C321.444 62.0415 321.456 62.0964 321.497 62.1067C322.376 62.5272 322.402 63.5191 322.897 64.1969C323.229 64.661 323.692 64.8469 324.233 64.6895C325.557 64.3406 326.889 64.0283 328.182 63.6285C329.197 63.2709 329.624 62.5055 329.323 61.4013ZM288.33 64.6662C289.037 64.568 289.618 64.9391 289.805 65.7037C290.007 66.6188 290.194 67.5561 290.358 68.4792C290.461 69.0322 290.219 69.2391 289.737 69.2299C289.678 69.2237 289.611 69.1809 289.581 69.13C289.372 68.6194 289.194 68.1597 289.017 67.7C288.925 67.7202 288.962 67.7121 288.87 67.7322C288.982 68.5902 289.094 69.4481 289.196 70.3467C289.204 70.3833 289.245 70.3935 289.259 70.3712C289.41 70.1845 289.524 70.0059 289.671 69.8009C289.718 69.7522 289.795 69.7544 289.807 69.8093C290.365 71.1255 289.949 71.8502 288.652 72.0589C287.523 72.2497 286.407 72.4953 285.263 72.6129C284.273 72.7348 283.836 72.4087 283.678 71.4267C283.41 69.9506 283.212 68.4401 283.018 66.9478C282.926 66.1814 283.326 65.5562 284.131 65.379C285.544 65.0872 286.929 64.8401 288.33 64.6662ZM291.425 60.6849L291.545 60.9656C291.492 60.9004 291.468 60.7906 291.425 60.6849ZM317.266 50.9884C317.302 51.3259 317.338 51.6634 317.377 52.0191C317.415 52.4521 317.449 52.8668 317.446 53.2896C317.454 54.1127 317.404 54.9297 317.309 55.7181C317.266 55.9578 317.241 56.1935 317.194 56.415C317.083 56.9574 316.972 57.4999 316.812 57.9955C316.698 58.3468 316.583 58.6982 316.446 59.0353C315.868 60.5056 315.034 61.8596 314.032 63.0587C312.997 64.2842 311.766 65.495 310.31 66.1993C309.337 66.6627 308.312 67.061 307.263 67.3495C307.153 67.3737 307.043 67.3978 306.937 67.4403C306.828 67.4644 306.718 67.4886 306.604 67.4945C305.53 67.6731 304.451 67.738 303.356 67.7296C301.738 67.7019 300.099 67.1416 298.659 66.4415C297.228 65.778 295.921 64.8952 294.779 63.8035C294.513 63.555 294.261 63.2841 294.01 63.0133C293.653 62.6122 293.329 62.1847 293 61.7389C292.86 61.5394 292.725 61.3582 292.603 61.1547C292.186 60.4791 291.801 59.7771 291.459 59.0081C291.279 58.6257 291.136 58.2351 290.988 57.8263C290.861 57.509 290.77 57.1836 290.657 56.8439C290.499 56.303 290.372 55.8129 290.327 55.3433L290.313 55.1929C290.275 54.9326 290.432 54.687 290.651 54.6387L316.345 48.9846C316.583 48.9322 316.81 49.0932 316.885 49.3454L316.936 49.4878C317.091 49.9332 317.182 50.4314 317.266 50.9884ZM317.703 48.7049C317.685 48.7089 317.663 48.6946 317.644 48.6986L317.553 48.7188L317.545 48.6822C317.586 48.6924 317.604 48.6884 317.644 48.6986L317.703 48.7049ZM327.998 63.2278C326.906 63.5832 325.79 63.8289 324.69 64.1477C323.443 64.4988 322.783 64.03 322.713 62.664C322.711 62.5685 322.813 62.5077 322.898 62.5465C323.028 62.6139 323.14 62.6852 323.27 62.7526C323.359 62.8097 323.471 62.7083 323.447 62.5985C323.201 61.8277 322.962 61.0934 322.738 60.3369C322.647 60.357 322.665 60.353 322.573 60.3732C322.597 60.8285 322.624 61.3021 322.66 61.8123C322.662 61.9078 322.623 61.9931 322.536 62.0316C322.135 62.2157 321.824 62.1114 321.689 61.5847C321.451 60.6777 321.227 59.7484 321.026 58.8334C320.857 58.0648 321.232 57.5026 321.93 57.2723C323.274 56.8422 324.634 56.4852 326.011 56.2015C326.816 56.0243 327.441 56.4239 327.68 57.1582C328.13 58.594 328.58 60.0299 328.961 61.5001C329.189 62.4477 328.948 62.9228 327.998 63.2278Z" fill="#465B81"/>
<path d="M317.7 48.6866C317.704 48.705 317.704 48.705 317.7 48.6866C317.685 48.709 317.663 48.6947 317.645 48.6987L317.7 48.6866Z" fill="#465B81"/>
<path d="M317.545 48.6821L317.553 48.7184L317.644 48.6985C317.607 48.7064 317.585 48.6923 317.545 48.6821ZM317.545 48.6821L317.553 48.7184L317.644 48.6985C317.607 48.7064 317.585 48.6923 317.545 48.6821ZM317.545 48.6821L317.553 48.7184L317.644 48.6985C317.607 48.7064 317.585 48.6923 317.545 48.6821Z" fill="#465B81"/>
<path d="M291.53 60.9878C291.492 60.9003 291.45 60.7945 291.411 60.707L291.53 60.9878Z" fill="#465B81"/>
<path d="M302.621 18.0059L304.848 9.55342C305.633 9.28472 306.26 8.64782 306.475 7.79463C306.828 6.43157 306.022 5.03563 304.659 4.68324C303.295 4.33084 301.9 5.13688 301.547 6.49994C301.314 7.35716 301.562 8.2235 302.099 8.83435L299.827 17.4311L298.51 17.721C297.831 17.7745 297.123 17.8726 296.428 18.0257L294.58 18.4324C293.921 18.5774 293.274 18.7773 292.654 19.0097L292.178 19.1144L286.507 12.2655C286.738 11.4855 286.6 10.595 286.028 9.91497C285.136 8.82575 283.531 8.68017 282.442 9.5722C281.353 10.4642 281.207 12.0696 282.099 13.1588C282.671 13.8388 283.507 14.1536 284.314 14.0719L289.699 20.5808C286.011 23.1768 283.701 27.5032 283.936 32.0564C282.225 30.6485 280.231 30.1281 277.968 30.5685C277.931 30.5766 277.872 30.5704 277.835 30.5784L278.025 31.4385C278.243 31.9085 278.429 32.4048 278.68 32.8484C279.784 34.812 281.336 36.1973 283.595 36.6979C283.636 36.7081 283.658 36.7224 283.699 36.7326C283.699 36.7326 283.703 36.7509 283.729 36.7835C283.696 36.8099 283.668 36.8545 283.617 36.8849C281.449 38.6284 280.651 40.9336 280.806 43.6432C280.812 43.757 280.818 43.8708 280.802 43.9704L280.991 44.8305C282.538 44.4516 283.873 43.7166 284.89 42.4951C285.224 42.0954 285.506 41.6306 285.809 41.18L287.964 50.9708L316.934 44.5958L313.583 29.3697C312.317 23.5278 307.97 19.208 302.621 18.0059ZM285.904 33.8491C284.534 27.6269 288.913 21.3678 295.135 19.9986L296.947 19.5999C303.938 18.0615 310.398 22.5686 311.936 29.5594L312.057 30.1084C310.709 27.4695 307.783 25.9452 304.741 26.5954C300.323 27.5294 295.894 28.504 291.492 29.5111C288.513 30.1858 286.455 32.6917 286.306 35.6791L285.904 33.8491ZM306.42 31.6943C306.682 32.8838 305.939 34.0449 304.768 34.3026C303.597 34.5604 302.414 33.8039 302.174 32.6286C301.92 31.4757 302.677 30.2923 303.83 30.0386C304.997 29.7626 306.158 30.5048 306.42 31.6943ZM296.487 33.8994C296.744 35.0706 295.984 36.2357 294.794 36.4974C293.641 36.7511 292.476 35.9906 292.223 34.8377C291.961 33.6482 292.703 32.4871 293.893 32.2253C295.064 31.9676 296.225 32.7098 296.487 33.8994ZM314.983 43.3174L289.234 48.9836L287.406 40.6752L313.136 35.013L314.965 43.3214L314.983 43.3174Z" fill="#465B81"/>
</g>
<defs>
<clipPath id="clip0_783_1305">
<rect width="89.5695" height="95.9406" fill="white" transform="translate(263.649) rotate(7.73789)"/>
</clipPath>
</defs>
</svg>
