<svg width="220" height="105" viewBox="0 0 353 122" fill="none" xmlns="http://www.w3.org/2000/svg">
<path d="M156.846 114.555C195.175 113.771 237.743 110.952 279.573 102.493C292.657 99.8298 305.372 96.6968 317.349 91.5274C322.693 89.1777 328.037 86.5147 332.829 83.3817C336.33 81.032 339.278 77.899 341.49 74.6094C346.834 66.777 345.359 58.7879 337.251 52.9919C332.46 49.5456 327.116 46.726 321.404 44.3762C305.187 37.4837 287.865 32.9409 270.359 29.338C255.802 26.3617 240.875 25.1085 225.949 24.3252C224.106 24.1686 222.263 24.3252 220.789 23.6986C219.499 23.2287 218.025 21.8189 218.025 20.879C218.209 19.6258 219.684 18.3726 220.973 17.746C222.263 17.1194 224.106 17.4327 225.58 17.4327C249.905 17.2761 273.308 21.3489 295.974 28.0848C307.03 31.3744 317.902 35.2906 328.59 39.5201C334.119 41.7132 339.463 45.0028 343.885 48.6057C353.467 56.2815 355.494 66.4637 349.966 76.6458C347.202 81.9719 342.779 86.2014 337.62 89.8043C328.222 96.2269 317.534 100.3 306.477 103.589C284.917 110.012 262.62 113.771 239.954 116.435C213.05 119.724 186.145 121.447 158.873 121.917C126.44 122.387 94.0078 120.977 62.3124 114.555C49.5975 112.048 37.4353 108.289 26.1945 102.649C18.8235 98.8899 12.1896 94.6604 7.02985 88.7077C-1.26254 79.1522 -2.18391 69.1267 4.08145 58.4746C7.58268 52.522 12.5581 47.6659 18.2706 43.2797C33.3812 31.6877 51.0717 23.8553 69.8677 17.5894C94.3763 9.44364 119.991 5.05749 145.973 2.39447C179.327 -1.0518 212.681 -0.581854 246.035 2.55111C274.782 5.21414 303.16 9.75694 330.433 18.5293C333.934 19.6258 337.251 21.0356 340.568 22.4455C342.964 23.3854 344.438 24.7952 343.517 27.1449C342.779 28.868 340.384 29.4946 337.435 28.2415C320.298 21.6622 302.055 18.3726 283.811 15.083C262.435 11.3234 240.691 9.287 218.946 8.03381C180.249 5.99738 141.919 8.50375 104.327 16.3362C84.0569 20.2524 64.5237 26.3617 46.2805 35.2906C36.8825 39.8334 28.0372 45.1595 20.4819 51.8954C17.7178 54.4017 15.138 57.2214 12.9267 60.1977C6.29275 69.44 7.3984 78.6822 16.2436 86.358C20.6662 90.2742 26.0102 93.5638 31.5385 96.5402C43.7006 102.963 57.337 106.252 71.3419 108.602C97.8776 113.145 124.966 114.711 156.846 114.555Z" fill="#FCD95B"/>
</svg>
