<svg width="600" height="1212" viewBox="0 0 600 1212" fill="none" xmlns="http://www.w3.org/2000/svg">
<path d="M607.008 92.1495C641.458 99.9287 678.783 121.887 716.445 152.108C754.076 182.305 791.893 220.626 827.325 260.927C898.188 341.527 959.373 429.888 990.295 476.599C1003.32 496.283 1003.47 521.36 990.575 541.126C959.951 588.085 898.858 677.005 825.308 758.855C788.533 799.78 748.676 838.901 707.988 870.119C667.282 901.35 625.855 924.586 585.936 933.882C536.929 945.295 508.626 939.25 491.177 924.114C473.59 908.859 466.449 883.932 460.937 856.021C459.841 850.475 458.811 844.814 457.772 839.104C453.631 816.341 449.347 792.799 440.229 772.694C428.721 747.321 409.454 727.231 373.232 720.333C302.394 706.844 262.039 689.095 233.094 657.333C204.036 625.449 186.263 579.25 161.211 508.1C148.81 472.88 150.674 449.754 161.194 432.554C171.811 415.195 191.493 403.404 215.954 391.504C222.195 388.467 228.732 385.432 235.476 382.3C281.308 361.016 336.744 335.273 374.557 274.345C395.731 240.227 410.381 209.469 422.928 183.126L423.623 181.668C436.356 154.938 446.909 133.005 460.028 116.591C473.062 100.283 488.595 89.4731 511.341 85.0405C534.203 80.5851 564.482 82.5465 607.008 92.1495Z" fill="#DBE4EE" stroke="#29375B" stroke-width="4"/>
<path d="M573.008 291.15C607.458 298.929 644.783 320.888 682.445 351.108C720.076 381.305 757.893 419.626 793.325 459.927C864.188 540.527 925.373 628.888 956.295 675.599C969.325 695.283 969.465 720.361 956.575 740.126C925.951 787.085 864.858 876.005 791.308 957.855C754.533 998.78 714.676 1037.9 673.988 1069.12C633.282 1100.35 591.855 1123.59 551.936 1132.88C502.929 1144.29 474.626 1138.25 457.177 1123.11C439.59 1107.86 432.449 1082.93 426.937 1055.02C425.841 1049.48 424.811 1043.81 423.772 1038.1C419.631 1015.34 415.347 991.799 406.229 971.694C394.721 946.321 375.454 926.231 339.232 919.333C268.394 905.844 228.039 888.095 199.094 856.333C170.036 824.449 152.263 778.25 127.211 707.101C114.81 671.881 116.674 648.754 127.194 631.555C137.811 614.195 157.493 602.405 181.954 590.504C188.195 587.467 194.732 584.432 201.476 581.3C247.308 560.017 302.744 534.273 340.557 473.345C361.731 439.228 376.381 408.469 388.928 382.126L389.623 380.668C402.356 353.938 412.909 332.006 426.028 315.591C439.062 299.283 454.595 288.473 477.341 284.041C500.203 279.585 530.482 281.547 573.008 291.15Z" fill="#FEECAD" stroke="#29375B" stroke-width="4"/>
<path d="M538.58 198.786C573.03 206.565 610.354 228.524 648.016 258.745C685.648 288.941 723.465 327.262 758.897 367.563C829.759 448.164 890.944 536.524 921.866 583.236C934.896 602.919 935.037 627.997 922.147 647.763C891.522 694.722 830.429 783.641 756.879 865.491C720.104 906.416 680.248 945.537 639.559 976.755C598.853 1007.99 557.426 1031.22 517.507 1040.52C468.5 1051.93 440.197 1045.89 422.748 1030.75C405.162 1015.5 398.02 990.569 392.508 962.658C391.413 957.112 390.383 951.45 389.344 945.74C385.202 922.977 380.919 899.436 371.8 879.33C360.292 853.957 341.025 833.867 304.803 826.97C233.965 813.48 193.611 795.731 164.665 763.97C135.608 732.086 117.834 685.886 92.7823 614.737C80.3814 579.517 82.2455 556.39 92.7652 539.191C103.383 521.831 123.065 510.041 147.525 498.14C153.767 495.104 160.303 492.068 167.047 488.936C212.88 467.653 268.315 441.909 306.128 380.981C327.302 346.864 341.952 316.106 354.499 289.762L355.194 288.304C367.927 261.575 378.48 239.642 391.599 223.227C404.633 206.919 420.166 196.11 442.912 191.677C465.774 187.222 496.053 189.183 538.58 198.786Z" fill="#465B81" stroke="#29375B" stroke-width="4"/>
<g clip-path="url(#clip0_31_726)">
<path d="M382.524 662.684H337.054C335.908 662.684 334.975 661.752 334.975 660.607C334.975 659.462 335.908 658.531 337.054 658.531H382.524C383.671 658.531 384.603 659.462 384.603 660.607C384.603 661.752 383.671 662.684 382.524 662.684Z" fill="#FCD95B"/>
<path d="M301.317 673.798C301.317 674.171 301.617 674.471 301.99 674.471H417.588C417.961 674.471 418.261 674.171 418.261 673.798C418.261 673.425 417.961 673.126 417.588 673.126H301.99C301.617 673.126 301.317 673.425 301.317 673.798Z" fill="#192137"/>
<path d="M545.209 538.295C565.522 538.295 581.989 521.848 581.989 501.56C581.989 481.273 565.522 464.826 545.209 464.826C524.896 464.826 508.429 481.273 508.429 501.56C508.429 521.848 524.896 538.295 545.209 538.295Z" fill="#EDC052"/>
<path d="M270.428 720.217C270.428 720.59 270.728 720.889 271.102 720.889H566.64C567.013 720.889 567.313 720.59 567.313 720.217C567.313 719.844 567.013 719.544 566.64 719.544H271.102C270.728 719.544 270.428 719.844 270.428 720.217Z" fill="#192137"/>
<path d="M274.703 674.801L273.758 673.766L366.028 589.675L399.271 604.559L435.168 543.075L464.662 528.876L491.988 574.363C506.741 536.217 543.741 496.307 588.075 455.816L589.166 456.698C547.584 496.458 512.007 536.398 491.817 576.802L466.541 534.604C465.347 532.611 462.838 531.841 460.729 532.821C444.607 540.313 431.16 552.542 422.186 567.873L399.7 606.286L394.567 603.988C377.4 596.302 357.303 599.523 343.406 612.188L274.703 674.801Z" fill="#192137"/>
<path d="M590.155 463.471L588.755 463.569L586.494 458.676L581.433 457.649L581.237 456.26L589.579 455.076L590.155 463.471Z" fill="#192137"/>
<path d="M446.229 493.409L451.189 474.365L470.511 473.437L476.292 499.688L446.229 493.409Z" fill="#FFB6B6"/>
<path opacity="0.1" d="M446.229 493.409L451.189 474.365L470.511 473.437L476.292 499.688L446.229 493.409Z" fill="#192137"/>
<path d="M458.944 485.023C471.824 485.023 482.266 474.594 482.266 461.73C482.266 448.865 471.824 438.437 458.944 438.437C446.063 438.437 435.621 448.865 435.621 461.73C435.621 474.594 446.063 485.023 458.944 485.023Z" fill="#FFB6B6"/>
<path d="M471.811 466.66C471.811 466.66 462.952 449.128 452.571 450.14C442.19 451.152 436.721 452.384 436.721 452.384C436.721 452.384 433.64 438.729 448.147 433.476C448.147 433.476 429.702 415.316 451.663 406.408C473.624 397.499 485.913 408.861 485.913 408.861C485.913 408.861 502.169 425.069 481.695 437.183C481.695 437.183 496.898 457.606 478.491 474.44C478.491 474.44 482.608 460.818 478.313 463.33C474.017 465.842 471.811 466.66 471.811 466.66Z" fill="#212C49"/>
<path d="M433.211 589.727L430.109 592.697L407.697 640.691L405.244 720.078H442.899L460.563 680.765L472.464 719.698H506.321L514.17 649.022L493.071 599.038L433.211 589.727Z" fill="#212C49"/>
<path d="M472.218 491.474H447.071L419.718 506.175L426.097 534.598C426.097 534.598 424.625 551.749 428.059 564.49C431.494 577.231 430.022 593.892 430.022 593.892L493.071 599.038L495.034 541.213L494.052 502.5L472.218 491.474Z" fill="#EDF2F7"/>
<path d="M423.889 506.42C423.889 506.42 408.679 506.91 406.225 516.711C403.772 526.512 401.81 576.986 401.81 576.986C401.81 576.986 403.282 606.936 419.718 592.696C436.155 578.456 434.683 535.333 434.683 535.333L423.889 506.42Z" fill="#EDF2F7"/>
<path d="M571.419 756.433H481.784C478.748 756.433 476.278 753.966 476.278 750.934V658.388C476.278 655.355 478.748 652.889 481.784 652.889H571.419C574.455 652.889 576.925 655.355 576.925 658.388V750.934C576.925 753.966 574.455 756.433 571.419 756.433Z" fill="#EDF2F7"/>
<path d="M571.42 756.998H481.784C478.436 756.998 475.712 754.278 475.712 750.934V658.387C475.712 655.044 478.436 652.324 481.784 652.324H571.42C574.767 652.324 577.491 655.044 577.491 658.387V750.934C577.491 754.278 574.767 756.998 571.42 756.998ZM481.784 653.454C479.06 653.454 476.844 655.667 476.844 658.387V750.934C476.844 753.654 479.06 755.867 481.784 755.867H571.42C574.143 755.867 576.359 753.654 576.359 750.934V658.387C576.359 655.667 574.143 653.454 571.42 653.454H481.784Z" fill="#192137"/>
<path d="M530.139 732.12H522.751C521.852 732.12 521.12 731.556 521.12 730.862V699.095C521.12 698.401 521.852 697.837 522.751 697.837H530.139C531.038 697.837 531.77 698.401 531.77 699.095V730.862C531.77 731.556 531.038 732.12 530.139 732.12Z" fill="#FCD95B"/>
<path d="M505.714 713.399C504.988 713.399 504.396 713.855 504.396 714.415V730.827C504.396 731.387 504.988 731.843 505.714 731.843H513.102C513.829 731.843 514.42 731.387 514.42 730.827V714.415C514.42 713.855 513.829 713.399 513.102 713.399H505.714Z" fill="#FCD95B"/>
<path d="M547.176 732.12H539.788C538.888 732.12 538.157 731.556 538.157 730.862V678.801C538.157 678.108 538.888 677.543 539.788 677.543H547.176C548.075 677.543 548.807 678.108 548.807 678.801V730.862C548.807 731.556 548.075 732.12 547.176 732.12Z" fill="#FCD95B"/>
<path d="M388.196 503.916H379.757C378.73 503.916 377.894 503.272 377.894 502.48V466.192C377.894 465.4 378.73 464.756 379.757 464.756H388.196C389.224 464.756 390.059 465.4 390.059 466.192V502.48C390.059 503.272 389.224 503.916 388.196 503.916Z" fill="#FCD95B"/>
<path d="M360.296 482.532C359.466 482.532 358.791 483.052 358.791 483.692V502.439C358.791 503.079 359.466 503.6 360.296 503.6H368.735C369.565 503.6 370.241 503.079 370.241 502.439V483.692C370.241 483.052 369.565 482.532 368.735 482.532H360.296Z" fill="#FCD95B"/>
<path d="M407.657 503.916H399.218C398.191 503.916 397.355 503.272 397.355 502.48V443.011C397.355 442.219 398.191 441.574 399.218 441.574H407.657C408.685 441.574 409.52 442.219 409.52 443.011V502.48C409.52 503.272 408.685 503.916 407.657 503.916Z" fill="#FCD95B"/>
<path d="M512.86 666.354C517.231 665.936 520.241 660.037 519.583 653.175C519.358 650.43 518.478 647.779 517.017 645.444L516.174 637.678L516.304 637.639L518.421 600.816C518.913 592.254 515.52 583.84 508.982 578.281C505.093 574.973 500.944 573.299 498.276 577.478C493.849 584.412 499.583 612.995 503.349 629.246L504.809 646.611C503.817 649.182 503.456 651.952 503.756 654.69C504.413 661.55 508.489 666.772 512.86 666.354Z" fill="#FFB6B6"/>
<path d="M488.655 503.48C488.655 503.48 501.412 498.58 507.3 513.281C513.188 527.982 519.567 600.508 519.567 600.508L489.637 595.118L488.655 503.48Z" fill="#EDF2F7"/>
<path d="M313.485 496.289H296.307C295.161 496.289 294.228 495.358 294.228 494.213C294.228 493.068 295.161 492.137 296.307 492.137H313.485C314.631 492.137 315.564 493.068 315.564 494.213C315.564 495.358 314.631 496.289 313.485 496.289Z" fill="#EDF2F7"/>
<path d="M313.485 466.857H296.307C295.161 466.857 294.228 465.926 294.228 464.781C294.228 463.636 295.161 462.705 296.307 462.705H313.485C314.631 462.705 315.564 463.636 315.564 464.781C315.564 465.926 314.631 466.857 313.485 466.857Z" fill="#EDF2F7"/>
<path d="M313.485 445.632H296.307C295.161 445.632 294.228 444.7 294.228 443.556C294.228 442.411 295.161 441.48 296.307 441.48H313.485C314.631 441.48 315.564 442.411 315.564 443.556C315.564 444.7 314.631 445.632 313.485 445.632Z" fill="#EDF2F7"/>
<path d="M293.539 504.019C293.539 504.392 293.839 504.691 294.213 504.691H409.81C410.184 504.691 410.484 504.392 410.484 504.019C410.484 503.646 410.184 503.346 409.81 503.346H294.213C293.839 503.346 293.539 503.646 293.539 504.019Z" fill="#192137"/>
<path d="M516.484 678.083C516.484 678.456 516.784 678.755 517.158 678.755H632.755C633.128 678.755 633.428 678.456 633.428 678.083C633.428 677.71 633.128 677.41 632.755 677.41H517.158C516.784 677.41 516.484 677.71 516.484 678.083Z" fill="#192137"/>
<path d="M482.533 732.901C482.533 733.274 482.833 733.574 483.207 733.574H598.804C599.178 733.574 599.477 733.274 599.477 732.901C599.477 732.528 599.178 732.229 598.804 732.229H483.207C482.833 732.229 482.533 732.528 482.533 732.901Z" fill="#192137"/>
<path d="M404.799 500.619C400.428 501.037 397.418 506.936 398.076 513.798C398.301 516.543 399.181 519.194 400.642 521.529L401.485 529.295L401.356 529.334L399.238 566.158C398.746 574.72 402.139 583.133 408.677 588.692C412.566 592 416.715 593.674 419.383 589.495C423.811 582.561 418.076 553.978 414.31 537.728L412.85 520.362C413.842 517.791 414.203 515.021 413.903 512.283C413.246 505.423 409.17 500.201 404.799 500.619Z" fill="#FFB6B6"/>
</g>
<defs>
<clipPath id="clip0_31_726">
<rect width="363" height="354" fill="white" transform="translate(270.428 402.998)"/>
</clipPath>
</defs>
</svg>
