<svg width="164" height="151" viewBox="0 0 164 151" fill="none" xmlns="http://www.w3.org/2000/svg">
<path d="M4.00199 77.652C4.00199 77.652 2.61745 4.99854 72.93 4.99854C143.243 4.99854 145.994 67.4147 146 77.652C146.006 87.8893 143.243 144.535 72.93 146.583C2.61745 148.63 4.00199 77.652 4.00199 77.652Z" stroke="#29375B" stroke-width="8"/>
<path d="M11.5847 78.5701C11.5847 78.5701 11.5847 13.4985 73.1082 13.4985C134.632 13.4985 137.039 68.4213 137.044 77.3761C137.05 86.3309 134.632 135.881 73.1082 137.672C11.5847 139.463 11.5847 78.5701 11.5847 78.5701Z" stroke="#6480A7" stroke-width="10"/>
<path d="M37.7795 76.6819C37.7795 76.6819 37.7795 38.068 74.288 38.068C110.796 38.068 112.225 70.6595 112.228 75.9734C112.231 81.2872 110.796 110.69 74.288 111.753C37.7795 112.816 37.7795 76.6819 37.7795 76.6819Z" stroke="#6480A7" stroke-width="10"/>
<path d="M62.5959 75.5087C62.5959 75.5087 62.5959 62.6374 74.7654 62.6374C86.9349 62.6374 87.4111 73.5012 87.4122 75.2725C87.4132 77.0438 86.9349 86.8448 74.7654 87.1991C62.5959 87.5534 62.5959 75.5087 62.5959 75.5087Z" stroke="#6480A7" stroke-width="8"/>
<path d="M131.274 73.9985H75C74.4477 73.9985 74 74.4463 74 74.9985V76.5985C74 77.1508 74.4477 77.5985 75 77.5985H131.29C131.593 77.5985 131.881 77.7366 132.071 77.9738L140.592 88.6233C140.781 88.8605 141.069 88.9985 141.372 88.9985H162.343C163.095 88.9985 163.578 88.1982 163.227 87.5323L156.37 74.5214C156.2 74.1989 156.219 73.8094 156.42 73.505L162.979 63.5487C163.417 62.8838 162.94 61.9985 162.144 61.9985H141.388C141.075 61.9985 140.781 62.1446 140.592 62.3934L132.07 73.6037C131.881 73.8525 131.587 73.9985 131.274 73.9985Z" fill="#FCD95B" stroke="#E6B44E"/>
</svg>
