<svg width="111" height="111" viewBox="0 0 111 111" fill="none" xmlns="http://www.w3.org/2000/svg">
<path d="M83.25 83.25C85.0899 83.25 86.8545 82.5191 88.1555 81.2181C89.4566 79.917 90.1875 78.1524 90.1875 76.3125V59.3711C90.1875 57.5312 89.4566 55.7666 88.1555 54.4656C86.8545 53.1645 85.0899 52.4336 83.25 52.4336H73.6207C73.6207 49.9986 73.7664 47.5566 74.0509 45.1215C74.481 42.5408 75.2025 40.2444 76.2015 38.2395C77.2074 36.2276 78.4978 34.6528 80.0795 33.5012C81.6544 32.2108 83.6593 31.5656 86.1013 31.5656V20.8125C82.0845 20.8125 78.5741 21.6727 75.5563 23.3932C72.5647 25.0963 69.9927 27.4479 68.0291 30.2752C66.0583 33.3924 64.6058 36.8083 63.7279 40.3901C62.8432 44.3428 62.4103 48.3832 62.4375 52.4336V76.3125C62.4375 78.1524 63.1684 79.917 64.4694 81.2181C65.7705 82.5191 67.535 83.25 69.375 83.25H83.25ZM41.625 83.25C43.4649 83.25 45.2295 82.5191 46.5305 81.2181C47.8316 79.917 48.5625 78.1524 48.5625 76.3125V59.3711C48.5625 57.5312 47.8316 55.7666 46.5305 54.4656C45.2295 53.1645 43.4649 52.4336 41.625 52.4336H31.9957C31.9957 49.9986 32.1414 47.5566 32.4259 45.1215C32.856 42.5408 33.5775 40.2444 34.5765 38.2395C35.5824 36.2276 36.8728 34.6528 38.4545 33.5012C40.0294 32.2108 42.0343 31.5656 44.4763 31.5656V20.8125C40.4595 20.8125 36.9491 21.6727 33.9313 23.3932C30.9397 25.0963 28.3677 27.4479 26.4041 30.2752C24.4333 33.3924 22.9808 36.8083 22.1029 40.3901C21.2182 44.3428 20.7853 48.3832 20.8125 52.4336V76.3125C20.8125 78.1524 21.5434 79.917 22.8444 81.2181C24.1455 82.5191 25.91 83.25 27.75 83.25H41.625Z" fill="#FCD95B"/>
</svg>
