<svg width="1363" height="173" viewBox="0 0 1363 173" fill="none" xmlns="http://www.w3.org/2000/svg">
<mask id="path-1-inside-1_1163_1036" fill="white">
<path d="M0 10C0 4.47715 4.47715 0 10 0H1353C1358.52 0 1363 4.47715 1363 10V163C1363 168.523 1358.52 173 1353 173H9.99997C4.47712 173 0 168.523 0 163V10Z"/>
</mask>
<path d="M0 10C0 4.47715 4.47715 0 10 0H1353C1358.52 0 1363 4.47715 1363 10V163C1363 168.523 1358.52 173 1353 173H9.99997C4.47712 173 0 168.523 0 163V10Z" fill="#FFFBEF"/>
<path d="M0 0H1363H0ZM1363 173H0H1363ZM10 173C-15.9574 173 -37 151.957 -37 126V47C-37 21.0426 -15.9574 0 10 0H37C37 0 37 4.47715 37 10V163C37 168.523 37 173 37 173H10ZM1456.5 0C1504.27 0 1543 38.7274 1543 86.5C1543 134.273 1504.27 173 1456.5 173H1183C1183 173 1183 168.523 1183 163V10C1183 4.47715 1183 0 1183 0H1456.5Z" fill="#FCD95B" mask="url(#path-1-inside-1_1163_1036)"/>
<path d="M1227 89.3249C1227 89.3249 1226 37 1276.64 37C1327.28 37 1329.26 81.952 1329.27 89.3249C1329.27 96.6977 1327.28 137.494 1276.64 138.969C1226 140.443 1227 89.3249 1227 89.3249Z" stroke="#29375B" stroke-width="8"/>
<path d="M1232.46 89.9861C1232.46 89.9861 1232.46 43.1217 1276.77 43.1217C1321.08 43.1217 1322.81 82.677 1322.82 89.1262C1322.82 95.5754 1321.08 131.261 1276.77 132.551C1232.46 133.841 1232.46 89.9861 1232.46 89.9861Z" stroke="#6480A7" stroke-width="10"/>
<path d="M1251.33 88.6262C1251.33 88.6262 1251.33 60.8165 1277.62 60.8165C1303.91 60.8165 1304.94 84.2889 1304.95 88.1159C1304.95 91.9429 1303.91 113.119 1277.62 113.884C1251.33 114.65 1251.33 88.6262 1251.33 88.6262Z" stroke="#6480A7" stroke-width="10"/>
<path d="M1269.2 87.7812C1269.2 87.7812 1269.2 78.5114 1277.97 78.5114C1286.73 78.5114 1287.07 86.3355 1287.07 87.6111C1287.07 88.8868 1286.73 95.9455 1277.97 96.2007C1269.2 96.4558 1269.2 87.7812 1269.2 87.7812Z" stroke="#6480A7" stroke-width="8"/>
<path d="M1318.52 86.6936H1278.41C1277.86 86.6936 1277.41 87.1414 1277.41 87.6936V88.2864C1277.41 88.8386 1277.86 89.2864 1278.41 89.2864H1318.54C1318.84 89.2864 1319.13 89.4244 1319.32 89.6616L1325.29 97.1214C1325.48 97.3586 1325.77 97.4966 1326.07 97.4966H1340.57C1341.33 97.4966 1341.81 96.6963 1341.46 96.0304L1336.81 87.2165C1336.64 86.894 1336.66 86.5045 1336.86 86.2001L1341.21 79.6014C1341.65 78.9365 1341.17 78.0513 1340.38 78.0513H1326.09C1325.77 78.0513 1325.48 78.1973 1325.29 78.4461L1319.32 86.2988C1319.13 86.5476 1318.84 86.6936 1318.52 86.6936Z" fill="#192137" stroke="#101624"/>
<path d="M102.493 120.8C103.741 120.8 104.905 121.16 105.985 121.88C107.089 122.6 107.977 123.572 108.649 124.796C109.321 126.02 109.657 127.388 109.657 128.9C109.657 130.388 109.321 131.744 108.649 132.968C107.977 134.192 107.089 135.176 105.985 135.92C104.905 136.64 103.741 137 102.493 137H95.8687L96.2287 136.352V143.804C96.2287 144.428 96.0367 144.956 95.6527 145.388C95.2687 145.796 94.7647 146 94.1407 146C93.5407 146 93.0487 145.796 92.6647 145.388C92.2807 144.956 92.0887 144.428 92.0887 143.804V122.996C92.0887 122.372 92.2927 121.856 92.7007 121.448C93.1327 121.016 93.6607 120.8 94.2847 120.8H102.493ZM102.493 132.896C102.949 132.896 103.393 132.704 103.825 132.32C104.257 131.936 104.617 131.444 104.905 130.844C105.193 130.22 105.337 129.572 105.337 128.9C105.337 128.204 105.193 127.556 104.905 126.956C104.617 126.356 104.257 125.876 103.825 125.516C103.393 125.132 102.949 124.94 102.493 124.94H95.7967L96.2287 124.292V133.472L95.8327 132.896H102.493ZM115.58 146C114.956 146 114.44 145.796 114.032 145.388C113.624 144.956 113.42 144.428 113.42 143.804V128.936C113.42 128.312 113.624 127.796 114.032 127.388C114.44 126.956 114.956 126.74 115.58 126.74C116.204 126.74 116.72 126.956 117.128 127.388C117.536 127.796 117.74 128.312 117.74 128.936V132.32L117.488 129.908C117.752 129.332 118.088 128.828 118.496 128.396C118.928 127.94 119.408 127.568 119.936 127.28C120.464 126.968 121.028 126.74 121.628 126.596C122.228 126.452 122.828 126.38 123.428 126.38C124.148 126.38 124.748 126.584 125.228 126.992C125.732 127.4 125.984 127.88 125.984 128.432C125.984 129.224 125.78 129.8 125.372 130.16C124.964 130.496 124.52 130.664 124.04 130.664C123.584 130.664 123.164 130.58 122.78 130.412C122.42 130.244 122 130.16 121.52 130.16C121.088 130.16 120.644 130.268 120.188 130.484C119.756 130.676 119.348 130.988 118.964 131.42C118.604 131.852 118.304 132.392 118.064 133.04C117.848 133.664 117.74 134.408 117.74 135.272V143.804C117.74 144.428 117.536 144.956 117.128 145.388C116.72 145.796 116.204 146 115.58 146ZM146.905 136.388C146.905 138.356 146.461 140.096 145.573 141.608C144.709 143.096 143.533 144.26 142.045 145.1C140.581 145.94 138.937 146.36 137.113 146.36C135.289 146.36 133.633 145.94 132.145 145.1C130.681 144.26 129.505 143.096 128.617 141.608C127.753 140.096 127.321 138.356 127.321 136.388C127.321 134.42 127.753 132.692 128.617 131.204C129.505 129.692 130.681 128.516 132.145 127.676C133.633 126.812 135.289 126.38 137.113 126.38C138.937 126.38 140.581 126.812 142.045 127.676C143.533 128.516 144.709 129.692 145.573 131.204C146.461 132.692 146.905 134.42 146.905 136.388ZM142.585 136.388C142.585 135.164 142.333 134.108 141.829 133.22C141.349 132.308 140.689 131.6 139.849 131.096C139.033 130.592 138.121 130.34 137.113 130.34C136.105 130.34 135.181 130.592 134.341 131.096C133.525 131.6 132.865 132.308 132.361 133.22C131.881 134.108 131.641 135.164 131.641 136.388C131.641 137.588 131.881 138.644 132.361 139.556C132.865 140.444 133.525 141.14 134.341 141.644C135.181 142.148 136.105 142.4 137.113 142.4C138.121 142.4 139.033 142.148 139.849 141.644C140.689 141.14 141.349 140.444 141.829 139.556C142.333 138.644 142.585 137.588 142.585 136.388ZM155.546 146.36C155.546 147.728 155.282 148.904 154.754 149.888C154.226 150.896 153.518 151.676 152.63 152.228C151.742 152.78 150.746 153.056 149.642 153.056C149.042 153.056 148.562 152.852 148.202 152.444C147.818 152.06 147.626 151.592 147.626 151.04V150.644C147.626 150.116 147.806 149.696 148.166 149.384C148.502 149.072 148.934 148.832 149.462 148.664C150.038 148.472 150.446 148.196 150.686 147.836C150.926 147.5 151.07 147.092 151.118 146.612C151.19 146.132 151.226 145.628 151.226 145.1V128.936C151.226 128.312 151.43 127.796 151.838 127.388C152.246 126.956 152.762 126.74 153.386 126.74C154.01 126.74 154.526 126.956 154.934 127.388C155.342 127.796 155.546 128.312 155.546 128.936V146.36ZM153.314 124.4C152.498 124.4 151.922 124.268 151.586 124.004C151.25 123.74 151.082 123.272 151.082 122.6V121.916C151.082 121.22 151.262 120.752 151.622 120.512C152.006 120.248 152.582 120.116 153.35 120.116C154.19 120.116 154.778 120.248 155.114 120.512C155.45 120.776 155.618 121.244 155.618 121.916V122.6C155.618 123.296 155.438 123.776 155.078 124.04C154.718 124.28 154.13 124.4 153.314 124.4ZM169.672 146.36C167.632 146.36 165.856 145.94 164.344 145.1C162.856 144.236 161.704 143.072 160.888 141.608C160.096 140.144 159.7 138.488 159.7 136.64C159.7 134.48 160.132 132.644 160.996 131.132C161.884 129.596 163.036 128.42 164.452 127.604C165.868 126.788 167.368 126.38 168.952 126.38C170.176 126.38 171.328 126.632 172.408 127.136C173.512 127.64 174.484 128.336 175.324 129.224C176.164 130.088 176.824 131.096 177.304 132.248C177.808 133.4 178.06 134.624 178.06 135.92C178.036 136.496 177.808 136.964 177.376 137.324C176.944 137.684 176.44 137.864 175.864 137.864H162.112L161.032 134.264H174.244L173.452 134.984V134.012C173.404 133.316 173.152 132.692 172.696 132.14C172.264 131.588 171.712 131.156 171.04 130.844C170.392 130.508 169.696 130.34 168.952 130.34C168.232 130.34 167.56 130.436 166.936 130.628C166.312 130.82 165.772 131.144 165.316 131.6C164.86 132.056 164.5 132.668 164.236 133.436C163.972 134.204 163.84 135.176 163.84 136.352C163.84 137.648 164.104 138.752 164.632 139.664C165.184 140.552 165.88 141.236 166.72 141.716C167.584 142.172 168.496 142.4 169.456 142.4C170.344 142.4 171.052 142.328 171.58 142.184C172.108 142.04 172.528 141.872 172.84 141.68C173.176 141.464 173.476 141.284 173.74 141.14C174.172 140.924 174.58 140.816 174.964 140.816C175.492 140.816 175.924 140.996 176.26 141.356C176.62 141.716 176.8 142.136 176.8 142.616C176.8 143.264 176.464 143.852 175.792 144.38C175.168 144.908 174.292 145.376 173.164 145.784C172.036 146.168 170.872 146.36 169.672 146.36ZM190.402 126.38C191.77 126.38 192.958 126.524 193.966 126.812C194.998 127.1 195.79 127.508 196.342 128.036C196.918 128.54 197.206 129.152 197.206 129.872C197.206 130.352 197.062 130.808 196.774 131.24C196.486 131.648 196.066 131.852 195.514 131.852C195.13 131.852 194.806 131.804 194.542 131.708C194.302 131.588 194.086 131.444 193.894 131.276C193.702 131.108 193.474 130.952 193.21 130.808C192.97 130.664 192.598 130.556 192.094 130.484C191.614 130.388 191.254 130.34 191.014 130.34C189.79 130.34 188.746 130.604 187.882 131.132C187.042 131.66 186.394 132.38 185.938 133.292C185.482 134.18 185.254 135.212 185.254 136.388C185.254 137.54 185.482 138.572 185.938 139.484C186.418 140.372 187.066 141.08 187.882 141.608C188.722 142.136 189.682 142.4 190.762 142.4C191.362 142.4 191.878 142.364 192.31 142.292C192.742 142.22 193.102 142.112 193.39 141.968C193.726 141.776 194.026 141.572 194.29 141.356C194.554 141.14 194.95 141.032 195.478 141.032C196.102 141.032 196.582 141.236 196.918 141.644C197.254 142.028 197.422 142.508 197.422 143.084C197.422 143.684 197.086 144.236 196.414 144.74C195.742 145.22 194.854 145.616 193.75 145.928C192.67 146.216 191.494 146.36 190.222 146.36C188.326 146.36 186.682 145.928 185.29 145.064C183.898 144.176 182.818 142.976 182.05 141.464C181.306 139.952 180.934 138.26 180.934 136.388C180.934 134.42 181.33 132.692 182.122 131.204C182.938 129.692 184.054 128.516 185.47 127.676C186.91 126.812 188.554 126.38 190.402 126.38ZM200.753 127.1H209.285C209.861 127.1 210.341 127.292 210.725 127.676C211.109 128.06 211.301 128.54 211.301 129.116C211.301 129.668 211.109 130.136 210.725 130.52C210.341 130.88 209.861 131.06 209.285 131.06H200.753C200.177 131.06 199.697 130.868 199.313 130.484C198.929 130.1 198.737 129.62 198.737 129.044C198.737 128.492 198.929 128.036 199.313 127.676C199.697 127.292 200.177 127.1 200.753 127.1ZM204.605 122.6C205.229 122.6 205.733 122.816 206.117 123.248C206.525 123.656 206.729 124.172 206.729 124.796V140.816C206.729 141.152 206.789 141.428 206.909 141.644C207.053 141.86 207.233 142.016 207.449 142.112C207.689 142.208 207.941 142.256 208.205 142.256C208.493 142.256 208.757 142.208 208.997 142.112C209.237 141.992 209.513 141.932 209.825 141.932C210.161 141.932 210.461 142.088 210.725 142.4C211.013 142.712 211.157 143.144 211.157 143.696C211.157 144.368 210.785 144.92 210.041 145.352C209.321 145.784 208.541 146 207.701 146C207.197 146 206.633 145.964 206.009 145.892C205.409 145.796 204.833 145.592 204.281 145.28C203.753 144.944 203.309 144.44 202.949 143.768C202.589 143.096 202.409 142.172 202.409 140.996V124.796C202.409 124.172 202.613 123.656 203.021 123.248C203.453 122.816 203.981 122.6 204.605 122.6ZM236.122 120.8C237.37 120.8 238.534 121.16 239.614 121.88C240.718 122.6 241.606 123.572 242.278 124.796C242.95 126.02 243.286 127.388 243.286 128.9C243.286 130.388 242.95 131.744 242.278 132.968C241.606 134.192 240.718 135.176 239.614 135.92C238.534 136.64 237.37 137 236.122 137H229.498L229.858 136.352V143.804C229.858 144.428 229.666 144.956 229.282 145.388C228.898 145.796 228.394 146 227.77 146C227.17 146 226.678 145.796 226.294 145.388C225.91 144.956 225.718 144.428 225.718 143.804V122.996C225.718 122.372 225.922 121.856 226.33 121.448C226.762 121.016 227.29 120.8 227.914 120.8H236.122ZM236.122 132.896C236.578 132.896 237.022 132.704 237.454 132.32C237.886 131.936 238.246 131.444 238.534 130.844C238.822 130.22 238.966 129.572 238.966 128.9C238.966 128.204 238.822 127.556 238.534 126.956C238.246 126.356 237.886 125.876 237.454 125.516C237.022 125.132 236.578 124.94 236.122 124.94H229.426L229.858 124.292V133.472L229.462 132.896H236.122ZM257.165 126.38C258.893 126.38 260.201 126.752 261.089 127.496C262.001 128.24 262.625 129.236 262.961 130.484C263.297 131.708 263.465 133.076 263.465 134.588V143.804C263.465 144.428 263.261 144.956 262.853 145.388C262.445 145.796 261.929 146 261.305 146C260.681 146 260.165 145.796 259.757 145.388C259.349 144.956 259.145 144.428 259.145 143.804V134.588C259.145 133.796 259.049 133.088 258.857 132.464C258.665 131.816 258.317 131.3 257.813 130.916C257.309 130.532 256.589 130.34 255.653 130.34C254.741 130.34 253.961 130.532 253.313 130.916C252.665 131.3 252.173 131.816 251.837 132.464C251.525 133.088 251.369 133.796 251.369 134.588V143.804C251.369 144.428 251.165 144.956 250.757 145.388C250.349 145.796 249.833 146 249.209 146C248.585 146 248.069 145.796 247.661 145.388C247.253 144.956 247.049 144.428 247.049 143.804V121.556C247.049 120.932 247.253 120.416 247.661 120.008C248.069 119.576 248.585 119.36 249.209 119.36C249.833 119.36 250.349 119.576 250.757 120.008C251.165 120.416 251.369 120.932 251.369 121.556V130.484L250.829 130.376C251.045 129.968 251.345 129.536 251.729 129.08C252.113 128.6 252.581 128.156 253.133 127.748C253.685 127.34 254.297 127.016 254.969 126.776C255.641 126.512 256.373 126.38 257.165 126.38ZM272.211 143.804C272.211 144.428 272.007 144.956 271.599 145.388C271.191 145.796 270.675 146 270.051 146C269.427 146 268.911 145.796 268.503 145.388C268.095 144.956 267.891 144.428 267.891 143.804V128.936C267.891 128.312 268.095 127.796 268.503 127.388C268.911 126.956 269.427 126.74 270.051 126.74C270.675 126.74 271.191 126.956 271.599 127.388C272.007 127.796 272.211 128.312 272.211 128.936V143.804ZM270.015 124.4C269.199 124.4 268.623 124.268 268.287 124.004C267.951 123.74 267.783 123.272 267.783 122.6V121.916C267.783 121.22 267.963 120.752 268.323 120.512C268.707 120.248 269.283 120.116 270.051 120.116C270.891 120.116 271.479 120.248 271.815 120.512C272.151 120.776 272.319 121.244 272.319 121.916V122.6C272.319 123.296 272.139 123.776 271.779 124.04C271.419 124.28 270.831 124.4 270.015 124.4ZM281.331 143.804C281.331 144.428 281.115 144.956 280.683 145.388C280.275 145.796 279.759 146 279.135 146C278.535 146 278.031 145.796 277.623 145.388C277.215 144.956 277.011 144.428 277.011 143.804V121.556C277.011 120.932 277.215 120.416 277.623 120.008C278.055 119.576 278.583 119.36 279.207 119.36C279.831 119.36 280.335 119.576 280.719 120.008C281.127 120.416 281.331 120.932 281.331 121.556V143.804ZM304.686 136.388C304.686 138.356 304.242 140.096 303.354 141.608C302.49 143.096 301.314 144.26 299.826 145.1C298.362 145.94 296.718 146.36 294.894 146.36C293.07 146.36 291.414 145.94 289.926 145.1C288.462 144.26 287.286 143.096 286.398 141.608C285.534 140.096 285.102 138.356 285.102 136.388C285.102 134.42 285.534 132.692 286.398 131.204C287.286 129.692 288.462 128.516 289.926 127.676C291.414 126.812 293.07 126.38 294.894 126.38C296.718 126.38 298.362 126.812 299.826 127.676C301.314 128.516 302.49 129.692 303.354 131.204C304.242 132.692 304.686 134.42 304.686 136.388ZM300.366 136.388C300.366 135.164 300.114 134.108 299.61 133.22C299.13 132.308 298.47 131.6 297.63 131.096C296.814 130.592 295.902 130.34 294.894 130.34C293.886 130.34 292.962 130.592 292.122 131.096C291.306 131.6 290.646 132.308 290.142 133.22C289.662 134.108 289.422 135.164 289.422 136.388C289.422 137.588 289.662 138.644 290.142 139.556C290.646 140.444 291.306 141.14 292.122 141.644C292.962 142.148 293.886 142.4 294.894 142.4C295.902 142.4 296.814 142.148 297.63 141.644C298.47 141.14 299.13 140.444 299.61 139.556C300.114 138.644 300.366 137.588 300.366 136.388ZM307.351 143.012C307.111 142.676 307.003 142.244 307.027 141.716C307.051 141.188 307.363 140.732 307.963 140.348C308.347 140.108 308.755 140.012 309.187 140.06C309.619 140.084 310.039 140.3 310.447 140.708C311.143 141.404 311.875 141.944 312.643 142.328C313.411 142.712 314.371 142.904 315.523 142.904C315.883 142.88 316.279 142.832 316.711 142.76C317.143 142.664 317.515 142.472 317.827 142.184C318.163 141.872 318.331 141.404 318.331 140.78C318.331 140.252 318.151 139.832 317.791 139.52C317.431 139.208 316.951 138.944 316.351 138.728C315.775 138.512 315.127 138.308 314.407 138.116C313.663 137.9 312.895 137.66 312.103 137.396C311.335 137.132 310.627 136.796 309.979 136.388C309.331 135.956 308.803 135.392 308.395 134.696C307.987 134 307.783 133.124 307.783 132.068C307.783 130.868 308.119 129.848 308.791 129.008C309.463 128.168 310.327 127.52 311.383 127.064C312.463 126.608 313.591 126.38 314.767 126.38C315.511 126.38 316.291 126.476 317.107 126.668C317.923 126.836 318.703 127.124 319.447 127.532C320.191 127.916 320.815 128.432 321.319 129.08C321.583 129.44 321.739 129.872 321.787 130.376C321.835 130.88 321.607 131.336 321.103 131.744C320.743 132.032 320.323 132.164 319.843 132.14C319.363 132.092 318.967 131.924 318.655 131.636C318.247 131.108 317.695 130.688 316.999 130.376C316.327 130.064 315.547 129.908 314.659 129.908C314.299 129.908 313.903 129.956 313.471 130.052C313.063 130.124 312.703 130.304 312.391 130.592C312.079 130.856 311.923 131.288 311.923 131.888C311.923 132.44 312.103 132.884 312.463 133.22C312.823 133.532 313.303 133.796 313.903 134.012C314.527 134.204 315.187 134.396 315.883 134.588C316.603 134.78 317.335 135.008 318.079 135.272C318.823 135.536 319.507 135.884 320.131 136.316C320.755 136.748 321.259 137.312 321.643 138.008C322.027 138.68 322.219 139.544 322.219 140.6C322.219 141.824 321.859 142.868 321.139 143.732C320.419 144.596 319.519 145.256 318.439 145.712C317.359 146.144 316.255 146.36 315.127 146.36C313.711 146.36 312.295 146.12 310.879 145.64C309.463 145.136 308.287 144.26 307.351 143.012ZM344.518 136.388C344.518 138.356 344.074 140.096 343.186 141.608C342.322 143.096 341.146 144.26 339.658 145.1C338.194 145.94 336.55 146.36 334.726 146.36C332.902 146.36 331.246 145.94 329.758 145.1C328.294 144.26 327.118 143.096 326.23 141.608C325.366 140.096 324.934 138.356 324.934 136.388C324.934 134.42 325.366 132.692 326.23 131.204C327.118 129.692 328.294 128.516 329.758 127.676C331.246 126.812 332.902 126.38 334.726 126.38C336.55 126.38 338.194 126.812 339.658 127.676C341.146 128.516 342.322 129.692 343.186 131.204C344.074 132.692 344.518 134.42 344.518 136.388ZM340.198 136.388C340.198 135.164 339.946 134.108 339.442 133.22C338.962 132.308 338.302 131.6 337.462 131.096C336.646 130.592 335.734 130.34 334.726 130.34C333.718 130.34 332.794 130.592 331.954 131.096C331.138 131.6 330.478 132.308 329.974 133.22C329.494 134.108 329.254 135.164 329.254 136.388C329.254 137.588 329.494 138.644 329.974 139.556C330.478 140.444 331.138 141.14 331.954 141.644C332.794 142.148 333.718 142.4 334.726 142.4C335.734 142.4 336.646 142.148 337.462 141.644C338.302 141.14 338.962 140.444 339.442 139.556C339.946 138.644 340.198 137.588 340.198 136.388ZM358.271 126.38C359.951 126.38 361.451 126.812 362.771 127.676C364.115 128.516 365.171 129.68 365.939 131.168C366.731 132.656 367.127 134.384 367.127 136.352C367.127 138.32 366.731 140.06 365.939 141.572C365.171 143.06 364.127 144.236 362.807 145.1C361.511 145.94 360.047 146.36 358.415 146.36C357.455 146.36 356.555 146.204 355.715 145.892C354.875 145.58 354.131 145.184 353.483 144.704C352.859 144.224 352.367 143.744 352.007 143.264C351.671 142.76 351.503 142.34 351.503 142.004L352.619 141.536V151.004C352.619 151.628 352.415 152.144 352.007 152.552C351.599 152.984 351.083 153.2 350.459 153.2C349.835 153.2 349.319 152.996 348.911 152.588C348.503 152.18 348.299 151.652 348.299 151.004V128.936C348.299 128.312 348.503 127.796 348.911 127.388C349.319 126.956 349.835 126.74 350.459 126.74C351.083 126.74 351.599 126.956 352.007 127.388C352.415 127.796 352.619 128.312 352.619 128.936V130.7L352.007 130.376C352.007 130.064 352.175 129.692 352.511 129.26C352.847 128.804 353.303 128.36 353.879 127.928C354.455 127.472 355.115 127.1 355.859 126.812C356.627 126.524 357.431 126.38 358.271 126.38ZM357.731 130.34C356.675 130.34 355.751 130.604 354.959 131.132C354.167 131.66 353.543 132.38 353.087 133.292C352.655 134.18 352.439 135.2 352.439 136.352C352.439 137.48 352.655 138.512 353.087 139.448C353.543 140.36 354.167 141.08 354.959 141.608C355.751 142.136 356.675 142.4 357.731 142.4C358.787 142.4 359.699 142.136 360.467 141.608C361.259 141.08 361.871 140.36 362.303 139.448C362.759 138.512 362.987 137.48 362.987 136.352C362.987 135.2 362.759 134.18 362.303 133.292C361.871 132.38 361.259 131.66 360.467 131.132C359.699 130.604 358.787 130.34 357.731 130.34ZM381.02 126.38C382.748 126.38 384.056 126.752 384.944 127.496C385.856 128.24 386.48 129.236 386.816 130.484C387.152 131.708 387.32 133.076 387.32 134.588V143.804C387.32 144.428 387.116 144.956 386.708 145.388C386.3 145.796 385.784 146 385.16 146C384.536 146 384.02 145.796 383.612 145.388C383.204 144.956 383 144.428 383 143.804V134.588C383 133.796 382.904 133.088 382.712 132.464C382.52 131.816 382.172 131.3 381.668 130.916C381.164 130.532 380.444 130.34 379.508 130.34C378.596 130.34 377.816 130.532 377.168 130.916C376.52 131.3 376.028 131.816 375.692 132.464C375.38 133.088 375.224 133.796 375.224 134.588V143.804C375.224 144.428 375.02 144.956 374.612 145.388C374.204 145.796 373.688 146 373.064 146C372.44 146 371.924 145.796 371.516 145.388C371.108 144.956 370.904 144.428 370.904 143.804V121.556C370.904 120.932 371.108 120.416 371.516 120.008C371.924 119.576 372.44 119.36 373.064 119.36C373.688 119.36 374.204 119.576 374.612 120.008C375.02 120.416 375.224 120.932 375.224 121.556V130.484L374.684 130.376C374.9 129.968 375.2 129.536 375.584 129.08C375.968 128.6 376.436 128.156 376.988 127.748C377.54 127.34 378.152 127.016 378.824 126.776C379.496 126.512 380.228 126.38 381.02 126.38ZM406.114 126.74C406.738 126.74 407.254 126.956 407.662 127.388C408.07 127.796 408.274 128.312 408.274 128.936V144.236C408.274 146.444 407.854 148.196 407.014 149.492C406.198 150.812 405.094 151.76 403.702 152.336C402.31 152.912 400.75 153.2 399.022 153.2C398.254 153.2 397.438 153.14 396.574 153.02C395.71 152.9 395.002 152.72 394.45 152.48C393.73 152.168 393.226 151.772 392.938 151.292C392.674 150.836 392.626 150.344 392.794 149.816C393.01 149.12 393.358 148.64 393.838 148.376C394.318 148.136 394.822 148.112 395.35 148.304C395.734 148.424 396.238 148.604 396.862 148.844C397.486 149.108 398.206 149.24 399.022 149.24C400.126 149.24 401.038 149.084 401.758 148.772C402.502 148.484 403.054 147.98 403.414 147.26C403.798 146.564 403.99 145.604 403.99 144.38V141.968L404.746 142.832C404.338 143.624 403.822 144.284 403.198 144.812C402.598 145.316 401.878 145.7 401.038 145.964C400.198 146.228 399.238 146.36 398.158 146.36C396.886 146.36 395.77 146.072 394.81 145.496C393.874 144.896 393.142 144.08 392.614 143.048C392.086 141.992 391.822 140.792 391.822 139.448V128.936C391.822 128.312 392.026 127.796 392.434 127.388C392.842 126.956 393.358 126.74 393.982 126.74C394.606 126.74 395.122 126.956 395.53 127.388C395.938 127.796 396.142 128.312 396.142 128.936V138.152C396.142 139.712 396.478 140.816 397.15 141.464C397.846 142.088 398.806 142.4 400.03 142.4C400.87 142.4 401.578 142.244 402.154 141.932C402.73 141.596 403.174 141.116 403.486 140.492C403.798 139.844 403.954 139.064 403.954 138.152V128.936C403.954 128.312 404.158 127.796 404.566 127.388C404.974 126.956 405.49 126.74 406.114 126.74Z" fill="#29375B"/>
<path d="M209.204 42.6798C206.407 42.3596 196.291 42.3486 193.645 42.6743C191 42.9999 189.638 43.9291 186.901 46.0542C184.165 48.1793 181.925 49.4719 181.925 49.4719V53.9999H219.925V49.4719C219.925 49.4719 218 48 215.948 46.0521C213.896 44.1042 212 43 209.204 42.6798Z" fill="#FCD95B" stroke="#FCD95B"/>
<circle cx="193.925" cy="48" r="3" fill="white"/>
<circle cx="207.925" cy="48" r="3" fill="white"/>
<path d="M212.4 19.3335L207.125 31H192.725L187.7 19.8335L190.5 18.5001L195.925 30.1112H204.325L210 18.0001L212.4 19.3335Z" fill="#29375B" stroke="#29375B"/>
<circle cx="188" cy="17" r="3" fill="#29375B"/>
<circle cx="212" cy="17" r="3" fill="#29375B"/>
<path d="M178.004 39.7496C180.029 42.1512 179.113 43.3493 179.488 43.3921L180.238 43.4775L179.309 51.633L177.059 51.3767C177.059 51.3767 176.684 52.1701 174.605 53.0318C172.527 53.8934 171.418 54.2073 171.092 53.736C170.765 53.2646 172.255 50.1953 173.863 48.6661C175.471 47.1368 176.848 46.5646 176.848 46.5646C177.144 46.2974 176.896 46.136 176.896 46.136C176.896 46.136 174.441 43.5945 173.866 41.3884C173.291 39.1823 173.373 37.0511 173.748 37.0938C173.748 37.0938 175.979 37.348 178.004 39.7496Z" fill="#29375B" stroke="#29375B"/>
<path d="M221.925 52C221.925 57.1797 221.921 60.8744 221.581 63.6042C221.241 66.3245 220.611 67.6489 219.719 68.4445C218.778 69.283 217.17 69.8779 214.024 70.1894C210.912 70.4976 206.718 70.5 200.925 70.5C195.131 70.5 190.937 70.4976 187.825 70.1894C184.68 69.8779 183.071 69.283 182.13 68.4445C181.238 67.6489 180.608 66.3245 180.269 63.6042C179.928 60.8744 179.925 57.1797 179.925 52C179.925 40.402 189.327 31 200.925 31C212.523 31 221.925 40.402 221.925 52Z" stroke="#29375B" stroke-width="4"/>
<path d="M108.16 38.3516H118.285V43.1855H116.123V65H110.287L99.1953 47.7734V60.1836H101.428V65H91.3203V60.1836H93.5176V43.1855H91.3555V38.3516H99.4062L110.428 55.8066V43.1855H108.16V38.3516ZM120.588 46.7891H128.762V60.1836H131.293V65H120.588V60.1836H123.33V51.6055H120.588V46.7891ZM123.049 40.918C123.049 40.4844 123.125 40.0801 123.277 39.7051C123.441 39.3184 123.664 38.9844 123.945 38.7031C124.227 38.4219 124.555 38.1992 124.93 38.0352C125.316 37.8711 125.732 37.7891 126.178 37.7891C126.6 37.7891 126.998 37.8711 127.373 38.0352C127.748 38.1992 128.076 38.4219 128.357 38.7031C128.639 38.9844 128.861 39.3184 129.025 39.7051C129.189 40.0801 129.271 40.4844 129.271 40.918C129.271 41.3516 129.189 41.7617 129.025 42.1484C128.861 42.5234 128.639 42.8516 128.357 43.1328C128.076 43.4141 127.748 43.6367 127.373 43.8008C126.998 43.9648 126.6 44.0469 126.178 44.0469C125.732 44.0469 125.316 43.9648 124.93 43.8008C124.555 43.6367 124.227 43.4141 123.945 43.1328C123.664 42.8516 123.441 42.5234 123.277 42.1484C123.125 41.7617 123.049 41.3516 123.049 40.918ZM149.451 54.5234C149.451 53.5039 149.182 52.707 148.643 52.1328C148.104 51.5469 147.389 51.2539 146.498 51.2539C145.889 51.2539 145.273 51.3887 144.652 51.6582C144.031 51.9277 143.428 52.4316 142.842 53.1699V60.1836H145.795V65H134.475V60.1836H137.146V51.6055H134.51V46.7891H142.807V48.3887C143.568 47.791 144.418 47.3223 145.355 46.9824C146.305 46.6309 147.301 46.4551 148.344 46.4551C150.535 46.4551 152.223 47.0703 153.406 48.3008C154.59 49.5195 155.182 51.3066 155.182 53.6621V60.1836H157.766V65H149.451V54.5234ZM159.629 46.7891H167.627V65.3164C167.627 66.7109 167.451 67.9062 167.1 68.9023C166.76 69.8984 166.256 70.7188 165.588 71.3633C164.932 72.0078 164.117 72.4824 163.145 72.7871C162.172 73.0918 161.059 73.2441 159.805 73.2441L159.734 69.2539C160.578 69.2188 161.205 68.8789 161.615 68.2344C162.025 67.6016 162.23 66.752 162.23 65.6855V51.6055H159.629V46.7891ZM161.932 40.918C161.932 40.4844 162.008 40.0801 162.16 39.7051C162.324 39.3184 162.547 38.9844 162.828 38.7031C163.109 38.4219 163.438 38.1992 163.812 38.0352C164.199 37.8711 164.615 37.7891 165.061 37.7891C165.482 37.7891 165.881 37.8711 166.256 38.0352C166.643 38.1992 166.977 38.4219 167.258 38.7031C167.551 38.9844 167.779 39.3184 167.943 39.7051C168.119 40.0801 168.207 40.4844 168.207 40.918C168.207 41.3516 168.119 41.7617 167.943 42.1484C167.779 42.5234 167.551 42.8516 167.258 43.1328C166.977 43.4141 166.643 43.6367 166.256 43.8008C165.881 43.9648 165.482 44.0469 165.061 44.0469C164.615 44.0469 164.199 43.9648 163.812 43.8008C163.438 43.6367 163.109 43.4141 162.828 43.1328C162.547 42.8516 162.324 42.5234 162.16 42.1484C162.008 41.7617 161.932 41.3516 161.932 40.918Z" fill="#29375B"/>
<path d="M245.545 48.4551C244.889 47.5176 244.297 46.8555 243.77 46.4688C243.242 46.0703 242.674 45.7891 242.064 45.625C241.455 45.4492 240.816 45.3613 240.148 45.3613C239.164 45.3613 238.25 45.584 237.406 46.0293C236.562 46.4629 235.83 47.0605 235.209 47.8223C234.6 48.5723 234.119 49.4512 233.768 50.459C233.416 51.4551 233.24 52.5156 233.24 53.6406C233.24 54.7773 233.41 55.8496 233.75 56.8574C234.102 57.8535 234.582 58.7266 235.191 59.4766C235.801 60.2266 236.527 60.8242 237.371 61.2695C238.215 61.7031 239.141 61.9199 240.148 61.9199C240.852 61.9199 241.508 61.8086 242.117 61.5859C242.727 61.3516 243.277 61.0469 243.77 60.6719C244.273 60.2969 244.713 59.8691 245.088 59.3887C245.463 58.8965 245.756 58.3867 245.967 57.8594L251.627 59.4414C251.264 60.5898 250.73 61.6562 250.027 62.6406C249.324 63.6133 248.475 64.457 247.479 65.1719C246.494 65.8867 245.381 66.4492 244.139 66.8594C242.908 67.2695 241.578 67.4746 240.148 67.4746C238.941 67.4746 237.787 67.3105 236.686 66.9824C235.584 66.6543 234.553 66.1914 233.592 65.5938C232.643 64.9961 231.775 64.2754 230.99 63.4316C230.217 62.5879 229.555 61.6562 229.004 60.6367C228.453 59.6055 228.025 58.5039 227.721 57.332C227.416 56.1484 227.264 54.918 227.264 53.6406C227.264 51.7305 227.598 49.9434 228.266 48.2793C228.934 46.6035 229.848 45.1445 231.008 43.9023C232.168 42.6484 233.527 41.6641 235.086 40.9492C236.656 40.2227 238.344 39.8594 240.148 39.8594C241.59 39.8594 242.803 40.041 243.787 40.4043C244.771 40.7559 245.855 41.459 247.039 42.5137H250.977V48.4551H245.545ZM267.465 67.4746C266.258 67.4746 265.104 67.3105 264.002 66.9824C262.9 66.6543 261.869 66.1914 260.908 65.5938C259.959 64.9961 259.092 64.2812 258.307 63.4492C257.533 62.6055 256.871 61.6738 256.32 60.6543C255.77 59.623 255.342 58.5215 255.037 57.3496C254.732 56.1777 254.58 54.9531 254.58 53.6758C254.58 52.3984 254.732 51.1738 255.037 50.002C255.342 48.8184 255.77 47.7168 256.32 46.6973C256.871 45.666 257.533 44.7344 258.307 43.9023C259.092 43.0586 259.959 42.3379 260.908 41.7402C261.869 41.1426 262.9 40.6797 264.002 40.3516C265.104 40.0234 266.258 39.8594 267.465 39.8594C268.672 39.8594 269.826 40.0234 270.928 40.3516C272.041 40.6797 273.072 41.1426 274.021 41.7402C274.982 42.3379 275.85 43.0586 276.623 43.9023C277.408 44.7344 278.076 45.666 278.627 46.6973C279.189 47.7168 279.623 48.8184 279.928 50.002C280.232 51.1738 280.385 52.3984 280.385 53.6758C280.385 54.9414 280.232 56.166 279.928 57.3496C279.623 58.5215 279.189 59.623 278.627 60.6543C278.076 61.6738 277.408 62.6055 276.623 63.4492C275.85 64.2812 274.982 64.9961 274.021 65.5938C273.072 66.1914 272.041 66.6543 270.928 66.9824C269.826 67.3105 268.672 67.4746 267.465 67.4746ZM267.465 61.9551C268.484 61.9551 269.416 61.7383 270.26 61.3047C271.115 60.8594 271.848 60.2617 272.457 59.5117C273.066 58.75 273.535 57.8711 273.863 56.875C274.203 55.8672 274.373 54.8008 274.373 53.6758C274.373 52.5391 274.203 51.4668 273.863 50.459C273.523 49.4512 273.043 48.5723 272.422 47.8223C271.812 47.0605 271.086 46.4629 270.242 46.0293C269.398 45.584 268.473 45.3613 267.465 45.3613C266.457 45.3613 265.531 45.584 264.688 46.0293C263.844 46.4629 263.117 47.0605 262.508 47.8223C261.898 48.5723 261.418 49.4512 261.066 50.459C260.727 51.4668 260.557 52.5391 260.557 53.6758C260.557 54.8008 260.727 55.8672 261.066 56.875C261.418 57.8711 261.898 58.75 262.508 59.5117C263.117 60.2617 263.844 60.8594 264.688 61.3047C265.531 61.7383 266.457 61.9551 267.465 61.9551Z" fill="#29375B"/>
</svg>
