<svg width="1363" height="189" viewBox="0 0 1363 189" fill="none" xmlns="http://www.w3.org/2000/svg">
<mask id="path-1-inside-1_1163_1323" fill="white">
<path d="M0 19C0 13.4771 4.47715 9 10 9H1353C1358.52 9 1363 13.4772 1363 19V172C1363 177.523 1358.52 182 1353 182H9.99997C4.47712 182 0 177.523 0 172V19Z"/>
</mask>
<path d="M0 19C0 13.4771 4.47715 9 10 9H1353C1358.52 9 1363 13.4772 1363 19V172C1363 177.523 1358.52 182 1353 182H9.99997C4.47712 182 0 177.523 0 172V19Z" fill="#FFFBEF"/>
<path d="M0 9H1363H0ZM1363 182H0H1363ZM10 182C-15.9574 182 -37 160.957 -37 135V56C-37 30.0426 -15.9574 9 10 9H37C37 9 37 13.4772 37 19V172C37 177.523 37 182 37 182H10ZM1456.5 9C1504.27 9 1543 47.7274 1543 95.5C1543 143.273 1504.27 182 1456.5 182H1183C1183 182 1183 177.523 1183 172V19C1183 13.4772 1183 9 1183 9H1456.5Z" fill="#FCD95B" mask="url(#path-1-inside-1_1163_1323)"/>
<path d="M96.5582 156C95.8862 156 95.3342 155.796 94.9022 155.388C94.4702 154.956 94.2542 154.428 94.2542 153.804V132.924H98.9342V153.804C98.9342 154.428 98.7062 154.956 98.2502 155.388C97.8182 155.796 97.2542 156 96.5582 156ZM88.6022 134.94C87.9782 134.94 87.4502 134.748 87.0182 134.364C86.6102 133.98 86.4062 133.476 86.4062 132.852C86.4062 132.228 86.6102 131.736 87.0182 131.376C87.4502 130.992 87.9782 130.8 88.6022 130.8H104.586C105.21 130.8 105.726 130.992 106.134 131.376C106.566 131.76 106.782 132.264 106.782 132.888C106.782 133.512 106.566 134.016 106.134 134.4C105.726 134.76 105.21 134.94 104.586 134.94H88.6022ZM114.949 156.36C112.909 156.36 111.133 155.94 109.621 155.1C108.133 154.236 106.981 153.072 106.165 151.608C105.373 150.144 104.977 148.488 104.977 146.64C104.977 144.48 105.409 142.644 106.273 141.132C107.161 139.596 108.313 138.42 109.729 137.604C111.145 136.788 112.645 136.38 114.229 136.38C115.453 136.38 116.605 136.632 117.685 137.136C118.789 137.64 119.761 138.336 120.601 139.224C121.441 140.088 122.101 141.096 122.581 142.248C123.085 143.4 123.337 144.624 123.337 145.92C123.313 146.496 123.085 146.964 122.653 147.324C122.221 147.684 121.717 147.864 121.141 147.864H107.389L106.309 144.264H119.521L118.729 144.984V144.012C118.681 143.316 118.429 142.692 117.973 142.14C117.541 141.588 116.989 141.156 116.317 140.844C115.669 140.508 114.973 140.34 114.229 140.34C113.509 140.34 112.837 140.436 112.213 140.628C111.589 140.82 111.049 141.144 110.593 141.6C110.137 142.056 109.777 142.668 109.513 143.436C109.249 144.204 109.117 145.176 109.117 146.352C109.117 147.648 109.381 148.752 109.909 149.664C110.461 150.552 111.157 151.236 111.997 151.716C112.861 152.172 113.773 152.4 114.733 152.4C115.621 152.4 116.329 152.328 116.857 152.184C117.385 152.04 117.805 151.872 118.117 151.68C118.453 151.464 118.753 151.284 119.017 151.14C119.449 150.924 119.857 150.816 120.241 150.816C120.769 150.816 121.201 150.996 121.537 151.356C121.897 151.716 122.077 152.136 122.077 152.616C122.077 153.264 121.741 153.852 121.069 154.38C120.445 154.908 119.569 155.376 118.441 155.784C117.313 156.168 116.149 156.36 114.949 156.36ZM135.679 136.38C137.047 136.38 138.235 136.524 139.243 136.812C140.275 137.1 141.067 137.508 141.619 138.036C142.195 138.54 142.483 139.152 142.483 139.872C142.483 140.352 142.339 140.808 142.051 141.24C141.763 141.648 141.343 141.852 140.791 141.852C140.407 141.852 140.083 141.804 139.819 141.708C139.579 141.588 139.363 141.444 139.171 141.276C138.979 141.108 138.751 140.952 138.487 140.808C138.247 140.664 137.875 140.556 137.371 140.484C136.891 140.388 136.531 140.34 136.291 140.34C135.067 140.34 134.023 140.604 133.159 141.132C132.319 141.66 131.671 142.38 131.215 143.292C130.759 144.18 130.531 145.212 130.531 146.388C130.531 147.54 130.759 148.572 131.215 149.484C131.695 150.372 132.343 151.08 133.159 151.608C133.999 152.136 134.959 152.4 136.039 152.4C136.639 152.4 137.155 152.364 137.587 152.292C138.019 152.22 138.379 152.112 138.667 151.968C139.003 151.776 139.303 151.572 139.567 151.356C139.831 151.14 140.227 151.032 140.755 151.032C141.379 151.032 141.859 151.236 142.195 151.644C142.531 152.028 142.699 152.508 142.699 153.084C142.699 153.684 142.363 154.236 141.691 154.74C141.019 155.22 140.131 155.616 139.027 155.928C137.947 156.216 136.771 156.36 135.499 156.36C133.603 156.36 131.959 155.928 130.567 155.064C129.175 154.176 128.095 152.976 127.327 151.464C126.583 149.952 126.211 148.26 126.211 146.388C126.211 144.42 126.607 142.692 127.399 141.204C128.215 139.692 129.331 138.516 130.747 137.676C132.187 136.812 133.831 136.38 135.679 136.38ZM155.931 136.38C157.659 136.38 158.967 136.752 159.855 137.496C160.767 138.24 161.391 139.236 161.727 140.484C162.063 141.708 162.231 143.076 162.231 144.588V153.804C162.231 154.428 162.027 154.956 161.619 155.388C161.211 155.796 160.695 156 160.071 156C159.447 156 158.931 155.796 158.523 155.388C158.115 154.956 157.911 154.428 157.911 153.804V144.588C157.911 143.796 157.815 143.088 157.623 142.464C157.431 141.816 157.083 141.3 156.579 140.916C156.075 140.532 155.355 140.34 154.419 140.34C153.507 140.34 152.727 140.532 152.079 140.916C151.431 141.3 150.939 141.816 150.603 142.464C150.291 143.088 150.135 143.796 150.135 144.588V153.804C150.135 154.428 149.931 154.956 149.523 155.388C149.115 155.796 148.599 156 147.975 156C147.351 156 146.835 155.796 146.427 155.388C146.019 154.956 145.815 154.428 145.815 153.804V131.556C145.815 130.932 146.019 130.416 146.427 130.008C146.835 129.576 147.351 129.36 147.975 129.36C148.599 129.36 149.115 129.576 149.523 130.008C149.931 130.416 150.135 130.932 150.135 131.556V140.484L149.595 140.376C149.811 139.968 150.111 139.536 150.495 139.08C150.879 138.6 151.347 138.156 151.899 137.748C152.451 137.34 153.063 137.016 153.735 136.776C154.407 136.512 155.139 136.38 155.931 136.38ZM185.458 156.36C183.778 156.36 182.266 156.156 180.922 155.748C179.578 155.316 178.294 154.572 177.07 153.516C176.758 153.252 176.518 152.952 176.35 152.616C176.182 152.28 176.098 151.944 176.098 151.608C176.098 151.056 176.29 150.576 176.674 150.168C177.082 149.736 177.586 149.52 178.186 149.52C178.642 149.52 179.05 149.664 179.41 149.952C180.322 150.696 181.222 151.26 182.11 151.644C183.022 152.028 184.138 152.22 185.458 152.22C186.346 152.22 187.162 152.088 187.906 151.824C188.65 151.536 189.25 151.164 189.706 150.708C190.162 150.228 190.39 149.688 190.39 149.088C190.39 148.368 190.174 147.756 189.742 147.252C189.31 146.748 188.65 146.328 187.762 145.992C186.874 145.632 185.746 145.356 184.378 145.164C183.082 144.972 181.942 144.684 180.958 144.3C179.974 143.892 179.146 143.388 178.474 142.788C177.826 142.164 177.334 141.444 176.998 140.628C176.662 139.788 176.494 138.852 176.494 137.82C176.494 136.26 176.89 134.928 177.682 133.824C178.498 132.72 179.59 131.88 180.958 131.304C182.326 130.728 183.838 130.44 185.494 130.44C187.054 130.44 188.494 130.68 189.814 131.16C191.158 131.616 192.25 132.204 193.09 132.924C193.786 133.476 194.134 134.112 194.134 134.832C194.134 135.36 193.93 135.84 193.522 136.272C193.114 136.704 192.634 136.92 192.082 136.92C191.722 136.92 191.398 136.812 191.11 136.596C190.726 136.26 190.21 135.948 189.562 135.66C188.914 135.348 188.23 135.096 187.51 134.904C186.79 134.688 186.118 134.58 185.494 134.58C184.462 134.58 183.586 134.712 182.866 134.976C182.17 135.24 181.642 135.6 181.282 136.056C180.922 136.512 180.742 137.04 180.742 137.64C180.742 138.36 180.946 138.96 181.354 139.44C181.786 139.896 182.398 140.268 183.19 140.556C183.982 140.82 184.93 141.06 186.034 141.276C187.474 141.54 188.734 141.852 189.814 142.212C190.918 142.572 191.83 143.04 192.55 143.616C193.27 144.168 193.81 144.876 194.17 145.74C194.53 146.58 194.71 147.612 194.71 148.836C194.71 150.396 194.278 151.74 193.414 152.868C192.55 153.996 191.41 154.86 189.994 155.46C188.602 156.06 187.09 156.36 185.458 156.36ZM198.695 137.1H207.227C207.803 137.1 208.283 137.292 208.667 137.676C209.051 138.06 209.243 138.54 209.243 139.116C209.243 139.668 209.051 140.136 208.667 140.52C208.283 140.88 207.803 141.06 207.227 141.06H198.695C198.119 141.06 197.639 140.868 197.255 140.484C196.871 140.1 196.679 139.62 196.679 139.044C196.679 138.492 196.871 138.036 197.255 137.676C197.639 137.292 198.119 137.1 198.695 137.1ZM202.547 132.6C203.171 132.6 203.675 132.816 204.059 133.248C204.467 133.656 204.671 134.172 204.671 134.796V150.816C204.671 151.152 204.731 151.428 204.851 151.644C204.995 151.86 205.175 152.016 205.391 152.112C205.631 152.208 205.883 152.256 206.147 152.256C206.435 152.256 206.699 152.208 206.939 152.112C207.179 151.992 207.455 151.932 207.767 151.932C208.103 151.932 208.403 152.088 208.667 152.4C208.955 152.712 209.099 153.144 209.099 153.696C209.099 154.368 208.727 154.92 207.983 155.352C207.263 155.784 206.483 156 205.643 156C205.139 156 204.575 155.964 203.951 155.892C203.351 155.796 202.775 155.592 202.223 155.28C201.695 154.944 201.251 154.44 200.891 153.768C200.531 153.096 200.351 152.172 200.351 150.996V134.796C200.351 134.172 200.555 133.656 200.963 133.248C201.395 132.816 201.923 132.6 202.547 132.6ZM228.977 136.38C229.601 136.38 230.117 136.584 230.525 136.992C230.933 137.4 231.137 137.928 231.137 138.576V153.804C231.137 154.428 230.933 154.956 230.525 155.388C230.117 155.796 229.601 156 228.977 156C228.353 156 227.837 155.796 227.429 155.388C227.021 154.956 226.817 154.428 226.817 153.804V152.04L227.609 152.364C227.609 152.676 227.441 153.06 227.105 153.516C226.769 153.948 226.313 154.38 225.737 154.812C225.161 155.244 224.477 155.616 223.685 155.928C222.917 156.216 222.077 156.36 221.165 156.36C219.509 156.36 218.009 155.94 216.665 155.1C215.321 154.236 214.253 153.06 213.461 151.572C212.693 150.06 212.309 148.332 212.309 146.388C212.309 144.42 212.693 142.692 213.461 141.204C214.253 139.692 215.309 138.516 216.629 137.676C217.949 136.812 219.413 136.38 221.021 136.38C222.053 136.38 223.001 136.536 223.865 136.848C224.729 137.16 225.473 137.556 226.097 138.036C226.745 138.516 227.237 139.008 227.573 139.512C227.933 139.992 228.113 140.4 228.113 140.736L226.817 141.204V138.576C226.817 137.952 227.021 137.436 227.429 137.028C227.837 136.596 228.353 136.38 228.977 136.38ZM221.705 152.4C222.761 152.4 223.685 152.136 224.477 151.608C225.269 151.08 225.881 150.36 226.313 149.448C226.769 148.536 226.997 147.516 226.997 146.388C226.997 145.236 226.769 144.204 226.313 143.292C225.881 142.38 225.269 141.66 224.477 141.132C223.685 140.604 222.761 140.34 221.705 140.34C220.673 140.34 219.761 140.604 218.969 141.132C218.177 141.66 217.553 142.38 217.097 143.292C216.665 144.204 216.449 145.236 216.449 146.388C216.449 147.516 216.665 148.536 217.097 149.448C217.553 150.36 218.177 151.08 218.969 151.608C219.761 152.136 220.673 152.4 221.705 152.4ZM244.383 136.38C245.751 136.38 246.939 136.524 247.947 136.812C248.979 137.1 249.771 137.508 250.323 138.036C250.899 138.54 251.187 139.152 251.187 139.872C251.187 140.352 251.043 140.808 250.755 141.24C250.467 141.648 250.047 141.852 249.495 141.852C249.111 141.852 248.787 141.804 248.523 141.708C248.283 141.588 248.067 141.444 247.875 141.276C247.683 141.108 247.455 140.952 247.191 140.808C246.951 140.664 246.579 140.556 246.075 140.484C245.595 140.388 245.235 140.34 244.995 140.34C243.771 140.34 242.727 140.604 241.863 141.132C241.023 141.66 240.375 142.38 239.919 143.292C239.463 144.18 239.235 145.212 239.235 146.388C239.235 147.54 239.463 148.572 239.919 149.484C240.399 150.372 241.047 151.08 241.863 151.608C242.703 152.136 243.663 152.4 244.743 152.4C245.343 152.4 245.859 152.364 246.291 152.292C246.723 152.22 247.083 152.112 247.371 151.968C247.707 151.776 248.007 151.572 248.271 151.356C248.535 151.14 248.931 151.032 249.459 151.032C250.083 151.032 250.563 151.236 250.899 151.644C251.235 152.028 251.403 152.508 251.403 153.084C251.403 153.684 251.067 154.236 250.395 154.74C249.723 155.22 248.835 155.616 247.731 155.928C246.651 156.216 245.475 156.36 244.203 156.36C242.307 156.36 240.663 155.928 239.271 155.064C237.879 154.176 236.799 152.976 236.031 151.464C235.287 149.952 234.915 148.26 234.915 146.388C234.915 144.42 235.311 142.692 236.103 141.204C236.919 139.692 238.035 138.516 239.451 137.676C240.891 136.812 242.535 136.38 244.383 136.38ZM257.038 156C256.414 156 255.898 155.796 255.49 155.388C255.082 154.956 254.878 154.428 254.878 153.804V131.556C254.878 130.932 255.082 130.416 255.49 130.008C255.898 129.576 256.414 129.36 257.038 129.36C257.662 129.36 258.178 129.576 258.586 130.008C258.994 130.416 259.198 130.932 259.198 131.556V153.804C259.198 154.428 258.994 154.956 258.586 155.388C258.178 155.796 257.662 156 257.038 156ZM268.486 136.74C269.038 136.74 269.518 136.968 269.926 137.424C270.334 137.88 270.538 138.324 270.538 138.756C270.538 139.332 270.25 139.872 269.674 140.376L258.838 150.348L258.658 145.38L266.902 137.424C267.358 136.968 267.886 136.74 268.486 136.74ZM269.026 155.964C268.402 155.964 267.874 155.724 267.442 155.244L260.782 148.188L264.058 145.164L270.538 152.22C270.994 152.7 271.222 153.24 271.222 153.84C271.222 154.464 270.97 154.98 270.466 155.388C269.986 155.772 269.506 155.964 269.026 155.964Z" fill="#29375B"/>
<path d="M209.204 51.6798C206.407 51.3596 196.291 51.3486 193.645 51.6743C191 51.9999 189.638 52.9291 186.901 55.0542C184.165 57.1793 181.925 58.4719 181.925 58.4719V62.9999H219.925V58.4719C219.925 58.4719 218 57 215.948 55.0521C213.896 53.1042 212 52 209.204 51.6798Z" fill="#FCD95B" stroke="#FCD95B"/>
<circle cx="193.925" cy="57" r="3" fill="white"/>
<circle cx="207.925" cy="57" r="3" fill="white"/>
<path d="M212.4 28.3334L207.125 40H192.725L187.7 28.8334L190.5 27.5001L195.925 39.1111H204.325L210 27.0001L212.4 28.3334Z" fill="#29375B" stroke="#29375B"/>
<circle cx="188" cy="26" r="3" fill="#29375B"/>
<circle cx="212" cy="26" r="3" fill="#29375B"/>
<path d="M178.004 48.7496C180.029 51.1512 179.113 52.3493 179.488 52.3921L180.238 52.4775L179.309 60.633L177.059 60.3767C177.059 60.3767 176.684 61.1701 174.605 62.0318C172.527 62.8934 171.418 63.2073 171.092 62.736C170.765 62.2646 172.255 59.1953 173.863 57.6661C175.471 56.1368 176.848 55.5646 176.848 55.5646C177.144 55.2974 176.896 55.136 176.896 55.136C176.896 55.136 174.441 52.5945 173.866 50.3884C173.291 48.1823 173.373 46.0511 173.748 46.0938C173.748 46.0938 175.979 46.348 178.004 48.7496Z" fill="#29375B" stroke="#29375B"/>
<path d="M221.925 61C221.925 66.1797 221.921 69.8744 221.581 72.6042C221.241 75.3245 220.611 76.6489 219.719 77.4445C218.778 78.283 217.17 78.8779 214.024 79.1894C210.912 79.4976 206.718 79.5 200.925 79.5C195.131 79.5 190.937 79.4976 187.825 79.1894C184.68 78.8779 183.071 78.283 182.13 77.4445C181.238 76.6489 180.608 75.3245 180.269 72.6042C179.928 69.8744 179.925 66.1797 179.925 61C179.925 49.402 189.327 40 200.925 40C212.523 40 221.925 49.402 221.925 61Z" stroke="#29375B" stroke-width="4"/>
<path d="M108.16 47.3516H118.285V52.1855H116.123V74H110.287L99.1953 56.7734V69.1836H101.428V74H91.3203V69.1836H93.5176V52.1855H91.3555V47.3516H99.4062L110.428 64.8066V52.1855H108.16V47.3516ZM120.588 55.7891H128.762V69.1836H131.293V74H120.588V69.1836H123.33V60.6055H120.588V55.7891ZM123.049 49.918C123.049 49.4844 123.125 49.0801 123.277 48.7051C123.441 48.3184 123.664 47.9844 123.945 47.7031C124.227 47.4219 124.555 47.1992 124.93 47.0352C125.316 46.8711 125.732 46.7891 126.178 46.7891C126.6 46.7891 126.998 46.8711 127.373 47.0352C127.748 47.1992 128.076 47.4219 128.357 47.7031C128.639 47.9844 128.861 48.3184 129.025 48.7051C129.189 49.0801 129.271 49.4844 129.271 49.918C129.271 50.3516 129.189 50.7617 129.025 51.1484C128.861 51.5234 128.639 51.8516 128.357 52.1328C128.076 52.4141 127.748 52.6367 127.373 52.8008C126.998 52.9648 126.6 53.0469 126.178 53.0469C125.732 53.0469 125.316 52.9648 124.93 52.8008C124.555 52.6367 124.227 52.4141 123.945 52.1328C123.664 51.8516 123.441 51.5234 123.277 51.1484C123.125 50.7617 123.049 50.3516 123.049 49.918ZM149.451 63.5234C149.451 62.5039 149.182 61.707 148.643 61.1328C148.104 60.5469 147.389 60.2539 146.498 60.2539C145.889 60.2539 145.273 60.3887 144.652 60.6582C144.031 60.9277 143.428 61.4316 142.842 62.1699V69.1836H145.795V74H134.475V69.1836H137.146V60.6055H134.51V55.7891H142.807V57.3887C143.568 56.791 144.418 56.3223 145.355 55.9824C146.305 55.6309 147.301 55.4551 148.344 55.4551C150.535 55.4551 152.223 56.0703 153.406 57.3008C154.59 58.5195 155.182 60.3066 155.182 62.6621V69.1836H157.766V74H149.451V63.5234ZM159.629 55.7891H167.627V74.3164C167.627 75.7109 167.451 76.9062 167.1 77.9023C166.76 78.8984 166.256 79.7188 165.588 80.3633C164.932 81.0078 164.117 81.4824 163.145 81.7871C162.172 82.0918 161.059 82.2441 159.805 82.2441L159.734 78.2539C160.578 78.2188 161.205 77.8789 161.615 77.2344C162.025 76.6016 162.23 75.752 162.23 74.6855V60.6055H159.629V55.7891ZM161.932 49.918C161.932 49.4844 162.008 49.0801 162.16 48.7051C162.324 48.3184 162.547 47.9844 162.828 47.7031C163.109 47.4219 163.438 47.1992 163.812 47.0352C164.199 46.8711 164.615 46.7891 165.061 46.7891C165.482 46.7891 165.881 46.8711 166.256 47.0352C166.643 47.1992 166.977 47.4219 167.258 47.7031C167.551 47.9844 167.779 48.3184 167.943 48.7051C168.119 49.0801 168.207 49.4844 168.207 49.918C168.207 50.3516 168.119 50.7617 167.943 51.1484C167.779 51.5234 167.551 51.8516 167.258 52.1328C166.977 52.4141 166.643 52.6367 166.256 52.8008C165.881 52.9648 165.482 53.0469 165.061 53.0469C164.615 53.0469 164.199 52.9648 163.812 52.8008C163.438 52.6367 163.109 52.4141 162.828 52.1328C162.547 51.8516 162.324 51.5234 162.16 51.1484C162.008 50.7617 161.932 50.3516 161.932 49.918Z" fill="#29375B"/>
<path d="M245.545 57.4551C244.889 56.5176 244.297 55.8555 243.77 55.4688C243.242 55.0703 242.674 54.7891 242.064 54.625C241.455 54.4492 240.816 54.3613 240.148 54.3613C239.164 54.3613 238.25 54.584 237.406 55.0293C236.562 55.4629 235.83 56.0605 235.209 56.8223C234.6 57.5723 234.119 58.4512 233.768 59.459C233.416 60.4551 233.24 61.5156 233.24 62.6406C233.24 63.7773 233.41 64.8496 233.75 65.8574C234.102 66.8535 234.582 67.7266 235.191 68.4766C235.801 69.2266 236.527 69.8242 237.371 70.2695C238.215 70.7031 239.141 70.9199 240.148 70.9199C240.852 70.9199 241.508 70.8086 242.117 70.5859C242.727 70.3516 243.277 70.0469 243.77 69.6719C244.273 69.2969 244.713 68.8691 245.088 68.3887C245.463 67.8965 245.756 67.3867 245.967 66.8594L251.627 68.4414C251.264 69.5898 250.73 70.6562 250.027 71.6406C249.324 72.6133 248.475 73.457 247.479 74.1719C246.494 74.8867 245.381 75.4492 244.139 75.8594C242.908 76.2695 241.578 76.4746 240.148 76.4746C238.941 76.4746 237.787 76.3105 236.686 75.9824C235.584 75.6543 234.553 75.1914 233.592 74.5938C232.643 73.9961 231.775 73.2754 230.99 72.4316C230.217 71.5879 229.555 70.6562 229.004 69.6367C228.453 68.6055 228.025 67.5039 227.721 66.332C227.416 65.1484 227.264 63.918 227.264 62.6406C227.264 60.7305 227.598 58.9434 228.266 57.2793C228.934 55.6035 229.848 54.1445 231.008 52.9023C232.168 51.6484 233.527 50.6641 235.086 49.9492C236.656 49.2227 238.344 48.8594 240.148 48.8594C241.59 48.8594 242.803 49.041 243.787 49.4043C244.771 49.7559 245.855 50.459 247.039 51.5137H250.977V57.4551H245.545ZM267.465 76.4746C266.258 76.4746 265.104 76.3105 264.002 75.9824C262.9 75.6543 261.869 75.1914 260.908 74.5938C259.959 73.9961 259.092 73.2812 258.307 72.4492C257.533 71.6055 256.871 70.6738 256.32 69.6543C255.77 68.623 255.342 67.5215 255.037 66.3496C254.732 65.1777 254.58 63.9531 254.58 62.6758C254.58 61.3984 254.732 60.1738 255.037 59.002C255.342 57.8184 255.77 56.7168 256.32 55.6973C256.871 54.666 257.533 53.7344 258.307 52.9023C259.092 52.0586 259.959 51.3379 260.908 50.7402C261.869 50.1426 262.9 49.6797 264.002 49.3516C265.104 49.0234 266.258 48.8594 267.465 48.8594C268.672 48.8594 269.826 49.0234 270.928 49.3516C272.041 49.6797 273.072 50.1426 274.021 50.7402C274.982 51.3379 275.85 52.0586 276.623 52.9023C277.408 53.7344 278.076 54.666 278.627 55.6973C279.189 56.7168 279.623 57.8184 279.928 59.002C280.232 60.1738 280.385 61.3984 280.385 62.6758C280.385 63.9414 280.232 65.166 279.928 66.3496C279.623 67.5215 279.189 68.623 278.627 69.6543C278.076 70.6738 277.408 71.6055 276.623 72.4492C275.85 73.2812 274.982 73.9961 274.021 74.5938C273.072 75.1914 272.041 75.6543 270.928 75.9824C269.826 76.3105 268.672 76.4746 267.465 76.4746ZM267.465 70.9551C268.484 70.9551 269.416 70.7383 270.26 70.3047C271.115 69.8594 271.848 69.2617 272.457 68.5117C273.066 67.75 273.535 66.8711 273.863 65.875C274.203 64.8672 274.373 63.8008 274.373 62.6758C274.373 61.5391 274.203 60.4668 273.863 59.459C273.523 58.4512 273.043 57.5723 272.422 56.8223C271.812 56.0605 271.086 55.4629 270.242 55.0293C269.398 54.584 268.473 54.3613 267.465 54.3613C266.457 54.3613 265.531 54.584 264.688 55.0293C263.844 55.4629 263.117 56.0605 262.508 56.8223C261.898 57.5723 261.418 58.4512 261.066 59.459C260.727 60.4668 260.557 61.5391 260.557 62.6758C260.557 63.8008 260.727 64.8672 261.066 65.875C261.418 66.8711 261.898 67.75 262.508 68.5117C263.117 69.2617 263.844 69.8594 264.688 70.3047C265.531 70.7383 266.457 70.9551 267.465 70.9551Z" fill="#29375B"/>
<path fill-rule="evenodd" clip-rule="evenodd" d="M1333.64 128.039L1333.52 129.219C1333.76 128.878 1333.82 128.474 1333.64 128.039Z" fill="#6480A7"/>
<path d="M1197.1 171.552C1200.2 171.19 1203.3 170.828 1206.41 170.467C1206.55 170.451 1206.69 170.434 1206.83 170.418L1209.87 141.139C1209.64 141.328 1209.32 141.449 1208.93 141.49C1208.92 141.491 1208.91 141.492 1208.91 141.493C1205.97 141.834 1203.04 142.175 1200.11 142.517L1200.08 142.83L1197.1 171.552Z" fill="#6480A7"/>
<path d="M1187.1 167.078C1189.51 168.346 1191.91 169.611 1194.3 170.872L1197.27 142.333C1196.98 142.228 1196.69 142.098 1196.4 141.944C1194.98 141.197 1193.56 140.448 1192.14 139.698L1190.06 138.603L1187.1 167.078Z" fill="#6480A7"/>
<path d="M1194.3 170.872C1195.29 171.402 1196.31 171.643 1197.1 171.552L1200.08 142.83L1200.11 142.517L1199.2 142.624C1198.64 142.689 1197.96 142.586 1197.27 142.333L1194.3 170.872Z" fill="#6480A7"/>
<path d="M1184.27 166.412C1185.07 166.313 1186.1 166.556 1187.1 167.078L1190.06 138.603L1189.2 138.15C1188.55 137.809 1188.35 137.708 1187.74 137.623L1187.74 137.654L1187.72 137.788L1187.35 140.884L1187.31 141.196L1187.2 142.09L1186.69 146.322L1186.6 147.055L1186.39 148.823L1184.99 160.457L1184.96 160.67L1184.69 162.939L1184.27 166.412Z" fill="#6480A7"/>
<path d="M1176.24 167.432C1178.91 167.082 1181.59 166.742 1184.27 166.412L1184.69 162.939L1184.96 160.67L1184.99 160.457L1186.39 148.823L1186.6 147.055L1186.69 146.322L1187.2 142.09L1187.31 141.196L1187.35 140.884L1187.72 137.788L1187.74 137.654L1187.74 137.623C1187.42 137.578 1186.53 137.398 1186.26 137.432L1186.22 137.437L1178.34 138.504C1177.1 138.662 1176.03 138.499 1174.77 137.476L1172.99 151.362L1171.23 165.128C1172.47 166.606 1174.7 167.628 1176.24 167.432Z" fill="#6480A7"/>
<path d="M1206.83 170.418C1207.47 170.349 1207.92 170.064 1208.12 169.616L1210.22 140.688C1210.14 140.865 1210.02 141.016 1209.87 141.139L1206.83 170.418Z" fill="#6480A7"/>
<path d="M1328.44 159.181C1330.64 159.191 1332.06 158.203 1331.54 156.967L1333.51 129.291L1333.52 129.219C1333.06 129.847 1331.96 130.259 1330.53 130.253L1328.92 154.518L1328.44 159.181Z" fill="#6480A7"/>
<path d="M1144.42 132.591C1153.94 144.281 1162.31 154.381 1171.23 165.128L1172.99 151.362L1174.77 137.476L1166.07 127.431C1159.42 119.388 1153.48 112.211 1146.51 103.663L1145.3 102.167L1144.25 116.628L1143.45 127.588C1143.37 127.596 1143.29 127.606 1143.21 127.62L1142.98 130.824C1143.45 131.409 1143.93 131.998 1144.42 132.591Z" fill="#6480A7"/>
<path d="M1214.03 134.41C1213.37 134.478 1212.92 134.752 1212.71 135.199C1211.87 137.027 1211.04 138.857 1210.22 140.688L1208.12 169.616C1208.94 167.785 1209.77 165.955 1210.61 164.127C1216.8 163.658 1224.42 162.376 1230.82 161.875L1230.82 161.875C1261.1 159.502 1294.2 160.06 1328.44 159.181L1328.78 154.39L1329.48 144.717L1330.53 130.253C1321.97 130.473 1313.65 129.805 1305.32 130.204C1303.42 130.295 1301.53 130.39 1299.64 130.489C1297.18 130.617 1294.73 130.752 1292.29 130.892C1271.97 132.056 1251.66 131.479 1232.92 132.947C1228.74 133.275 1224.6 133.599 1220.5 133.915L1220.48 133.917L1214.81 134.351L1214.03 134.41Z" fill="#6480A7"/>
<path d="M1163.72 97.416C1157.65 97.816 1151.59 98.2309 1145.55 98.6607L1145.3 102.167L1146.51 103.663C1153.48 112.211 1159.42 119.388 1166.07 127.431L1174.77 137.476C1176.03 138.499 1177.1 138.662 1178.34 138.504L1186.22 137.437L1186.26 137.432C1186.53 137.398 1187.42 137.578 1187.74 137.623C1188.35 137.708 1188.55 137.809 1189.2 138.15L1190.06 138.603L1192.14 139.698C1193.56 140.448 1194.98 141.197 1196.4 141.944C1196.69 142.098 1196.98 142.228 1197.27 142.333C1197.96 142.586 1198.64 142.689 1199.2 142.624L1200.11 142.517C1203.04 142.175 1205.97 141.834 1208.91 141.493C1208.91 141.492 1208.92 141.491 1208.93 141.49C1209.32 141.449 1209.64 141.328 1209.87 141.139C1210.02 141.016 1210.14 140.865 1210.22 140.688C1211.04 138.857 1211.87 137.027 1212.71 135.199C1212.92 134.752 1213.37 134.478 1214.03 134.41L1214.81 134.351L1220.48 133.917L1220.5 133.915C1224.6 133.599 1228.74 133.275 1232.92 132.947C1251.66 131.479 1271.97 132.056 1292.29 130.892C1294.73 130.752 1297.18 130.617 1299.64 130.489C1301.53 130.39 1303.42 130.295 1305.32 130.204C1313.65 129.805 1321.97 130.473 1330.53 130.253C1331.96 130.259 1333.06 129.847 1333.52 129.219L1333.64 128.039C1325.08 120.079 1315.46 108.597 1303.26 95.8438C1301.34 94.3076 1298.19 93.0668 1296.24 93.0797C1272.17 93.5283 1248.6 94.0926 1225.55 94.7724C1216.18 95.1727 1206.88 95.6092 1197.65 96.0818C1196.92 96.1194 1196.42 96.3884 1196.23 96.848C1195.51 98.6039 1194.79 100.366 1194.06 102.136C1193.87 102.595 1193.36 102.883 1192.62 102.919L1185.86 103.284L1177.47 103.763C1176.5 103.82 1175.22 103.424 1174.05 102.71C1171.77 101.309 1169.49 99.9052 1167.21 98.4978C1166 97.7587 1164.7 97.3506 1163.72 97.416Z" fill="#6480A7"/>
<path d="M1146.51 103.663C1146.11 103.162 1145.7 102.663 1145.3 102.167M1146.51 103.663C1153.48 112.211 1159.42 119.388 1166.07 127.431L1174.77 137.476M1146.51 103.663L1145.3 102.167M1146.51 103.663L1174.77 137.476M1145.08 101.897C1143.73 100.232 1143.94 98.7974 1145.55 98.6607M1145.08 101.897C1145.15 101.987 1145.22 102.077 1145.3 102.167M1145.08 101.897L1145.3 102.167M1145.08 101.897L1144.03 116.36M1145.55 98.6607C1151.59 98.2309 1157.65 97.816 1163.72 97.416C1164.7 97.3506 1166 97.7587 1167.21 98.4978C1169.49 99.9052 1171.77 101.309 1174.05 102.71C1175.22 103.424 1176.5 103.82 1177.47 103.763M1145.55 98.6607L1145.3 102.167M1177.47 103.763C1180.27 103.603 1183.06 103.444 1185.86 103.284M1177.47 103.763L1185.86 103.284M1185.86 103.284C1188.11 103.162 1190.37 103.041 1192.62 102.919M1185.86 103.284L1192.62 102.919M1192.62 102.919C1193.36 102.883 1193.87 102.595 1194.06 102.136C1194.79 100.366 1195.51 98.6039 1196.23 96.848C1196.42 96.3884 1196.92 96.1194 1197.65 96.0818C1206.88 95.6092 1216.18 95.1727 1225.55 94.7724C1248.6 94.0926 1272.17 93.5283 1296.24 93.0797C1298.19 93.0668 1301.34 94.3076 1303.26 95.8438C1315.46 108.597 1325.08 120.079 1333.64 128.039M1333.64 128.039L1333.52 129.219M1333.64 128.039C1333.82 128.474 1333.76 128.878 1333.52 129.219M1330.53 130.253L1328.92 154.518M1330.53 130.253C1331.96 130.259 1333.06 129.847 1333.52 129.219M1330.53 130.253C1321.97 130.473 1313.65 129.805 1305.32 130.204C1303.42 130.295 1301.53 130.39 1299.64 130.489C1297.18 130.617 1294.73 130.752 1292.29 130.892C1271.97 132.056 1251.66 131.479 1232.92 132.947C1228.74 133.275 1224.6 133.599 1220.5 133.915M1330.53 130.253L1329.48 144.717L1328.78 154.39M1330.53 130.253L1220.5 133.915M1330.53 130.253C1332.53 129.953 1333.16 129.749 1333.51 129.291M1214.03 134.41C1213.37 134.478 1212.92 134.752 1212.71 135.199M1214.03 134.41L1212.71 135.199M1214.03 134.41L1214.81 134.351L1220.48 133.917M1214.03 134.41L1220.48 133.917M1212.71 135.199C1211.87 137.027 1211.04 138.857 1210.22 140.688M1212.71 135.199L1210.22 140.688M1210.22 140.688L1208.12 169.616M1210.22 140.688C1210.14 140.865 1210.02 141.016 1209.87 141.139M1210.22 140.688L1208.91 141.493M1208.93 141.49C1209.32 141.449 1209.64 141.328 1209.87 141.139M1208.93 141.49L1206.41 170.467M1208.93 141.49L1208.91 141.493M1208.93 141.49C1208.92 141.491 1208.91 141.492 1208.91 141.493M1199.2 142.624C1199.5 142.589 1199.81 142.553 1200.11 142.517M1199.2 142.624C1198.64 142.689 1197.96 142.586 1197.27 142.333M1199.2 142.624L1200.11 142.517M1199.2 142.624L1208.91 141.493M1189.2 138.15C1188.55 137.809 1188.35 137.708 1187.74 137.623M1189.2 138.15C1189.49 138.301 1189.78 138.452 1190.06 138.603M1189.2 138.15L1190.06 138.603M1189.2 138.15L1187.74 137.654M1186.26 137.432C1186.53 137.398 1187.42 137.578 1187.74 137.623M1186.26 137.432L1186.22 137.437M1186.26 137.432L1178.34 138.504M1178.34 138.504C1177.1 138.662 1176.03 138.499 1174.77 137.476M1178.34 138.504L1174.77 137.476M1178.34 138.504L1186.22 137.437M1171.23 165.128C1162.31 154.381 1153.94 144.281 1144.42 132.591C1143.93 131.998 1143.45 131.409 1142.98 130.824M1171.23 165.128C1172.47 166.606 1174.7 167.628 1176.24 167.432C1178.91 167.082 1181.59 166.742 1184.27 166.412M1171.23 165.128L1172.99 151.362L1174.77 137.476M1171.23 165.128L1174.77 137.476M1142.98 130.824L1143.21 127.62M1142.98 130.824C1141.7 129.247 1141.82 127.876 1143.21 127.62M1328.44 159.181C1330.64 159.191 1332.06 158.203 1331.54 156.967L1333.51 129.291M1328.44 159.181L1328.92 154.518M1328.44 159.181C1294.2 160.06 1261.1 159.502 1230.82 161.875M1328.44 159.181L1328.78 154.39M1208.12 169.616C1208.94 167.785 1209.77 165.955 1210.61 164.127C1216.8 163.658 1224.42 162.376 1230.82 161.875M1208.12 169.616C1207.92 170.064 1207.47 170.349 1206.83 170.418M1206.83 170.418L1209.87 141.139M1206.83 170.418L1206.41 170.467M1206.83 170.418C1206.69 170.434 1206.55 170.451 1206.41 170.467M1197.1 171.552C1196.31 171.643 1195.29 171.402 1194.3 170.872M1197.1 171.552L1200.08 142.83M1197.1 171.552C1200.2 171.19 1203.3 170.828 1206.41 170.467M1194.3 170.872C1191.91 169.611 1189.51 168.346 1187.1 167.078M1194.3 170.872L1197.27 142.333M1194.3 170.872L1197.03 143.852L1197.27 142.333M1187.1 167.078C1186.1 166.556 1185.07 166.313 1184.27 166.412M1187.1 167.078L1190.06 138.603M1184.27 166.412L1184.69 162.939M1192.14 139.698C1193.56 140.448 1194.98 141.197 1196.4 141.944C1196.69 142.098 1196.98 142.228 1197.27 142.333M1192.14 139.698L1190.06 138.603M1192.14 139.698C1191.45 139.333 1190.75 138.969 1190.06 138.603M1192.14 139.698L1197.27 142.333M1220.5 133.915L1220.48 133.917M1328.92 154.518C1328.87 154.475 1328.83 154.433 1328.78 154.39M1333.52 129.219L1333.51 129.291M1145.3 102.167L1144.25 116.628M1230.82 161.875L1230.82 161.875M1230.82 161.875C1230.82 161.875 1230.82 161.875 1230.82 161.875M1187.74 137.623L1187.74 137.654M1200.11 142.517L1200.08 142.83M1200.11 142.517L1199.2 142.618L1197.27 142.333M1200.11 142.517C1203.04 142.175 1205.97 141.834 1208.91 141.493M1144.03 116.36L1144.25 116.628M1144.03 116.36L1143.21 127.62M1144.25 116.628L1143.45 127.588C1143.37 127.596 1143.29 127.606 1143.21 127.62M1187.74 137.654L1187.72 137.788M1187.74 137.654L1186.22 137.437M1187.72 137.788L1187.62 138.615L1187.35 140.884M1187.72 137.788L1187.35 140.884M1187.2 142.09L1186.69 146.322L1186.6 147.055L1186.39 148.823L1184.99 160.457L1184.96 160.67M1187.2 142.09L1187.31 141.196L1187.35 140.884M1187.2 142.09L1185.67 153.993L1186.18 150.025M1187.35 140.884L1186.18 150.025M1184.69 162.939L1186.18 150.025M1184.69 162.939L1184.96 160.67M1184.25 166.561L1184.96 160.67M1200.08 142.83L1200.15 142.839L1197.01 171.573L1206.41 170.467" stroke="#29375B" stroke-linecap="round"/>
<path fill-rule="evenodd" clip-rule="evenodd" d="M1345.81 90.0661L1345.45 91.1978C1345.76 90.9131 1345.9 90.5285 1345.81 90.0661Z" fill="#465B81"/>
<path d="M1203.33 105.483C1206.44 105.747 1209.56 106.011 1212.67 106.277C1212.81 106.288 1212.95 106.3 1213.09 106.312L1221.91 78.2277C1221.64 78.3656 1221.31 78.4206 1220.92 78.3837C1220.91 78.3831 1220.9 78.3825 1220.9 78.3819C1217.95 78.1313 1215.01 77.8815 1212.08 77.6326L1211.98 77.9328L1203.33 105.483Z" fill="#465B81"/>
<path d="M1194.43 99.1063C1196.53 100.829 1198.63 102.547 1200.73 104.259L1209.32 76.884C1209.06 76.7245 1208.8 76.5392 1208.55 76.3303C1207.31 75.3153 1206.07 74.2984 1204.82 73.2797L1203.01 71.7935L1194.43 99.1063Z" fill="#465B81"/>
<path d="M1200.73 104.259C1201.59 104.976 1202.54 105.415 1203.33 105.483L1211.98 77.9328L1212.08 77.6326L1211.15 77.5546C1210.59 77.5063 1209.95 77.2717 1209.32 76.884L1200.73 104.259Z" fill="#465B81"/>
<path d="M1191.78 97.8882C1192.58 97.9501 1193.55 98.3957 1194.43 99.1063L1203.01 71.7935L1202.25 71.1777C1201.68 70.7133 1201.51 70.5752 1200.93 70.3703L1200.92 70.3999L1200.88 70.5279L1199.89 73.4873L1199.79 73.7861L1199.51 74.6407L1198.17 78.6851L1197.93 79.3855L1197.37 81.0758L1193.67 92.1965L1193.61 92.3995L1192.88 94.5689L1191.78 97.8882Z" fill="#465B81"/>
<path d="M1183.71 97.2877C1186.4 97.4773 1189.09 97.6775 1191.78 97.8882L1192.88 94.5689L1193.61 92.3995L1193.67 92.1965L1197.37 81.0758L1197.93 79.3855L1198.17 78.6851L1199.51 74.6407L1199.79 73.7861L1199.89 73.4873L1200.88 70.5279L1200.92 70.3999L1200.93 70.3703C1200.62 70.2617 1199.79 69.9086 1199.51 69.8872L1199.47 69.8848L1191.54 69.3591C1190.29 69.2674 1189.27 68.8934 1188.25 67.6401L1183.74 80.8933L1179.27 94.0313C1180.18 95.7257 1182.17 97.1738 1183.71 97.2877Z" fill="#465B81"/>
<path d="M1213.09 106.312C1213.74 106.373 1214.24 106.183 1214.52 105.784L1222.34 77.855C1222.23 78.0128 1222.09 78.1379 1221.91 78.2277L1213.09 106.312Z" fill="#465B81"/>
<path d="M1334.5 119.545C1336.66 119.995 1338.24 119.309 1337.98 117.995L1345.43 91.2677L1345.45 91.1978C1344.88 91.7221 1343.72 91.9076 1342.32 91.6161L1335.9 115.072L1334.5 119.545Z" fill="#465B81"/>
<path d="M1159.47 56.8014C1166.48 70.1563 1172.66 81.7204 1179.27 94.0313L1183.74 80.8933L1188.25 67.6401L1181.72 56.0618C1176.81 46.8549 1172.42 38.6378 1167.3 28.8727L1166.4 27.1639L1162.49 41.1252L1159.53 51.7072C1159.44 51.6973 1159.36 51.6918 1159.28 51.6904L1158.42 54.7835C1158.77 55.4519 1159.12 56.1245 1159.47 56.8014Z" fill="#465B81"/>
<path d="M1227.33 72.4626C1226.67 72.3984 1226.17 72.5755 1225.87 72.9722C1224.69 74.5966 1223.51 76.2242 1222.34 77.855L1214.52 105.784C1215.69 104.153 1216.86 102.525 1218.05 100.901C1224.21 101.677 1231.93 101.939 1238.3 102.723L1238.31 102.724C1268.45 106.436 1300.77 113.581 1334.5 119.545L1335.79 114.919L1338.41 105.58L1342.32 91.6161C1333.89 90.1251 1325.87 87.8113 1317.62 86.5413C1315.74 86.2519 1313.87 85.9676 1312 85.688C1309.56 85.3231 1307.13 84.9662 1304.71 84.6167C1284.58 81.7078 1264.78 77.0922 1246.13 74.7953C1241.97 74.2827 1237.85 73.7753 1233.77 73.2685L1233.75 73.2657L1228.1 72.5596L1227.33 72.4626Z" fill="#465B81"/>
<path d="M1185.4 26.1803C1179.38 25.3628 1173.36 24.5622 1167.35 23.7785L1166.4 27.1639L1167.3 28.8727C1172.42 38.6378 1176.81 46.8549 1181.72 56.0618L1188.25 67.6401C1189.27 68.8934 1190.29 69.2674 1191.54 69.3591L1199.47 69.8848L1199.51 69.8872C1199.79 69.9086 1200.62 70.2617 1200.93 70.3703C1201.51 70.5752 1201.68 70.7133 1202.25 71.1777L1203.01 71.7935L1204.82 73.2797C1206.07 74.2984 1207.31 75.3153 1208.55 76.3303C1208.8 76.5392 1209.06 76.7245 1209.32 76.884C1209.95 77.2717 1210.59 77.5063 1211.15 77.5546L1212.08 77.6326C1215.01 77.8815 1217.95 78.1313 1220.9 78.3819C1220.9 78.3825 1220.91 78.3831 1220.92 78.3837C1221.31 78.4206 1221.64 78.3656 1221.91 78.2277C1222.09 78.1379 1222.23 78.0128 1222.34 77.855C1223.51 76.2242 1224.69 74.5966 1225.87 72.9722C1226.17 72.5755 1226.67 72.3984 1227.33 72.4626L1228.1 72.5596L1233.75 73.2657L1233.77 73.2685C1237.85 73.7753 1241.97 74.2827 1246.13 74.7953C1264.78 77.0922 1284.58 81.7078 1304.71 84.6167C1307.13 84.9662 1309.56 85.3231 1312 85.688C1313.87 85.9676 1315.74 86.2519 1317.62 86.5413C1325.87 87.8113 1333.89 90.1251 1342.32 91.6161C1343.72 91.9076 1344.88 91.7221 1345.45 91.1978L1345.81 90.0661C1339.01 80.5589 1331.87 67.3898 1322.46 52.4611C1320.88 50.5728 1318.04 48.7273 1316.13 48.3517C1292.45 43.9922 1269.25 39.8476 1246.52 35.9178C1237.26 34.4413 1228.06 33.0148 1218.92 31.6382C1218.2 31.5294 1217.65 31.6936 1217.38 32.1062C1216.32 33.6829 1215.26 35.2659 1214.2 36.8552C1213.92 37.2677 1213.36 37.4477 1212.63 37.3356L1205.93 36.3453L1197.61 35.1424C1196.65 35.0036 1195.47 34.3607 1194.47 33.4279C1192.51 31.6005 1190.56 29.77 1188.61 27.9364C1187.57 26.9717 1186.38 26.3129 1185.4 26.1803Z" fill="#465B81"/>
<path d="M1167.3 28.8727C1167 28.3001 1166.7 27.7305 1166.4 27.1639M1167.3 28.8727C1172.42 38.6378 1176.81 46.8549 1181.72 56.0618L1188.25 67.6401M1167.3 28.8727L1166.4 27.1639M1167.3 28.8727L1188.25 67.6401M1166.24 26.8549C1165.25 24.9545 1165.75 23.5915 1167.35 23.7785M1166.24 26.8549C1166.3 26.9578 1166.35 27.0608 1166.4 27.1639M1166.24 26.8549L1166.4 27.1639M1166.24 26.8549L1162.33 40.8192M1167.35 23.7785C1173.36 24.5622 1179.38 25.3628 1185.4 26.1803C1186.38 26.3129 1187.57 26.9717 1188.61 27.9364C1190.56 29.77 1192.51 31.6005 1194.47 33.4279C1195.47 34.3607 1196.65 35.0036 1197.61 35.1424M1167.35 23.7785L1166.4 27.1639M1197.61 35.1424C1200.39 35.5434 1203.16 35.9443 1205.93 36.3453M1197.61 35.1424L1205.93 36.3453M1205.93 36.3453C1208.16 36.6754 1210.4 37.0055 1212.63 37.3356M1205.93 36.3453L1212.63 37.3356M1212.63 37.3356C1213.36 37.4477 1213.92 37.2677 1214.2 36.8552C1215.26 35.2659 1216.32 33.6829 1217.38 32.1062C1217.65 31.6936 1218.2 31.5294 1218.92 31.6382C1228.06 33.0148 1237.26 34.4413 1246.52 35.9178C1269.25 39.8476 1292.45 43.9922 1316.13 48.3517C1318.04 48.7273 1320.88 50.5728 1322.46 52.4611C1331.87 67.3898 1339.01 80.5589 1345.81 90.0661M1345.81 90.0661L1345.45 91.1978M1345.81 90.0661C1345.9 90.5285 1345.76 90.9131 1345.45 91.1978M1342.32 91.6161L1335.9 115.072M1342.32 91.6161C1343.72 91.9076 1344.88 91.7221 1345.45 91.1978M1342.32 91.6161C1333.89 90.1251 1325.87 87.8113 1317.62 86.5413C1315.74 86.2519 1313.87 85.9676 1312 85.688C1309.56 85.3231 1307.13 84.9662 1304.71 84.6167C1284.58 81.7078 1264.78 77.0922 1246.13 74.7953C1241.97 74.2827 1237.85 73.7753 1233.77 73.2685M1342.32 91.6161L1338.41 105.58L1335.79 114.919M1342.32 91.6161L1233.77 73.2685M1342.32 91.6161C1344.33 91.7193 1344.99 91.6455 1345.43 91.2677M1227.33 72.4626C1226.67 72.3984 1226.17 72.5755 1225.87 72.9722M1227.33 72.4626L1225.87 72.9722M1227.33 72.4626L1228.1 72.5596L1233.75 73.2657M1227.33 72.4626L1233.75 73.2657M1225.87 72.9722C1224.69 74.5966 1223.51 76.2242 1222.34 77.855M1225.87 72.9722L1222.34 77.855M1222.34 77.855L1214.52 105.784M1222.34 77.855C1222.23 78.0128 1222.09 78.1379 1221.91 78.2277M1222.34 77.855L1220.9 78.3819M1220.92 78.3837C1221.31 78.4206 1221.64 78.3656 1221.91 78.2277M1220.92 78.3837L1212.67 106.277M1220.92 78.3837L1220.9 78.3819M1220.92 78.3837C1220.91 78.3831 1220.9 78.3825 1220.9 78.3819M1211.15 77.5546C1211.46 77.5805 1211.77 77.6066 1212.08 77.6326M1211.15 77.5546C1210.59 77.5063 1209.95 77.2717 1209.32 76.884M1211.15 77.5546L1212.08 77.6326M1211.15 77.5546L1220.9 78.3819M1202.25 71.1777C1201.68 70.7133 1201.51 70.5752 1200.93 70.3703M1202.25 71.1777C1202.5 71.383 1202.76 71.5883 1203.01 71.7935M1202.25 71.1777L1203.01 71.7935M1202.25 71.1777L1200.92 70.3999M1199.51 69.8872C1199.79 69.9086 1200.62 70.2617 1200.93 70.3703M1199.51 69.8872L1199.47 69.8848M1199.51 69.8872L1191.54 69.3591M1191.54 69.3591C1190.29 69.2674 1189.27 68.8934 1188.25 67.6401M1191.54 69.3591L1188.25 67.6401M1191.54 69.3591L1199.47 69.8848M1179.27 94.0313C1172.66 81.7204 1166.48 70.1563 1159.47 56.8014C1159.12 56.1245 1158.77 55.4519 1158.42 54.7835M1179.27 94.0313C1180.18 95.7257 1182.17 97.1738 1183.71 97.2877C1186.4 97.4773 1189.09 97.6775 1191.78 97.8882M1179.27 94.0313L1183.74 80.8933L1188.25 67.6401M1179.27 94.0313L1188.25 67.6401M1158.42 54.7835L1159.28 51.6904M1158.42 54.7835C1157.48 52.9829 1157.88 51.6647 1159.28 51.6904M1334.5 119.545C1336.66 119.995 1338.24 119.309 1337.98 117.995L1345.43 91.2677M1334.5 119.545L1335.9 115.072M1334.5 119.545C1300.77 113.581 1268.45 106.436 1238.31 102.724M1334.5 119.545L1335.79 114.919M1214.52 105.784C1215.69 104.153 1216.86 102.525 1218.05 100.901C1224.21 101.677 1231.93 101.939 1238.3 102.723M1214.52 105.784C1214.24 106.183 1213.74 106.373 1213.09 106.312M1213.09 106.312L1221.91 78.2277M1213.09 106.312L1212.67 106.277M1213.09 106.312C1212.95 106.3 1212.81 106.288 1212.67 106.277M1203.33 105.483C1202.54 105.415 1201.59 104.976 1200.73 104.259M1203.33 105.483L1211.98 77.9328M1203.33 105.483C1206.44 105.747 1209.56 106.011 1212.67 106.277M1200.73 104.259C1198.63 102.547 1196.53 100.829 1194.43 99.1063M1200.73 104.259L1209.32 76.884M1200.73 104.259L1208.79 78.325L1209.32 76.884M1194.43 99.1063C1193.55 98.3957 1192.58 97.9501 1191.78 97.8882M1194.43 99.1063L1203.01 71.7935M1191.78 97.8882L1192.88 94.5689M1204.82 73.2797C1206.07 74.2984 1207.31 75.3153 1208.55 76.3303C1208.8 76.5392 1209.06 76.7245 1209.32 76.884M1204.82 73.2797L1203.01 71.7935M1204.82 73.2797C1204.22 72.7847 1203.61 72.2894 1203.01 71.7935M1204.82 73.2797L1209.32 76.884M1233.77 73.2685L1233.75 73.2657M1335.9 115.072C1335.87 115.021 1335.83 114.97 1335.79 114.919M1345.45 91.1978L1345.43 91.2677M1166.4 27.1639L1162.49 41.1252M1238.3 102.723L1238.31 102.724M1238.3 102.723C1238.3 102.723 1238.31 102.724 1238.31 102.724M1200.93 70.3703L1200.92 70.3999M1212.08 77.6326L1211.98 77.9328M1212.08 77.6326L1211.16 77.5493L1209.32 76.884M1212.08 77.6326C1215.01 77.8815 1217.95 78.1313 1220.9 78.3819M1162.33 40.8192L1162.49 41.1252M1162.33 40.8192L1159.28 51.6904M1162.49 41.1252L1159.53 51.7072C1159.44 51.6973 1159.36 51.6918 1159.28 51.6904M1200.92 70.3999L1200.88 70.5279M1200.92 70.3999L1199.47 69.8848M1200.88 70.5279L1200.61 71.317L1199.89 73.4873M1200.88 70.5279L1199.89 73.4873M1199.51 74.6407L1198.17 78.6851L1197.93 79.3855L1197.37 81.0758L1193.67 92.1965L1193.61 92.3995M1199.51 74.6407L1199.79 73.7861L1199.89 73.4873M1199.51 74.6407L1195.64 85.999L1196.93 82.2119M1199.89 73.4873L1196.93 82.2119M1192.88 94.5689L1196.93 82.2119M1192.88 94.5689L1193.61 92.3995M1191.73 98.0302L1193.61 92.3995M1211.98 77.9328L1212.05 77.9555L1203.24 105.487L1212.67 106.277" stroke="#212C49" stroke-linecap="round"/>
</svg>
