<svg width="1363" height="301" viewBox="0 0 1363 301" fill="none" xmlns="http://www.w3.org/2000/svg">
<mask id="path-1-inside-1_1163_1003" fill="white">
<path d="M0 10C0 4.47716 4.47715 0 10 0H1353C1358.52 0 1363 4.47715 1363 10V291C1363 296.523 1358.52 301 1353 301H9.99997C4.47712 301 0 296.523 0 291V10Z"/>
</mask>
<path d="M0 10C0 4.47716 4.47715 0 10 0H1353C1358.52 0 1363 4.47715 1363 10V291C1363 296.523 1358.52 301 1353 301H9.99997C4.47712 301 0 296.523 0 291V10Z" fill="#FFFBEF"/>
<path d="M0 0H1363H0ZM1363 301H0H1363ZM10 301C-15.9574 301 -37 279.957 -37 254V47C-37 21.0426 -15.9574 0 10 0H37C37 0 37 4.47715 37 10V291C37 296.523 37 301 37 301H10ZM1363 0V301V0Z" fill="#29375B" mask="url(#path-1-inside-1_1163_1003)"/>
<rect x="89.5" y="194.5" width="1198" height="91" rx="9.5" fill="#29375B"/>
<rect x="113" y="210" width="230" height="60" rx="10" fill="#465B81"/>
<path d="M190.314 228.8C190.89 228.8 191.358 228.992 191.718 229.376C192.078 229.76 192.258 230.24 192.258 230.816V251.804C192.258 252.428 192.042 252.956 191.61 253.388C191.202 253.796 190.686 254 190.062 254C189.75 254 189.426 253.952 189.09 253.856C188.778 253.736 188.538 253.58 188.37 253.388L174.222 235.424L175.158 234.848V251.984C175.158 252.56 174.966 253.04 174.582 253.424C174.222 253.808 173.742 254 173.142 254C172.566 254 172.098 253.808 171.738 253.424C171.378 253.04 171.198 252.56 171.198 251.984V230.996C171.198 230.372 171.402 229.856 171.81 229.448C172.242 229.016 172.77 228.8 173.394 228.8C173.73 228.8 174.078 228.872 174.438 229.016C174.798 229.136 175.062 229.328 175.23 229.592L188.946 247.088L188.334 247.52V230.816C188.334 230.24 188.514 229.76 188.874 229.376C189.234 228.992 189.714 228.8 190.314 228.8ZM206.383 254.36C204.343 254.36 202.567 253.94 201.055 253.1C199.567 252.236 198.415 251.072 197.599 249.608C196.807 248.144 196.411 246.488 196.411 244.64C196.411 242.48 196.843 240.644 197.707 239.132C198.595 237.596 199.747 236.42 201.163 235.604C202.579 234.788 204.079 234.38 205.663 234.38C206.887 234.38 208.039 234.632 209.119 235.136C210.223 235.64 211.195 236.336 212.035 237.224C212.875 238.088 213.535 239.096 214.015 240.248C214.519 241.4 214.771 242.624 214.771 243.92C214.747 244.496 214.519 244.964 214.087 245.324C213.655 245.684 213.151 245.864 212.575 245.864H198.823L197.743 242.264H210.955L210.163 242.984V242.012C210.115 241.316 209.863 240.692 209.407 240.14C208.975 239.588 208.423 239.156 207.751 238.844C207.103 238.508 206.407 238.34 205.663 238.34C204.943 238.34 204.271 238.436 203.647 238.628C203.023 238.82 202.483 239.144 202.027 239.6C201.571 240.056 201.211 240.668 200.947 241.436C200.683 242.204 200.551 243.176 200.551 244.352C200.551 245.648 200.815 246.752 201.343 247.664C201.895 248.552 202.591 249.236 203.431 249.716C204.295 250.172 205.207 250.4 206.167 250.4C207.055 250.4 207.763 250.328 208.291 250.184C208.819 250.04 209.239 249.872 209.551 249.68C209.887 249.464 210.187 249.284 210.451 249.14C210.883 248.924 211.291 248.816 211.675 248.816C212.203 248.816 212.635 248.996 212.971 249.356C213.331 249.716 213.511 250.136 213.511 250.616C213.511 251.264 213.175 251.852 212.503 252.38C211.879 252.908 211.003 253.376 209.875 253.784C208.747 254.168 207.583 254.36 206.383 254.36ZM218.941 234.74C219.637 234.74 220.225 235.04 220.705 235.64L232.729 250.58C233.041 250.964 233.197 251.396 233.197 251.876C233.197 252.476 232.969 252.992 232.513 253.424C232.057 253.856 231.553 254.072 231.001 254.072C230.305 254.072 229.717 253.76 229.237 253.136L217.213 238.196C216.901 237.812 216.745 237.38 216.745 236.9C216.745 236.276 216.961 235.76 217.393 235.352C217.849 234.944 218.365 234.74 218.941 234.74ZM218.977 254.036C218.497 254.036 218.017 253.856 217.537 253.496C217.081 253.112 216.853 252.656 216.853 252.128C216.853 251.648 217.033 251.192 217.393 250.76L222.901 244.028L225.061 247.628L220.705 253.136C220.249 253.736 219.673 254.036 218.977 254.036ZM230.965 234.74C231.541 234.74 232.021 234.944 232.405 235.352C232.813 235.736 233.017 236.18 233.017 236.684C233.017 236.924 232.981 237.164 232.909 237.404C232.837 237.644 232.705 237.872 232.513 238.088L227.077 244.712L224.809 241.58L229.237 235.712C229.717 235.064 230.293 234.74 230.965 234.74ZM238.097 235.1H246.629C247.205 235.1 247.685 235.292 248.069 235.676C248.453 236.06 248.645 236.54 248.645 237.116C248.645 237.668 248.453 238.136 248.069 238.52C247.685 238.88 247.205 239.06 246.629 239.06H238.097C237.521 239.06 237.041 238.868 236.657 238.484C236.273 238.1 236.081 237.62 236.081 237.044C236.081 236.492 236.273 236.036 236.657 235.676C237.041 235.292 237.521 235.1 238.097 235.1ZM241.949 230.6C242.573 230.6 243.077 230.816 243.461 231.248C243.869 231.656 244.073 232.172 244.073 232.796V248.816C244.073 249.152 244.133 249.428 244.253 249.644C244.397 249.86 244.577 250.016 244.793 250.112C245.033 250.208 245.285 250.256 245.549 250.256C245.837 250.256 246.101 250.208 246.341 250.112C246.581 249.992 246.857 249.932 247.169 249.932C247.505 249.932 247.805 250.088 248.069 250.4C248.357 250.712 248.501 251.144 248.501 251.696C248.501 252.368 248.129 252.92 247.385 253.352C246.665 253.784 245.885 254 245.045 254C244.541 254 243.977 253.964 243.353 253.892C242.753 253.796 242.177 253.592 241.625 253.28C241.097 252.944 240.653 252.44 240.293 251.768C239.933 251.096 239.753 250.172 239.753 248.996V232.796C239.753 232.172 239.957 231.656 240.365 231.248C240.797 230.816 241.325 230.6 241.949 230.6ZM258.839 254.36C257.471 254.36 256.199 254.084 255.023 253.532C253.847 252.98 252.887 252.188 252.143 251.156C251.855 250.724 251.711 250.304 251.711 249.896C251.711 249.296 251.939 248.792 252.395 248.384C252.875 247.976 253.343 247.772 253.799 247.772C254.159 247.772 254.507 247.88 254.843 248.096C255.203 248.312 255.527 248.564 255.815 248.852C256.295 249.284 256.763 249.596 257.219 249.788C257.699 249.956 258.239 250.04 258.839 250.04C259.559 250.04 260.231 249.86 260.855 249.5C261.479 249.14 261.983 248.66 262.367 248.06C262.751 247.46 262.943 246.812 262.943 246.116V230.996C262.943 230.372 263.171 229.856 263.627 229.448C264.083 229.016 264.611 228.8 265.211 228.8C265.883 228.8 266.423 229.016 266.831 229.448C267.239 229.856 267.443 230.372 267.443 230.996V246.116C267.443 247.58 267.059 248.936 266.291 250.184C265.523 251.432 264.491 252.44 263.195 253.208C261.899 253.976 260.447 254.36 258.839 254.36ZM271.359 251.012C271.119 250.676 271.011 250.244 271.035 249.716C271.059 249.188 271.371 248.732 271.971 248.348C272.355 248.108 272.763 248.012 273.195 248.06C273.627 248.084 274.047 248.3 274.455 248.708C275.151 249.404 275.883 249.944 276.651 250.328C277.419 250.712 278.379 250.904 279.531 250.904C279.891 250.88 280.287 250.832 280.719 250.76C281.151 250.664 281.523 250.472 281.835 250.184C282.171 249.872 282.339 249.404 282.339 248.78C282.339 248.252 282.159 247.832 281.799 247.52C281.439 247.208 280.959 246.944 280.359 246.728C279.783 246.512 279.135 246.308 278.415 246.116C277.671 245.9 276.903 245.66 276.111 245.396C275.343 245.132 274.635 244.796 273.987 244.388C273.339 243.956 272.811 243.392 272.403 242.696C271.995 242 271.791 241.124 271.791 240.068C271.791 238.868 272.127 237.848 272.799 237.008C273.471 236.168 274.335 235.52 275.391 235.064C276.471 234.608 277.599 234.38 278.775 234.38C279.519 234.38 280.299 234.476 281.115 234.668C281.931 234.836 282.711 235.124 283.455 235.532C284.199 235.916 284.823 236.432 285.327 237.08C285.591 237.44 285.747 237.872 285.795 238.376C285.843 238.88 285.615 239.336 285.111 239.744C284.751 240.032 284.331 240.164 283.851 240.14C283.371 240.092 282.975 239.924 282.663 239.636C282.255 239.108 281.703 238.688 281.007 238.376C280.335 238.064 279.555 237.908 278.667 237.908C278.307 237.908 277.911 237.956 277.479 238.052C277.071 238.124 276.711 238.304 276.399 238.592C276.087 238.856 275.931 239.288 275.931 239.888C275.931 240.44 276.111 240.884 276.471 241.22C276.831 241.532 277.311 241.796 277.911 242.012C278.535 242.204 279.195 242.396 279.891 242.588C280.611 242.78 281.343 243.008 282.087 243.272C282.831 243.536 283.515 243.884 284.139 244.316C284.763 244.748 285.267 245.312 285.651 246.008C286.035 246.68 286.227 247.544 286.227 248.6C286.227 249.824 285.867 250.868 285.147 251.732C284.427 252.596 283.527 253.256 282.447 253.712C281.367 254.144 280.263 254.36 279.135 254.36C277.719 254.36 276.303 254.12 274.887 253.64C273.471 253.136 272.295 252.26 271.359 251.012Z" fill="white"/>
<rect x="391" y="210" width="230" height="60" rx="10" fill="#465B81"/>
<path d="M469.298 228.8C469.874 228.8 470.342 228.992 470.702 229.376C471.062 229.76 471.242 230.24 471.242 230.816V251.804C471.242 252.428 471.026 252.956 470.594 253.388C470.186 253.796 469.67 254 469.046 254C468.734 254 468.41 253.952 468.074 253.856C467.762 253.736 467.522 253.58 467.354 253.388L453.206 235.424L454.142 234.848V251.984C454.142 252.56 453.95 253.04 453.566 253.424C453.206 253.808 452.726 254 452.126 254C451.55 254 451.082 253.808 450.722 253.424C450.362 253.04 450.182 252.56 450.182 251.984V230.996C450.182 230.372 450.386 229.856 450.794 229.448C451.226 229.016 451.754 228.8 452.378 228.8C452.714 228.8 453.062 228.872 453.422 229.016C453.782 229.136 454.046 229.328 454.214 229.592L467.93 247.088L467.318 247.52V230.816C467.318 230.24 467.498 229.76 467.858 229.376C468.218 228.992 468.698 228.8 469.298 228.8ZM485.367 254.36C483.327 254.36 481.551 253.94 480.039 253.1C478.551 252.236 477.399 251.072 476.583 249.608C475.791 248.144 475.395 246.488 475.395 244.64C475.395 242.48 475.827 240.644 476.691 239.132C477.579 237.596 478.731 236.42 480.147 235.604C481.563 234.788 483.063 234.38 484.647 234.38C485.871 234.38 487.023 234.632 488.103 235.136C489.207 235.64 490.179 236.336 491.019 237.224C491.859 238.088 492.519 239.096 492.999 240.248C493.503 241.4 493.755 242.624 493.755 243.92C493.731 244.496 493.503 244.964 493.071 245.324C492.639 245.684 492.135 245.864 491.559 245.864H477.807L476.727 242.264H489.939L489.147 242.984V242.012C489.099 241.316 488.847 240.692 488.391 240.14C487.959 239.588 487.407 239.156 486.735 238.844C486.087 238.508 485.391 238.34 484.647 238.34C483.927 238.34 483.255 238.436 482.631 238.628C482.007 238.82 481.467 239.144 481.011 239.6C480.555 240.056 480.195 240.668 479.931 241.436C479.667 242.204 479.535 243.176 479.535 244.352C479.535 245.648 479.799 246.752 480.327 247.664C480.879 248.552 481.575 249.236 482.415 249.716C483.279 250.172 484.191 250.4 485.151 250.4C486.039 250.4 486.747 250.328 487.275 250.184C487.803 250.04 488.223 249.872 488.535 249.68C488.871 249.464 489.171 249.284 489.435 249.14C489.867 248.924 490.275 248.816 490.659 248.816C491.187 248.816 491.619 248.996 491.955 249.356C492.315 249.716 492.495 250.136 492.495 250.616C492.495 251.264 492.159 251.852 491.487 252.38C490.863 252.908 489.987 253.376 488.859 253.784C487.731 254.168 486.567 254.36 485.367 254.36ZM496.413 251.012C496.173 250.676 496.065 250.244 496.089 249.716C496.113 249.188 496.425 248.732 497.025 248.348C497.409 248.108 497.817 248.012 498.249 248.06C498.681 248.084 499.101 248.3 499.509 248.708C500.205 249.404 500.937 249.944 501.705 250.328C502.473 250.712 503.433 250.904 504.585 250.904C504.945 250.88 505.341 250.832 505.773 250.76C506.205 250.664 506.577 250.472 506.889 250.184C507.225 249.872 507.393 249.404 507.393 248.78C507.393 248.252 507.213 247.832 506.853 247.52C506.493 247.208 506.013 246.944 505.413 246.728C504.837 246.512 504.189 246.308 503.469 246.116C502.725 245.9 501.957 245.66 501.165 245.396C500.397 245.132 499.689 244.796 499.041 244.388C498.393 243.956 497.865 243.392 497.457 242.696C497.049 242 496.845 241.124 496.845 240.068C496.845 238.868 497.181 237.848 497.853 237.008C498.525 236.168 499.389 235.52 500.445 235.064C501.525 234.608 502.653 234.38 503.829 234.38C504.573 234.38 505.353 234.476 506.169 234.668C506.985 234.836 507.765 235.124 508.509 235.532C509.253 235.916 509.877 236.432 510.381 237.08C510.645 237.44 510.801 237.872 510.849 238.376C510.897 238.88 510.669 239.336 510.165 239.744C509.805 240.032 509.385 240.164 508.905 240.14C508.425 240.092 508.029 239.924 507.717 239.636C507.309 239.108 506.757 238.688 506.061 238.376C505.389 238.064 504.609 237.908 503.721 237.908C503.361 237.908 502.965 237.956 502.533 238.052C502.125 238.124 501.765 238.304 501.453 238.592C501.141 238.856 500.985 239.288 500.985 239.888C500.985 240.44 501.165 240.884 501.525 241.22C501.885 241.532 502.365 241.796 502.965 242.012C503.589 242.204 504.249 242.396 504.945 242.588C505.665 242.78 506.397 243.008 507.141 243.272C507.885 243.536 508.569 243.884 509.193 244.316C509.817 244.748 510.321 245.312 510.705 246.008C511.089 246.68 511.281 247.544 511.281 248.6C511.281 249.824 510.921 250.868 510.201 251.732C509.481 252.596 508.581 253.256 507.501 253.712C506.421 254.144 505.317 254.36 504.189 254.36C502.773 254.36 501.357 254.12 499.941 253.64C498.525 253.136 497.349 252.26 496.413 251.012ZM515.113 235.1H523.645C524.221 235.1 524.701 235.292 525.085 235.676C525.469 236.06 525.661 236.54 525.661 237.116C525.661 237.668 525.469 238.136 525.085 238.52C524.701 238.88 524.221 239.06 523.645 239.06H515.113C514.537 239.06 514.057 238.868 513.673 238.484C513.289 238.1 513.097 237.62 513.097 237.044C513.097 236.492 513.289 236.036 513.673 235.676C514.057 235.292 514.537 235.1 515.113 235.1ZM518.965 230.6C519.589 230.6 520.093 230.816 520.477 231.248C520.885 231.656 521.089 232.172 521.089 232.796V248.816C521.089 249.152 521.149 249.428 521.269 249.644C521.413 249.86 521.593 250.016 521.809 250.112C522.049 250.208 522.301 250.256 522.565 250.256C522.853 250.256 523.117 250.208 523.357 250.112C523.597 249.992 523.873 249.932 524.185 249.932C524.521 249.932 524.821 250.088 525.085 250.4C525.373 250.712 525.517 251.144 525.517 251.696C525.517 252.368 525.145 252.92 524.401 253.352C523.681 253.784 522.901 254 522.061 254C521.557 254 520.993 253.964 520.369 253.892C519.769 253.796 519.193 253.592 518.641 253.28C518.113 252.944 517.669 252.44 517.309 251.768C516.949 251.096 516.769 250.172 516.769 248.996V232.796C516.769 232.172 516.973 231.656 517.381 231.248C517.813 230.816 518.341 230.6 518.965 230.6ZM535.855 254.36C534.487 254.36 533.215 254.084 532.039 253.532C530.863 252.98 529.903 252.188 529.159 251.156C528.871 250.724 528.727 250.304 528.727 249.896C528.727 249.296 528.955 248.792 529.411 248.384C529.891 247.976 530.359 247.772 530.815 247.772C531.175 247.772 531.523 247.88 531.859 248.096C532.219 248.312 532.543 248.564 532.831 248.852C533.311 249.284 533.779 249.596 534.235 249.788C534.715 249.956 535.255 250.04 535.855 250.04C536.575 250.04 537.247 249.86 537.871 249.5C538.495 249.14 538.999 248.66 539.383 248.06C539.767 247.46 539.959 246.812 539.959 246.116V230.996C539.959 230.372 540.187 229.856 540.643 229.448C541.099 229.016 541.627 228.8 542.227 228.8C542.899 228.8 543.439 229.016 543.847 229.448C544.255 229.856 544.459 230.372 544.459 230.996V246.116C544.459 247.58 544.075 248.936 543.307 250.184C542.539 251.432 541.507 252.44 540.211 253.208C538.915 253.976 537.463 254.36 535.855 254.36ZM548.374 251.012C548.134 250.676 548.026 250.244 548.05 249.716C548.074 249.188 548.386 248.732 548.986 248.348C549.37 248.108 549.778 248.012 550.21 248.06C550.642 248.084 551.062 248.3 551.47 248.708C552.166 249.404 552.898 249.944 553.666 250.328C554.434 250.712 555.394 250.904 556.546 250.904C556.906 250.88 557.302 250.832 557.734 250.76C558.166 250.664 558.538 250.472 558.85 250.184C559.186 249.872 559.354 249.404 559.354 248.78C559.354 248.252 559.174 247.832 558.814 247.52C558.454 247.208 557.974 246.944 557.374 246.728C556.798 246.512 556.15 246.308 555.43 246.116C554.686 245.9 553.918 245.66 553.126 245.396C552.358 245.132 551.65 244.796 551.002 244.388C550.354 243.956 549.826 243.392 549.418 242.696C549.01 242 548.806 241.124 548.806 240.068C548.806 238.868 549.142 237.848 549.814 237.008C550.486 236.168 551.35 235.52 552.406 235.064C553.486 234.608 554.614 234.38 555.79 234.38C556.534 234.38 557.314 234.476 558.13 234.668C558.946 234.836 559.726 235.124 560.47 235.532C561.214 235.916 561.838 236.432 562.342 237.08C562.606 237.44 562.762 237.872 562.81 238.376C562.858 238.88 562.63 239.336 562.126 239.744C561.766 240.032 561.346 240.164 560.866 240.14C560.386 240.092 559.99 239.924 559.678 239.636C559.27 239.108 558.718 238.688 558.022 238.376C557.35 238.064 556.57 237.908 555.682 237.908C555.322 237.908 554.926 237.956 554.494 238.052C554.086 238.124 553.726 238.304 553.414 238.592C553.102 238.856 552.946 239.288 552.946 239.888C552.946 240.44 553.126 240.884 553.486 241.22C553.846 241.532 554.326 241.796 554.926 242.012C555.55 242.204 556.21 242.396 556.906 242.588C557.626 242.78 558.358 243.008 559.102 243.272C559.846 243.536 560.53 243.884 561.154 244.316C561.778 244.748 562.282 245.312 562.666 246.008C563.05 246.68 563.242 247.544 563.242 248.6C563.242 249.824 562.882 250.868 562.162 251.732C561.442 252.596 560.542 253.256 559.462 253.712C558.382 254.144 557.278 254.36 556.15 254.36C554.734 254.36 553.318 254.12 551.902 253.64C550.486 253.136 549.31 252.26 548.374 251.012Z" fill="white"/>
<rect x="669" y="210" width="250" height="60" rx="10" fill="#465B81"/>
<path d="M715.243 228.764C715.579 228.764 715.927 228.86 716.287 229.052C716.671 229.22 716.959 229.448 717.151 229.736L725.899 243.2L724.099 243.128L733.063 229.736C733.519 229.088 734.107 228.764 734.827 228.764C735.403 228.764 735.919 228.968 736.375 229.376C736.831 229.784 737.059 230.312 737.059 230.96V251.804C737.059 252.428 736.855 252.956 736.447 253.388C736.039 253.796 735.499 254 734.827 254C734.155 254 733.603 253.796 733.171 253.388C732.763 252.956 732.559 252.428 732.559 251.804V234.848L733.963 235.172L726.619 246.368C726.403 246.632 726.127 246.86 725.791 247.052C725.479 247.244 725.155 247.328 724.819 247.304C724.507 247.328 724.183 247.244 723.847 247.052C723.535 246.86 723.271 246.632 723.055 246.368L716.179 235.496L717.115 233.588V251.804C717.115 252.428 716.923 252.956 716.539 253.388C716.155 253.796 715.651 254 715.027 254C714.427 254 713.935 253.796 713.551 253.388C713.167 252.956 712.975 252.428 712.975 251.804V230.96C712.975 230.36 713.191 229.844 713.623 229.412C714.079 228.98 714.619 228.764 715.243 228.764ZM760.795 244.388C760.795 246.356 760.351 248.096 759.463 249.608C758.599 251.096 757.423 252.26 755.935 253.1C754.471 253.94 752.827 254.36 751.003 254.36C749.179 254.36 747.523 253.94 746.035 253.1C744.571 252.26 743.395 251.096 742.507 249.608C741.643 248.096 741.211 246.356 741.211 244.388C741.211 242.42 741.643 240.692 742.507 239.204C743.395 237.692 744.571 236.516 746.035 235.676C747.523 234.812 749.179 234.38 751.003 234.38C752.827 234.38 754.471 234.812 755.935 235.676C757.423 236.516 758.599 237.692 759.463 239.204C760.351 240.692 760.795 242.42 760.795 244.388ZM756.475 244.388C756.475 243.164 756.223 242.108 755.719 241.22C755.239 240.308 754.579 239.6 753.739 239.096C752.923 238.592 752.011 238.34 751.003 238.34C749.995 238.34 749.071 238.592 748.231 239.096C747.415 239.6 746.755 240.308 746.251 241.22C745.771 242.108 745.531 243.164 745.531 244.388C745.531 245.588 745.771 246.644 746.251 247.556C746.755 248.444 747.415 249.14 748.231 249.644C749.071 250.148 749.995 250.4 751.003 250.4C752.011 250.4 752.923 250.148 753.739 249.644C754.579 249.14 755.239 248.444 755.719 247.556C756.223 246.644 756.475 245.588 756.475 244.388ZM774.872 234.38C776.648 234.38 777.992 234.752 778.904 235.496C779.84 236.24 780.476 237.236 780.812 238.484C781.172 239.708 781.352 241.076 781.352 242.588V251.804C781.352 252.428 781.148 252.956 780.74 253.388C780.332 253.796 779.816 254 779.192 254C778.568 254 778.052 253.796 777.644 253.388C777.236 252.956 777.032 252.428 777.032 251.804V242.588C777.032 241.796 776.924 241.088 776.708 240.464C776.516 239.816 776.156 239.3 775.628 238.916C775.1 238.532 774.344 238.34 773.36 238.34C772.4 238.34 771.584 238.532 770.912 238.916C770.264 239.3 769.76 239.816 769.4 240.464C769.064 241.088 768.896 241.796 768.896 242.588V251.804C768.896 252.428 768.692 252.956 768.284 253.388C767.876 253.796 767.36 254 766.736 254C766.112 254 765.596 253.796 765.188 253.388C764.78 252.956 764.576 252.428 764.576 251.804V236.936C764.576 236.312 764.78 235.796 765.188 235.388C765.596 234.956 766.112 234.74 766.736 234.74C767.36 234.74 767.876 234.956 768.284 235.388C768.692 235.796 768.896 236.312 768.896 236.936V238.484L768.356 238.376C768.572 237.968 768.884 237.536 769.292 237.08C769.7 236.6 770.18 236.156 770.732 235.748C771.284 235.34 771.908 235.016 772.604 234.776C773.3 234.512 774.056 234.38 774.872 234.38ZM794.014 234.38C795.022 234.38 795.946 234.536 796.786 234.848C797.626 235.16 798.346 235.556 798.946 236.036C799.57 236.516 800.05 237.008 800.386 237.512C800.746 237.992 800.926 238.4 800.926 238.736L799.99 239.204V236.576C799.99 235.952 800.194 235.436 800.602 235.028C801.01 234.596 801.526 234.38 802.15 234.38C802.774 234.38 803.29 234.584 803.698 234.992C804.106 235.4 804.31 235.928 804.31 236.576V252.596C804.31 254.684 803.854 256.352 802.942 257.6C802.054 258.872 800.878 259.784 799.414 260.336C797.95 260.912 796.378 261.2 794.698 261.2C794.218 261.2 793.594 261.14 792.826 261.02C792.058 260.9 791.326 260.756 790.63 260.588C789.934 260.42 789.406 260.264 789.046 260.12C788.326 259.808 787.822 259.412 787.534 258.932C787.27 258.476 787.222 257.984 787.39 257.456C787.606 256.76 787.954 256.28 788.434 256.016C788.914 255.776 789.418 255.752 789.946 255.944C790.186 256.016 790.582 256.16 791.134 256.376C791.686 256.592 792.286 256.784 792.934 256.952C793.606 257.144 794.194 257.24 794.698 257.24C796.498 257.24 797.83 256.88 798.694 256.16C799.558 255.44 799.99 254.444 799.99 253.172V250.04L800.422 250.364C800.422 250.676 800.254 251.06 799.918 251.516C799.606 251.948 799.162 252.38 798.586 252.812C798.034 253.244 797.374 253.616 796.606 253.928C795.838 254.216 795.022 254.36 794.158 254.36C792.454 254.36 790.918 253.94 789.55 253.1C788.182 252.236 787.102 251.06 786.31 249.572C785.518 248.06 785.122 246.332 785.122 244.388C785.122 242.42 785.518 240.692 786.31 239.204C787.102 237.692 788.17 236.516 789.514 235.676C790.858 234.812 792.358 234.38 794.014 234.38ZM794.698 238.34C793.618 238.34 792.67 238.604 791.854 239.132C791.038 239.66 790.402 240.38 789.946 241.292C789.49 242.204 789.262 243.236 789.262 244.388C789.262 245.516 789.49 246.536 789.946 247.448C790.402 248.36 791.038 249.08 791.854 249.608C792.67 250.136 793.618 250.4 794.698 250.4C795.802 250.4 796.762 250.136 797.578 249.608C798.394 249.08 799.03 248.36 799.486 247.448C799.942 246.536 800.17 245.516 800.17 244.388C800.17 243.236 799.942 242.204 799.486 241.292C799.03 240.38 798.394 239.66 797.578 239.132C796.762 238.604 795.802 238.34 794.698 238.34ZM826.96 244.388C826.96 246.356 826.516 248.096 825.628 249.608C824.764 251.096 823.588 252.26 822.1 253.1C820.636 253.94 818.992 254.36 817.168 254.36C815.344 254.36 813.688 253.94 812.2 253.1C810.736 252.26 809.56 251.096 808.672 249.608C807.808 248.096 807.376 246.356 807.376 244.388C807.376 242.42 807.808 240.692 808.672 239.204C809.56 237.692 810.736 236.516 812.2 235.676C813.688 234.812 815.344 234.38 817.168 234.38C818.992 234.38 820.636 234.812 822.1 235.676C823.588 236.516 824.764 237.692 825.628 239.204C826.516 240.692 826.96 242.42 826.96 244.388ZM822.64 244.388C822.64 243.164 822.388 242.108 821.884 241.22C821.404 240.308 820.744 239.6 819.904 239.096C819.088 238.592 818.176 238.34 817.168 238.34C816.16 238.34 815.236 238.592 814.396 239.096C813.58 239.6 812.92 240.308 812.416 241.22C811.936 242.108 811.696 243.164 811.696 244.388C811.696 245.588 811.936 246.644 812.416 247.556C812.92 248.444 813.58 249.14 814.396 249.644C815.236 250.148 816.16 250.4 817.168 250.4C818.176 250.4 819.088 250.148 819.904 249.644C820.744 249.14 821.404 248.444 821.884 247.556C822.388 246.644 822.64 245.588 822.64 244.388ZM841.9 228.8C843.628 228.8 845.164 229.124 846.508 229.772C847.852 230.42 848.98 231.332 849.892 232.508C850.828 233.66 851.524 235.004 851.98 236.54C852.46 238.052 852.7 239.672 852.7 241.4C852.7 243.728 852.28 245.852 851.44 247.772C850.6 249.668 849.376 251.18 847.768 252.308C846.184 253.436 844.228 254 841.9 254H833.296C832.672 254 832.144 253.796 831.712 253.388C831.304 252.956 831.1 252.428 831.1 251.804V230.996C831.1 230.372 831.304 229.856 831.712 229.448C832.144 229.016 832.672 228.8 833.296 228.8H841.9ZM841.54 249.86C843.052 249.86 844.288 249.476 845.248 248.708C846.208 247.916 846.904 246.884 847.336 245.612C847.792 244.316 848.02 242.912 848.02 241.4C848.02 240.272 847.888 239.204 847.624 238.196C847.384 237.164 847 236.264 846.472 235.496C845.944 234.704 845.272 234.08 844.456 233.624C843.64 233.168 842.668 232.94 841.54 232.94H835.24L835.6 232.616V250.256L835.384 249.86H841.54ZM868.103 228.8C870.407 228.8 872.123 229.34 873.251 230.42C874.379 231.5 874.943 233.096 874.943 235.208C874.943 236.336 874.667 237.332 874.115 238.196C873.563 239.036 872.747 239.696 871.667 240.176C870.587 240.632 869.255 240.86 867.671 240.86L867.815 239.24C868.559 239.24 869.411 239.348 870.371 239.564C871.331 239.756 872.255 240.116 873.143 240.644C874.055 241.148 874.799 241.868 875.375 242.804C875.975 243.716 876.275 244.892 876.275 246.332C876.275 247.916 876.011 249.212 875.483 250.22C874.979 251.228 874.307 252.008 873.467 252.56C872.627 253.112 871.727 253.496 870.767 253.712C869.807 253.904 868.883 254 867.995 254H859.031C858.407 254 857.879 253.796 857.447 253.388C857.039 252.956 856.835 252.428 856.835 251.804V230.996C856.835 230.372 857.039 229.856 857.447 229.448C857.879 229.016 858.407 228.8 859.031 228.8H868.103ZM867.455 233.048H861.047L861.515 232.472V238.988L861.083 238.664H867.563C868.259 238.664 868.883 238.436 869.435 237.98C869.987 237.524 870.263 236.864 870.263 236C870.263 234.968 869.999 234.224 869.471 233.768C868.967 233.288 868.295 233.048 867.455 233.048ZM867.743 242.912H861.191L861.515 242.624V250.22L861.155 249.86H867.995C869.099 249.86 869.975 249.572 870.623 248.996C871.271 248.396 871.595 247.508 871.595 246.332C871.595 245.252 871.379 244.472 870.947 243.992C870.515 243.512 869.999 243.212 869.399 243.092C868.799 242.972 868.247 242.912 867.743 242.912Z" fill="white"/>
<rect x="967" y="210" width="250" height="60" rx="10" fill="#465B81"/>
<path d="M1043.64 228.8C1045.37 228.8 1046.91 229.124 1048.25 229.772C1049.59 230.42 1050.72 231.332 1051.63 232.508C1052.57 233.66 1053.27 235.004 1053.72 236.54C1054.2 238.052 1054.44 239.672 1054.44 241.4C1054.44 243.728 1054.02 245.852 1053.18 247.772C1052.34 249.668 1051.12 251.18 1049.51 252.308C1047.93 253.436 1045.97 254 1043.64 254H1035.04C1034.41 254 1033.89 253.796 1033.45 253.388C1033.05 252.956 1032.84 252.428 1032.84 251.804V230.996C1032.84 230.372 1033.05 229.856 1033.45 229.448C1033.89 229.016 1034.41 228.8 1035.04 228.8H1043.64ZM1043.28 249.86C1044.79 249.86 1046.03 249.476 1046.99 248.708C1047.95 247.916 1048.65 246.884 1049.08 245.612C1049.53 244.316 1049.76 242.912 1049.76 241.4C1049.76 240.272 1049.63 239.204 1049.37 238.196C1049.13 237.164 1048.74 236.264 1048.21 235.496C1047.69 234.704 1047.01 234.08 1046.2 233.624C1045.38 233.168 1044.41 232.94 1043.28 232.94H1036.98L1037.34 232.616V250.256L1037.13 249.86H1043.28ZM1077.18 244.388C1077.18 246.356 1076.74 248.096 1075.85 249.608C1074.99 251.096 1073.81 252.26 1072.32 253.1C1070.86 253.94 1069.21 254.36 1067.39 254.36C1065.57 254.36 1063.91 253.94 1062.42 253.1C1060.96 252.26 1059.78 251.096 1058.89 249.608C1058.03 248.096 1057.6 246.356 1057.6 244.388C1057.6 242.42 1058.03 240.692 1058.89 239.204C1059.78 237.692 1060.96 236.516 1062.42 235.676C1063.91 234.812 1065.57 234.38 1067.39 234.38C1069.21 234.38 1070.86 234.812 1072.32 235.676C1073.81 236.516 1074.99 237.692 1075.85 239.204C1076.74 240.692 1077.18 242.42 1077.18 244.388ZM1072.86 244.388C1072.86 243.164 1072.61 242.108 1072.11 241.22C1071.63 240.308 1070.97 239.6 1070.13 239.096C1069.31 238.592 1068.4 238.34 1067.39 238.34C1066.38 238.34 1065.46 238.592 1064.62 239.096C1063.8 239.6 1063.14 240.308 1062.64 241.22C1062.16 242.108 1061.92 243.164 1061.92 244.388C1061.92 245.588 1062.16 246.644 1062.64 247.556C1063.14 248.444 1063.8 249.14 1064.62 249.644C1065.46 250.148 1066.38 250.4 1067.39 250.4C1068.4 250.4 1069.31 250.148 1070.13 249.644C1070.97 249.14 1071.63 248.444 1072.11 247.556C1072.61 246.644 1072.86 245.588 1072.86 244.388ZM1089.53 234.38C1090.9 234.38 1092.09 234.524 1093.1 234.812C1094.13 235.1 1094.92 235.508 1095.47 236.036C1096.05 236.54 1096.34 237.152 1096.34 237.872C1096.34 238.352 1096.19 238.808 1095.9 239.24C1095.62 239.648 1095.2 239.852 1094.64 239.852C1094.26 239.852 1093.94 239.804 1093.67 239.708C1093.43 239.588 1093.22 239.444 1093.02 239.276C1092.83 239.108 1092.6 238.952 1092.34 238.808C1092.1 238.664 1091.73 238.556 1091.22 238.484C1090.74 238.388 1090.38 238.34 1090.14 238.34C1088.92 238.34 1087.88 238.604 1087.01 239.132C1086.17 239.66 1085.52 240.38 1085.07 241.292C1084.61 242.18 1084.38 243.212 1084.38 244.388C1084.38 245.54 1084.61 246.572 1085.07 247.484C1085.55 248.372 1086.2 249.08 1087.01 249.608C1087.85 250.136 1088.81 250.4 1089.89 250.4C1090.49 250.4 1091.01 250.364 1091.44 250.292C1091.87 250.22 1092.23 250.112 1092.52 249.968C1092.86 249.776 1093.16 249.572 1093.42 249.356C1093.68 249.14 1094.08 249.032 1094.61 249.032C1095.23 249.032 1095.71 249.236 1096.05 249.644C1096.38 250.028 1096.55 250.508 1096.55 251.084C1096.55 251.684 1096.22 252.236 1095.54 252.74C1094.87 253.22 1093.98 253.616 1092.88 253.928C1091.8 254.216 1090.62 254.36 1089.35 254.36C1087.46 254.36 1085.81 253.928 1084.42 253.064C1083.03 252.176 1081.95 250.976 1081.18 249.464C1080.44 247.952 1080.06 246.26 1080.06 244.388C1080.06 242.42 1080.46 240.692 1081.25 239.204C1082.07 237.692 1083.18 236.516 1084.6 235.676C1086.04 234.812 1087.68 234.38 1089.53 234.38ZM1102.19 254C1101.56 254 1101.05 253.796 1100.64 253.388C1100.23 252.956 1100.03 252.428 1100.03 251.804V229.556C1100.03 228.932 1100.23 228.416 1100.64 228.008C1101.05 227.576 1101.56 227.36 1102.19 227.36C1102.81 227.36 1103.33 227.576 1103.73 228.008C1104.14 228.416 1104.35 228.932 1104.35 229.556V251.804C1104.35 252.428 1104.14 252.956 1103.73 253.388C1103.33 253.796 1102.81 254 1102.19 254ZM1113.63 234.74C1114.19 234.74 1114.67 234.968 1115.07 235.424C1115.48 235.88 1115.69 236.324 1115.69 236.756C1115.69 237.332 1115.4 237.872 1114.82 238.376L1103.99 248.348L1103.81 243.38L1112.05 235.424C1112.51 234.968 1113.03 234.74 1113.63 234.74ZM1114.17 253.964C1113.55 253.964 1113.02 253.724 1112.59 253.244L1105.93 246.188L1109.21 243.164L1115.69 250.22C1116.14 250.7 1116.37 251.24 1116.37 251.84C1116.37 252.464 1116.12 252.98 1115.61 253.388C1115.13 253.772 1114.65 253.964 1114.17 253.964ZM1128.43 254.36C1126.39 254.36 1124.61 253.94 1123.1 253.1C1121.61 252.236 1120.46 251.072 1119.64 249.608C1118.85 248.144 1118.45 246.488 1118.45 244.64C1118.45 242.48 1118.89 240.644 1119.75 239.132C1120.64 237.596 1121.79 236.42 1123.21 235.604C1124.62 234.788 1126.12 234.38 1127.71 234.38C1128.93 234.38 1130.08 234.632 1131.16 235.136C1132.27 235.64 1133.24 236.336 1134.08 237.224C1134.92 238.088 1135.58 239.096 1136.06 240.248C1136.56 241.4 1136.81 242.624 1136.81 243.92C1136.79 244.496 1136.56 244.964 1136.13 245.324C1135.7 245.684 1135.19 245.864 1134.62 245.864H1120.87L1119.79 242.264H1133L1132.21 242.984V242.012C1132.16 241.316 1131.91 240.692 1131.45 240.14C1131.02 239.588 1130.47 239.156 1129.79 238.844C1129.15 238.508 1128.45 238.34 1127.71 238.34C1126.99 238.34 1126.31 238.436 1125.69 238.628C1125.07 238.82 1124.53 239.144 1124.07 239.6C1123.61 240.056 1123.25 240.668 1122.99 241.436C1122.73 242.204 1122.59 243.176 1122.59 244.352C1122.59 245.648 1122.86 246.752 1123.39 247.664C1123.94 248.552 1124.63 249.236 1125.47 249.716C1126.34 250.172 1127.25 250.4 1128.21 250.4C1129.1 250.4 1129.81 250.328 1130.33 250.184C1130.86 250.04 1131.28 249.872 1131.59 249.68C1131.93 249.464 1132.23 249.284 1132.49 249.14C1132.93 248.924 1133.33 248.816 1133.72 248.816C1134.25 248.816 1134.68 248.996 1135.01 249.356C1135.37 249.716 1135.55 250.136 1135.55 250.616C1135.55 251.264 1135.22 251.852 1134.55 252.38C1133.92 252.908 1133.05 253.376 1131.92 253.784C1130.79 254.168 1129.63 254.36 1128.43 254.36ZM1142.75 254C1142.12 254 1141.61 253.796 1141.2 253.388C1140.79 252.956 1140.59 252.428 1140.59 251.804V236.936C1140.59 236.312 1140.79 235.796 1141.2 235.388C1141.61 234.956 1142.12 234.74 1142.75 234.74C1143.37 234.74 1143.89 234.956 1144.3 235.388C1144.7 235.796 1144.91 236.312 1144.91 236.936V240.32L1144.66 237.908C1144.92 237.332 1145.26 236.828 1145.66 236.396C1146.1 235.94 1146.58 235.568 1147.1 235.28C1147.63 234.968 1148.2 234.74 1148.8 234.596C1149.4 234.452 1150 234.38 1150.6 234.38C1151.32 234.38 1151.92 234.584 1152.4 234.992C1152.9 235.4 1153.15 235.88 1153.15 236.432C1153.15 237.224 1152.95 237.8 1152.54 238.16C1152.13 238.496 1151.69 238.664 1151.21 238.664C1150.75 238.664 1150.33 238.58 1149.95 238.412C1149.59 238.244 1149.17 238.16 1148.69 238.16C1148.26 238.16 1147.81 238.268 1147.36 238.484C1146.92 238.676 1146.52 238.988 1146.13 239.42C1145.77 239.852 1145.47 240.392 1145.23 241.04C1145.02 241.664 1144.91 242.408 1144.91 243.272V251.804C1144.91 252.428 1144.7 252.956 1144.3 253.388C1143.89 253.796 1143.37 254 1142.75 254Z" fill="white"/>
<rect x="89.5" y="194.5" width="1198" height="91" rx="9.5" stroke="#29375B"/>
<path d="M294.765 87.339C290.791 86.896 276.415 86.8807 272.656 87.3313C268.897 87.7818 266.96 89.0673 263.072 92.0073C259.184 94.9473 256 96.7356 256 96.7356V103H310V96.7356C310 96.7356 307.265 94.6993 304.349 92.0044C301.432 89.3096 298.739 87.7819 294.765 87.339Z" fill="#FCD95B" stroke="#FCD95B"/>
<circle cx="273" cy="95" r="4" fill="white"/>
<circle cx="293" cy="95" r="4" fill="white"/>
<path d="M299 53.8462L291.525 70H271.12L264 54.5385L267.967 52.6923L275.654 68.7692H287.557L295.599 52L299 53.8462Z" fill="#29375B" stroke="#29375B"/>
<circle cx="264.5" cy="50.5" r="4.5" fill="#29375B"/>
<ellipse cx="299" cy="50.5" rx="4" ry="4.5" fill="#29375B"/>
<path d="M250.058 82.9765C252.965 86.4252 251.65 88.1458 252.189 88.2072L253.266 88.3299L251.932 100.041L248.7 99.6731C248.7 99.6731 248.161 100.813 245.177 102.05C242.192 103.287 240.6 103.738 240.131 103.061C239.663 102.384 241.802 97.9767 244.111 95.7807C246.421 93.5847 248.397 92.7629 248.397 92.7629C248.823 92.3792 248.467 92.1474 248.467 92.1474C248.467 92.1474 244.941 88.4979 244.115 85.3299C243.29 82.1619 243.407 79.1014 243.946 79.1627C243.946 79.1627 247.15 79.5278 250.058 82.9765Z" fill="#29375B" stroke="#29375B"/>
<path d="M314 100.782C314 108.141 313.996 113.47 313.5 117.424C313.005 121.368 312.064 123.509 310.549 124.85C308.983 126.237 306.435 127.105 301.882 127.553C297.363 127.998 291.293 128 283 128C274.707 128 268.637 127.998 264.118 127.553C259.564 127.105 257.017 126.237 255.451 124.85C253.936 123.509 252.995 121.368 252.5 117.424C252.004 113.47 252 108.141 252 100.782C252 83.7939 265.867 70 283 70C300.133 70 314 83.7939 314 100.782Z" stroke="#29375B" stroke-width="4"/>
<path d="M122.562 74.625H140.562V83.2188H136.719V122H126.344L106.625 91.375V113.438H110.594V122H92.625V113.438H96.5312V83.2188H92.6875V74.625H107L126.594 105.656V83.2188H122.562V74.625ZM144.656 89.625H159.188V113.438H163.688V122H144.656V113.438H149.531V98.1875H144.656V89.625ZM149.031 79.1875C149.031 78.4167 149.167 77.6979 149.438 77.0312C149.729 76.3438 150.125 75.75 150.625 75.25C151.125 74.75 151.708 74.3542 152.375 74.0625C153.062 73.7708 153.802 73.625 154.594 73.625C155.344 73.625 156.052 73.7708 156.719 74.0625C157.385 74.3542 157.969 74.75 158.469 75.25C158.969 75.75 159.365 76.3438 159.656 77.0312C159.948 77.6979 160.094 78.4167 160.094 79.1875C160.094 79.9583 159.948 80.6875 159.656 81.375C159.365 82.0417 158.969 82.625 158.469 83.125C157.969 83.625 157.385 84.0208 156.719 84.3125C156.052 84.6042 155.344 84.75 154.594 84.75C153.802 84.75 153.062 84.6042 152.375 84.3125C151.708 84.0208 151.125 83.625 150.625 83.125C150.125 82.625 149.729 82.0417 149.438 81.375C149.167 80.6875 149.031 79.9583 149.031 79.1875ZM195.969 103.375C195.969 101.562 195.49 100.146 194.531 99.125C193.573 98.0833 192.302 97.5625 190.719 97.5625C189.635 97.5625 188.542 97.8021 187.438 98.2812C186.333 98.7604 185.26 99.6562 184.219 100.969V113.438H189.469V122H169.344V113.438H174.094V98.1875H169.406V89.625H184.156V92.4688C185.51 91.4062 187.021 90.5729 188.688 89.9688C190.375 89.3438 192.146 89.0312 194 89.0312C197.896 89.0312 200.896 90.125 203 92.3125C205.104 94.4792 206.156 97.6562 206.156 101.844V113.438H210.75V122H195.969V103.375ZM214.062 89.625H228.281V122.562C228.281 125.042 227.969 127.167 227.344 128.938C226.74 130.708 225.844 132.167 224.656 133.312C223.49 134.458 222.042 135.302 220.312 135.844C218.583 136.385 216.604 136.656 214.375 136.656L214.25 129.562C215.75 129.5 216.865 128.896 217.594 127.75C218.323 126.625 218.688 125.115 218.688 123.219V98.1875H214.062V89.625ZM218.156 79.1875C218.156 78.4167 218.292 77.6979 218.562 77.0312C218.854 76.3438 219.25 75.75 219.75 75.25C220.25 74.75 220.833 74.3542 221.5 74.0625C222.188 73.7708 222.927 73.625 223.719 73.625C224.469 73.625 225.177 73.7708 225.844 74.0625C226.531 74.3542 227.125 74.75 227.625 75.25C228.146 75.75 228.552 76.3438 228.844 77.0312C229.156 77.6979 229.312 78.4167 229.312 79.1875C229.312 79.9583 229.156 80.6875 228.844 81.375C228.552 82.0417 228.146 82.625 227.625 83.125C227.125 83.625 226.531 84.0208 225.844 84.3125C225.177 84.6042 224.469 84.75 223.719 84.75C222.927 84.75 222.188 84.6042 221.5 84.3125C220.833 84.0208 220.25 83.625 219.75 83.125C219.25 82.625 218.854 82.0417 218.562 81.375C218.292 80.6875 218.156 79.9583 218.156 79.1875Z" fill="#29375B"/>
<path d="M357.969 92.0312C356.802 90.3646 355.75 89.1875 354.812 88.5C353.875 87.7917 352.865 87.2917 351.781 87C350.698 86.6875 349.562 86.5312 348.375 86.5312C346.625 86.5312 345 86.9271 343.5 87.7188C342 88.4896 340.698 89.5521 339.594 90.9062C338.51 92.2396 337.656 93.8021 337.031 95.5938C336.406 97.3646 336.094 99.25 336.094 101.25C336.094 103.271 336.396 105.177 337 106.969C337.625 108.74 338.479 110.292 339.562 111.625C340.646 112.958 341.938 114.021 343.438 114.812C344.938 115.583 346.583 115.969 348.375 115.969C349.625 115.969 350.792 115.771 351.875 115.375C352.958 114.958 353.938 114.417 354.812 113.75C355.708 113.083 356.49 112.323 357.156 111.469C357.823 110.594 358.344 109.688 358.719 108.75L368.781 111.562C368.135 113.604 367.188 115.5 365.938 117.25C364.688 118.979 363.177 120.479 361.406 121.75C359.656 123.021 357.677 124.021 355.469 124.75C353.281 125.479 350.917 125.844 348.375 125.844C346.229 125.844 344.177 125.552 342.219 124.969C340.26 124.385 338.427 123.562 336.719 122.5C335.031 121.438 333.49 120.156 332.094 118.656C330.719 117.156 329.542 115.5 328.562 113.688C327.583 111.854 326.823 109.896 326.281 107.812C325.74 105.708 325.469 103.521 325.469 101.25C325.469 97.8542 326.062 94.6771 327.25 91.7188C328.438 88.7396 330.062 86.1458 332.125 83.9375C334.188 81.7083 336.604 79.9583 339.375 78.6875C342.167 77.3958 345.167 76.75 348.375 76.75C350.938 76.75 353.094 77.0729 354.844 77.7188C356.594 78.3438 358.521 79.5938 360.625 81.4688H367.625V92.0312H357.969ZM396.938 125.844C394.792 125.844 392.74 125.552 390.781 124.969C388.823 124.385 386.99 123.562 385.281 122.5C383.594 121.438 382.052 120.167 380.656 118.688C379.281 117.188 378.104 115.531 377.125 113.719C376.146 111.885 375.385 109.927 374.844 107.844C374.302 105.76 374.031 103.583 374.031 101.312C374.031 99.0417 374.302 96.8646 374.844 94.7812C375.385 92.6771 376.146 90.7188 377.125 88.9062C378.104 87.0729 379.281 85.4167 380.656 83.9375C382.052 82.4375 383.594 81.1562 385.281 80.0938C386.99 79.0312 388.823 78.2083 390.781 77.625C392.74 77.0417 394.792 76.75 396.938 76.75C399.083 76.75 401.135 77.0417 403.094 77.625C405.073 78.2083 406.906 79.0312 408.594 80.0938C410.302 81.1562 411.844 82.4375 413.219 83.9375C414.615 85.4167 415.802 87.0729 416.781 88.9062C417.781 90.7188 418.552 92.6771 419.094 94.7812C419.635 96.8646 419.906 99.0417 419.906 101.312C419.906 103.562 419.635 105.74 419.094 107.844C418.552 109.927 417.781 111.885 416.781 113.719C415.802 115.531 414.615 117.188 413.219 118.688C411.844 120.167 410.302 121.438 408.594 122.5C406.906 123.562 405.073 124.385 403.094 124.969C401.135 125.552 399.083 125.844 396.938 125.844ZM396.938 116.031C398.75 116.031 400.406 115.646 401.906 114.875C403.427 114.083 404.729 113.021 405.812 111.688C406.896 110.333 407.729 108.771 408.312 107C408.917 105.208 409.219 103.312 409.219 101.312C409.219 99.2917 408.917 97.3854 408.312 95.5938C407.708 93.8021 406.854 92.2396 405.75 90.9062C404.667 89.5521 403.375 88.4896 401.875 87.7188C400.375 86.9271 398.729 86.5312 396.938 86.5312C395.146 86.5312 393.5 86.9271 392 87.7188C390.5 88.4896 389.208 89.5521 388.125 90.9062C387.042 92.2396 386.188 93.8021 385.562 95.5938C384.958 97.3854 384.656 99.2917 384.656 101.312C384.656 103.312 384.958 105.208 385.562 107C386.188 108.771 387.042 110.333 388.125 111.688C389.208 113.021 390.5 114.083 392 114.875C393.5 115.646 395.146 116.031 396.938 116.031Z" fill="#29375B"/>
<path d="M576.752 84.8H589.208C589.712 84.8 590.132 84.968 590.468 85.304C590.828 85.64 591.008 86.06 591.008 86.564C591.008 87.068 590.828 87.476 590.468 87.788C590.132 88.1 589.712 88.256 589.208 88.256H578.336L578.696 87.644V95.708L578.372 95.348H587.588C588.092 95.348 588.512 95.516 588.848 95.852C589.208 96.188 589.388 96.62 589.388 97.148C589.388 97.652 589.208 98.06 588.848 98.372C588.512 98.684 588.092 98.84 587.588 98.84H578.444L578.696 98.516V106.832L578.444 106.544H589.208C589.712 106.544 590.132 106.724 590.468 107.084C590.828 107.42 591.008 107.816 591.008 108.272C591.008 108.776 590.828 109.196 590.468 109.532C590.132 109.844 589.712 110 589.208 110H576.752C576.248 110 575.816 109.832 575.456 109.496C575.096 109.136 574.916 108.692 574.916 108.164V86.636C574.916 86.108 575.096 85.676 575.456 85.34C575.816 84.98 576.248 84.8 576.752 84.8ZM604.59 90.74C606.366 90.74 607.734 91.184 608.694 92.072C609.654 92.936 610.29 94.112 610.602 95.6L610.026 95.42L610.278 94.844C610.59 94.22 611.058 93.596 611.682 92.972C612.33 92.324 613.098 91.796 613.986 91.388C614.874 90.956 615.822 90.74 616.83 90.74C618.486 90.74 619.77 91.1 620.682 91.82C621.594 92.516 622.23 93.464 622.59 94.664C622.95 95.84 623.13 97.16 623.13 98.624V108.164C623.13 108.692 622.962 109.136 622.626 109.496C622.29 109.832 621.858 110 621.33 110C620.826 110 620.394 109.832 620.034 109.496C619.698 109.136 619.53 108.692 619.53 108.164V98.66C619.53 97.82 619.41 97.052 619.17 96.356C618.954 95.66 618.558 95.108 617.982 94.7C617.43 94.268 616.662 94.052 615.678 94.052C614.742 94.052 613.902 94.268 613.158 94.7C612.438 95.108 611.874 95.66 611.466 96.356C611.058 97.052 610.854 97.82 610.854 98.66V108.164C610.854 108.692 610.686 109.136 610.35 109.496C610.014 109.832 609.582 110 609.054 110C608.526 110 608.094 109.832 607.758 109.496C607.422 109.136 607.254 108.692 607.254 108.164V98.624C607.254 97.784 607.134 97.016 606.894 96.32C606.678 95.624 606.294 95.072 605.742 94.664C605.19 94.256 604.422 94.052 603.438 94.052C602.502 94.052 601.674 94.256 600.954 94.664C600.234 95.072 599.67 95.624 599.262 96.32C598.878 97.016 598.686 97.784 598.686 98.624V108.164C598.686 108.692 598.506 109.136 598.146 109.496C597.81 109.832 597.39 110 596.886 110C596.358 110 595.926 109.832 595.59 109.496C595.254 109.136 595.086 108.692 595.086 108.164V92.9C595.086 92.372 595.254 91.94 595.59 91.604C595.926 91.244 596.358 91.064 596.886 91.064C597.39 91.064 597.81 91.244 598.146 91.604C598.506 91.94 598.686 92.372 598.686 92.9V95.024L598.002 95.42C598.17 94.892 598.446 94.352 598.83 93.8C599.214 93.248 599.694 92.744 600.27 92.288C600.87 91.832 601.53 91.46 602.25 91.172C602.97 90.884 603.75 90.74 604.59 90.74ZM637.708 90.74C639.388 90.74 640.876 91.16 642.172 92C643.492 92.84 644.536 93.992 645.304 95.456C646.072 96.896 646.456 98.576 646.456 100.496C646.456 102.416 646.072 104.12 645.304 105.608C644.536 107.072 643.504 108.224 642.208 109.064C640.912 109.904 639.448 110.324 637.816 110.324C636.904 110.324 636.04 110.18 635.224 109.892C634.408 109.604 633.688 109.232 633.064 108.776C632.44 108.296 631.924 107.792 631.516 107.264C631.132 106.736 630.892 106.244 630.796 105.788L631.768 105.32V115.364C631.768 115.892 631.588 116.324 631.228 116.66C630.892 117.02 630.472 117.2 629.968 117.2C629.44 117.2 629.008 117.02 628.672 116.66C628.336 116.324 628.168 115.892 628.168 115.364V92.828C628.168 92.324 628.336 91.892 628.672 91.532C629.008 91.172 629.44 90.992 629.968 90.992C630.472 90.992 630.892 91.172 631.228 91.532C631.588 91.892 631.768 92.324 631.768 92.828V95.312L631.192 94.988C631.264 94.532 631.492 94.064 631.876 93.584C632.26 93.08 632.74 92.612 633.316 92.18C633.916 91.748 634.588 91.4 635.332 91.136C636.1 90.872 636.892 90.74 637.708 90.74ZM637.312 94.052C636.16 94.052 635.152 94.34 634.288 94.916C633.448 95.468 632.788 96.224 632.308 97.184C631.828 98.144 631.588 99.248 631.588 100.496C631.588 101.72 631.828 102.836 632.308 103.844C632.788 104.828 633.448 105.608 634.288 106.184C635.152 106.736 636.16 107.012 637.312 107.012C638.44 107.012 639.424 106.736 640.264 106.184C641.104 105.608 641.764 104.828 642.244 103.844C642.748 102.836 643 101.72 643 100.496C643 99.272 642.748 98.18 642.244 97.22C641.764 96.236 641.104 95.468 640.264 94.916C639.424 94.34 638.44 94.052 637.312 94.052ZM668.672 100.532C668.672 102.452 668.252 104.156 667.412 105.644C666.572 107.108 665.432 108.26 663.992 109.1C662.552 109.94 660.932 110.36 659.132 110.36C657.332 110.36 655.712 109.94 654.272 109.1C652.832 108.26 651.68 107.108 650.816 105.644C649.976 104.156 649.556 102.452 649.556 100.532C649.556 98.588 649.976 96.884 650.816 95.42C651.68 93.932 652.832 92.768 654.272 91.928C655.712 91.064 657.332 90.632 659.132 90.632C660.932 90.632 662.552 91.064 663.992 91.928C665.432 92.768 666.572 93.932 667.412 95.42C668.252 96.884 668.672 98.588 668.672 100.532ZM665.072 100.532C665.072 99.212 664.808 98.072 664.28 97.112C663.752 96.128 663.032 95.36 662.12 94.808C661.232 94.232 660.236 93.944 659.132 93.944C658.028 93.944 657.02 94.232 656.108 94.808C655.196 95.36 654.476 96.128 653.948 97.112C653.42 98.072 653.156 99.212 653.156 100.532C653.156 101.804 653.42 102.932 653.948 103.916C654.476 104.9 655.196 105.668 656.108 106.22C657.02 106.772 658.028 107.048 659.132 107.048C660.236 107.048 661.232 106.772 662.12 106.22C663.032 105.668 663.752 104.9 664.28 103.916C664.808 102.932 665.072 101.804 665.072 100.532ZM694.815 90.884C695.271 90.884 695.667 91.064 696.003 91.424C696.363 91.76 696.543 92.204 696.543 92.756C696.543 92.876 696.531 92.996 696.507 93.116C696.483 93.236 696.447 93.344 696.399 93.44L690.891 108.848C690.747 109.256 690.495 109.568 690.135 109.784C689.775 109.976 689.403 110.048 689.019 110C688.323 109.952 687.807 109.568 687.471 108.848L683.403 98.048L684.231 98.12L680.487 108.848C680.151 109.568 679.635 109.952 678.939 110C678.579 110.048 678.207 109.976 677.823 109.784C677.463 109.568 677.211 109.256 677.067 108.848L671.523 93.44C671.427 93.224 671.379 92.996 671.379 92.756C671.379 92.252 671.535 91.82 671.847 91.46C672.183 91.076 672.627 90.884 673.179 90.884C673.563 90.884 673.899 90.98 674.187 91.172C674.499 91.364 674.715 91.652 674.835 92.036L679.443 105.032L678.615 104.96L682.359 95.132C682.671 94.388 683.223 94.016 684.015 94.016C684.447 94.016 684.783 94.112 685.023 94.304C685.263 94.496 685.455 94.772 685.599 95.132L689.415 104.996L688.443 105.104L693.087 92.036C693.327 91.268 693.903 90.884 694.815 90.884ZM709.024 110.36C707.032 110.36 705.304 109.952 703.84 109.136C702.376 108.296 701.236 107.156 700.42 105.716C699.628 104.252 699.232 102.584 699.232 100.712C699.232 98.6 699.652 96.8 700.492 95.312C701.356 93.8 702.472 92.648 703.84 91.856C705.208 91.04 706.66 90.632 708.196 90.632C709.372 90.632 710.488 90.872 711.544 91.352C712.6 91.808 713.536 92.456 714.352 93.296C715.192 94.112 715.852 95.084 716.332 96.212C716.812 97.316 717.064 98.528 717.088 99.848C717.064 100.328 716.872 100.724 716.512 101.036C716.152 101.348 715.732 101.504 715.252 101.504H701.248L700.384 98.444H713.92L713.236 99.092V98.192C713.188 97.352 712.912 96.62 712.408 95.996C711.904 95.348 711.28 94.856 710.536 94.52C709.792 94.16 709.012 93.98 708.196 93.98C707.476 93.98 706.78 94.1 706.108 94.34C705.46 94.556 704.872 94.916 704.344 95.42C703.84 95.924 703.432 96.596 703.12 97.436C702.832 98.252 702.688 99.272 702.688 100.496C702.688 101.816 702.964 102.968 703.516 103.952C704.068 104.936 704.812 105.704 705.748 106.256C706.684 106.784 707.716 107.048 708.844 107.048C709.732 107.048 710.464 106.964 711.04 106.796C711.616 106.604 712.096 106.376 712.48 106.112C712.864 105.848 713.2 105.596 713.488 105.356C713.848 105.14 714.208 105.032 714.568 105.032C715 105.032 715.36 105.188 715.648 105.5C715.936 105.788 716.08 106.136 716.08 106.544C716.08 107.072 715.816 107.552 715.288 107.984C714.64 108.608 713.74 109.16 712.588 109.64C711.46 110.12 710.272 110.36 709.024 110.36ZM722.957 110C722.429 110 721.997 109.832 721.661 109.496C721.325 109.136 721.157 108.692 721.157 108.164V92.9C721.157 92.372 721.325 91.94 721.661 91.604C721.997 91.244 722.429 91.064 722.957 91.064C723.461 91.064 723.881 91.244 724.217 91.604C724.577 91.94 724.757 92.372 724.757 92.9V96.932L724.397 95.384C724.589 94.712 724.877 94.088 725.261 93.512C725.669 92.936 726.149 92.432 726.701 92C727.253 91.568 727.865 91.232 728.537 90.992C729.233 90.752 729.953 90.632 730.697 90.632C731.321 90.632 731.861 90.8 732.317 91.136C732.773 91.472 733.001 91.892 733.001 92.396C733.001 93.044 732.833 93.524 732.497 93.836C732.161 94.124 731.789 94.268 731.381 94.268C731.021 94.268 730.673 94.196 730.337 94.052C730.001 93.884 729.605 93.8 729.149 93.8C728.645 93.8 728.129 93.932 727.601 94.196C727.073 94.46 726.593 94.856 726.161 95.384C725.729 95.888 725.381 96.488 725.117 97.184C724.877 97.88 724.757 98.66 724.757 99.524V108.164C724.757 108.692 724.577 109.136 724.217 109.496C723.881 109.832 723.461 110 722.957 110ZM762.351 84.692C762.807 84.692 763.215 84.872 763.575 85.232C763.959 85.568 764.151 86 764.151 86.528C764.151 86.72 764.115 86.912 764.043 87.104C763.995 87.272 763.911 87.452 763.791 87.644L755.547 99.308L756.123 97.184V108.164C756.123 108.692 755.943 109.136 755.583 109.496C755.223 109.832 754.815 110 754.359 110C753.855 110 753.423 109.832 753.063 109.496C752.727 109.136 752.559 108.692 752.559 108.164V97.472L752.811 98.516L744.855 87.896C744.663 87.632 744.531 87.392 744.459 87.176C744.387 86.936 744.351 86.708 744.351 86.492C744.351 85.964 744.555 85.532 744.963 85.196C745.395 84.86 745.827 84.692 746.259 84.692C746.835 84.692 747.327 84.968 747.735 85.52L754.935 95.384L754.071 95.276L760.839 85.556C761.247 84.98 761.751 84.692 762.351 84.692ZM783.914 100.532C783.914 102.452 783.494 104.156 782.654 105.644C781.814 107.108 780.674 108.26 779.234 109.1C777.794 109.94 776.174 110.36 774.374 110.36C772.574 110.36 770.954 109.94 769.514 109.1C768.074 108.26 766.922 107.108 766.058 105.644C765.218 104.156 764.798 102.452 764.798 100.532C764.798 98.588 765.218 96.884 766.058 95.42C766.922 93.932 768.074 92.768 769.514 91.928C770.954 91.064 772.574 90.632 774.374 90.632C776.174 90.632 777.794 91.064 779.234 91.928C780.674 92.768 781.814 93.932 782.654 95.42C783.494 96.884 783.914 98.588 783.914 100.532ZM780.314 100.532C780.314 99.212 780.05 98.072 779.522 97.112C778.994 96.128 778.274 95.36 777.362 94.808C776.474 94.232 775.478 93.944 774.374 93.944C773.27 93.944 772.262 94.232 771.35 94.808C770.438 95.36 769.718 96.128 769.19 97.112C768.662 98.072 768.398 99.212 768.398 100.532C768.398 101.804 768.662 102.932 769.19 103.916C769.718 104.9 770.438 105.668 771.35 106.22C772.262 106.772 773.27 107.048 774.374 107.048C775.478 107.048 776.474 106.772 777.362 106.22C778.274 105.668 778.994 104.9 779.522 103.916C780.05 102.932 780.314 101.804 780.314 100.532ZM802.101 91.064C802.605 91.064 803.025 91.244 803.361 91.604C803.721 91.94 803.901 92.372 803.901 92.9V102.368C803.901 104.864 803.205 106.82 801.813 108.236C800.421 109.628 798.453 110.324 795.909 110.324C793.389 110.324 791.433 109.628 790.041 108.236C788.673 106.82 787.989 104.864 787.989 102.368V92.9C787.989 92.372 788.157 91.94 788.493 91.604C788.829 91.244 789.261 91.064 789.789 91.064C790.293 91.064 790.713 91.244 791.049 91.604C791.409 91.94 791.589 92.372 791.589 92.9V102.368C791.589 103.928 791.949 105.092 792.669 105.86C793.413 106.628 794.493 107.012 795.909 107.012C797.349 107.012 798.441 106.628 799.185 105.86C799.929 105.092 800.301 103.928 800.301 102.368V92.9C800.301 92.372 800.469 91.94 800.805 91.604C801.141 91.244 801.573 91.064 802.101 91.064ZM810.707 110C810.179 110 809.747 109.832 809.411 109.496C809.075 109.136 808.907 108.692 808.907 108.164V92.9C808.907 92.372 809.075 91.94 809.411 91.604C809.747 91.244 810.179 91.064 810.707 91.064C811.211 91.064 811.631 91.244 811.967 91.604C812.327 91.94 812.507 92.372 812.507 92.9V96.932L812.147 95.384C812.339 94.712 812.627 94.088 813.011 93.512C813.419 92.936 813.899 92.432 814.451 92C815.003 91.568 815.615 91.232 816.287 90.992C816.983 90.752 817.703 90.632 818.447 90.632C819.071 90.632 819.611 90.8 820.067 91.136C820.523 91.472 820.751 91.892 820.751 92.396C820.751 93.044 820.583 93.524 820.247 93.836C819.911 94.124 819.539 94.268 819.131 94.268C818.771 94.268 818.423 94.196 818.087 94.052C817.751 93.884 817.355 93.8 816.899 93.8C816.395 93.8 815.879 93.932 815.351 94.196C814.823 94.46 814.343 94.856 813.911 95.384C813.479 95.888 813.131 96.488 812.867 97.184C812.627 97.88 812.507 98.66 812.507 99.524V108.164C812.507 108.692 812.327 109.136 811.967 109.496C811.631 109.832 811.211 110 810.707 110ZM852.261 86.24C852.789 86.504 853.089 86.912 853.161 87.464C853.257 88.016 853.125 88.52 852.765 88.976C852.501 89.336 852.153 89.54 851.721 89.588C851.313 89.636 850.905 89.552 850.497 89.336C849.801 88.976 849.069 88.688 848.301 88.472C847.533 88.256 846.717 88.148 845.853 88.148C844.485 88.148 843.249 88.376 842.145 88.832C841.065 89.264 840.129 89.9 839.337 90.74C838.545 91.556 837.933 92.528 837.501 93.656C837.093 94.784 836.889 96.032 836.889 97.4C836.889 98.912 837.117 100.256 837.573 101.432C838.029 102.584 838.653 103.568 839.445 104.384C840.261 105.176 841.209 105.776 842.289 106.184C843.393 106.568 844.581 106.76 845.853 106.76C846.669 106.76 847.461 106.664 848.229 106.472C849.021 106.28 849.765 105.992 850.461 105.608C850.893 105.392 851.313 105.32 851.721 105.392C852.153 105.44 852.501 105.644 852.765 106.004C853.173 106.508 853.317 107.024 853.197 107.552C853.101 108.056 852.801 108.44 852.297 108.704C851.697 109.04 851.037 109.328 850.317 109.568C849.597 109.808 848.865 110 848.121 110.144C847.377 110.288 846.621 110.36 845.853 110.36C844.125 110.36 842.493 110.072 840.957 109.496C839.421 108.92 838.053 108.08 836.853 106.976C835.653 105.872 834.705 104.516 834.009 102.908C833.337 101.3 833.001 99.464 833.001 97.4C833.001 95.552 833.313 93.848 833.937 92.288C834.585 90.704 835.485 89.348 836.637 88.22C837.813 87.068 839.181 86.18 840.741 85.556C842.301 84.908 844.005 84.584 845.853 84.584C847.005 84.584 848.121 84.728 849.201 85.016C850.305 85.304 851.325 85.712 852.261 86.24ZM866.4 90.74C868.056 90.74 869.34 91.1 870.252 91.82C871.164 92.516 871.8 93.464 872.16 94.664C872.544 95.864 872.736 97.184 872.736 98.624V108.164C872.736 108.692 872.556 109.136 872.196 109.496C871.86 109.832 871.44 110 870.936 110C870.408 110 869.976 109.832 869.64 109.496C869.304 109.136 869.136 108.692 869.136 108.164V98.624C869.136 97.784 869.016 97.016 868.776 96.32C868.56 95.624 868.164 95.072 867.588 94.664C867.036 94.256 866.256 94.052 865.248 94.052C864.312 94.052 863.472 94.256 862.728 94.664C862.008 95.072 861.444 95.624 861.036 96.32C860.652 97.016 860.46 97.784 860.46 98.624V108.164C860.46 108.692 860.28 109.136 859.92 109.496C859.584 109.832 859.164 110 858.66 110C858.132 110 857.7 109.832 857.364 109.496C857.028 109.136 856.86 108.692 856.86 108.164V85.196C856.86 84.668 857.028 84.236 857.364 83.9C857.7 83.54 858.132 83.36 858.66 83.36C859.164 83.36 859.584 83.54 859.92 83.9C860.28 84.236 860.46 84.668 860.46 85.196V95.024L859.812 95.384C859.98 94.856 860.256 94.316 860.64 93.764C861.048 93.212 861.54 92.708 862.116 92.252C862.716 91.796 863.376 91.436 864.096 91.172C864.816 90.884 865.584 90.74 866.4 90.74ZM881.127 108.164C881.127 108.692 880.959 109.136 880.623 109.496C880.287 109.832 879.855 110 879.327 110C878.823 110 878.391 109.832 878.031 109.496C877.695 109.136 877.527 108.692 877.527 108.164V92.756C877.527 92.228 877.695 91.796 878.031 91.46C878.391 91.1 878.823 90.92 879.327 90.92C879.855 90.92 880.287 91.1 880.623 91.46C880.959 91.796 881.127 92.228 881.127 92.756V108.164ZM879.291 88.544C878.595 88.544 878.091 88.424 877.779 88.184C877.467 87.92 877.311 87.488 877.311 86.888V86.312C877.311 85.712 877.479 85.292 877.815 85.052C878.151 84.812 878.655 84.692 879.327 84.692C880.047 84.692 880.563 84.824 880.875 85.088C881.187 85.328 881.343 85.736 881.343 86.312V86.888C881.343 87.512 881.175 87.944 880.839 88.184C880.527 88.424 880.011 88.544 879.291 88.544ZM889.857 108.164C889.857 108.692 889.677 109.136 889.317 109.496C888.981 109.832 888.561 110 888.057 110C887.553 110 887.121 109.832 886.761 109.496C886.425 109.136 886.257 108.692 886.257 108.164V85.196C886.257 84.668 886.437 84.236 886.797 83.9C887.157 83.54 887.589 83.36 888.093 83.36C888.621 83.36 889.041 83.54 889.353 83.9C889.689 84.236 889.857 84.668 889.857 85.196V108.164ZM910.38 83.36C910.908 83.36 911.34 83.528 911.676 83.864C912.012 84.2 912.18 84.644 912.18 85.196V108.164C912.18 108.692 912.012 109.136 911.676 109.496C911.34 109.832 910.908 110 910.38 110C909.876 110 909.444 109.832 909.084 109.496C908.748 109.136 908.58 108.692 908.58 108.164V105.572L909.336 105.608C909.336 106.04 909.156 106.532 908.796 107.084C908.46 107.612 907.992 108.128 907.392 108.632C906.792 109.136 906.084 109.556 905.268 109.892C904.452 110.204 903.576 110.36 902.64 110.36C900.984 110.36 899.496 109.94 898.176 109.1C896.856 108.236 895.812 107.072 895.044 105.608C894.276 104.12 893.892 102.416 893.892 100.496C893.892 98.576 894.276 96.884 895.044 95.42C895.812 93.932 896.844 92.768 898.14 91.928C899.46 91.064 900.924 90.632 902.532 90.632C903.54 90.632 904.476 90.8 905.34 91.136C906.228 91.472 906.996 91.904 907.644 92.432C908.292 92.96 908.796 93.524 909.156 94.124C909.516 94.7 909.696 95.252 909.696 95.78L908.58 95.888V85.196C908.58 84.668 908.748 84.236 909.084 83.9C909.444 83.54 909.876 83.36 910.38 83.36ZM903.036 107.048C904.188 107.048 905.184 106.76 906.024 106.184C906.888 105.608 907.56 104.828 908.04 103.844C908.52 102.86 908.76 101.744 908.76 100.496C908.76 99.248 908.52 98.132 908.04 97.148C907.56 96.164 906.888 95.384 906.024 94.808C905.16 94.232 904.164 93.944 903.036 93.944C901.932 93.944 900.948 94.232 900.084 94.808C899.244 95.384 898.572 96.164 898.068 97.148C897.588 98.132 897.348 99.248 897.348 100.496C897.348 101.744 897.588 102.86 898.068 103.844C898.572 104.828 899.244 105.608 900.084 106.184C900.948 106.76 901.932 107.048 903.036 107.048ZM916.755 86.276C916.851 85.292 917.379 84.8 918.339 84.8H919.491C920.043 84.8 920.415 84.956 920.607 85.268C920.823 85.58 920.847 85.988 920.679 86.492L918.267 94.124C918.027 94.82 917.571 95.168 916.899 95.168C916.251 95.168 915.963 94.736 916.035 93.872L916.755 86.276ZM923.525 107.048C923.309 106.712 923.213 106.328 923.237 105.896C923.261 105.44 923.513 105.056 923.993 104.744C924.329 104.528 924.677 104.444 925.037 104.492C925.421 104.516 925.781 104.696 926.117 105.032C926.789 105.776 927.533 106.364 928.349 106.796C929.189 107.228 930.197 107.444 931.373 107.444C931.853 107.42 932.345 107.348 932.849 107.228C933.353 107.084 933.785 106.844 934.145 106.508C934.505 106.148 934.685 105.632 934.685 104.96C934.685 104.36 934.493 103.88 934.109 103.52C933.725 103.16 933.221 102.872 932.597 102.656C931.973 102.416 931.301 102.2 930.581 102.008C929.813 101.792 929.033 101.552 928.241 101.288C927.473 101.024 926.777 100.688 926.153 100.28C925.529 99.848 925.013 99.296 924.605 98.624C924.221 97.952 924.029 97.124 924.029 96.14C924.029 95.012 924.341 94.04 924.965 93.224C925.613 92.408 926.441 91.772 927.449 91.316C928.481 90.86 929.597 90.632 930.797 90.632C931.493 90.632 932.225 90.728 932.993 90.92C933.761 91.088 934.505 91.364 935.225 91.748C935.945 92.132 936.569 92.636 937.097 93.26C937.337 93.572 937.469 93.944 937.493 94.376C937.541 94.808 937.349 95.192 936.917 95.528C936.629 95.768 936.281 95.876 935.873 95.852C935.465 95.828 935.129 95.696 934.865 95.456C934.409 94.88 933.821 94.436 933.101 94.124C932.381 93.788 931.565 93.62 930.653 93.62C930.197 93.62 929.717 93.692 929.213 93.836C928.733 93.956 928.325 94.184 927.989 94.52C927.653 94.856 927.485 95.348 927.485 95.996C927.485 96.596 927.677 97.076 928.061 97.436C928.469 97.796 928.997 98.096 929.645 98.336C930.293 98.576 931.001 98.792 931.769 98.984C932.513 99.176 933.245 99.404 933.965 99.668C934.709 99.932 935.369 100.28 935.945 100.712C936.545 101.12 937.025 101.66 937.385 102.332C937.769 102.98 937.961 103.808 937.961 104.816C937.961 105.992 937.613 107 936.917 107.84C936.245 108.656 935.381 109.28 934.325 109.712C933.293 110.144 932.201 110.36 931.049 110.36C929.681 110.36 928.313 110.12 926.945 109.64C925.601 109.136 924.461 108.272 923.525 107.048ZM954.156 110C953.58 110 953.112 109.832 952.752 109.496C952.416 109.136 952.248 108.692 952.248 108.164V86.636C952.248 86.108 952.428 85.676 952.788 85.34C953.148 84.98 953.58 84.8 954.084 84.8H966.252C966.78 84.8 967.212 84.968 967.548 85.304C967.908 85.64 968.088 86.06 968.088 86.564C968.088 87.02 967.908 87.416 967.548 87.752C967.212 88.088 966.78 88.256 966.252 88.256H955.74L955.992 87.896V95.924L955.776 95.492H964.632C965.16 95.492 965.592 95.66 965.928 95.996C966.288 96.332 966.468 96.752 966.468 97.256C966.468 97.712 966.288 98.108 965.928 98.444C965.592 98.78 965.16 98.948 964.632 98.948H955.704L955.992 98.66V108.164C955.992 108.692 955.812 109.136 955.452 109.496C955.092 109.832 954.66 110 954.156 110ZM985.722 91.064C986.226 91.064 986.646 91.244 986.982 91.604C987.342 91.94 987.522 92.372 987.522 92.9V102.368C987.522 104.864 986.826 106.82 985.434 108.236C984.042 109.628 982.074 110.324 979.53 110.324C977.01 110.324 975.054 109.628 973.662 108.236C972.294 106.82 971.61 104.864 971.61 102.368V92.9C971.61 92.372 971.778 91.94 972.114 91.604C972.45 91.244 972.882 91.064 973.41 91.064C973.914 91.064 974.334 91.244 974.67 91.604C975.03 91.94 975.21 92.372 975.21 92.9V102.368C975.21 103.928 975.57 105.092 976.29 105.86C977.034 106.628 978.114 107.012 979.53 107.012C980.97 107.012 982.062 106.628 982.806 105.86C983.55 105.092 983.922 103.928 983.922 102.368V92.9C983.922 92.372 984.09 91.94 984.426 91.604C984.762 91.244 985.194 91.064 985.722 91.064ZM992.276 91.28H1000.74C1001.22 91.28 1001.61 91.448 1001.92 91.784C1002.26 92.096 1002.43 92.492 1002.43 92.972C1002.43 93.428 1002.26 93.812 1001.92 94.124C1001.61 94.436 1001.22 94.592 1000.74 94.592H992.276C991.796 94.592 991.388 94.436 991.052 94.124C990.74 93.788 990.584 93.392 990.584 92.936C990.584 92.456 990.74 92.06 991.052 91.748C991.388 91.436 991.796 91.28 992.276 91.28ZM996.056 86.6C996.584 86.6 997.016 86.78 997.352 87.14C997.688 87.476 997.856 87.908 997.856 88.436V105.14C997.856 105.572 997.928 105.92 998.072 106.184C998.216 106.448 998.408 106.628 998.648 106.724C998.912 106.82 999.176 106.868 999.44 106.868C999.704 106.868 999.932 106.82 1000.12 106.724C1000.34 106.628 1000.59 106.58 1000.88 106.58C1001.17 106.58 1001.43 106.712 1001.67 106.976C1001.91 107.24 1002.03 107.6 1002.03 108.056C1002.03 108.632 1001.72 109.1 1001.1 109.46C1000.47 109.82 999.8 110 999.08 110C998.672 110 998.192 109.964 997.64 109.892C997.088 109.82 996.548 109.64 996.02 109.352C995.516 109.064 995.096 108.608 994.76 107.984C994.424 107.336 994.256 106.436 994.256 105.284V88.436C994.256 87.908 994.424 87.476 994.76 87.14C995.12 86.78 995.552 86.6 996.056 86.6ZM1020.53 91.064C1021.03 91.064 1021.45 91.244 1021.79 91.604C1022.15 91.94 1022.33 92.372 1022.33 92.9V102.368C1022.33 104.864 1021.63 106.82 1020.24 108.236C1018.85 109.628 1016.88 110.324 1014.33 110.324C1011.81 110.324 1009.86 109.628 1008.47 108.236C1007.1 106.82 1006.41 104.864 1006.41 102.368V92.9C1006.41 92.372 1006.58 91.94 1006.92 91.604C1007.25 91.244 1007.69 91.064 1008.21 91.064C1008.72 91.064 1009.14 91.244 1009.47 91.604C1009.83 91.94 1010.01 92.372 1010.01 92.9V102.368C1010.01 103.928 1010.37 105.092 1011.09 105.86C1011.84 106.628 1012.92 107.012 1014.33 107.012C1015.77 107.012 1016.87 106.628 1017.61 105.86C1018.35 105.092 1018.73 103.928 1018.73 102.368V92.9C1018.73 92.372 1018.89 91.94 1019.23 91.604C1019.57 91.244 1020 91.064 1020.53 91.064ZM1029.13 110C1028.6 110 1028.17 109.832 1027.84 109.496C1027.5 109.136 1027.33 108.692 1027.33 108.164V92.9C1027.33 92.372 1027.5 91.94 1027.84 91.604C1028.17 91.244 1028.6 91.064 1029.13 91.064C1029.64 91.064 1030.06 91.244 1030.39 91.604C1030.75 91.94 1030.93 92.372 1030.93 92.9V96.932L1030.57 95.384C1030.76 94.712 1031.05 94.088 1031.44 93.512C1031.84 92.936 1032.32 92.432 1032.88 92C1033.43 91.568 1034.04 91.232 1034.71 90.992C1035.41 90.752 1036.13 90.632 1036.87 90.632C1037.5 90.632 1038.04 90.8 1038.49 91.136C1038.95 91.472 1039.18 91.892 1039.18 92.396C1039.18 93.044 1039.01 93.524 1038.67 93.836C1038.34 94.124 1037.96 94.268 1037.56 94.268C1037.2 94.268 1036.85 94.196 1036.51 94.052C1036.18 93.884 1035.78 93.8 1035.32 93.8C1034.82 93.8 1034.3 93.932 1033.78 94.196C1033.25 94.46 1032.77 94.856 1032.34 95.384C1031.9 95.888 1031.56 96.488 1031.29 97.184C1031.05 97.88 1030.93 98.66 1030.93 99.524V108.164C1030.93 108.692 1030.75 109.136 1030.39 109.496C1030.06 109.832 1029.64 110 1029.13 110ZM1050.39 110.36C1048.4 110.36 1046.67 109.952 1045.21 109.136C1043.74 108.296 1042.6 107.156 1041.79 105.716C1040.99 104.252 1040.6 102.584 1040.6 100.712C1040.6 98.6 1041.02 96.8 1041.86 95.312C1042.72 93.8 1043.84 92.648 1045.21 91.856C1046.57 91.04 1048.03 90.632 1049.56 90.632C1050.74 90.632 1051.85 90.872 1052.91 91.352C1053.97 91.808 1054.9 92.456 1055.72 93.296C1056.56 94.112 1057.22 95.084 1057.7 96.212C1058.18 97.316 1058.43 98.528 1058.45 99.848C1058.43 100.328 1058.24 100.724 1057.88 101.036C1057.52 101.348 1057.1 101.504 1056.62 101.504H1042.61L1041.75 98.444H1055.29L1054.6 99.092V98.192C1054.55 97.352 1054.28 96.62 1053.77 95.996C1053.27 95.348 1052.65 94.856 1051.9 94.52C1051.16 94.16 1050.38 93.98 1049.56 93.98C1048.84 93.98 1048.15 94.1 1047.47 94.34C1046.83 94.556 1046.24 94.916 1045.71 95.42C1045.21 95.924 1044.8 96.596 1044.49 97.436C1044.2 98.252 1044.05 99.272 1044.05 100.496C1044.05 101.816 1044.33 102.968 1044.88 103.952C1045.43 104.936 1046.18 105.704 1047.11 106.256C1048.05 106.784 1049.08 107.048 1050.21 107.048C1051.1 107.048 1051.83 106.964 1052.41 106.796C1052.98 106.604 1053.46 106.376 1053.85 106.112C1054.23 105.848 1054.57 105.596 1054.85 105.356C1055.21 105.14 1055.57 105.032 1055.93 105.032C1056.37 105.032 1056.73 105.188 1057.01 105.5C1057.3 105.788 1057.45 106.136 1057.45 106.544C1057.45 107.072 1057.18 107.552 1056.65 107.984C1056.01 108.608 1055.11 109.16 1053.95 109.64C1052.83 110.12 1051.64 110.36 1050.39 110.36ZM1094.61 90.884C1095.07 90.884 1095.46 91.064 1095.8 91.424C1096.16 91.76 1096.34 92.204 1096.34 92.756C1096.34 92.876 1096.33 92.996 1096.3 93.116C1096.28 93.236 1096.24 93.344 1096.2 93.44L1090.69 108.848C1090.54 109.256 1090.29 109.568 1089.93 109.784C1089.57 109.976 1089.2 110.048 1088.82 110C1088.12 109.952 1087.6 109.568 1087.27 108.848L1083.2 98.048L1084.03 98.12L1080.28 108.848C1079.95 109.568 1079.43 109.952 1078.74 110C1078.38 110.048 1078 109.976 1077.62 109.784C1077.26 109.568 1077.01 109.256 1076.86 108.848L1071.32 93.44C1071.22 93.224 1071.18 92.996 1071.18 92.756C1071.18 92.252 1071.33 91.82 1071.64 91.46C1071.98 91.076 1072.42 90.884 1072.98 90.884C1073.36 90.884 1073.7 90.98 1073.98 91.172C1074.3 91.364 1074.51 91.652 1074.63 92.036L1079.24 105.032L1078.41 104.96L1082.16 95.132C1082.47 94.388 1083.02 94.016 1083.81 94.016C1084.24 94.016 1084.58 94.112 1084.82 94.304C1085.06 94.496 1085.25 94.772 1085.4 95.132L1089.21 104.996L1088.24 105.104L1092.88 92.036C1093.12 91.268 1093.7 90.884 1094.61 90.884ZM1103.38 108.164C1103.38 108.692 1103.22 109.136 1102.88 109.496C1102.54 109.832 1102.11 110 1101.58 110C1101.08 110 1100.65 109.832 1100.29 109.496C1099.95 109.136 1099.78 108.692 1099.78 108.164V92.756C1099.78 92.228 1099.95 91.796 1100.29 91.46C1100.65 91.1 1101.08 90.92 1101.58 90.92C1102.11 90.92 1102.54 91.1 1102.88 91.46C1103.22 91.796 1103.38 92.228 1103.38 92.756V108.164ZM1101.55 88.544C1100.85 88.544 1100.35 88.424 1100.04 88.184C1099.72 87.92 1099.57 87.488 1099.57 86.888V86.312C1099.57 85.712 1099.74 85.292 1100.07 85.052C1100.41 84.812 1100.91 84.692 1101.58 84.692C1102.3 84.692 1102.82 84.824 1103.13 85.088C1103.44 85.328 1103.6 85.736 1103.6 86.312V86.888C1103.6 87.512 1103.43 87.944 1103.1 88.184C1102.78 88.424 1102.27 88.544 1101.55 88.544ZM1107.98 91.28H1116.44C1116.92 91.28 1117.31 91.448 1117.62 91.784C1117.96 92.096 1118.13 92.492 1118.13 92.972C1118.13 93.428 1117.96 93.812 1117.62 94.124C1117.31 94.436 1116.92 94.592 1116.44 94.592H1107.98C1107.5 94.592 1107.09 94.436 1106.75 94.124C1106.44 93.788 1106.28 93.392 1106.28 92.936C1106.28 92.456 1106.44 92.06 1106.75 91.748C1107.09 91.436 1107.5 91.28 1107.98 91.28ZM1111.76 86.6C1112.28 86.6 1112.72 86.78 1113.05 87.14C1113.39 87.476 1113.56 87.908 1113.56 88.436V105.14C1113.56 105.572 1113.63 105.92 1113.77 106.184C1113.92 106.448 1114.11 106.628 1114.35 106.724C1114.61 106.82 1114.88 106.868 1115.14 106.868C1115.4 106.868 1115.63 106.82 1115.82 106.724C1116.04 106.628 1116.29 106.58 1116.58 106.58C1116.87 106.58 1117.13 106.712 1117.37 106.976C1117.61 107.24 1117.73 107.6 1117.73 108.056C1117.73 108.632 1117.42 109.1 1116.8 109.46C1116.17 109.82 1115.5 110 1114.78 110C1114.37 110 1113.89 109.964 1113.34 109.892C1112.79 109.82 1112.25 109.64 1111.72 109.352C1111.22 109.064 1110.8 108.608 1110.46 107.984C1110.12 107.336 1109.96 106.436 1109.96 105.284V88.436C1109.96 87.908 1110.12 87.476 1110.46 87.14C1110.82 86.78 1111.25 86.6 1111.76 86.6ZM1131.65 90.74C1133.31 90.74 1134.59 91.1 1135.51 91.82C1136.42 92.516 1137.05 93.464 1137.41 94.664C1137.8 95.864 1137.99 97.184 1137.99 98.624V108.164C1137.99 108.692 1137.81 109.136 1137.45 109.496C1137.11 109.832 1136.69 110 1136.19 110C1135.66 110 1135.23 109.832 1134.89 109.496C1134.56 109.136 1134.39 108.692 1134.39 108.164V98.624C1134.39 97.784 1134.27 97.016 1134.03 96.32C1133.81 95.624 1133.42 95.072 1132.84 94.664C1132.29 94.256 1131.51 94.052 1130.5 94.052C1129.57 94.052 1128.73 94.256 1127.98 94.664C1127.26 95.072 1126.7 95.624 1126.29 96.32C1125.91 97.016 1125.71 97.784 1125.71 98.624V108.164C1125.71 108.692 1125.53 109.136 1125.17 109.496C1124.84 109.832 1124.42 110 1123.91 110C1123.39 110 1122.95 109.832 1122.62 109.496C1122.28 109.136 1122.11 108.692 1122.11 108.164V85.196C1122.11 84.668 1122.28 84.236 1122.62 83.9C1122.95 83.54 1123.39 83.36 1123.91 83.36C1124.42 83.36 1124.84 83.54 1125.17 83.9C1125.53 84.236 1125.71 84.668 1125.71 85.196V95.024L1125.07 95.384C1125.23 94.856 1125.51 94.316 1125.89 93.764C1126.3 93.212 1126.79 92.708 1127.37 92.252C1127.97 91.796 1128.63 91.436 1129.35 91.172C1130.07 90.884 1130.84 90.74 1131.65 90.74ZM1172.31 84.8C1172.79 84.8 1173.18 84.968 1173.46 85.304C1173.78 85.616 1173.93 86.012 1173.93 86.492V108.164C1173.93 108.692 1173.75 109.136 1173.39 109.496C1173.06 109.832 1172.62 110 1172.1 110C1171.86 110 1171.59 109.952 1171.3 109.856C1171.04 109.76 1170.84 109.628 1170.69 109.46L1155.9 90.272L1156.72 89.804V108.344C1156.72 108.8 1156.57 109.196 1156.26 109.532C1155.94 109.844 1155.55 110 1155.07 110C1154.56 110 1154.16 109.844 1153.84 109.532C1153.56 109.196 1153.41 108.8 1153.41 108.344V86.636C1153.41 86.084 1153.59 85.64 1153.95 85.304C1154.31 84.968 1154.74 84.8 1155.25 84.8C1155.51 84.8 1155.79 84.86 1156.08 84.98C1156.39 85.076 1156.62 85.232 1156.76 85.448L1171.2 104.24L1170.66 104.744V86.492C1170.66 86.012 1170.81 85.616 1171.12 85.304C1171.44 84.968 1171.83 84.8 1172.31 84.8ZM1182.8 108.164C1182.8 108.692 1182.63 109.136 1182.3 109.496C1181.96 109.832 1181.53 110 1181 110C1180.5 110 1180.07 109.832 1179.71 109.496C1179.37 109.136 1179.2 108.692 1179.2 108.164V92.756C1179.2 92.228 1179.37 91.796 1179.71 91.46C1180.07 91.1 1180.5 90.92 1181 90.92C1181.53 90.92 1181.96 91.1 1182.3 91.46C1182.63 91.796 1182.8 92.228 1182.8 92.756V108.164ZM1180.97 88.544C1180.27 88.544 1179.77 88.424 1179.45 88.184C1179.14 87.92 1178.99 87.488 1178.99 86.888V86.312C1178.99 85.712 1179.15 85.292 1179.49 85.052C1179.83 84.812 1180.33 84.692 1181 84.692C1181.72 84.692 1182.24 84.824 1182.55 85.088C1182.86 85.328 1183.02 85.736 1183.02 86.312V86.888C1183.02 87.512 1182.85 87.944 1182.51 88.184C1182.2 88.424 1181.69 88.544 1180.97 88.544ZM1197.4 90.632C1199.11 90.632 1200.43 90.992 1201.36 91.712C1202.3 92.408 1202.95 93.356 1203.3 94.556C1203.69 95.732 1203.88 97.052 1203.88 98.516V108.164C1203.88 108.692 1203.7 109.136 1203.34 109.496C1203.01 109.832 1202.59 110 1202.08 110C1201.55 110 1201.12 109.832 1200.79 109.496C1200.45 109.136 1200.28 108.692 1200.28 108.164V98.552C1200.28 97.688 1200.16 96.92 1199.92 96.248C1199.68 95.552 1199.26 95 1198.66 94.592C1198.09 94.16 1197.27 93.944 1196.21 93.944C1195.23 93.944 1194.37 94.16 1193.62 94.592C1192.88 95 1192.29 95.552 1191.86 96.248C1191.45 96.92 1191.25 97.688 1191.25 98.552V108.164C1191.25 108.692 1191.07 109.136 1190.71 109.496C1190.37 109.832 1189.95 110 1189.45 110C1188.92 110 1188.49 109.832 1188.15 109.496C1187.81 109.136 1187.65 108.692 1187.65 108.164V92.9C1187.65 92.372 1187.81 91.94 1188.15 91.604C1188.49 91.244 1188.92 91.064 1189.45 91.064C1189.95 91.064 1190.37 91.244 1190.71 91.604C1191.07 91.94 1191.25 92.372 1191.25 92.9V94.916L1190.6 95.276C1190.77 94.748 1191.05 94.22 1191.46 93.692C1191.89 93.14 1192.41 92.636 1193.01 92.18C1193.61 91.7 1194.28 91.328 1195.03 91.064C1195.77 90.776 1196.56 90.632 1197.4 90.632ZM1212.98 110.792C1212.98 112.088 1212.72 113.204 1212.19 114.14C1211.66 115.076 1210.97 115.796 1210.1 116.3C1209.24 116.804 1208.32 117.056 1207.33 117.056C1206.83 117.056 1206.42 116.888 1206.11 116.552C1205.8 116.24 1205.64 115.856 1205.64 115.4V115.076C1205.64 114.644 1205.8 114.296 1206.11 114.032C1206.4 113.768 1206.76 113.564 1207.19 113.42C1207.74 113.252 1208.17 113 1208.48 112.664C1208.82 112.352 1209.05 111.944 1209.17 111.44C1209.31 110.96 1209.38 110.432 1209.38 109.856V92.864C1209.38 92.36 1209.55 91.94 1209.89 91.604C1210.22 91.244 1210.66 91.064 1211.18 91.064C1211.71 91.064 1212.14 91.244 1212.48 91.604C1212.82 91.94 1212.98 92.36 1212.98 92.864V110.792ZM1211.11 88.544C1210.42 88.544 1209.91 88.424 1209.6 88.184C1209.29 87.92 1209.13 87.488 1209.13 86.888V86.312C1209.13 85.712 1209.3 85.292 1209.64 85.052C1209.97 84.812 1210.48 84.692 1211.15 84.692C1211.87 84.692 1212.38 84.824 1212.7 85.088C1213.01 85.328 1213.16 85.736 1213.16 86.312V86.888C1213.16 87.512 1213 87.944 1212.66 88.184C1212.35 88.424 1211.83 88.544 1211.11 88.544ZM1234.24 90.776C1234.77 90.776 1235.2 90.956 1235.54 91.316C1235.87 91.652 1236.04 92.084 1236.04 92.612V108.164C1236.04 108.692 1235.87 109.136 1235.54 109.496C1235.2 109.832 1234.77 110 1234.24 110C1233.74 110 1233.3 109.832 1232.94 109.496C1232.61 109.136 1232.44 108.692 1232.44 108.164V105.572L1233.2 105.68C1233.2 106.112 1233.02 106.592 1232.66 107.12C1232.32 107.648 1231.85 108.164 1231.25 108.668C1230.65 109.148 1229.94 109.556 1229.13 109.892C1228.31 110.204 1227.44 110.36 1226.5 110.36C1224.84 110.36 1223.36 109.94 1222.04 109.1C1220.72 108.236 1219.67 107.06 1218.9 105.572C1218.14 104.084 1217.75 102.392 1217.75 100.496C1217.75 98.552 1218.14 96.848 1218.9 95.384C1219.67 93.896 1220.7 92.732 1222 91.892C1223.32 91.052 1224.78 90.632 1226.39 90.632C1227.42 90.632 1228.37 90.8 1229.24 91.136C1230.12 91.472 1230.89 91.904 1231.54 92.432C1232.19 92.96 1232.68 93.524 1233.02 94.124C1233.38 94.7 1233.56 95.252 1233.56 95.78L1232.44 95.888V92.612C1232.44 92.108 1232.61 91.676 1232.94 91.316C1233.3 90.956 1233.74 90.776 1234.24 90.776ZM1226.9 107.048C1228.02 107.048 1229.02 106.76 1229.88 106.184C1230.75 105.608 1231.42 104.828 1231.9 103.844C1232.38 102.836 1232.62 101.72 1232.62 100.496C1232.62 99.248 1232.38 98.132 1231.9 97.148C1231.42 96.164 1230.75 95.384 1229.88 94.808C1229.02 94.232 1228.02 93.944 1226.9 93.944C1225.79 93.944 1224.81 94.232 1223.94 94.808C1223.1 95.384 1222.43 96.164 1221.93 97.148C1221.45 98.132 1221.21 99.248 1221.21 100.496C1221.21 101.72 1221.45 102.836 1221.93 103.844C1222.43 104.828 1223.1 105.608 1223.94 106.184C1224.81 106.76 1225.79 107.048 1226.9 107.048ZM1258.67 86.24C1259.2 86.504 1259.5 86.912 1259.57 87.464C1259.66 88.016 1259.53 88.52 1259.17 88.976C1258.91 89.336 1258.56 89.54 1258.13 89.588C1257.72 89.636 1257.31 89.552 1256.9 89.336C1256.21 88.976 1255.48 88.688 1254.71 88.472C1253.94 88.256 1253.12 88.148 1252.26 88.148C1250.89 88.148 1249.66 88.376 1248.55 88.832C1247.47 89.264 1246.54 89.9 1245.74 90.74C1244.95 91.556 1244.34 92.528 1243.91 93.656C1243.5 94.784 1243.3 96.032 1243.3 97.4C1243.3 98.912 1243.52 100.256 1243.98 101.432C1244.44 102.584 1245.06 103.568 1245.85 104.384C1246.67 105.176 1247.62 105.776 1248.7 106.184C1249.8 106.568 1250.99 106.76 1252.26 106.76C1253.08 106.76 1253.87 106.664 1254.64 106.472C1255.43 106.28 1256.17 105.992 1256.87 105.608C1257.3 105.392 1257.72 105.32 1258.13 105.392C1258.56 105.44 1258.91 105.644 1259.17 106.004C1259.58 106.508 1259.72 107.024 1259.6 107.552C1259.51 108.056 1259.21 108.44 1258.7 108.704C1258.1 109.04 1257.44 109.328 1256.72 109.568C1256 109.808 1255.27 110 1254.53 110.144C1253.78 110.288 1253.03 110.36 1252.26 110.36C1250.53 110.36 1248.9 110.072 1247.36 109.496C1245.83 108.92 1244.46 108.08 1243.26 106.976C1242.06 105.872 1241.11 104.516 1240.42 102.908C1239.74 101.3 1239.41 99.464 1239.41 97.4C1239.41 95.552 1239.72 93.848 1240.34 92.288C1240.99 90.704 1241.89 89.348 1243.04 88.22C1244.22 87.068 1245.59 86.18 1247.15 85.556C1248.71 84.908 1250.41 84.584 1252.26 84.584C1253.41 84.584 1254.53 84.728 1255.61 85.016C1256.71 85.304 1257.73 85.712 1258.67 86.24ZM1281.41 100.532C1281.41 102.452 1280.99 104.156 1280.15 105.644C1279.31 107.108 1278.17 108.26 1276.73 109.1C1275.29 109.94 1273.67 110.36 1271.87 110.36C1270.07 110.36 1268.45 109.94 1267.01 109.1C1265.57 108.26 1264.42 107.108 1263.55 105.644C1262.71 104.156 1262.29 102.452 1262.29 100.532C1262.29 98.588 1262.71 96.884 1263.55 95.42C1264.42 93.932 1265.57 92.768 1267.01 91.928C1268.45 91.064 1270.07 90.632 1271.87 90.632C1273.67 90.632 1275.29 91.064 1276.73 91.928C1278.17 92.768 1279.31 93.932 1280.15 95.42C1280.99 96.884 1281.41 98.588 1281.41 100.532ZM1277.81 100.532C1277.81 99.212 1277.55 98.072 1277.02 97.112C1276.49 96.128 1275.77 95.36 1274.86 94.808C1273.97 94.232 1272.97 93.944 1271.87 93.944C1270.77 93.944 1269.76 94.232 1268.85 94.808C1267.93 95.36 1267.21 96.128 1266.69 97.112C1266.16 98.072 1265.89 99.212 1265.89 100.532C1265.89 101.804 1266.16 102.932 1266.69 103.916C1267.21 104.9 1267.93 105.668 1268.85 106.22C1269.76 106.772 1270.77 107.048 1271.87 107.048C1272.97 107.048 1273.97 106.772 1274.86 106.22C1275.77 105.668 1276.49 104.9 1277.02 103.916C1277.55 102.932 1277.81 101.804 1277.81 100.532Z" fill="#212C49"/>
<g clip-path="url(#clip0_1163_1003)">
<path d="M926.946 73.0868C928.145 73.7775 929.194 74.3818 930.243 74.9862C934.589 77.5763 938.56 80.8571 941.557 85.433C945.678 91.5629 946.127 98.4698 942.756 105.29C941.032 108.83 938.635 111.593 935.862 114.01C930.393 118.673 924.249 121.608 917.805 123.939C908.364 127.306 898.699 129.119 888.883 129.724C878.244 130.414 867.679 129.81 857.114 127.911C849.472 126.616 841.904 124.544 834.786 120.745C832.014 119.277 829.241 117.378 826.844 115.133C820.625 109.176 819.276 99.9375 823.247 91.7355C825.195 87.6777 827.968 84.3106 831.04 81.3751C838.382 74.3818 846.849 69.9787 855.84 66.7842C868.203 62.381 880.791 60.568 893.679 61.086C902.22 61.4313 910.762 62.381 919.004 65.1438C921.476 65.9208 923.799 67.1296 926.197 68.1656C926.796 68.4246 927.321 68.8563 927.845 69.288C929.194 70.4967 929.119 71.5327 927.62 72.6551C927.471 72.8278 927.246 72.9141 926.946 73.0868ZM890.232 65.4028C890.232 65.3165 890.232 65.2302 890.232 65.1438C889.782 65.1438 889.258 65.0575 888.808 65.0575C878.393 65.1438 868.128 66.8705 858.088 70.324C849.397 73.2595 841.08 77.4036 833.962 84.0516C831.115 86.728 828.492 89.6635 826.619 93.3759C823.172 100.283 824.296 107.794 829.691 112.629C831.714 114.442 833.962 115.91 836.285 117.119C842.578 120.486 849.247 122.299 855.99 123.68C865.731 125.666 875.546 126.184 885.362 125.925C896.9 125.58 908.289 123.507 919.229 119.191C924.399 117.119 929.344 114.615 933.764 110.902C936.462 108.571 938.785 105.808 940.283 102.269C941.931 98.2971 942.081 94.2393 940.133 90.3542C939.384 88.8864 938.41 87.4187 937.436 86.21C934.214 82.2385 930.318 79.4757 925.972 77.3173C920.577 74.6409 915.033 72.6551 909.263 71.3601C901.621 69.547 893.903 68.6836 886.186 70.4967C885.811 70.583 885.287 70.7557 884.987 70.583C884.463 70.2377 883.788 69.806 883.638 69.288C883.488 68.77 883.938 67.9066 884.313 67.4749C884.762 67.0432 885.437 66.8705 886.036 66.6979C887.46 66.0935 888.808 65.7482 890.232 65.4028ZM914.209 68.1656C917.88 69.547 921.476 70.842 925.148 72.2234C921.776 69.7197 918.105 68.6836 914.209 68.1656Z" fill="#465B81"/>
</g>
<defs>
<clipPath id="clip0_1163_1003">
<rect width="124" height="69" fill="white" transform="translate(821 61)"/>
</clipPath>
</defs>
</svg>
