<svg width="1363" height="173" viewBox="0 0 1363 173" fill="none" xmlns="http://www.w3.org/2000/svg">
<mask id="path-1-inside-1_1163_1136" fill="white">
<path d="M0 10C0 4.47715 4.47715 0 10 0H1353C1358.52 0 1363 4.47715 1363 10V163C1363 168.523 1358.52 173 1353 173H9.99997C4.47712 173 0 168.523 0 163V10Z"/>
</mask>
<path d="M0 10C0 4.47715 4.47715 0 10 0H1353C1358.52 0 1363 4.47715 1363 10V163C1363 168.523 1358.52 173 1353 173H9.99997C4.47712 173 0 168.523 0 163V10Z" fill="#FFFBEF"/>
<path d="M0 0H1363H0ZM1363 173H0H1363ZM10 173C-15.9574 173 -37 151.957 -37 126V47C-37 21.0426 -15.9574 0 10 0H37C37 0 37 4.47715 37 10V163C37 168.523 37 173 37 173H10ZM1456.5 0C1504.27 0 1543 38.7274 1543 86.5C1543 134.273 1504.27 173 1456.5 173H1183C1183 173 1183 168.523 1183 163V10C1183 4.47715 1183 0 1183 0H1456.5Z" fill="#FCD95B" mask="url(#path-1-inside-1_1163_1136)"/>
<path d="M102.736 121.8C104.464 121.8 106 122.124 107.344 122.772C108.688 123.42 109.816 124.332 110.728 125.508C111.664 126.66 112.36 128.004 112.816 129.54C113.296 131.052 113.536 132.672 113.536 134.4C113.536 136.728 113.116 138.852 112.276 140.772C111.436 142.668 110.212 144.18 108.604 145.308C107.02 146.436 105.064 147 102.736 147H94.1323C93.5083 147 92.9803 146.796 92.5483 146.388C92.1403 145.956 91.9363 145.428 91.9363 144.804V123.996C91.9363 123.372 92.1403 122.856 92.5483 122.448C92.9803 122.016 93.5083 121.8 94.1323 121.8H102.736ZM102.376 142.86C103.888 142.86 105.124 142.476 106.084 141.708C107.044 140.916 107.74 139.884 108.172 138.612C108.628 137.316 108.856 135.912 108.856 134.4C108.856 133.272 108.724 132.204 108.46 131.196C108.22 130.164 107.836 129.264 107.308 128.496C106.78 127.704 106.108 127.08 105.292 126.624C104.476 126.168 103.504 125.94 102.376 125.94H96.0763L96.4363 125.616V143.256L96.2203 142.86H102.376ZM126.664 147.36C124.624 147.36 122.848 146.94 121.336 146.1C119.848 145.236 118.696 144.072 117.88 142.608C117.088 141.144 116.692 139.488 116.692 137.64C116.692 135.48 117.124 133.644 117.988 132.132C118.876 130.596 120.028 129.42 121.444 128.604C122.86 127.788 124.36 127.38 125.944 127.38C127.168 127.38 128.32 127.632 129.4 128.136C130.504 128.64 131.476 129.336 132.316 130.224C133.156 131.088 133.816 132.096 134.296 133.248C134.8 134.4 135.052 135.624 135.052 136.92C135.028 137.496 134.8 137.964 134.368 138.324C133.936 138.684 133.432 138.864 132.856 138.864H119.104L118.024 135.264H131.236L130.444 135.984V135.012C130.396 134.316 130.144 133.692 129.688 133.14C129.256 132.588 128.704 132.156 128.032 131.844C127.384 131.508 126.688 131.34 125.944 131.34C125.224 131.34 124.552 131.436 123.928 131.628C123.304 131.82 122.764 132.144 122.308 132.6C121.852 133.056 121.492 133.668 121.228 134.436C120.964 135.204 120.832 136.176 120.832 137.352C120.832 138.648 121.096 139.752 121.624 140.664C122.176 141.552 122.872 142.236 123.712 142.716C124.576 143.172 125.488 143.4 126.448 143.4C127.336 143.4 128.044 143.328 128.572 143.184C129.1 143.04 129.52 142.872 129.832 142.68C130.168 142.464 130.468 142.284 130.732 142.14C131.164 141.924 131.572 141.816 131.956 141.816C132.484 141.816 132.916 141.996 133.252 142.356C133.612 142.716 133.792 143.136 133.792 143.616C133.792 144.264 133.456 144.852 132.784 145.38C132.16 145.908 131.284 146.376 130.156 146.784C129.028 147.168 127.864 147.36 126.664 147.36ZM137.71 144.012C137.47 143.676 137.362 143.244 137.386 142.716C137.41 142.188 137.722 141.732 138.322 141.348C138.706 141.108 139.114 141.012 139.546 141.06C139.978 141.084 140.398 141.3 140.806 141.708C141.502 142.404 142.234 142.944 143.002 143.328C143.77 143.712 144.73 143.904 145.882 143.904C146.242 143.88 146.638 143.832 147.07 143.76C147.502 143.664 147.874 143.472 148.186 143.184C148.522 142.872 148.69 142.404 148.69 141.78C148.69 141.252 148.51 140.832 148.15 140.52C147.79 140.208 147.31 139.944 146.71 139.728C146.134 139.512 145.486 139.308 144.766 139.116C144.022 138.9 143.254 138.66 142.462 138.396C141.694 138.132 140.986 137.796 140.338 137.388C139.69 136.956 139.162 136.392 138.754 135.696C138.346 135 138.142 134.124 138.142 133.068C138.142 131.868 138.478 130.848 139.15 130.008C139.822 129.168 140.686 128.52 141.742 128.064C142.822 127.608 143.95 127.38 145.126 127.38C145.87 127.38 146.65 127.476 147.466 127.668C148.282 127.836 149.062 128.124 149.806 128.532C150.55 128.916 151.174 129.432 151.678 130.08C151.942 130.44 152.098 130.872 152.146 131.376C152.194 131.88 151.966 132.336 151.462 132.744C151.102 133.032 150.682 133.164 150.202 133.14C149.722 133.092 149.326 132.924 149.014 132.636C148.606 132.108 148.054 131.688 147.358 131.376C146.686 131.064 145.906 130.908 145.018 130.908C144.658 130.908 144.262 130.956 143.83 131.052C143.422 131.124 143.062 131.304 142.75 131.592C142.438 131.856 142.282 132.288 142.282 132.888C142.282 133.44 142.462 133.884 142.822 134.22C143.182 134.532 143.662 134.796 144.262 135.012C144.886 135.204 145.546 135.396 146.242 135.588C146.962 135.78 147.694 136.008 148.438 136.272C149.182 136.536 149.866 136.884 150.49 137.316C151.114 137.748 151.618 138.312 152.002 139.008C152.386 139.68 152.578 140.544 152.578 141.6C152.578 142.824 152.218 143.868 151.498 144.732C150.778 145.596 149.878 146.256 148.798 146.712C147.718 147.144 146.614 147.36 145.486 147.36C144.07 147.36 142.654 147.12 141.238 146.64C139.822 146.136 138.646 145.26 137.71 144.012ZM160.262 144.804C160.262 145.428 160.058 145.956 159.65 146.388C159.242 146.796 158.726 147 158.102 147C157.478 147 156.962 146.796 156.554 146.388C156.146 145.956 155.942 145.428 155.942 144.804V129.936C155.942 129.312 156.146 128.796 156.554 128.388C156.962 127.956 157.478 127.74 158.102 127.74C158.726 127.74 159.242 127.956 159.65 128.388C160.058 128.796 160.262 129.312 160.262 129.936V144.804ZM158.066 125.4C157.25 125.4 156.674 125.268 156.338 125.004C156.002 124.74 155.834 124.272 155.834 123.6V122.916C155.834 122.22 156.014 121.752 156.374 121.512C156.758 121.248 157.334 121.116 158.102 121.116C158.942 121.116 159.53 121.248 159.866 121.512C160.202 121.776 160.37 122.244 160.37 122.916V123.6C160.37 124.296 160.19 124.776 159.83 125.04C159.47 125.28 158.882 125.4 158.066 125.4ZM172.693 127.38C173.701 127.38 174.625 127.536 175.465 127.848C176.305 128.16 177.025 128.556 177.625 129.036C178.249 129.516 178.729 130.008 179.065 130.512C179.425 130.992 179.605 131.4 179.605 131.736L178.669 132.204V129.576C178.669 128.952 178.873 128.436 179.281 128.028C179.689 127.596 180.205 127.38 180.829 127.38C181.453 127.38 181.969 127.584 182.377 127.992C182.785 128.4 182.989 128.928 182.989 129.576V145.596C182.989 147.684 182.533 149.352 181.621 150.6C180.733 151.872 179.557 152.784 178.093 153.336C176.629 153.912 175.057 154.2 173.377 154.2C172.897 154.2 172.273 154.14 171.505 154.02C170.737 153.9 170.005 153.756 169.309 153.588C168.613 153.42 168.085 153.264 167.725 153.12C167.005 152.808 166.501 152.412 166.213 151.932C165.949 151.476 165.901 150.984 166.069 150.456C166.285 149.76 166.633 149.28 167.113 149.016C167.593 148.776 168.097 148.752 168.625 148.944C168.865 149.016 169.261 149.16 169.813 149.376C170.365 149.592 170.965 149.784 171.613 149.952C172.285 150.144 172.873 150.24 173.377 150.24C175.177 150.24 176.509 149.88 177.373 149.16C178.237 148.44 178.669 147.444 178.669 146.172V143.04L179.101 143.364C179.101 143.676 178.933 144.06 178.597 144.516C178.285 144.948 177.841 145.38 177.265 145.812C176.713 146.244 176.053 146.616 175.285 146.928C174.517 147.216 173.701 147.36 172.837 147.36C171.133 147.36 169.597 146.94 168.229 146.1C166.861 145.236 165.781 144.06 164.989 142.572C164.197 141.06 163.801 139.332 163.801 137.388C163.801 135.42 164.197 133.692 164.989 132.204C165.781 130.692 166.849 129.516 168.193 128.676C169.537 127.812 171.037 127.38 172.693 127.38ZM173.377 131.34C172.297 131.34 171.349 131.604 170.533 132.132C169.717 132.66 169.081 133.38 168.625 134.292C168.169 135.204 167.941 136.236 167.941 137.388C167.941 138.516 168.169 139.536 168.625 140.448C169.081 141.36 169.717 142.08 170.533 142.608C171.349 143.136 172.297 143.4 173.377 143.4C174.481 143.4 175.441 143.136 176.257 142.608C177.073 142.08 177.709 141.36 178.165 140.448C178.621 139.536 178.849 138.516 178.849 137.388C178.849 136.236 178.621 135.204 178.165 134.292C177.709 133.38 177.073 132.66 176.257 132.132C175.441 131.604 174.481 131.34 173.377 131.34ZM197.954 127.38C199.73 127.38 201.074 127.752 201.986 128.496C202.922 129.24 203.558 130.236 203.894 131.484C204.254 132.708 204.434 134.076 204.434 135.588V144.804C204.434 145.428 204.23 145.956 203.822 146.388C203.414 146.796 202.898 147 202.274 147C201.65 147 201.134 146.796 200.726 146.388C200.318 145.956 200.114 145.428 200.114 144.804V135.588C200.114 134.796 200.006 134.088 199.79 133.464C199.598 132.816 199.238 132.3 198.71 131.916C198.182 131.532 197.426 131.34 196.442 131.34C195.482 131.34 194.666 131.532 193.994 131.916C193.346 132.3 192.842 132.816 192.482 133.464C192.146 134.088 191.978 134.796 191.978 135.588V144.804C191.978 145.428 191.774 145.956 191.366 146.388C190.958 146.796 190.442 147 189.818 147C189.194 147 188.678 146.796 188.27 146.388C187.862 145.956 187.658 145.428 187.658 144.804V129.936C187.658 129.312 187.862 128.796 188.27 128.388C188.678 127.956 189.194 127.74 189.818 127.74C190.442 127.74 190.958 127.956 191.366 128.388C191.774 128.796 191.978 129.312 191.978 129.936V131.484L191.438 131.376C191.654 130.968 191.966 130.536 192.374 130.08C192.782 129.6 193.262 129.156 193.814 128.748C194.366 128.34 194.99 128.016 195.686 127.776C196.382 127.512 197.138 127.38 197.954 127.38Z" fill="#29375B"/>
<path d="M209.204 42.6798C206.407 42.3596 196.291 42.3486 193.645 42.6743C191 42.9999 189.638 43.9291 186.901 46.0542C184.165 48.1793 181.925 49.4719 181.925 49.4719V53.9999H219.925V49.4719C219.925 49.4719 218 48 215.948 46.0521C213.896 44.1042 212 43 209.204 42.6798Z" fill="#FCD95B" stroke="#FCD95B"/>
<circle cx="193.925" cy="48" r="3" fill="white"/>
<circle cx="207.925" cy="48" r="3" fill="white"/>
<path d="M212.4 19.3335L207.125 31H192.725L187.7 19.8335L190.5 18.5001L195.925 30.1112H204.325L210 18.0001L212.4 19.3335Z" fill="#29375B" stroke="#29375B"/>
<circle cx="188" cy="17" r="3" fill="#29375B"/>
<circle cx="212" cy="17" r="3" fill="#29375B"/>
<path d="M178.004 39.7496C180.029 42.1512 179.113 43.3493 179.488 43.3921L180.238 43.4775L179.309 51.633L177.059 51.3767C177.059 51.3767 176.684 52.1701 174.605 53.0318C172.527 53.8934 171.418 54.2073 171.092 53.736C170.765 53.2646 172.255 50.1953 173.863 48.6661C175.471 47.1368 176.848 46.5646 176.848 46.5646C177.144 46.2974 176.896 46.136 176.896 46.136C176.896 46.136 174.441 43.5945 173.866 41.3884C173.291 39.1823 173.373 37.0511 173.748 37.0938C173.748 37.0938 175.979 37.348 178.004 39.7496Z" fill="#29375B" stroke="#29375B"/>
<path d="M221.925 52C221.925 57.1797 221.921 60.8744 221.581 63.6042C221.241 66.3245 220.611 67.6489 219.719 68.4445C218.778 69.283 217.17 69.8779 214.024 70.1894C210.912 70.4976 206.718 70.5 200.925 70.5C195.131 70.5 190.937 70.4976 187.825 70.1894C184.68 69.8779 183.071 69.283 182.13 68.4445C181.238 67.6489 180.608 66.3245 180.269 63.6042C179.928 60.8744 179.925 57.1797 179.925 52C179.925 40.402 189.327 31 200.925 31C212.523 31 221.925 40.402 221.925 52Z" stroke="#29375B" stroke-width="4"/>
<path d="M108.16 38.3516H118.285V43.1855H116.123V65H110.287L99.1953 47.7734V60.1836H101.428V65H91.3203V60.1836H93.5176V43.1855H91.3555V38.3516H99.4062L110.428 55.8066V43.1855H108.16V38.3516ZM120.588 46.7891H128.762V60.1836H131.293V65H120.588V60.1836H123.33V51.6055H120.588V46.7891ZM123.049 40.918C123.049 40.4844 123.125 40.0801 123.277 39.7051C123.441 39.3184 123.664 38.9844 123.945 38.7031C124.227 38.4219 124.555 38.1992 124.93 38.0352C125.316 37.8711 125.732 37.7891 126.178 37.7891C126.6 37.7891 126.998 37.8711 127.373 38.0352C127.748 38.1992 128.076 38.4219 128.357 38.7031C128.639 38.9844 128.861 39.3184 129.025 39.7051C129.189 40.0801 129.271 40.4844 129.271 40.918C129.271 41.3516 129.189 41.7617 129.025 42.1484C128.861 42.5234 128.639 42.8516 128.357 43.1328C128.076 43.4141 127.748 43.6367 127.373 43.8008C126.998 43.9648 126.6 44.0469 126.178 44.0469C125.732 44.0469 125.316 43.9648 124.93 43.8008C124.555 43.6367 124.227 43.4141 123.945 43.1328C123.664 42.8516 123.441 42.5234 123.277 42.1484C123.125 41.7617 123.049 41.3516 123.049 40.918ZM149.451 54.5234C149.451 53.5039 149.182 52.707 148.643 52.1328C148.104 51.5469 147.389 51.2539 146.498 51.2539C145.889 51.2539 145.273 51.3887 144.652 51.6582C144.031 51.9277 143.428 52.4316 142.842 53.1699V60.1836H145.795V65H134.475V60.1836H137.146V51.6055H134.51V46.7891H142.807V48.3887C143.568 47.791 144.418 47.3223 145.355 46.9824C146.305 46.6309 147.301 46.4551 148.344 46.4551C150.535 46.4551 152.223 47.0703 153.406 48.3008C154.59 49.5195 155.182 51.3066 155.182 53.6621V60.1836H157.766V65H149.451V54.5234ZM159.629 46.7891H167.627V65.3164C167.627 66.7109 167.451 67.9062 167.1 68.9023C166.76 69.8984 166.256 70.7188 165.588 71.3633C164.932 72.0078 164.117 72.4824 163.145 72.7871C162.172 73.0918 161.059 73.2441 159.805 73.2441L159.734 69.2539C160.578 69.2188 161.205 68.8789 161.615 68.2344C162.025 67.6016 162.23 66.752 162.23 65.6855V51.6055H159.629V46.7891ZM161.932 40.918C161.932 40.4844 162.008 40.0801 162.16 39.7051C162.324 39.3184 162.547 38.9844 162.828 38.7031C163.109 38.4219 163.438 38.1992 163.812 38.0352C164.199 37.8711 164.615 37.7891 165.061 37.7891C165.482 37.7891 165.881 37.8711 166.256 38.0352C166.643 38.1992 166.977 38.4219 167.258 38.7031C167.551 38.9844 167.779 39.3184 167.943 39.7051C168.119 40.0801 168.207 40.4844 168.207 40.918C168.207 41.3516 168.119 41.7617 167.943 42.1484C167.779 42.5234 167.551 42.8516 167.258 43.1328C166.977 43.4141 166.643 43.6367 166.256 43.8008C165.881 43.9648 165.482 44.0469 165.061 44.0469C164.615 44.0469 164.199 43.9648 163.812 43.8008C163.438 43.6367 163.109 43.4141 162.828 43.1328C162.547 42.8516 162.324 42.5234 162.16 42.1484C162.008 41.7617 161.932 41.3516 161.932 40.918Z" fill="#29375B"/>
<path d="M245.545 48.4551C244.889 47.5176 244.297 46.8555 243.77 46.4688C243.242 46.0703 242.674 45.7891 242.064 45.625C241.455 45.4492 240.816 45.3613 240.148 45.3613C239.164 45.3613 238.25 45.584 237.406 46.0293C236.562 46.4629 235.83 47.0605 235.209 47.8223C234.6 48.5723 234.119 49.4512 233.768 50.459C233.416 51.4551 233.24 52.5156 233.24 53.6406C233.24 54.7773 233.41 55.8496 233.75 56.8574C234.102 57.8535 234.582 58.7266 235.191 59.4766C235.801 60.2266 236.527 60.8242 237.371 61.2695C238.215 61.7031 239.141 61.9199 240.148 61.9199C240.852 61.9199 241.508 61.8086 242.117 61.5859C242.727 61.3516 243.277 61.0469 243.77 60.6719C244.273 60.2969 244.713 59.8691 245.088 59.3887C245.463 58.8965 245.756 58.3867 245.967 57.8594L251.627 59.4414C251.264 60.5898 250.73 61.6562 250.027 62.6406C249.324 63.6133 248.475 64.457 247.479 65.1719C246.494 65.8867 245.381 66.4492 244.139 66.8594C242.908 67.2695 241.578 67.4746 240.148 67.4746C238.941 67.4746 237.787 67.3105 236.686 66.9824C235.584 66.6543 234.553 66.1914 233.592 65.5938C232.643 64.9961 231.775 64.2754 230.99 63.4316C230.217 62.5879 229.555 61.6562 229.004 60.6367C228.453 59.6055 228.025 58.5039 227.721 57.332C227.416 56.1484 227.264 54.918 227.264 53.6406C227.264 51.7305 227.598 49.9434 228.266 48.2793C228.934 46.6035 229.848 45.1445 231.008 43.9023C232.168 42.6484 233.527 41.6641 235.086 40.9492C236.656 40.2227 238.344 39.8594 240.148 39.8594C241.59 39.8594 242.803 40.041 243.787 40.4043C244.771 40.7559 245.855 41.459 247.039 42.5137H250.977V48.4551H245.545ZM267.465 67.4746C266.258 67.4746 265.104 67.3105 264.002 66.9824C262.9 66.6543 261.869 66.1914 260.908 65.5938C259.959 64.9961 259.092 64.2812 258.307 63.4492C257.533 62.6055 256.871 61.6738 256.32 60.6543C255.77 59.623 255.342 58.5215 255.037 57.3496C254.732 56.1777 254.58 54.9531 254.58 53.6758C254.58 52.3984 254.732 51.1738 255.037 50.002C255.342 48.8184 255.77 47.7168 256.32 46.6973C256.871 45.666 257.533 44.7344 258.307 43.9023C259.092 43.0586 259.959 42.3379 260.908 41.7402C261.869 41.1426 262.9 40.6797 264.002 40.3516C265.104 40.0234 266.258 39.8594 267.465 39.8594C268.672 39.8594 269.826 40.0234 270.928 40.3516C272.041 40.6797 273.072 41.1426 274.021 41.7402C274.982 42.3379 275.85 43.0586 276.623 43.9023C277.408 44.7344 278.076 45.666 278.627 46.6973C279.189 47.7168 279.623 48.8184 279.928 50.002C280.232 51.1738 280.385 52.3984 280.385 53.6758C280.385 54.9414 280.232 56.166 279.928 57.3496C279.623 58.5215 279.189 59.623 278.627 60.6543C278.076 61.6738 277.408 62.6055 276.623 63.4492C275.85 64.2812 274.982 64.9961 274.021 65.5938C273.072 66.1914 272.041 66.6543 270.928 66.9824C269.826 67.3105 268.672 67.4746 267.465 67.4746ZM267.465 61.9551C268.484 61.9551 269.416 61.7383 270.26 61.3047C271.115 60.8594 271.848 60.2617 272.457 59.5117C273.066 58.75 273.535 57.8711 273.863 56.875C274.203 55.8672 274.373 54.8008 274.373 53.6758C274.373 52.5391 274.203 51.4668 273.863 50.459C273.523 49.4512 273.043 48.5723 272.422 47.8223C271.812 47.0605 271.086 46.4629 270.242 46.0293C269.398 45.584 268.473 45.3613 267.465 45.3613C266.457 45.3613 265.531 45.584 264.688 46.0293C263.844 46.4629 263.117 47.0605 262.508 47.8223C261.898 48.5723 261.418 49.4512 261.066 50.459C260.727 51.4668 260.557 52.5391 260.557 53.6758C260.557 54.8008 260.727 55.8672 261.066 56.875C261.418 57.8711 261.898 58.75 262.508 59.5117C263.117 60.2617 263.844 60.8594 264.688 61.3047C265.531 61.7383 266.457 61.9551 267.465 61.9551Z" fill="#29375B"/>
<g clip-path="url(#clip0_1163_1136)">
<mask id="mask0_1163_1136" style="mask-type:luminance" maskUnits="userSpaceOnUse" x="1227" y="42" width="101" height="101">
<path d="M1227 42H1328V143H1227V42Z" fill="white"/>
</mask>
<g mask="url(#mask0_1163_1136)">
<path d="M1301.38 90.0087L1293.36 114.059C1293.23 114.445 1293.01 114.794 1292.72 115.077C1292.43 115.359 1292.08 115.568 1291.69 115.684L1242.54 130.291C1242.1 130.422 1241.63 130.43 1241.18 130.313C1240.73 130.195 1240.33 129.958 1240.01 129.626C1239.69 129.294 1239.46 128.88 1239.36 128.43C1239.26 127.979 1239.28 127.51 1239.43 127.071L1255.39 79.2059C1255.5 78.8622 1255.69 78.5471 1255.93 78.2821C1256.18 78.0171 1256.48 77.8082 1256.82 77.6698L1279.49 68.3357C1279.95 68.1454 1280.45 68.0958 1280.94 68.1931C1281.43 68.2905 1281.88 68.5305 1282.23 68.8828L1300.77 87.4205C1301.1 87.7525 1301.33 88.1705 1301.44 88.6278C1301.55 89.085 1301.53 89.5632 1301.38 90.0087Z" fill="#A7BFDC"/>
<path d="M1240.87 128.7L1267.65 101.918M1301.38 90.0087L1293.36 114.059C1293.23 114.445 1293.01 114.794 1292.72 115.077C1292.43 115.359 1292.08 115.568 1291.69 115.684L1242.54 130.291C1242.1 130.422 1241.63 130.43 1241.18 130.313C1240.73 130.195 1240.33 129.958 1240.01 129.626C1239.69 129.294 1239.46 128.88 1239.36 128.43C1239.26 127.979 1239.28 127.51 1239.43 127.071L1255.39 79.2059C1255.5 78.8622 1255.69 78.5471 1255.93 78.2821C1256.18 78.0171 1256.48 77.8082 1256.82 77.6698L1279.49 68.3357C1279.95 68.1454 1280.45 68.0958 1280.94 68.1931C1281.43 68.2905 1281.88 68.5305 1282.23 68.8828L1300.77 87.4205C1301.1 87.7525 1301.33 88.1705 1301.44 88.6278C1301.55 89.085 1301.53 89.5632 1301.38 90.0087Z" stroke="#29375B" stroke-width="5" stroke-linecap="round" stroke-linejoin="round"/>
<path d="M1301.87 88.5274L1313.78 76.622C1315.35 75.0436 1316.24 72.9032 1316.24 70.6714C1316.24 68.4396 1315.35 66.2992 1313.78 64.7208L1304.85 55.7907C1304.07 55.0088 1303.14 54.3885 1302.12 53.9653C1301.1 53.5422 1300.01 53.3243 1298.9 53.3243C1297.8 53.3243 1296.7 53.5422 1295.68 53.9653C1294.66 54.3885 1293.73 55.0088 1292.95 55.7907L1281.05 67.6961M1276.58 92.9882C1275.99 92.4021 1275.3 91.9373 1274.53 91.6202C1273.76 91.3031 1272.94 91.14 1272.11 91.1402C1271.28 91.1404 1270.46 91.3039 1269.7 91.6213C1268.93 91.9388 1268.24 92.4039 1267.65 92.9903C1267.06 93.5767 1266.6 94.2727 1266.28 95.0387C1265.97 95.8047 1265.8 96.6257 1265.8 97.4547C1265.8 98.2838 1265.97 99.1046 1266.28 99.8705C1266.6 100.636 1267.07 101.332 1267.65 101.918C1268.84 103.102 1270.44 103.767 1272.12 103.766C1273.79 103.766 1275.4 103.1 1276.58 101.916C1277.76 100.732 1278.43 99.1261 1278.43 97.4517C1278.43 95.7774 1277.76 94.1718 1276.58 92.9882Z" stroke="#29375B" stroke-width="5" stroke-linecap="round" stroke-linejoin="round"/>
</g>
</g>
<defs>
<clipPath id="clip0_1163_1136">
<rect width="101" height="101" fill="white" transform="translate(1227 42)"/>
</clipPath>
</defs>
</svg>
