<svg width="1363" height="173" viewBox="0 0 1363 173" fill="none" xmlns="http://www.w3.org/2000/svg">
<mask id="path-1-inside-1_1163_1172" fill="white">
<path d="M0 10C0 4.47715 4.47715 0 10 0H1353C1358.52 0 1363 4.47715 1363 10V163C1363 168.523 1358.52 173 1353 173H9.99997C4.47712 173 0 168.523 0 163V10Z"/>
</mask>
<path d="M0 10C0 4.47715 4.47715 0 10 0H1353C1358.52 0 1363 4.47715 1363 10V163C1363 168.523 1358.52 173 1353 173H9.99997C4.47712 173 0 168.523 0 163V10Z" fill="#FFFBEF"/>
<path d="M0 0H1363H0ZM1363 173H0H1363ZM10 173C-15.9574 173 -37 151.957 -37 126V47C-37 21.0426 -15.9574 0 10 0H37C37 0 37 4.47715 37 10V163C37 168.523 37 173 37 173H10ZM1456.5 0C1504.27 0 1543 38.7274 1543 86.5C1543 134.273 1504.27 173 1456.5 173H1183C1183 173 1183 168.523 1183 163V10C1183 4.47715 1183 0 1183 0H1456.5Z" fill="#FCD95B" mask="url(#path-1-inside-1_1163_1172)"/>
<path d="M109.891 118.764C110.515 118.764 111.019 118.98 111.403 119.412C111.787 119.82 111.979 120.336 111.979 120.96V133.992C111.979 135.984 111.547 137.748 110.683 139.284C109.843 140.82 108.679 142.02 107.191 142.884C105.703 143.748 103.975 144.18 102.007 144.18C100.039 144.18 98.2988 143.748 96.7868 142.884C95.2988 142.02 94.1228 140.82 93.2588 139.284C92.4188 137.748 91.9988 135.984 91.9988 133.992V120.96C91.9988 120.336 92.2148 119.82 92.6468 119.412C93.0788 118.98 93.6308 118.764 94.3028 118.764C94.8548 118.764 95.3468 118.98 95.7788 119.412C96.2348 119.82 96.4628 120.336 96.4628 120.96V133.992C96.4628 135.192 96.7148 136.236 97.2188 137.124C97.7468 137.988 98.4308 138.66 99.2708 139.14C100.135 139.62 101.047 139.86 102.007 139.86C103.039 139.86 103.999 139.62 104.887 139.14C105.775 138.66 106.495 137.988 107.047 137.124C107.599 136.236 107.875 135.192 107.875 133.992V120.96C107.875 120.336 108.055 119.82 108.415 119.412C108.775 118.98 109.267 118.764 109.891 118.764ZM115.906 141.012C115.666 140.676 115.558 140.244 115.582 139.716C115.606 139.188 115.918 138.732 116.518 138.348C116.902 138.108 117.31 138.012 117.742 138.06C118.174 138.084 118.594 138.3 119.002 138.708C119.698 139.404 120.43 139.944 121.198 140.328C121.966 140.712 122.926 140.904 124.078 140.904C124.438 140.88 124.834 140.832 125.266 140.76C125.698 140.664 126.07 140.472 126.382 140.184C126.718 139.872 126.886 139.404 126.886 138.78C126.886 138.252 126.706 137.832 126.346 137.52C125.986 137.208 125.506 136.944 124.906 136.728C124.33 136.512 123.682 136.308 122.962 136.116C122.218 135.9 121.45 135.66 120.658 135.396C119.89 135.132 119.182 134.796 118.534 134.388C117.886 133.956 117.358 133.392 116.95 132.696C116.542 132 116.338 131.124 116.338 130.068C116.338 128.868 116.674 127.848 117.346 127.008C118.018 126.168 118.882 125.52 119.938 125.064C121.018 124.608 122.146 124.38 123.322 124.38C124.066 124.38 124.846 124.476 125.662 124.668C126.478 124.836 127.258 125.124 128.002 125.532C128.746 125.916 129.37 126.432 129.874 127.08C130.138 127.44 130.294 127.872 130.342 128.376C130.39 128.88 130.162 129.336 129.658 129.744C129.298 130.032 128.878 130.164 128.398 130.14C127.918 130.092 127.522 129.924 127.21 129.636C126.802 129.108 126.25 128.688 125.554 128.376C124.882 128.064 124.102 127.908 123.214 127.908C122.854 127.908 122.458 127.956 122.026 128.052C121.618 128.124 121.258 128.304 120.946 128.592C120.634 128.856 120.478 129.288 120.478 129.888C120.478 130.44 120.658 130.884 121.018 131.22C121.378 131.532 121.858 131.796 122.458 132.012C123.082 132.204 123.742 132.396 124.438 132.588C125.158 132.78 125.89 133.008 126.634 133.272C127.378 133.536 128.062 133.884 128.686 134.316C129.31 134.748 129.814 135.312 130.198 136.008C130.582 136.68 130.774 137.544 130.774 138.6C130.774 139.824 130.414 140.868 129.694 141.732C128.974 142.596 128.074 143.256 126.994 143.712C125.914 144.144 124.81 144.36 123.682 144.36C122.266 144.36 120.85 144.12 119.434 143.64C118.018 143.136 116.842 142.26 115.906 141.012ZM143.461 144.36C141.421 144.36 139.645 143.94 138.133 143.1C136.645 142.236 135.493 141.072 134.677 139.608C133.885 138.144 133.489 136.488 133.489 134.64C133.489 132.48 133.921 130.644 134.785 129.132C135.673 127.596 136.825 126.42 138.241 125.604C139.657 124.788 141.157 124.38 142.741 124.38C143.965 124.38 145.117 124.632 146.197 125.136C147.301 125.64 148.273 126.336 149.113 127.224C149.953 128.088 150.613 129.096 151.093 130.248C151.597 131.4 151.849 132.624 151.849 133.92C151.825 134.496 151.597 134.964 151.165 135.324C150.733 135.684 150.229 135.864 149.653 135.864H135.901L134.821 132.264H148.033L147.241 132.984V132.012C147.193 131.316 146.941 130.692 146.485 130.14C146.053 129.588 145.501 129.156 144.829 128.844C144.181 128.508 143.485 128.34 142.741 128.34C142.021 128.34 141.349 128.436 140.725 128.628C140.101 128.82 139.561 129.144 139.105 129.6C138.649 130.056 138.289 130.668 138.025 131.436C137.761 132.204 137.629 133.176 137.629 134.352C137.629 135.648 137.893 136.752 138.421 137.664C138.973 138.552 139.669 139.236 140.509 139.716C141.373 140.172 142.285 140.4 143.245 140.4C144.133 140.4 144.841 140.328 145.369 140.184C145.897 140.04 146.317 139.872 146.629 139.68C146.965 139.464 147.265 139.284 147.529 139.14C147.961 138.924 148.369 138.816 148.753 138.816C149.281 138.816 149.713 138.996 150.049 139.356C150.409 139.716 150.589 140.136 150.589 140.616C150.589 141.264 150.253 141.852 149.581 142.38C148.957 142.908 148.081 143.376 146.953 143.784C145.825 144.168 144.661 144.36 143.461 144.36ZM157.783 144C157.159 144 156.643 143.796 156.235 143.388C155.827 142.956 155.623 142.428 155.623 141.804V126.936C155.623 126.312 155.827 125.796 156.235 125.388C156.643 124.956 157.159 124.74 157.783 124.74C158.407 124.74 158.923 124.956 159.331 125.388C159.739 125.796 159.943 126.312 159.943 126.936V130.32L159.691 127.908C159.955 127.332 160.291 126.828 160.699 126.396C161.131 125.94 161.611 125.568 162.139 125.28C162.667 124.968 163.231 124.74 163.831 124.596C164.431 124.452 165.031 124.38 165.631 124.38C166.351 124.38 166.951 124.584 167.431 124.992C167.935 125.4 168.187 125.88 168.187 126.432C168.187 127.224 167.983 127.8 167.575 128.16C167.167 128.496 166.723 128.664 166.243 128.664C165.787 128.664 165.367 128.58 164.983 128.412C164.623 128.244 164.203 128.16 163.723 128.16C163.291 128.16 162.847 128.268 162.391 128.484C161.959 128.676 161.551 128.988 161.167 129.42C160.807 129.852 160.507 130.392 160.267 131.04C160.051 131.664 159.943 132.408 159.943 133.272V141.804C159.943 142.428 159.739 142.956 159.331 143.388C158.923 143.796 158.407 144 157.783 144ZM184.274 144C183.602 144 183.002 143.796 182.474 143.388C181.946 142.956 181.682 142.428 181.682 141.804V120.996C181.682 120.372 181.886 119.856 182.294 119.448C182.726 119.016 183.254 118.8 183.878 118.8H194.246C195.494 118.8 196.658 119.136 197.738 119.808C198.842 120.456 199.73 121.368 200.402 122.544C201.074 123.696 201.41 125.028 201.41 126.54C201.41 127.452 201.218 128.34 200.834 129.204C200.474 130.068 199.97 130.848 199.322 131.544C198.698 132.24 197.99 132.78 197.198 133.164L197.234 132.336C197.906 132.696 198.458 133.128 198.89 133.632C199.346 134.112 199.694 134.64 199.934 135.216C200.198 135.768 200.354 136.368 200.402 137.016C200.498 137.616 200.558 138.144 200.582 138.6C200.63 139.056 200.702 139.44 200.798 139.752C200.918 140.064 201.134 140.304 201.446 140.472C201.974 140.784 202.298 141.24 202.418 141.84C202.562 142.416 202.43 142.932 202.022 143.388C201.758 143.7 201.422 143.904 201.014 144C200.606 144.072 200.198 144.072 199.79 144C199.382 143.904 199.046 143.784 198.782 143.64C198.374 143.4 197.966 143.052 197.558 142.596C197.15 142.116 196.814 141.48 196.55 140.688C196.31 139.896 196.19 138.876 196.19 137.628C196.19 137.22 196.118 136.848 195.974 136.512C195.83 136.152 195.626 135.852 195.362 135.612C195.098 135.348 194.762 135.156 194.354 135.036C193.946 134.892 193.466 134.82 192.914 134.82H185.642L186.182 133.992V141.804C186.182 142.428 186.014 142.956 185.678 143.388C185.342 143.796 184.874 144 184.274 144ZM185.678 131.112H194.066C194.498 131.112 194.918 130.92 195.326 130.536C195.734 130.128 196.07 129.588 196.334 128.916C196.598 128.22 196.73 127.464 196.73 126.648C196.73 125.592 196.442 124.716 195.866 124.02C195.314 123.3 194.714 122.94 194.066 122.94H185.75L186.182 121.788V131.976L185.678 131.112ZM214.933 144.36C212.893 144.36 211.117 143.94 209.605 143.1C208.117 142.236 206.965 141.072 206.149 139.608C205.357 138.144 204.961 136.488 204.961 134.64C204.961 132.48 205.393 130.644 206.257 129.132C207.145 127.596 208.297 126.42 209.713 125.604C211.129 124.788 212.629 124.38 214.213 124.38C215.437 124.38 216.589 124.632 217.669 125.136C218.773 125.64 219.745 126.336 220.585 127.224C221.425 128.088 222.085 129.096 222.565 130.248C223.069 131.4 223.321 132.624 223.321 133.92C223.297 134.496 223.069 134.964 222.637 135.324C222.205 135.684 221.701 135.864 221.125 135.864H207.373L206.293 132.264H219.505L218.713 132.984V132.012C218.665 131.316 218.413 130.692 217.957 130.14C217.525 129.588 216.973 129.156 216.301 128.844C215.653 128.508 214.957 128.34 214.213 128.34C213.493 128.34 212.821 128.436 212.197 128.628C211.573 128.82 211.033 129.144 210.577 129.6C210.121 130.056 209.761 130.668 209.497 131.436C209.233 132.204 209.101 133.176 209.101 134.352C209.101 135.648 209.365 136.752 209.893 137.664C210.445 138.552 211.141 139.236 211.981 139.716C212.845 140.172 213.757 140.4 214.717 140.4C215.605 140.4 216.313 140.328 216.841 140.184C217.369 140.04 217.789 139.872 218.101 139.68C218.437 139.464 218.737 139.284 219.001 139.14C219.433 138.924 219.841 138.816 220.225 138.816C220.753 138.816 221.185 138.996 221.521 139.356C221.881 139.716 222.061 140.136 222.061 140.616C222.061 141.264 221.725 141.852 221.053 142.38C220.429 142.908 219.553 143.376 218.425 143.784C217.297 144.168 216.133 144.36 214.933 144.36ZM242.864 124.74C243.488 124.74 244.004 124.944 244.412 125.352C244.82 125.76 245.024 126.288 245.024 126.936V149.004C245.024 149.628 244.82 150.144 244.412 150.552C244.004 150.984 243.488 151.2 242.864 151.2C242.24 151.2 241.724 150.984 241.316 150.552C240.908 150.144 240.704 149.628 240.704 149.004V140.04L241.496 140.364C241.496 140.676 241.328 141.06 240.992 141.516C240.656 141.948 240.2 142.38 239.624 142.812C239.048 143.244 238.364 143.616 237.572 143.928C236.804 144.216 235.964 144.36 235.052 144.36C233.396 144.36 231.896 143.94 230.552 143.1C229.208 142.236 228.14 141.06 227.348 139.572C226.58 138.06 226.196 136.332 226.196 134.388C226.196 132.42 226.58 130.692 227.348 129.204C228.14 127.692 229.196 126.516 230.516 125.676C231.836 124.812 233.3 124.38 234.908 124.38C235.94 124.38 236.888 124.536 237.752 124.848C238.616 125.16 239.36 125.556 239.984 126.036C240.632 126.516 241.124 127.008 241.46 127.512C241.82 127.992 242 128.4 242 128.736L240.704 129.204V126.936C240.704 126.312 240.908 125.796 241.316 125.388C241.724 124.956 242.24 124.74 242.864 124.74ZM235.592 140.4C236.648 140.4 237.572 140.136 238.364 139.608C239.156 139.08 239.768 138.36 240.2 137.448C240.656 136.536 240.884 135.516 240.884 134.388C240.884 133.236 240.656 132.204 240.2 131.292C239.768 130.38 239.156 129.66 238.364 129.132C237.572 128.604 236.648 128.34 235.592 128.34C234.56 128.34 233.648 128.604 232.856 129.132C232.064 129.66 231.44 130.38 230.984 131.292C230.552 132.204 230.336 133.236 230.336 134.388C230.336 135.516 230.552 136.536 230.984 137.448C231.44 138.36 232.064 139.08 232.856 139.608C233.648 140.136 234.56 140.4 235.592 140.4ZM263.993 124.74C264.617 124.74 265.133 124.956 265.541 125.388C265.949 125.796 266.153 126.312 266.153 126.936V136.08C266.153 138.624 265.445 140.64 264.029 142.128C262.613 143.616 260.573 144.36 257.909 144.36C255.245 144.36 253.205 143.616 251.789 142.128C250.397 140.64 249.701 138.624 249.701 136.08V126.936C249.701 126.312 249.905 125.796 250.313 125.388C250.721 124.956 251.237 124.74 251.861 124.74C252.485 124.74 253.001 124.956 253.409 125.388C253.817 125.796 254.021 126.312 254.021 126.936V136.08C254.021 137.544 254.345 138.636 254.993 139.356C255.641 140.052 256.613 140.4 257.909 140.4C259.229 140.4 260.213 140.052 260.861 139.356C261.509 138.636 261.833 137.544 261.833 136.08V126.936C261.833 126.312 262.037 125.796 262.445 125.388C262.853 124.956 263.369 124.74 263.993 124.74ZM274.898 141.804C274.898 142.428 274.694 142.956 274.286 143.388C273.878 143.796 273.362 144 272.738 144C272.114 144 271.598 143.796 271.19 143.388C270.782 142.956 270.578 142.428 270.578 141.804V126.936C270.578 126.312 270.782 125.796 271.19 125.388C271.598 124.956 272.114 124.74 272.738 124.74C273.362 124.74 273.878 124.956 274.286 125.388C274.694 125.796 274.898 126.312 274.898 126.936V141.804ZM272.702 122.4C271.886 122.4 271.31 122.268 270.974 122.004C270.638 121.74 270.47 121.272 270.47 120.6V119.916C270.47 119.22 270.65 118.752 271.01 118.512C271.394 118.248 271.97 118.116 272.738 118.116C273.578 118.116 274.166 118.248 274.502 118.512C274.838 118.776 275.006 119.244 275.006 119.916V120.6C275.006 121.296 274.826 121.776 274.466 122.04C274.106 122.28 273.518 122.4 272.702 122.4ZM281.498 144C280.874 144 280.358 143.796 279.95 143.388C279.542 142.956 279.338 142.428 279.338 141.804V126.936C279.338 126.312 279.542 125.796 279.95 125.388C280.358 124.956 280.874 124.74 281.498 124.74C282.122 124.74 282.638 124.956 283.046 125.388C283.454 125.796 283.658 126.312 283.658 126.936V130.32L283.406 127.908C283.67 127.332 284.006 126.828 284.414 126.396C284.846 125.94 285.326 125.568 285.854 125.28C286.382 124.968 286.946 124.74 287.546 124.596C288.146 124.452 288.746 124.38 289.346 124.38C290.066 124.38 290.666 124.584 291.146 124.992C291.65 125.4 291.902 125.88 291.902 126.432C291.902 127.224 291.698 127.8 291.29 128.16C290.882 128.496 290.438 128.664 289.958 128.664C289.502 128.664 289.082 128.58 288.698 128.412C288.338 128.244 287.918 128.16 287.438 128.16C287.006 128.16 286.562 128.268 286.106 128.484C285.674 128.676 285.266 128.988 284.882 129.42C284.522 129.852 284.222 130.392 283.982 131.04C283.766 131.664 283.658 132.408 283.658 133.272V141.804C283.658 142.428 283.454 142.956 283.046 143.388C282.638 143.796 282.122 144 281.498 144ZM303.211 144.36C301.171 144.36 299.395 143.94 297.883 143.1C296.395 142.236 295.243 141.072 294.427 139.608C293.635 138.144 293.239 136.488 293.239 134.64C293.239 132.48 293.671 130.644 294.535 129.132C295.423 127.596 296.575 126.42 297.991 125.604C299.407 124.788 300.907 124.38 302.491 124.38C303.715 124.38 304.867 124.632 305.947 125.136C307.051 125.64 308.023 126.336 308.863 127.224C309.703 128.088 310.363 129.096 310.843 130.248C311.347 131.4 311.599 132.624 311.599 133.92C311.575 134.496 311.347 134.964 310.915 135.324C310.483 135.684 309.979 135.864 309.403 135.864H295.651L294.571 132.264H307.783L306.991 132.984V132.012C306.943 131.316 306.691 130.692 306.235 130.14C305.803 129.588 305.251 129.156 304.579 128.844C303.931 128.508 303.235 128.34 302.491 128.34C301.771 128.34 301.099 128.436 300.475 128.628C299.851 128.82 299.311 129.144 298.855 129.6C298.399 130.056 298.039 130.668 297.775 131.436C297.511 132.204 297.379 133.176 297.379 134.352C297.379 135.648 297.643 136.752 298.171 137.664C298.723 138.552 299.419 139.236 300.259 139.716C301.123 140.172 302.035 140.4 302.995 140.4C303.883 140.4 304.591 140.328 305.119 140.184C305.647 140.04 306.067 139.872 306.379 139.68C306.715 139.464 307.015 139.284 307.279 139.14C307.711 138.924 308.119 138.816 308.503 138.816C309.031 138.816 309.463 138.996 309.799 139.356C310.159 139.716 310.339 140.136 310.339 140.616C310.339 141.264 310.003 141.852 309.331 142.38C308.707 142.908 307.831 143.376 306.703 143.784C305.575 144.168 304.411 144.36 303.211 144.36ZM325.489 124.38C327.409 124.38 328.825 124.848 329.737 125.784C330.649 126.696 331.249 127.884 331.537 129.348L330.925 129.024L331.213 128.448C331.501 127.896 331.945 127.308 332.545 126.684C333.145 126.036 333.865 125.496 334.705 125.064C335.569 124.608 336.529 124.38 337.585 124.38C339.313 124.38 340.621 124.752 341.509 125.496C342.421 126.24 343.045 127.236 343.381 128.484C343.717 129.708 343.885 131.076 343.885 132.588V141.804C343.885 142.428 343.681 142.956 343.273 143.388C342.865 143.796 342.349 144 341.725 144C341.101 144 340.585 143.796 340.177 143.388C339.769 142.956 339.565 142.428 339.565 141.804V132.588C339.565 131.796 339.469 131.088 339.277 130.464C339.085 129.816 338.737 129.3 338.233 128.916C337.729 128.532 337.009 128.34 336.073 128.34C335.161 128.34 334.381 128.532 333.733 128.916C333.085 129.3 332.593 129.816 332.257 130.464C331.945 131.088 331.789 131.796 331.789 132.588V141.804C331.789 142.428 331.585 142.956 331.177 143.388C330.769 143.796 330.253 144 329.629 144C329.005 144 328.489 143.796 328.081 143.388C327.673 142.956 327.469 142.428 327.469 141.804V132.588C327.469 131.796 327.373 131.088 327.181 130.464C326.989 129.816 326.641 129.3 326.137 128.916C325.633 128.532 324.913 128.34 323.977 128.34C323.065 128.34 322.285 128.532 321.637 128.916C320.989 129.3 320.497 129.816 320.161 130.464C319.849 131.088 319.693 131.796 319.693 132.588V141.804C319.693 142.428 319.489 142.956 319.081 143.388C318.673 143.796 318.157 144 317.533 144C316.909 144 316.393 143.796 315.985 143.388C315.577 142.956 315.373 142.428 315.373 141.804V126.936C315.373 126.312 315.577 125.796 315.985 125.388C316.393 124.956 316.909 124.74 317.533 124.74C318.157 124.74 318.673 124.956 319.081 125.388C319.489 125.796 319.693 126.312 319.693 126.936V128.484L319.153 128.376C319.369 127.968 319.669 127.536 320.053 127.08C320.437 126.6 320.905 126.156 321.457 125.748C322.009 125.34 322.621 125.016 323.293 124.776C323.965 124.512 324.697 124.38 325.489 124.38ZM357.633 144.36C355.593 144.36 353.817 143.94 352.305 143.1C350.817 142.236 349.665 141.072 348.849 139.608C348.057 138.144 347.661 136.488 347.661 134.64C347.661 132.48 348.093 130.644 348.957 129.132C349.845 127.596 350.997 126.42 352.413 125.604C353.829 124.788 355.329 124.38 356.913 124.38C358.137 124.38 359.289 124.632 360.369 125.136C361.473 125.64 362.445 126.336 363.285 127.224C364.125 128.088 364.785 129.096 365.265 130.248C365.769 131.4 366.021 132.624 366.021 133.92C365.997 134.496 365.769 134.964 365.337 135.324C364.905 135.684 364.401 135.864 363.825 135.864H350.073L348.993 132.264H362.205L361.413 132.984V132.012C361.365 131.316 361.113 130.692 360.657 130.14C360.225 129.588 359.673 129.156 359.001 128.844C358.353 128.508 357.657 128.34 356.913 128.34C356.193 128.34 355.521 128.436 354.897 128.628C354.273 128.82 353.733 129.144 353.277 129.6C352.821 130.056 352.461 130.668 352.197 131.436C351.933 132.204 351.801 133.176 351.801 134.352C351.801 135.648 352.065 136.752 352.593 137.664C353.145 138.552 353.841 139.236 354.681 139.716C355.545 140.172 356.457 140.4 357.417 140.4C358.305 140.4 359.013 140.328 359.541 140.184C360.069 140.04 360.489 139.872 360.801 139.68C361.137 139.464 361.437 139.284 361.701 139.14C362.133 138.924 362.541 138.816 362.925 138.816C363.453 138.816 363.885 138.996 364.221 139.356C364.581 139.716 364.761 140.136 364.761 140.616C364.761 141.264 364.425 141.852 363.753 142.38C363.129 142.908 362.253 143.376 361.125 143.784C359.997 144.168 358.833 144.36 357.633 144.36ZM380.091 124.38C381.867 124.38 383.211 124.752 384.123 125.496C385.059 126.24 385.695 127.236 386.031 128.484C386.391 129.708 386.571 131.076 386.571 132.588V141.804C386.571 142.428 386.367 142.956 385.959 143.388C385.551 143.796 385.035 144 384.411 144C383.787 144 383.271 143.796 382.863 143.388C382.455 142.956 382.251 142.428 382.251 141.804V132.588C382.251 131.796 382.143 131.088 381.927 130.464C381.735 129.816 381.375 129.3 380.847 128.916C380.319 128.532 379.563 128.34 378.579 128.34C377.619 128.34 376.803 128.532 376.131 128.916C375.483 129.3 374.979 129.816 374.619 130.464C374.283 131.088 374.115 131.796 374.115 132.588V141.804C374.115 142.428 373.911 142.956 373.503 143.388C373.095 143.796 372.579 144 371.955 144C371.331 144 370.815 143.796 370.407 143.388C369.999 142.956 369.795 142.428 369.795 141.804V126.936C369.795 126.312 369.999 125.796 370.407 125.388C370.815 124.956 371.331 124.74 371.955 124.74C372.579 124.74 373.095 124.956 373.503 125.388C373.911 125.796 374.115 126.312 374.115 126.936V128.484L373.575 128.376C373.791 127.968 374.103 127.536 374.511 127.08C374.919 126.6 375.399 126.156 375.951 125.748C376.503 125.34 377.127 125.016 377.823 124.776C378.519 124.512 379.275 124.38 380.091 124.38ZM391.456 125.1H399.988C400.564 125.1 401.044 125.292 401.428 125.676C401.812 126.06 402.004 126.54 402.004 127.116C402.004 127.668 401.812 128.136 401.428 128.52C401.044 128.88 400.564 129.06 399.988 129.06H391.456C390.88 129.06 390.4 128.868 390.016 128.484C389.632 128.1 389.44 127.62 389.44 127.044C389.44 126.492 389.632 126.036 390.016 125.676C390.4 125.292 390.88 125.1 391.456 125.1ZM395.308 120.6C395.932 120.6 396.436 120.816 396.82 121.248C397.228 121.656 397.432 122.172 397.432 122.796V138.816C397.432 139.152 397.492 139.428 397.612 139.644C397.756 139.86 397.936 140.016 398.152 140.112C398.392 140.208 398.644 140.256 398.908 140.256C399.196 140.256 399.46 140.208 399.7 140.112C399.94 139.992 400.216 139.932 400.528 139.932C400.864 139.932 401.164 140.088 401.428 140.4C401.716 140.712 401.86 141.144 401.86 141.696C401.86 142.368 401.488 142.92 400.744 143.352C400.024 143.784 399.244 144 398.404 144C397.9 144 397.336 143.964 396.712 143.892C396.112 143.796 395.536 143.592 394.984 143.28C394.456 142.944 394.012 142.44 393.652 141.768C393.292 141.096 393.112 140.172 393.112 138.996V122.796C393.112 122.172 393.316 121.656 393.724 121.248C394.156 120.816 394.684 120.6 395.308 120.6ZM405.558 141.012C405.318 140.676 405.21 140.244 405.234 139.716C405.258 139.188 405.57 138.732 406.17 138.348C406.554 138.108 406.962 138.012 407.394 138.06C407.826 138.084 408.246 138.3 408.654 138.708C409.35 139.404 410.082 139.944 410.85 140.328C411.618 140.712 412.578 140.904 413.73 140.904C414.09 140.88 414.486 140.832 414.918 140.76C415.35 140.664 415.722 140.472 416.034 140.184C416.37 139.872 416.538 139.404 416.538 138.78C416.538 138.252 416.358 137.832 415.998 137.52C415.638 137.208 415.158 136.944 414.558 136.728C413.982 136.512 413.334 136.308 412.614 136.116C411.87 135.9 411.102 135.66 410.31 135.396C409.542 135.132 408.834 134.796 408.186 134.388C407.538 133.956 407.01 133.392 406.602 132.696C406.194 132 405.99 131.124 405.99 130.068C405.99 128.868 406.326 127.848 406.998 127.008C407.67 126.168 408.534 125.52 409.59 125.064C410.67 124.608 411.798 124.38 412.974 124.38C413.718 124.38 414.498 124.476 415.314 124.668C416.13 124.836 416.91 125.124 417.654 125.532C418.398 125.916 419.022 126.432 419.526 127.08C419.79 127.44 419.946 127.872 419.994 128.376C420.042 128.88 419.814 129.336 419.31 129.744C418.95 130.032 418.53 130.164 418.05 130.14C417.57 130.092 417.174 129.924 416.862 129.636C416.454 129.108 415.902 128.688 415.206 128.376C414.534 128.064 413.754 127.908 412.866 127.908C412.506 127.908 412.11 127.956 411.678 128.052C411.27 128.124 410.91 128.304 410.598 128.592C410.286 128.856 410.13 129.288 410.13 129.888C410.13 130.44 410.31 130.884 410.67 131.22C411.03 131.532 411.51 131.796 412.11 132.012C412.734 132.204 413.394 132.396 414.09 132.588C414.81 132.78 415.542 133.008 416.286 133.272C417.03 133.536 417.714 133.884 418.338 134.316C418.962 134.748 419.466 135.312 419.85 136.008C420.234 136.68 420.426 137.544 420.426 138.6C420.426 139.824 420.066 140.868 419.346 141.732C418.626 142.596 417.726 143.256 416.646 143.712C415.566 144.144 414.462 144.36 413.334 144.36C411.918 144.36 410.502 144.12 409.086 143.64C407.67 143.136 406.494 142.26 405.558 141.012Z" fill="#29375B"/>
<path d="M209.204 42.6798C206.407 42.3596 196.291 42.3486 193.645 42.6743C191 42.9999 189.638 43.9291 186.901 46.0542C184.165 48.1793 181.925 49.4719 181.925 49.4719V53.9999H219.925V49.4719C219.925 49.4719 218 48 215.948 46.0521C213.896 44.1042 212 43 209.204 42.6798Z" fill="#FCD95B" stroke="#FCD95B"/>
<circle cx="193.925" cy="48" r="3" fill="white"/>
<circle cx="207.925" cy="48" r="3" fill="white"/>
<path d="M212.4 19.3334L207.125 31H192.725L187.7 19.8334L190.5 18.5001L195.925 30.1111H204.325L210 18.0001L212.4 19.3334Z" fill="#29375B" stroke="#29375B"/>
<circle cx="188" cy="17" r="3" fill="#29375B"/>
<circle cx="212" cy="17" r="3" fill="#29375B"/>
<path d="M178.004 39.7496C180.029 42.1512 179.113 43.3493 179.488 43.3921L180.238 43.4775L179.309 51.633L177.059 51.3767C177.059 51.3767 176.684 52.1701 174.605 53.0318C172.527 53.8934 171.418 54.2073 171.092 53.736C170.765 53.2646 172.255 50.1953 173.863 48.6661C175.471 47.1368 176.848 46.5646 176.848 46.5646C177.144 46.2974 176.896 46.136 176.896 46.136C176.896 46.136 174.441 43.5945 173.866 41.3884C173.291 39.1823 173.373 37.0511 173.748 37.0938C173.748 37.0938 175.979 37.348 178.004 39.7496Z" fill="#29375B" stroke="#29375B"/>
<path d="M221.925 52C221.925 57.1797 221.921 60.8744 221.581 63.6042C221.241 66.3245 220.611 67.6489 219.719 68.4445C218.778 69.283 217.17 69.8779 214.024 70.1894C210.912 70.4976 206.718 70.5 200.925 70.5C195.131 70.5 190.937 70.4976 187.825 70.1894C184.68 69.8779 183.071 69.283 182.13 68.4445C181.238 67.6489 180.608 66.3245 180.269 63.6042C179.928 60.8744 179.925 57.1797 179.925 52C179.925 40.402 189.327 31 200.925 31C212.523 31 221.925 40.402 221.925 52Z" stroke="#29375B" stroke-width="4"/>
<path d="M108.16 38.3516H118.285V43.1855H116.123V65H110.287L99.1953 47.7734V60.1836H101.428V65H91.3203V60.1836H93.5176V43.1855H91.3555V38.3516H99.4062L110.428 55.8066V43.1855H108.16V38.3516ZM120.588 46.7891H128.762V60.1836H131.293V65H120.588V60.1836H123.33V51.6055H120.588V46.7891ZM123.049 40.918C123.049 40.4844 123.125 40.0801 123.277 39.7051C123.441 39.3184 123.664 38.9844 123.945 38.7031C124.227 38.4219 124.555 38.1992 124.93 38.0352C125.316 37.8711 125.732 37.7891 126.178 37.7891C126.6 37.7891 126.998 37.8711 127.373 38.0352C127.748 38.1992 128.076 38.4219 128.357 38.7031C128.639 38.9844 128.861 39.3184 129.025 39.7051C129.189 40.0801 129.271 40.4844 129.271 40.918C129.271 41.3516 129.189 41.7617 129.025 42.1484C128.861 42.5234 128.639 42.8516 128.357 43.1328C128.076 43.4141 127.748 43.6367 127.373 43.8008C126.998 43.9648 126.6 44.0469 126.178 44.0469C125.732 44.0469 125.316 43.9648 124.93 43.8008C124.555 43.6367 124.227 43.4141 123.945 43.1328C123.664 42.8516 123.441 42.5234 123.277 42.1484C123.125 41.7617 123.049 41.3516 123.049 40.918ZM149.451 54.5234C149.451 53.5039 149.182 52.707 148.643 52.1328C148.104 51.5469 147.389 51.2539 146.498 51.2539C145.889 51.2539 145.273 51.3887 144.652 51.6582C144.031 51.9277 143.428 52.4316 142.842 53.1699V60.1836H145.795V65H134.475V60.1836H137.146V51.6055H134.51V46.7891H142.807V48.3887C143.568 47.791 144.418 47.3223 145.355 46.9824C146.305 46.6309 147.301 46.4551 148.344 46.4551C150.535 46.4551 152.223 47.0703 153.406 48.3008C154.59 49.5195 155.182 51.3066 155.182 53.6621V60.1836H157.766V65H149.451V54.5234ZM159.629 46.7891H167.627V65.3164C167.627 66.7109 167.451 67.9062 167.1 68.9023C166.76 69.8984 166.256 70.7188 165.588 71.3633C164.932 72.0078 164.117 72.4824 163.145 72.7871C162.172 73.0918 161.059 73.2441 159.805 73.2441L159.734 69.2539C160.578 69.2188 161.205 68.8789 161.615 68.2344C162.025 67.6016 162.23 66.752 162.23 65.6855V51.6055H159.629V46.7891ZM161.932 40.918C161.932 40.4844 162.008 40.0801 162.16 39.7051C162.324 39.3184 162.547 38.9844 162.828 38.7031C163.109 38.4219 163.438 38.1992 163.812 38.0352C164.199 37.8711 164.615 37.7891 165.061 37.7891C165.482 37.7891 165.881 37.8711 166.256 38.0352C166.643 38.1992 166.977 38.4219 167.258 38.7031C167.551 38.9844 167.779 39.3184 167.943 39.7051C168.119 40.0801 168.207 40.4844 168.207 40.918C168.207 41.3516 168.119 41.7617 167.943 42.1484C167.779 42.5234 167.551 42.8516 167.258 43.1328C166.977 43.4141 166.643 43.6367 166.256 43.8008C165.881 43.9648 165.482 44.0469 165.061 44.0469C164.615 44.0469 164.199 43.9648 163.812 43.8008C163.438 43.6367 163.109 43.4141 162.828 43.1328C162.547 42.8516 162.324 42.5234 162.16 42.1484C162.008 41.7617 161.932 41.3516 161.932 40.918Z" fill="#29375B"/>
<path d="M245.545 48.4551C244.889 47.5176 244.297 46.8555 243.77 46.4688C243.242 46.0703 242.674 45.7891 242.064 45.625C241.455 45.4492 240.816 45.3613 240.148 45.3613C239.164 45.3613 238.25 45.584 237.406 46.0293C236.562 46.4629 235.83 47.0605 235.209 47.8223C234.6 48.5723 234.119 49.4512 233.768 50.459C233.416 51.4551 233.24 52.5156 233.24 53.6406C233.24 54.7773 233.41 55.8496 233.75 56.8574C234.102 57.8535 234.582 58.7266 235.191 59.4766C235.801 60.2266 236.527 60.8242 237.371 61.2695C238.215 61.7031 239.141 61.9199 240.148 61.9199C240.852 61.9199 241.508 61.8086 242.117 61.5859C242.727 61.3516 243.277 61.0469 243.77 60.6719C244.273 60.2969 244.713 59.8691 245.088 59.3887C245.463 58.8965 245.756 58.3867 245.967 57.8594L251.627 59.4414C251.264 60.5898 250.73 61.6562 250.027 62.6406C249.324 63.6133 248.475 64.457 247.479 65.1719C246.494 65.8867 245.381 66.4492 244.139 66.8594C242.908 67.2695 241.578 67.4746 240.148 67.4746C238.941 67.4746 237.787 67.3105 236.686 66.9824C235.584 66.6543 234.553 66.1914 233.592 65.5938C232.643 64.9961 231.775 64.2754 230.99 63.4316C230.217 62.5879 229.555 61.6562 229.004 60.6367C228.453 59.6055 228.025 58.5039 227.721 57.332C227.416 56.1484 227.264 54.918 227.264 53.6406C227.264 51.7305 227.598 49.9434 228.266 48.2793C228.934 46.6035 229.848 45.1445 231.008 43.9023C232.168 42.6484 233.527 41.6641 235.086 40.9492C236.656 40.2227 238.344 39.8594 240.148 39.8594C241.59 39.8594 242.803 40.041 243.787 40.4043C244.771 40.7559 245.855 41.459 247.039 42.5137H250.977V48.4551H245.545ZM267.465 67.4746C266.258 67.4746 265.104 67.3105 264.002 66.9824C262.9 66.6543 261.869 66.1914 260.908 65.5938C259.959 64.9961 259.092 64.2812 258.307 63.4492C257.533 62.6055 256.871 61.6738 256.32 60.6543C255.77 59.623 255.342 58.5215 255.037 57.3496C254.732 56.1777 254.58 54.9531 254.58 53.6758C254.58 52.3984 254.732 51.1738 255.037 50.002C255.342 48.8184 255.77 47.7168 256.32 46.6973C256.871 45.666 257.533 44.7344 258.307 43.9023C259.092 43.0586 259.959 42.3379 260.908 41.7402C261.869 41.1426 262.9 40.6797 264.002 40.3516C265.104 40.0234 266.258 39.8594 267.465 39.8594C268.672 39.8594 269.826 40.0234 270.928 40.3516C272.041 40.6797 273.072 41.1426 274.021 41.7402C274.982 42.3379 275.85 43.0586 276.623 43.9023C277.408 44.7344 278.076 45.666 278.627 46.6973C279.189 47.7168 279.623 48.8184 279.928 50.002C280.232 51.1738 280.385 52.3984 280.385 53.6758C280.385 54.9414 280.232 56.166 279.928 57.3496C279.623 58.5215 279.189 59.623 278.627 60.6543C278.076 61.6738 277.408 62.6055 276.623 63.4492C275.85 64.2812 274.982 64.9961 274.021 65.5938C273.072 66.1914 272.041 66.6543 270.928 66.9824C269.826 67.3105 268.672 67.4746 267.465 67.4746ZM267.465 61.9551C268.484 61.9551 269.416 61.7383 270.26 61.3047C271.115 60.8594 271.848 60.2617 272.457 59.5117C273.066 58.75 273.535 57.8711 273.863 56.875C274.203 55.8672 274.373 54.8008 274.373 53.6758C274.373 52.5391 274.203 51.4668 273.863 50.459C273.523 49.4512 273.043 48.5723 272.422 47.8223C271.812 47.0605 271.086 46.4629 270.242 46.0293C269.398 45.584 268.473 45.3613 267.465 45.3613C266.457 45.3613 265.531 45.584 264.688 46.0293C263.844 46.4629 263.117 47.0605 262.508 47.8223C261.898 48.5723 261.418 49.4512 261.066 50.459C260.727 51.4668 260.557 52.5391 260.557 53.6758C260.557 54.8008 260.727 55.8672 261.066 56.875C261.418 57.8711 261.898 58.75 262.508 59.5117C263.117 60.2617 263.844 60.8594 264.688 61.3047C265.531 61.7383 266.457 61.9551 267.465 61.9551Z" fill="#29375B"/>
<path d="M1282.55 136.284C1283.98 135.874 1285.26 135.721 1286.41 135.746C1285.26 135.746 1283.98 135.951 1282.55 136.361V136.284Z" fill="#29375B"/>
<path d="M1286.41 135.747C1295.14 135.695 1296.65 146.164 1296.65 146.164H1296.39C1296.37 146.164 1294.91 135.926 1286.41 135.747Z" fill="#29375B"/>
<path d="M1257.87 135.747C1259.02 135.721 1260.3 135.9 1261.74 136.284V136.361C1260.3 135.951 1259.02 135.747 1257.87 135.747Z" fill="#29375B"/>
<path d="M1253.75 100.86V100.911H1253.62C1253.68 100.911 1253.7 100.885 1253.75 100.86Z" fill="#29375B"/>
<path d="M1292.63 109.511L1292.55 109.921C1292.61 109.819 1292.61 109.665 1292.63 109.511ZM1255.31 104.162L1255.31 104.164C1255.36 104.624 1255.42 105.084 1255.47 105.57C1255.54 106.158 1255.62 106.722 1255.75 107.285C1255.98 108.385 1256.29 109.46 1256.64 110.484C1256.77 110.791 1256.87 111.098 1257 111.38C1257.31 112.071 1257.62 112.762 1257.97 113.376C1258.23 113.811 1258.49 114.247 1258.77 114.656C1259.97 116.448 1261.48 118.009 1263.17 119.314C1264.91 120.645 1266.91 121.9 1269.06 122.412C1270.49 122.744 1271.98 122.975 1273.46 123.051C1273.61 123.051 1273.77 123.051 1273.92 123.077C1274.07 123.077 1274.23 123.077 1274.38 123.051C1275.87 122.975 1277.33 122.744 1278.78 122.412C1280.93 121.9 1282.96 120.671 1284.67 119.314C1286.39 118.009 1287.87 116.448 1289.07 114.656C1289.35 114.247 1289.61 113.811 1289.87 113.376C1290.23 112.736 1290.53 112.071 1290.84 111.38C1290.97 111.073 1291.1 110.791 1291.2 110.484C1291.56 109.46 1291.86 108.411 1292.09 107.285C1292.22 106.722 1292.3 106.158 1292.38 105.57C1292.45 105.109 1292.48 104.648 1292.53 104.162C1292.58 103.394 1292.61 102.703 1292.53 102.063L1292.5 101.858C1292.48 101.5 1292.2 101.219 1291.89 101.219H1255.95C1255.62 101.219 1255.36 101.5 1255.34 101.858L1255.31 102.063C1255.24 102.703 1255.26 103.394 1255.31 104.162Z" fill="#29375B"/>
<path fill-rule="evenodd" clip-rule="evenodd" d="M1292.63 109.511L1292.55 109.921C1292.61 109.819 1292.61 109.665 1292.63 109.511ZM1255.31 104.164L1255.31 104.162C1255.26 103.394 1255.24 102.703 1255.31 102.063L1255.34 101.858C1255.36 101.5 1255.62 101.219 1255.95 101.219H1291.89C1292.2 101.219 1292.48 101.5 1292.5 101.858L1292.53 102.063C1292.61 102.703 1292.58 103.394 1292.53 104.162C1292.48 104.648 1292.45 105.109 1292.38 105.57C1292.3 106.158 1292.22 106.722 1292.09 107.285C1291.86 108.411 1291.56 109.46 1291.2 110.484C1291.1 110.791 1290.97 111.073 1290.84 111.38C1290.53 112.071 1290.23 112.736 1289.87 113.376C1289.61 113.811 1289.35 114.247 1289.07 114.656C1287.87 116.448 1286.39 118.009 1284.67 119.314C1282.96 120.671 1280.93 121.9 1278.78 122.412C1277.33 122.744 1275.87 122.975 1274.38 123.051C1274.23 123.077 1274.07 123.077 1273.92 123.077C1273.77 123.051 1273.61 123.051 1273.46 123.051C1271.98 122.975 1270.49 122.744 1269.06 122.412C1266.91 121.9 1264.91 120.645 1263.17 119.314C1261.48 118.009 1259.97 116.448 1258.77 114.656C1258.49 114.247 1258.23 113.811 1257.97 113.376C1257.62 112.762 1257.31 112.071 1257 111.38C1256.87 111.098 1256.77 110.791 1256.64 110.484C1256.29 109.46 1255.98 108.385 1255.75 107.285C1255.62 106.722 1255.54 106.158 1255.47 105.57C1255.42 105.084 1255.36 104.624 1255.31 104.164Z" fill="#29375B"/>
<path fill-rule="evenodd" clip-rule="evenodd" d="M1252.75 101.807C1252.7 101.602 1252.68 101.398 1252.63 101.193C1252.57 100.911 1252.5 100.476 1252.78 100.144C1253.06 99.8108 1253.44 99.8364 1253.7 99.8364H1253.85C1257.16 99.862 1260.46 99.862 1263.78 99.862H1263.79H1284.08H1284.08C1287.38 99.862 1290.69 99.862 1294.01 99.8364H1294.17C1294.45 99.8364 1295.01 99.8555 1295.05 100.163V101.55C1295.09 102.341 1295.69 102.325 1296.44 102.383C1300.05 102.66 1305.63 101.55 1307.82 103.493C1309.93 105.372 1293.15 120.756 1292.56 121.004C1292.55 120.994 1292.55 120.985 1292.55 120.976C1292.53 121.003 1292.54 121.012 1292.56 121.004C1292.62 121.275 1293.66 121.623 1293.66 124.306C1293.66 127.081 1292.55 129.024 1288.94 129.024C1285.97 129.024 1284.7 126.952 1284.34 126.222V125.971H1288.11C1288.94 125.971 1288.94 124.306 1288.94 124.306C1288.94 124.306 1288.94 122.919 1288.11 122.919H1284.5V121.809C1284.5 121.809 1284.86 121.354 1285.44 120.833C1285.8 120.572 1286.16 120.299 1286.51 120.015C1287.15 119.618 1287.89 119.313 1288.67 119.314C1290.89 119.318 1291.79 120.143 1291.79 120.143C1292.54 118.634 1307.82 104.88 1305.32 104.162C1302.99 103.494 1297.14 104.162 1295.48 104.162C1294.92 104.162 1294.29 104.136 1294.22 104.162C1293.58 107.438 1293.45 110.791 1291.79 113.76C1290.45 116.155 1288.64 118.287 1286.51 120.015C1286.1 120.269 1285.74 120.56 1285.44 120.833C1285.08 121.089 1284.71 121.334 1284.34 121.567V125.971H1284.23C1284.23 125.971 1284.26 126.066 1284.34 126.222V136.643C1285.77 136.233 1287.05 136.028 1288.2 136.028C1296.7 136.207 1298.19 146.446 1298.19 146.446H1276.79C1276.25 142.504 1281.34 137.641 1281.34 137.641V123.077C1279.12 123.998 1276.74 124.51 1274.33 124.51H1273.9H1273.46C1271.03 124.51 1268.65 123.998 1266.45 123.077V137.641C1266.45 137.641 1271.54 142.504 1271 146.446H1249.63C1249.63 146.446 1251.09 136.182 1259.61 136.028C1260.76 136.028 1262.04 136.207 1263.48 136.643V121.567C1260.38 119.647 1257.77 116.934 1256 113.76C1254.44 110.945 1253.88 107.822 1253.27 104.725L1231.22 92.9474C1231.22 92.9474 1229.83 96.2775 1226.23 96.2775C1222.62 96.2775 1220.68 93.5024 1220.68 91.2823C1220.68 89.0622 1222.06 87.3971 1222.06 87.3971L1217.07 84.8995C1217.07 84.8995 1216.79 83.512 1217.35 82.6794C1217.9 81.8469 1219.57 82.4019 1219.57 82.4019C1219.57 82.4019 1223.73 84.067 1228.17 85.7321C1232.61 87.3971 1231.78 91.5598 1231.78 91.5598L1252.75 101.807ZM1292.63 109.511L1292.55 109.921C1292.61 109.819 1292.61 109.665 1292.63 109.511ZM1255.75 107.285C1255.62 106.722 1255.54 106.158 1255.47 105.57C1255.42 105.084 1255.36 104.624 1255.31 104.164L1255.31 104.162C1255.26 103.394 1255.24 102.703 1255.31 102.063L1255.34 101.858C1255.36 101.5 1255.62 101.219 1255.95 101.219H1291.89C1292.2 101.219 1292.48 101.5 1292.5 101.858L1292.53 102.063C1292.61 102.703 1292.58 103.394 1292.53 104.162C1292.48 104.648 1292.45 105.109 1292.38 105.57C1292.3 106.158 1292.22 106.722 1292.09 107.285C1291.86 108.411 1291.56 109.46 1291.2 110.484C1291.1 110.791 1290.97 111.073 1290.84 111.38C1290.53 112.071 1290.23 112.736 1289.87 113.376C1289.61 113.811 1289.35 114.247 1289.07 114.656C1287.87 116.448 1286.39 118.009 1284.67 119.314C1282.96 120.671 1280.93 121.9 1278.78 122.412C1277.33 122.744 1275.87 122.975 1274.38 123.051C1274.23 123.077 1274.07 123.077 1273.92 123.077C1273.77 123.051 1273.61 123.051 1273.46 123.051C1271.98 122.975 1270.49 122.744 1269.06 122.412C1266.91 121.9 1264.91 120.645 1263.17 119.314C1261.48 118.009 1259.97 116.448 1258.77 114.656C1258.49 114.247 1258.23 113.811 1257.97 113.376C1257.62 112.762 1257.31 112.071 1257 111.38C1256.87 111.098 1256.77 110.791 1256.64 110.484C1256.29 109.46 1255.98 108.385 1255.75 107.285Z" fill="#29375B"/>
<path d="M1253.55 100.911C1253.55 100.937 1253.55 100.937 1253.55 100.911C1253.58 100.937 1253.6 100.911 1253.62 100.911H1253.55Z" fill="#29375B"/>
<path d="M1253.75 100.86V100.911H1253.62C1253.68 100.911 1253.7 100.885 1253.75 100.86ZM1253.75 100.86V100.911H1253.62C1253.68 100.911 1253.7 100.885 1253.75 100.86ZM1253.75 100.86V100.911H1253.62C1253.68 100.911 1253.7 100.885 1253.75 100.86Z" fill="#29375B"/>
<path d="M1292.07 109.639C1292.1 109.511 1292.12 109.358 1292.14 109.23L1292.07 109.639Z" fill="#29375B"/>
<path d="M1285.92 90.0076H1277.25V83.3016H1285.92V90.0076ZM1285.64 83.6088H1277.56V89.7261H1285.64V83.6088Z" fill="#29375B"/>
<path d="M1280.22 83.609H1281.24V89.7263H1280.22V83.609Z" fill="#29375B"/>
<path d="M1281.65 83.609H1282.67V89.7263H1281.65V83.609Z" fill="#29375B"/>
<path d="M1278.78 83.609H1279.81V89.7263H1278.78V83.609Z" fill="#29375B"/>
<path d="M1283.29 83.609H1284.31V89.7263H1283.29V83.609Z" fill="#29375B"/>
<path d="M1284.9 83.5321H1285.92V89.7774H1284.9V83.5321Z" fill="#29375B"/>
<path d="M1277.27 83.5321H1278.3V89.7774H1277.27V83.5321Z" fill="#29375B"/>
<path d="M1264.66 55.5562L1259.2 44.9342C1258.08 44.8062 1257.05 44.1407 1256.52 43.0657C1255.65 41.3508 1256.31 39.252 1258.03 38.3817C1259.74 37.5115 1261.84 38.177 1262.71 39.8919C1263.27 40.9669 1263.2 42.1954 1262.66 43.1681L1268.21 53.9693H1270.06C1270.98 53.8414 1271.95 53.7646 1272.92 53.7646H1275.51C1276.43 53.7646 1277.35 53.8414 1278.25 53.9693H1278.91L1284.47 43.1681C1283.93 42.1954 1283.85 40.9669 1284.41 39.8919C1285.28 38.177 1287.38 37.5115 1289.1 38.3817C1290.81 39.252 1291.48 41.3508 1290.61 43.0657C1290.05 44.1407 1289.02 44.8062 1287.92 44.9342L1282.65 55.1979C1288.33 57.5783 1292.68 62.6718 1293.71 68.8147C1295.57 66.4343 1298.08 65.1545 1301.23 65.0777C1301.28 65.0777 1301.36 65.0521 1301.41 65.0521V66.2551C1301.26 66.9462 1301.15 67.6629 1300.95 68.3284C1300.05 71.2718 1298.39 73.5754 1295.52 74.9064C1295.47 74.932 1295.45 74.9576 1295.4 74.9832C1295.4 74.9832 1295.4 75.0088 1295.37 75.0599C1295.42 75.0855 1295.47 75.1367 1295.55 75.1623C1298.95 76.8516 1300.69 79.6927 1301.28 83.3529C1301.31 83.5064 1301.33 83.66 1301.38 83.788V84.991C1299.21 84.9398 1297.21 84.3511 1295.5 83.0201C1294.93 82.585 1294.42 82.0475 1293.88 81.5356V95.2291H1253.37V73.9337C1253.34 65.7688 1257.87 58.7301 1264.66 55.5562ZM1291.61 71.7837C1291.61 63.0813 1283.93 56.017 1275.23 56.017H1272.69C1262.91 56.017 1255.62 63.9259 1255.62 73.7034V74.4713C1256.64 70.5552 1260.1 67.6629 1264.35 67.6373C1270.52 67.5861 1276.71 67.5861 1282.88 67.6373C1287.05 67.6629 1290.53 70.4016 1291.61 74.3433V71.7837ZM1263.61 74.932C1263.61 76.5957 1264.94 77.9266 1266.57 77.9266C1268.21 77.9266 1269.57 76.5701 1269.54 74.932C1269.54 73.3195 1268.19 71.9629 1266.57 71.9629C1264.94 71.9373 1263.61 73.2683 1263.61 74.932ZM1277.5 74.9576C1277.5 76.5957 1278.86 77.9266 1280.52 77.9266C1282.14 77.9266 1283.47 76.5701 1283.47 74.9576C1283.47 73.2939 1282.14 71.9629 1280.47 71.9629C1278.83 71.9629 1277.5 73.2939 1277.5 74.9576ZM1255.59 92.9511H1291.61V81.3308H1255.62V92.9511H1255.59Z" fill="#29375B"/>
</svg>
