<svg width="1363" height="173" viewBox="0 0 1363 173" fill="none" xmlns="http://www.w3.org/2000/svg">
<mask id="path-1-inside-1_1163_1098" fill="white">
<path d="M0 10C0 4.47715 4.47715 0 10 0H1353C1358.52 0 1363 4.47715 1363 10V163C1363 168.523 1358.52 173 1353 173H9.99997C4.47712 173 0 168.523 0 163V10Z"/>
</mask>
<path d="M0 10C0 4.47715 4.47715 0 10 0H1353C1358.52 0 1363 4.47715 1363 10V163C1363 168.523 1358.52 173 1353 173H9.99997C4.47712 173 0 168.523 0 163V10Z" fill="#FFFBEF"/>
<path d="M0 0H1363H0ZM1363 173H0H1363ZM10 173C-15.9574 173 -37 151.957 -37 126V47C-37 21.0426 -15.9574 0 10 0H37C37 0 37 4.47715 37 10V163C37 168.523 37 173 37 173H10ZM1456.5 0C1504.27 0 1543 38.7274 1543 86.5C1543 134.273 1504.27 173 1456.5 173H1183C1183 173 1183 168.523 1183 163V10C1183 4.47715 1183 0 1183 0H1456.5Z" fill="#FCD95B" mask="url(#path-1-inside-1_1163_1098)"/>
<path d="M120.132 120.692C120.684 120.692 121.212 120.908 121.716 121.34C122.22 121.748 122.472 122.312 122.472 123.032C122.472 123.248 122.436 123.488 122.364 123.752L115.272 144.632C115.128 145.064 114.864 145.4 114.48 145.64C114.12 145.856 113.736 145.976 113.328 146C112.92 146 112.512 145.88 112.104 145.64C111.72 145.4 111.42 145.052 111.204 144.596L105.876 132.5L106.2 132.716L100.944 144.596C100.728 145.052 100.416 145.4 100.008 145.64C99.6236 145.88 99.2276 146 98.8196 146C98.4356 145.976 98.0516 145.856 97.6676 145.64C97.2836 145.4 97.0196 145.064 96.8756 144.632L89.7836 123.752C89.7116 123.488 89.6756 123.248 89.6756 123.032C89.6756 122.312 89.9276 121.748 90.4316 121.34C90.9596 120.908 91.4996 120.692 92.0516 120.692C92.5076 120.692 92.9276 120.812 93.3116 121.052C93.7196 121.292 93.9956 121.64 94.1396 122.096L99.8636 139.448L99.0716 139.412L104.184 127.136C104.376 126.704 104.652 126.368 105.012 126.128C105.372 125.864 105.78 125.744 106.236 125.768C106.692 125.744 107.1 125.864 107.46 126.128C107.82 126.368 108.084 126.704 108.252 127.136L112.932 138.872L112.356 139.232L118.008 122.096C118.152 121.64 118.428 121.292 118.836 121.052C119.244 120.812 119.676 120.692 120.132 120.692ZM129.469 143.804C129.469 144.428 129.265 144.956 128.857 145.388C128.449 145.796 127.933 146 127.309 146C126.685 146 126.169 145.796 125.761 145.388C125.353 144.956 125.149 144.428 125.149 143.804V128.936C125.149 128.312 125.353 127.796 125.761 127.388C126.169 126.956 126.685 126.74 127.309 126.74C127.933 126.74 128.449 126.956 128.857 127.388C129.265 127.796 129.469 128.312 129.469 128.936V143.804ZM127.273 124.4C126.457 124.4 125.881 124.268 125.545 124.004C125.209 123.74 125.041 123.272 125.041 122.6V121.916C125.041 121.22 125.221 120.752 125.581 120.512C125.965 120.248 126.541 120.116 127.309 120.116C128.149 120.116 128.737 120.248 129.073 120.512C129.409 120.776 129.577 121.244 129.577 121.916V122.6C129.577 123.296 129.397 123.776 129.037 124.04C128.677 124.28 128.089 124.4 127.273 124.4ZM136.068 146C135.444 146 134.928 145.796 134.52 145.388C134.112 144.956 133.908 144.428 133.908 143.804V128.936C133.908 128.312 134.112 127.796 134.52 127.388C134.928 126.956 135.444 126.74 136.068 126.74C136.692 126.74 137.208 126.956 137.616 127.388C138.024 127.796 138.228 128.312 138.228 128.936V132.32L137.976 129.908C138.24 129.332 138.576 128.828 138.984 128.396C139.416 127.94 139.896 127.568 140.424 127.28C140.952 126.968 141.516 126.74 142.116 126.596C142.716 126.452 143.316 126.38 143.916 126.38C144.636 126.38 145.236 126.584 145.716 126.992C146.22 127.4 146.472 127.88 146.472 128.432C146.472 129.224 146.268 129.8 145.86 130.16C145.452 130.496 145.008 130.664 144.528 130.664C144.072 130.664 143.652 130.58 143.268 130.412C142.908 130.244 142.488 130.16 142.008 130.16C141.576 130.16 141.132 130.268 140.676 130.484C140.244 130.676 139.836 130.988 139.452 131.42C139.092 131.852 138.792 132.392 138.552 133.04C138.336 133.664 138.228 134.408 138.228 135.272V143.804C138.228 144.428 138.024 144.956 137.616 145.388C137.208 145.796 136.692 146 136.068 146ZM157.781 146.36C155.741 146.36 153.965 145.94 152.453 145.1C150.965 144.236 149.813 143.072 148.997 141.608C148.205 140.144 147.809 138.488 147.809 136.64C147.809 134.48 148.241 132.644 149.105 131.132C149.993 129.596 151.145 128.42 152.561 127.604C153.977 126.788 155.477 126.38 157.061 126.38C158.285 126.38 159.437 126.632 160.517 127.136C161.621 127.64 162.593 128.336 163.433 129.224C164.273 130.088 164.933 131.096 165.413 132.248C165.917 133.4 166.169 134.624 166.169 135.92C166.145 136.496 165.917 136.964 165.485 137.324C165.053 137.684 164.549 137.864 163.973 137.864H150.221L149.141 134.264H162.353L161.561 134.984V134.012C161.513 133.316 161.261 132.692 160.805 132.14C160.373 131.588 159.821 131.156 159.149 130.844C158.501 130.508 157.805 130.34 157.061 130.34C156.341 130.34 155.669 130.436 155.045 130.628C154.421 130.82 153.881 131.144 153.425 131.6C152.969 132.056 152.609 132.668 152.345 133.436C152.081 134.204 151.949 135.176 151.949 136.352C151.949 137.648 152.213 138.752 152.741 139.664C153.293 140.552 153.989 141.236 154.829 141.716C155.693 142.172 156.605 142.4 157.565 142.4C158.453 142.4 159.161 142.328 159.689 142.184C160.217 142.04 160.637 141.872 160.949 141.68C161.285 141.464 161.585 141.284 161.849 141.14C162.281 140.924 162.689 140.816 163.073 140.816C163.601 140.816 164.033 140.996 164.369 141.356C164.729 141.716 164.909 142.136 164.909 142.616C164.909 143.264 164.573 143.852 163.901 144.38C163.277 144.908 162.401 145.376 161.273 145.784C160.145 146.168 158.981 146.36 157.781 146.36ZM179.844 119.36C180.372 119.36 180.888 119.432 181.392 119.576C181.896 119.72 182.316 119.96 182.652 120.296C182.988 120.608 183.156 121.028 183.156 121.556C183.156 122.156 182.976 122.636 182.616 122.996C182.28 123.332 181.884 123.5 181.428 123.5C181.212 123.5 180.888 123.452 180.456 123.356C180.024 123.236 179.604 123.176 179.196 123.176C178.596 123.176 178.128 123.308 177.792 123.572C177.48 123.836 177.264 124.148 177.144 124.508C177.024 124.844 176.964 125.144 176.964 125.408V143.804C176.964 144.428 176.76 144.956 176.352 145.388C175.944 145.796 175.428 146 174.804 146C174.18 146 173.664 145.796 173.256 145.388C172.848 144.956 172.644 144.428 172.644 143.804V125.444C172.644 123.74 173.244 122.3 174.444 121.124C175.644 119.948 177.444 119.36 179.844 119.36ZM180.24 127.1C180.816 127.1 181.296 127.292 181.68 127.676C182.064 128.036 182.256 128.504 182.256 129.08C182.256 129.656 182.064 130.136 181.68 130.52C181.296 130.88 180.816 131.06 180.24 131.06H170.7C170.124 131.06 169.644 130.88 169.26 130.52C168.876 130.136 168.684 129.656 168.684 129.08C168.684 128.504 168.876 128.036 169.26 127.676C169.644 127.292 170.124 127.1 170.7 127.1H180.24ZM187.818 146C187.194 146 186.678 145.796 186.27 145.388C185.862 144.956 185.658 144.428 185.658 143.804V128.936C185.658 128.312 185.862 127.796 186.27 127.388C186.678 126.956 187.194 126.74 187.818 126.74C188.442 126.74 188.958 126.956 189.366 127.388C189.774 127.796 189.978 128.312 189.978 128.936V132.32L189.726 129.908C189.99 129.332 190.326 128.828 190.734 128.396C191.166 127.94 191.646 127.568 192.174 127.28C192.702 126.968 193.266 126.74 193.866 126.596C194.466 126.452 195.066 126.38 195.666 126.38C196.386 126.38 196.986 126.584 197.466 126.992C197.97 127.4 198.222 127.88 198.222 128.432C198.222 129.224 198.018 129.8 197.61 130.16C197.202 130.496 196.758 130.664 196.278 130.664C195.822 130.664 195.402 130.58 195.018 130.412C194.658 130.244 194.238 130.16 193.758 130.16C193.326 130.16 192.882 130.268 192.426 130.484C191.994 130.676 191.586 130.988 191.202 131.42C190.842 131.852 190.542 132.392 190.302 133.04C190.086 133.664 189.978 134.408 189.978 135.272V143.804C189.978 144.428 189.774 144.956 189.366 145.388C188.958 145.796 188.442 146 187.818 146ZM216.614 126.38C217.238 126.38 217.754 126.584 218.162 126.992C218.57 127.4 218.774 127.928 218.774 128.576V143.804C218.774 144.428 218.57 144.956 218.162 145.388C217.754 145.796 217.238 146 216.614 146C215.99 146 215.474 145.796 215.066 145.388C214.658 144.956 214.454 144.428 214.454 143.804V142.04L215.246 142.364C215.246 142.676 215.078 143.06 214.742 143.516C214.406 143.948 213.95 144.38 213.374 144.812C212.798 145.244 212.114 145.616 211.322 145.928C210.554 146.216 209.714 146.36 208.802 146.36C207.146 146.36 205.646 145.94 204.302 145.1C202.958 144.236 201.89 143.06 201.098 141.572C200.33 140.06 199.946 138.332 199.946 136.388C199.946 134.42 200.33 132.692 201.098 131.204C201.89 129.692 202.946 128.516 204.266 127.676C205.586 126.812 207.05 126.38 208.658 126.38C209.69 126.38 210.638 126.536 211.502 126.848C212.366 127.16 213.11 127.556 213.734 128.036C214.382 128.516 214.874 129.008 215.21 129.512C215.57 129.992 215.75 130.4 215.75 130.736L214.454 131.204V128.576C214.454 127.952 214.658 127.436 215.066 127.028C215.474 126.596 215.99 126.38 216.614 126.38ZM209.342 142.4C210.398 142.4 211.322 142.136 212.114 141.608C212.906 141.08 213.518 140.36 213.95 139.448C214.406 138.536 214.634 137.516 214.634 136.388C214.634 135.236 214.406 134.204 213.95 133.292C213.518 132.38 212.906 131.66 212.114 131.132C211.322 130.604 210.398 130.34 209.342 130.34C208.31 130.34 207.398 130.604 206.606 131.132C205.814 131.66 205.19 132.38 204.734 133.292C204.302 134.204 204.086 135.236 204.086 136.388C204.086 137.516 204.302 138.536 204.734 139.448C205.19 140.36 205.814 141.08 206.606 141.608C207.398 142.136 208.31 142.4 209.342 142.4ZM233.567 126.38C235.487 126.38 236.903 126.848 237.815 127.784C238.727 128.696 239.327 129.884 239.615 131.348L239.003 131.024L239.291 130.448C239.579 129.896 240.023 129.308 240.623 128.684C241.223 128.036 241.943 127.496 242.783 127.064C243.647 126.608 244.607 126.38 245.663 126.38C247.391 126.38 248.699 126.752 249.587 127.496C250.499 128.24 251.123 129.236 251.459 130.484C251.795 131.708 251.963 133.076 251.963 134.588V143.804C251.963 144.428 251.759 144.956 251.351 145.388C250.943 145.796 250.427 146 249.803 146C249.179 146 248.663 145.796 248.255 145.388C247.847 144.956 247.643 144.428 247.643 143.804V134.588C247.643 133.796 247.547 133.088 247.355 132.464C247.163 131.816 246.815 131.3 246.311 130.916C245.807 130.532 245.087 130.34 244.151 130.34C243.239 130.34 242.459 130.532 241.811 130.916C241.163 131.3 240.671 131.816 240.335 132.464C240.023 133.088 239.867 133.796 239.867 134.588V143.804C239.867 144.428 239.663 144.956 239.255 145.388C238.847 145.796 238.331 146 237.707 146C237.083 146 236.567 145.796 236.159 145.388C235.751 144.956 235.547 144.428 235.547 143.804V134.588C235.547 133.796 235.451 133.088 235.259 132.464C235.067 131.816 234.719 131.3 234.215 130.916C233.711 130.532 232.991 130.34 232.055 130.34C231.143 130.34 230.363 130.532 229.715 130.916C229.067 131.3 228.575 131.816 228.239 132.464C227.927 133.088 227.771 133.796 227.771 134.588V143.804C227.771 144.428 227.567 144.956 227.159 145.388C226.751 145.796 226.235 146 225.611 146C224.987 146 224.471 145.796 224.063 145.388C223.655 144.956 223.451 144.428 223.451 143.804V128.936C223.451 128.312 223.655 127.796 224.063 127.388C224.471 126.956 224.987 126.74 225.611 126.74C226.235 126.74 226.751 126.956 227.159 127.388C227.567 127.796 227.771 128.312 227.771 128.936V130.484L227.231 130.376C227.447 129.968 227.747 129.536 228.131 129.08C228.515 128.6 228.983 128.156 229.535 127.748C230.087 127.34 230.699 127.016 231.371 126.776C232.043 126.512 232.775 126.38 233.567 126.38ZM265.711 146.36C263.671 146.36 261.895 145.94 260.383 145.1C258.895 144.236 257.743 143.072 256.927 141.608C256.135 140.144 255.739 138.488 255.739 136.64C255.739 134.48 256.171 132.644 257.035 131.132C257.923 129.596 259.075 128.42 260.491 127.604C261.907 126.788 263.407 126.38 264.991 126.38C266.215 126.38 267.367 126.632 268.447 127.136C269.551 127.64 270.523 128.336 271.363 129.224C272.203 130.088 272.863 131.096 273.343 132.248C273.847 133.4 274.099 134.624 274.099 135.92C274.075 136.496 273.847 136.964 273.415 137.324C272.983 137.684 272.479 137.864 271.903 137.864H258.151L257.071 134.264H270.283L269.491 134.984V134.012C269.443 133.316 269.191 132.692 268.735 132.14C268.303 131.588 267.751 131.156 267.079 130.844C266.431 130.508 265.735 130.34 264.991 130.34C264.271 130.34 263.599 130.436 262.975 130.628C262.351 130.82 261.811 131.144 261.355 131.6C260.899 132.056 260.539 132.668 260.275 133.436C260.011 134.204 259.879 135.176 259.879 136.352C259.879 137.648 260.143 138.752 260.671 139.664C261.223 140.552 261.919 141.236 262.759 141.716C263.623 142.172 264.535 142.4 265.495 142.4C266.383 142.4 267.091 142.328 267.619 142.184C268.147 142.04 268.567 141.872 268.879 141.68C269.215 141.464 269.515 141.284 269.779 141.14C270.211 140.924 270.619 140.816 271.003 140.816C271.531 140.816 271.963 140.996 272.299 141.356C272.659 141.716 272.839 142.136 272.839 142.616C272.839 143.264 272.503 143.852 271.831 144.38C271.207 144.908 270.331 145.376 269.203 145.784C268.075 146.168 266.911 146.36 265.711 146.36ZM276.757 143.012C276.517 142.676 276.409 142.244 276.433 141.716C276.457 141.188 276.769 140.732 277.369 140.348C277.753 140.108 278.161 140.012 278.593 140.06C279.025 140.084 279.445 140.3 279.853 140.708C280.549 141.404 281.281 141.944 282.049 142.328C282.817 142.712 283.777 142.904 284.929 142.904C285.289 142.88 285.685 142.832 286.117 142.76C286.549 142.664 286.921 142.472 287.233 142.184C287.569 141.872 287.737 141.404 287.737 140.78C287.737 140.252 287.557 139.832 287.197 139.52C286.837 139.208 286.357 138.944 285.757 138.728C285.181 138.512 284.533 138.308 283.813 138.116C283.069 137.9 282.301 137.66 281.509 137.396C280.741 137.132 280.033 136.796 279.385 136.388C278.737 135.956 278.209 135.392 277.801 134.696C277.393 134 277.189 133.124 277.189 132.068C277.189 130.868 277.525 129.848 278.197 129.008C278.869 128.168 279.733 127.52 280.789 127.064C281.869 126.608 282.997 126.38 284.173 126.38C284.917 126.38 285.697 126.476 286.513 126.668C287.329 126.836 288.109 127.124 288.853 127.532C289.597 127.916 290.221 128.432 290.725 129.08C290.989 129.44 291.145 129.872 291.193 130.376C291.241 130.88 291.013 131.336 290.509 131.744C290.149 132.032 289.729 132.164 289.249 132.14C288.769 132.092 288.373 131.924 288.061 131.636C287.653 131.108 287.101 130.688 286.405 130.376C285.733 130.064 284.953 129.908 284.065 129.908C283.705 129.908 283.309 129.956 282.877 130.052C282.469 130.124 282.109 130.304 281.797 130.592C281.485 130.856 281.329 131.288 281.329 131.888C281.329 132.44 281.509 132.884 281.869 133.22C282.229 133.532 282.709 133.796 283.309 134.012C283.933 134.204 284.593 134.396 285.289 134.588C286.009 134.78 286.741 135.008 287.485 135.272C288.229 135.536 288.913 135.884 289.537 136.316C290.161 136.748 290.665 137.312 291.049 138.008C291.433 138.68 291.625 139.544 291.625 140.6C291.625 141.824 291.265 142.868 290.545 143.732C289.825 144.596 288.925 145.256 287.845 145.712C286.765 146.144 285.661 146.36 284.533 146.36C283.117 146.36 281.701 146.12 280.285 145.64C278.869 145.136 277.693 144.26 276.757 143.012Z" fill="#29375B"/>
<path d="M209.204 42.6798C206.407 42.3596 196.291 42.3486 193.645 42.6743C191 42.9999 189.638 43.9291 186.901 46.0542C184.165 48.1793 181.925 49.4719 181.925 49.4719V53.9999H219.925V49.4719C219.925 49.4719 218 48 215.948 46.0521C213.896 44.1042 212 43 209.204 42.6798Z" fill="#FCD95B" stroke="#FCD95B"/>
<circle cx="193.925" cy="48" r="3" fill="white"/>
<circle cx="207.925" cy="48" r="3" fill="white"/>
<path d="M212.4 19.3335L207.125 31H192.725L187.7 19.8335L190.5 18.5001L195.925 30.1112H204.325L210 18.0001L212.4 19.3335Z" fill="#29375B" stroke="#29375B"/>
<circle cx="188" cy="17" r="3" fill="#29375B"/>
<circle cx="212" cy="17" r="3" fill="#29375B"/>
<path d="M178.004 39.7496C180.029 42.1512 179.113 43.3493 179.488 43.3921L180.238 43.4775L179.309 51.633L177.059 51.3767C177.059 51.3767 176.684 52.1701 174.605 53.0318C172.527 53.8934 171.418 54.2073 171.092 53.736C170.765 53.2646 172.255 50.1953 173.863 48.6661C175.471 47.1368 176.848 46.5646 176.848 46.5646C177.144 46.2974 176.896 46.136 176.896 46.136C176.896 46.136 174.441 43.5945 173.866 41.3884C173.291 39.1823 173.373 37.0511 173.748 37.0938C173.748 37.0938 175.979 37.348 178.004 39.7496Z" fill="#29375B" stroke="#29375B"/>
<path d="M221.925 52C221.925 57.1797 221.921 60.8744 221.581 63.6042C221.241 66.3245 220.611 67.6489 219.719 68.4445C218.778 69.283 217.17 69.8779 214.024 70.1894C210.912 70.4976 206.718 70.5 200.925 70.5C195.131 70.5 190.937 70.4976 187.825 70.1894C184.68 69.8779 183.071 69.283 182.13 68.4445C181.238 67.6489 180.608 66.3245 180.269 63.6042C179.928 60.8744 179.925 57.1797 179.925 52C179.925 40.402 189.327 31 200.925 31C212.523 31 221.925 40.402 221.925 52Z" stroke="#29375B" stroke-width="4"/>
<path d="M108.16 38.3516H118.285V43.1855H116.123V65H110.287L99.1953 47.7734V60.1836H101.428V65H91.3203V60.1836H93.5176V43.1855H91.3555V38.3516H99.4062L110.428 55.8066V43.1855H108.16V38.3516ZM120.588 46.7891H128.762V60.1836H131.293V65H120.588V60.1836H123.33V51.6055H120.588V46.7891ZM123.049 40.918C123.049 40.4844 123.125 40.0801 123.277 39.7051C123.441 39.3184 123.664 38.9844 123.945 38.7031C124.227 38.4219 124.555 38.1992 124.93 38.0352C125.316 37.8711 125.732 37.7891 126.178 37.7891C126.6 37.7891 126.998 37.8711 127.373 38.0352C127.748 38.1992 128.076 38.4219 128.357 38.7031C128.639 38.9844 128.861 39.3184 129.025 39.7051C129.189 40.0801 129.271 40.4844 129.271 40.918C129.271 41.3516 129.189 41.7617 129.025 42.1484C128.861 42.5234 128.639 42.8516 128.357 43.1328C128.076 43.4141 127.748 43.6367 127.373 43.8008C126.998 43.9648 126.6 44.0469 126.178 44.0469C125.732 44.0469 125.316 43.9648 124.93 43.8008C124.555 43.6367 124.227 43.4141 123.945 43.1328C123.664 42.8516 123.441 42.5234 123.277 42.1484C123.125 41.7617 123.049 41.3516 123.049 40.918ZM149.451 54.5234C149.451 53.5039 149.182 52.707 148.643 52.1328C148.104 51.5469 147.389 51.2539 146.498 51.2539C145.889 51.2539 145.273 51.3887 144.652 51.6582C144.031 51.9277 143.428 52.4316 142.842 53.1699V60.1836H145.795V65H134.475V60.1836H137.146V51.6055H134.51V46.7891H142.807V48.3887C143.568 47.791 144.418 47.3223 145.355 46.9824C146.305 46.6309 147.301 46.4551 148.344 46.4551C150.535 46.4551 152.223 47.0703 153.406 48.3008C154.59 49.5195 155.182 51.3066 155.182 53.6621V60.1836H157.766V65H149.451V54.5234ZM159.629 46.7891H167.627V65.3164C167.627 66.7109 167.451 67.9062 167.1 68.9023C166.76 69.8984 166.256 70.7188 165.588 71.3633C164.932 72.0078 164.117 72.4824 163.145 72.7871C162.172 73.0918 161.059 73.2441 159.805 73.2441L159.734 69.2539C160.578 69.2188 161.205 68.8789 161.615 68.2344C162.025 67.6016 162.23 66.752 162.23 65.6855V51.6055H159.629V46.7891ZM161.932 40.918C161.932 40.4844 162.008 40.0801 162.16 39.7051C162.324 39.3184 162.547 38.9844 162.828 38.7031C163.109 38.4219 163.438 38.1992 163.812 38.0352C164.199 37.8711 164.615 37.7891 165.061 37.7891C165.482 37.7891 165.881 37.8711 166.256 38.0352C166.643 38.1992 166.977 38.4219 167.258 38.7031C167.551 38.9844 167.779 39.3184 167.943 39.7051C168.119 40.0801 168.207 40.4844 168.207 40.918C168.207 41.3516 168.119 41.7617 167.943 42.1484C167.779 42.5234 167.551 42.8516 167.258 43.1328C166.977 43.4141 166.643 43.6367 166.256 43.8008C165.881 43.9648 165.482 44.0469 165.061 44.0469C164.615 44.0469 164.199 43.9648 163.812 43.8008C163.438 43.6367 163.109 43.4141 162.828 43.1328C162.547 42.8516 162.324 42.5234 162.16 42.1484C162.008 41.7617 161.932 41.3516 161.932 40.918Z" fill="#29375B"/>
<path d="M245.545 48.4551C244.889 47.5176 244.297 46.8555 243.77 46.4688C243.242 46.0703 242.674 45.7891 242.064 45.625C241.455 45.4492 240.816 45.3613 240.148 45.3613C239.164 45.3613 238.25 45.584 237.406 46.0293C236.562 46.4629 235.83 47.0605 235.209 47.8223C234.6 48.5723 234.119 49.4512 233.768 50.459C233.416 51.4551 233.24 52.5156 233.24 53.6406C233.24 54.7773 233.41 55.8496 233.75 56.8574C234.102 57.8535 234.582 58.7266 235.191 59.4766C235.801 60.2266 236.527 60.8242 237.371 61.2695C238.215 61.7031 239.141 61.9199 240.148 61.9199C240.852 61.9199 241.508 61.8086 242.117 61.5859C242.727 61.3516 243.277 61.0469 243.77 60.6719C244.273 60.2969 244.713 59.8691 245.088 59.3887C245.463 58.8965 245.756 58.3867 245.967 57.8594L251.627 59.4414C251.264 60.5898 250.73 61.6562 250.027 62.6406C249.324 63.6133 248.475 64.457 247.479 65.1719C246.494 65.8867 245.381 66.4492 244.139 66.8594C242.908 67.2695 241.578 67.4746 240.148 67.4746C238.941 67.4746 237.787 67.3105 236.686 66.9824C235.584 66.6543 234.553 66.1914 233.592 65.5938C232.643 64.9961 231.775 64.2754 230.99 63.4316C230.217 62.5879 229.555 61.6562 229.004 60.6367C228.453 59.6055 228.025 58.5039 227.721 57.332C227.416 56.1484 227.264 54.918 227.264 53.6406C227.264 51.7305 227.598 49.9434 228.266 48.2793C228.934 46.6035 229.848 45.1445 231.008 43.9023C232.168 42.6484 233.527 41.6641 235.086 40.9492C236.656 40.2227 238.344 39.8594 240.148 39.8594C241.59 39.8594 242.803 40.041 243.787 40.4043C244.771 40.7559 245.855 41.459 247.039 42.5137H250.977V48.4551H245.545ZM267.465 67.4746C266.258 67.4746 265.104 67.3105 264.002 66.9824C262.9 66.6543 261.869 66.1914 260.908 65.5938C259.959 64.9961 259.092 64.2812 258.307 63.4492C257.533 62.6055 256.871 61.6738 256.32 60.6543C255.77 59.623 255.342 58.5215 255.037 57.3496C254.732 56.1777 254.58 54.9531 254.58 53.6758C254.58 52.3984 254.732 51.1738 255.037 50.002C255.342 48.8184 255.77 47.7168 256.32 46.6973C256.871 45.666 257.533 44.7344 258.307 43.9023C259.092 43.0586 259.959 42.3379 260.908 41.7402C261.869 41.1426 262.9 40.6797 264.002 40.3516C265.104 40.0234 266.258 39.8594 267.465 39.8594C268.672 39.8594 269.826 40.0234 270.928 40.3516C272.041 40.6797 273.072 41.1426 274.021 41.7402C274.982 42.3379 275.85 43.0586 276.623 43.9023C277.408 44.7344 278.076 45.666 278.627 46.6973C279.189 47.7168 279.623 48.8184 279.928 50.002C280.232 51.1738 280.385 52.3984 280.385 53.6758C280.385 54.9414 280.232 56.166 279.928 57.3496C279.623 58.5215 279.189 59.623 278.627 60.6543C278.076 61.6738 277.408 62.6055 276.623 63.4492C275.85 64.2812 274.982 64.9961 274.021 65.5938C273.072 66.1914 272.041 66.6543 270.928 66.9824C269.826 67.3105 268.672 67.4746 267.465 67.4746ZM267.465 61.9551C268.484 61.9551 269.416 61.7383 270.26 61.3047C271.115 60.8594 271.848 60.2617 272.457 59.5117C273.066 58.75 273.535 57.8711 273.863 56.875C274.203 55.8672 274.373 54.8008 274.373 53.6758C274.373 52.5391 274.203 51.4668 273.863 50.459C273.523 49.4512 273.043 48.5723 272.422 47.8223C271.812 47.0605 271.086 46.4629 270.242 46.0293C269.398 45.584 268.473 45.3613 267.465 45.3613C266.457 45.3613 265.531 45.584 264.688 46.0293C263.844 46.4629 263.117 47.0605 262.508 47.8223C261.898 48.5723 261.418 49.4512 261.066 50.459C260.727 51.4668 260.557 52.5391 260.557 53.6758C260.557 54.8008 260.727 55.8672 261.066 56.875C261.418 57.8711 261.898 58.75 262.508 59.5117C263.117 60.2617 263.844 60.8594 264.688 61.3047C265.531 61.7383 266.457 61.9551 267.465 61.9551Z" fill="#29375B"/>
<path d="M1224 52H1327.47V134.774H1224V52Z" fill="#A7BFDC"/>
<path d="M1232.24 70.6851H1248.8V93.6207H1232.24V70.6851Z" fill="#6480A7"/>
<path d="M1318.01 126.388H1267.26V71.7446H1318.01V100.659V126.388Z" fill="#465B81"/>
<path d="M1226.19 62.0451H1325.66M1257.63 133.464V62.0451M1224 52H1327.47V134.774H1224V52Z" stroke="#192137" stroke-width="2" stroke-miterlimit="10" stroke-linecap="round" stroke-linejoin="round"/>
<path d="M1318.01 126.388H1267.26M1318.01 126.388V100.659V71.7446M1318.01 126.388L1267.26 71.7446M1267.26 126.388V71.7446M1267.26 126.388L1318.01 71.7446M1267.26 71.7446H1318.01M1232.06 107.505H1242.61M1232.06 115.782H1249.25M1232.06 124.06H1242.61M1232.24 70.6851H1248.8V93.6207H1232.24V70.6851Z" stroke="#192137" stroke-width="2" stroke-miterlimit="10" stroke-linecap="round" stroke-linejoin="round"/>
</svg>
