<svg width="1363" height="173" viewBox="0 0 1363 173" fill="none" xmlns="http://www.w3.org/2000/svg">
<mask id="path-1-inside-1_1163_1285" fill="white">
<path d="M0 10C0 4.47715 4.47715 0 10 0H1353C1358.52 0 1363 4.47715 1363 10V163C1363 168.523 1358.52 173 1353 173H9.99997C4.47712 173 0 168.523 0 163V10Z"/>
</mask>
<path d="M0 10C0 4.47715 4.47715 0 10 0H1353C1358.52 0 1363 4.47715 1363 10V163C1363 168.523 1358.52 173 1353 173H9.99997C4.47712 173 0 168.523 0 163V10Z" fill="#FFFBEF"/>
<path d="M0 0H1363H0ZM1363 173H0H1363ZM10 173C-15.9574 173 -37 151.957 -37 126V47C-37 21.0426 -15.9574 0 10 0H37C37 0 37 4.47715 37 10V163C37 168.523 37 173 37 173H10ZM1456.5 0C1504.27 0 1543 38.7274 1543 86.5C1543 134.273 1504.27 173 1456.5 173H1183C1183 173 1183 168.523 1183 163V10C1183 4.47715 1183 0 1183 0H1456.5Z" fill="#FCD95B" mask="url(#path-1-inside-1_1163_1285)"/>
<path d="M92.4571 121.8C93.0331 121.8 93.5371 122.016 93.9691 122.448C94.4251 122.856 94.6531 123.372 94.6531 123.996V144.804C94.6531 145.428 94.4251 145.956 93.9691 146.388C93.5131 146.796 92.9851 147 92.3851 147C91.7131 147 91.1731 146.796 90.7651 146.388C90.3571 145.956 90.1531 145.428 90.1531 144.804V123.996C90.1531 123.372 90.3691 122.856 90.8011 122.448C91.2331 122.016 91.7851 121.8 92.4571 121.8ZM108.405 121.8C109.077 121.8 109.617 122.016 110.025 122.448C110.433 122.856 110.637 123.372 110.637 123.996V144.804C110.637 145.428 110.421 145.956 109.989 146.388C109.581 146.796 109.029 147 108.333 147C107.757 147 107.241 146.796 106.785 146.388C106.353 145.956 106.137 145.428 106.137 144.804V123.996C106.137 123.372 106.365 122.856 106.821 122.448C107.277 122.016 107.805 121.8 108.405 121.8ZM92.3491 132.276H108.405V136.416H92.3491V132.276ZM134.352 137.388C134.352 139.356 133.908 141.096 133.02 142.608C132.156 144.096 130.98 145.26 129.492 146.1C128.028 146.94 126.384 147.36 124.56 147.36C122.736 147.36 121.08 146.94 119.592 146.1C118.128 145.26 116.952 144.096 116.064 142.608C115.2 141.096 114.768 139.356 114.768 137.388C114.768 135.42 115.2 133.692 116.064 132.204C116.952 130.692 118.128 129.516 119.592 128.676C121.08 127.812 122.736 127.38 124.56 127.38C126.384 127.38 128.028 127.812 129.492 128.676C130.98 129.516 132.156 130.692 133.02 132.204C133.908 133.692 134.352 135.42 134.352 137.388ZM130.032 137.388C130.032 136.164 129.78 135.108 129.276 134.22C128.796 133.308 128.136 132.6 127.296 132.096C126.48 131.592 125.568 131.34 124.56 131.34C123.552 131.34 122.628 131.592 121.788 132.096C120.972 132.6 120.312 133.308 119.808 134.22C119.328 135.108 119.088 136.164 119.088 137.388C119.088 138.588 119.328 139.644 119.808 140.556C120.312 141.444 120.972 142.14 121.788 142.644C122.628 143.148 123.552 143.4 124.56 143.4C125.568 143.4 126.48 143.148 127.296 142.644C128.136 142.14 128.796 141.444 129.276 140.556C129.78 139.644 130.032 138.588 130.032 137.388ZM160.309 127.74C160.861 127.74 161.341 127.956 161.749 128.388C162.157 128.796 162.361 129.324 162.361 129.972C162.361 130.14 162.349 130.296 162.325 130.44C162.301 130.56 162.265 130.68 162.217 130.8L156.709 145.632C156.541 146.112 156.241 146.484 155.809 146.748C155.377 146.988 154.921 147.072 154.441 147C153.625 146.952 153.013 146.496 152.605 145.632L149.041 135.372L149.977 135.408L146.629 145.632C146.221 146.496 145.609 146.952 144.793 147C144.337 147.072 143.881 146.988 143.425 146.748C142.993 146.484 142.693 146.112 142.525 145.632L137.017 130.8C136.921 130.536 136.873 130.26 136.873 129.972C136.873 129.396 137.065 128.88 137.449 128.424C137.833 127.968 138.361 127.74 139.033 127.74C139.489 127.74 139.897 127.848 140.257 128.064C140.617 128.28 140.869 128.628 141.013 129.108L145.369 140.916L144.469 140.844L147.745 131.952C148.129 131.064 148.789 130.62 149.725 130.62C150.253 130.62 150.649 130.74 150.913 130.98C151.201 131.196 151.429 131.52 151.597 131.952L154.873 140.844L153.793 140.988L158.221 129.108C158.509 128.196 159.205 127.74 160.309 127.74ZM176.072 128.1H184.604C185.18 128.1 185.66 128.292 186.044 128.676C186.428 129.06 186.62 129.54 186.62 130.116C186.62 130.668 186.428 131.136 186.044 131.52C185.66 131.88 185.18 132.06 184.604 132.06H176.072C175.496 132.06 175.016 131.868 174.632 131.484C174.248 131.1 174.056 130.62 174.056 130.044C174.056 129.492 174.248 129.036 174.632 128.676C175.016 128.292 175.496 128.1 176.072 128.1ZM179.924 123.6C180.548 123.6 181.052 123.816 181.436 124.248C181.844 124.656 182.048 125.172 182.048 125.796V141.816C182.048 142.152 182.108 142.428 182.228 142.644C182.372 142.86 182.552 143.016 182.768 143.112C183.008 143.208 183.26 143.256 183.524 143.256C183.812 143.256 184.076 143.208 184.316 143.112C184.556 142.992 184.832 142.932 185.144 142.932C185.48 142.932 185.78 143.088 186.044 143.4C186.332 143.712 186.476 144.144 186.476 144.696C186.476 145.368 186.104 145.92 185.36 146.352C184.64 146.784 183.86 147 183.02 147C182.516 147 181.952 146.964 181.328 146.892C180.728 146.796 180.152 146.592 179.6 146.28C179.072 145.944 178.628 145.44 178.268 144.768C177.908 144.096 177.728 143.172 177.728 141.996V125.796C177.728 125.172 177.932 124.656 178.34 124.248C178.772 123.816 179.3 123.6 179.924 123.6ZM209.094 137.388C209.094 139.356 208.65 141.096 207.762 142.608C206.898 144.096 205.722 145.26 204.234 146.1C202.77 146.94 201.126 147.36 199.302 147.36C197.478 147.36 195.822 146.94 194.334 146.1C192.87 145.26 191.694 144.096 190.806 142.608C189.942 141.096 189.51 139.356 189.51 137.388C189.51 135.42 189.942 133.692 190.806 132.204C191.694 130.692 192.87 129.516 194.334 128.676C195.822 127.812 197.478 127.38 199.302 127.38C201.126 127.38 202.77 127.812 204.234 128.676C205.722 129.516 206.898 130.692 207.762 132.204C208.65 133.692 209.094 135.42 209.094 137.388ZM204.774 137.388C204.774 136.164 204.522 135.108 204.018 134.22C203.538 133.308 202.878 132.6 202.038 132.096C201.222 131.592 200.31 131.34 199.302 131.34C198.294 131.34 197.37 131.592 196.53 132.096C195.714 132.6 195.054 133.308 194.55 134.22C194.07 135.108 193.83 136.164 193.83 137.388C193.83 138.588 194.07 139.644 194.55 140.556C195.054 141.444 195.714 142.14 196.53 142.644C197.37 143.148 198.294 143.4 199.302 143.4C200.31 143.4 201.222 143.148 202.038 142.644C202.878 142.14 203.538 141.444 204.018 140.556C204.522 139.644 204.774 138.588 204.774 137.388ZM225.917 147C225.245 147 224.645 146.796 224.117 146.388C223.589 145.956 223.325 145.428 223.325 144.804V123.996C223.325 123.372 223.529 122.856 223.937 122.448C224.369 122.016 224.897 121.8 225.521 121.8H235.889C237.137 121.8 238.301 122.136 239.381 122.808C240.485 123.456 241.373 124.368 242.045 125.544C242.717 126.696 243.053 128.028 243.053 129.54C243.053 130.452 242.861 131.34 242.477 132.204C242.117 133.068 241.613 133.848 240.965 134.544C240.341 135.24 239.633 135.78 238.841 136.164L238.877 135.336C239.549 135.696 240.101 136.128 240.533 136.632C240.989 137.112 241.337 137.64 241.577 138.216C241.841 138.768 241.997 139.368 242.045 140.016C242.141 140.616 242.201 141.144 242.225 141.6C242.273 142.056 242.345 142.44 242.441 142.752C242.561 143.064 242.777 143.304 243.089 143.472C243.617 143.784 243.941 144.24 244.061 144.84C244.205 145.416 244.073 145.932 243.665 146.388C243.401 146.7 243.065 146.904 242.657 147C242.249 147.072 241.841 147.072 241.433 147C241.025 146.904 240.689 146.784 240.425 146.64C240.017 146.4 239.609 146.052 239.201 145.596C238.793 145.116 238.457 144.48 238.193 143.688C237.953 142.896 237.833 141.876 237.833 140.628C237.833 140.22 237.761 139.848 237.617 139.512C237.473 139.152 237.269 138.852 237.005 138.612C236.741 138.348 236.405 138.156 235.997 138.036C235.589 137.892 235.109 137.82 234.557 137.82H227.285L227.825 136.992V144.804C227.825 145.428 227.657 145.956 227.321 146.388C226.985 146.796 226.517 147 225.917 147ZM227.321 134.112H235.709C236.141 134.112 236.561 133.92 236.969 133.536C237.377 133.128 237.713 132.588 237.977 131.916C238.241 131.22 238.373 130.464 238.373 129.648C238.373 128.592 238.085 127.716 237.509 127.02C236.957 126.3 236.357 125.94 235.709 125.94H227.393L227.825 124.788V134.976L227.321 134.112ZM261.62 127.74C262.244 127.74 262.76 127.956 263.168 128.388C263.576 128.796 263.78 129.312 263.78 129.936V139.08C263.78 141.624 263.072 143.64 261.656 145.128C260.24 146.616 258.2 147.36 255.536 147.36C252.872 147.36 250.832 146.616 249.416 145.128C248.024 143.64 247.328 141.624 247.328 139.08V129.936C247.328 129.312 247.532 128.796 247.94 128.388C248.348 127.956 248.864 127.74 249.488 127.74C250.112 127.74 250.628 127.956 251.036 128.388C251.444 128.796 251.648 129.312 251.648 129.936V139.08C251.648 140.544 251.972 141.636 252.62 142.356C253.268 143.052 254.24 143.4 255.536 143.4C256.856 143.4 257.84 143.052 258.488 142.356C259.136 141.636 259.46 140.544 259.46 139.08V129.936C259.46 129.312 259.664 128.796 260.072 128.388C260.48 127.956 260.996 127.74 261.62 127.74ZM278.753 127.38C280.529 127.38 281.873 127.752 282.785 128.496C283.721 129.24 284.357 130.236 284.693 131.484C285.053 132.708 285.233 134.076 285.233 135.588V144.804C285.233 145.428 285.029 145.956 284.621 146.388C284.213 146.796 283.697 147 283.073 147C282.449 147 281.933 146.796 281.525 146.388C281.117 145.956 280.913 145.428 280.913 144.804V135.588C280.913 134.796 280.805 134.088 280.589 133.464C280.397 132.816 280.037 132.3 279.509 131.916C278.981 131.532 278.225 131.34 277.241 131.34C276.281 131.34 275.465 131.532 274.793 131.916C274.145 132.3 273.641 132.816 273.281 133.464C272.945 134.088 272.777 134.796 272.777 135.588V144.804C272.777 145.428 272.573 145.956 272.165 146.388C271.757 146.796 271.241 147 270.617 147C269.993 147 269.477 146.796 269.069 146.388C268.661 145.956 268.457 145.428 268.457 144.804V129.936C268.457 129.312 268.661 128.796 269.069 128.388C269.477 127.956 269.993 127.74 270.617 127.74C271.241 127.74 271.757 127.956 272.165 128.388C272.573 128.796 272.777 129.312 272.777 129.936V131.484L272.237 131.376C272.453 130.968 272.765 130.536 273.173 130.08C273.581 129.6 274.061 129.156 274.613 128.748C275.165 128.34 275.789 128.016 276.485 127.776C277.181 127.512 277.937 127.38 278.753 127.38ZM293.179 135.624C293.179 135 293.383 134.484 293.791 134.076C294.199 133.644 294.715 133.428 295.339 133.428C296.323 133.428 297.211 133.284 298.003 132.996C298.795 132.684 299.419 132.192 299.875 131.52C300.355 130.848 300.595 129.96 300.595 128.856C300.595 128.04 300.391 127.32 299.983 126.696C299.599 126.072 299.059 125.58 298.363 125.22C297.691 124.86 296.923 124.68 296.059 124.68C295.387 124.68 294.751 124.8 294.151 125.04C293.575 125.28 293.047 125.604 292.567 126.012C292.183 126.348 291.715 126.6 291.163 126.768C290.635 126.912 290.095 126.78 289.543 126.372C288.967 125.94 288.655 125.424 288.607 124.824C288.559 124.224 288.787 123.672 289.291 123.168C290.155 122.28 291.163 121.596 292.314 121.116C293.491 120.612 294.739 120.36 296.059 120.36C297.715 120.36 299.203 120.744 300.523 121.512C301.867 122.256 302.935 123.264 303.727 124.536C304.519 125.808 304.915 127.248 304.915 128.856C304.915 130.056 304.735 131.124 304.375 132.06C304.015 132.972 303.499 133.764 302.827 134.436C302.179 135.084 301.411 135.612 300.523 136.02C299.659 136.404 298.711 136.68 297.679 136.848C297.631 136.872 297.583 136.896 297.535 136.92C297.511 136.944 297.499 136.98 297.499 137.028V138.36C297.499 138.984 297.295 139.512 296.887 139.944C296.479 140.352 295.963 140.556 295.339 140.556C294.715 140.556 294.199 140.352 293.791 139.944C293.383 139.512 293.179 138.984 293.179 138.36V135.624ZM295.159 147C294.463 147 293.923 146.82 293.539 146.46C293.179 146.076 292.999 145.536 292.999 144.84V144.228C292.999 143.532 293.179 143.004 293.539 142.644C293.923 142.26 294.463 142.068 295.159 142.068H295.627C296.323 142.068 296.851 142.26 297.211 142.644C297.595 143.004 297.787 143.532 297.787 144.228V144.84C297.787 145.536 297.595 146.076 297.211 146.46C296.851 146.82 296.323 147 295.627 147H295.159Z" fill="#29375B"/>
<path d="M209.204 42.6798C206.407 42.3596 196.291 42.3486 193.645 42.6743C191 42.9999 189.638 43.9291 186.901 46.0542C184.165 48.1793 181.925 49.4719 181.925 49.4719V53.9999H219.925V49.4719C219.925 49.4719 218 48 215.948 46.0521C213.896 44.1042 212 43 209.204 42.6798Z" fill="#FCD95B" stroke="#FCD95B"/>
<circle cx="193.925" cy="48" r="3" fill="white"/>
<circle cx="207.925" cy="48" r="3" fill="white"/>
<path d="M212.4 19.3334L207.125 31H192.725L187.7 19.8334L190.5 18.5001L195.925 30.1111H204.325L210 18.0001L212.4 19.3334Z" fill="#29375B" stroke="#29375B"/>
<circle cx="188" cy="17" r="3" fill="#29375B"/>
<circle cx="212" cy="17" r="3" fill="#29375B"/>
<path d="M178.004 39.7496C180.029 42.1512 179.113 43.3493 179.488 43.3921L180.238 43.4775L179.309 51.633L177.059 51.3767C177.059 51.3767 176.684 52.1701 174.605 53.0318C172.527 53.8934 171.418 54.2073 171.092 53.736C170.765 53.2646 172.255 50.1953 173.863 48.6661C175.471 47.1368 176.848 46.5646 176.848 46.5646C177.144 46.2974 176.896 46.136 176.896 46.136C176.896 46.136 174.441 43.5945 173.866 41.3884C173.291 39.1823 173.373 37.0511 173.748 37.0938C173.748 37.0938 175.979 37.348 178.004 39.7496Z" fill="#29375B" stroke="#29375B"/>
<path d="M221.925 52C221.925 57.1797 221.921 60.8744 221.581 63.6042C221.241 66.3245 220.611 67.6489 219.719 68.4445C218.778 69.283 217.17 69.8779 214.024 70.1894C210.912 70.4976 206.718 70.5 200.925 70.5C195.131 70.5 190.937 70.4976 187.825 70.1894C184.68 69.8779 183.071 69.283 182.13 68.4445C181.238 67.6489 180.608 66.3245 180.269 63.6042C179.928 60.8744 179.925 57.1797 179.925 52C179.925 40.402 189.327 31 200.925 31C212.523 31 221.925 40.402 221.925 52Z" stroke="#29375B" stroke-width="4"/>
<path d="M108.16 38.3516H118.285V43.1855H116.123V65H110.287L99.1953 47.7734V60.1836H101.428V65H91.3203V60.1836H93.5176V43.1855H91.3555V38.3516H99.4062L110.428 55.8066V43.1855H108.16V38.3516ZM120.588 46.7891H128.762V60.1836H131.293V65H120.588V60.1836H123.33V51.6055H120.588V46.7891ZM123.049 40.918C123.049 40.4844 123.125 40.0801 123.277 39.7051C123.441 39.3184 123.664 38.9844 123.945 38.7031C124.227 38.4219 124.555 38.1992 124.93 38.0352C125.316 37.8711 125.732 37.7891 126.178 37.7891C126.6 37.7891 126.998 37.8711 127.373 38.0352C127.748 38.1992 128.076 38.4219 128.357 38.7031C128.639 38.9844 128.861 39.3184 129.025 39.7051C129.189 40.0801 129.271 40.4844 129.271 40.918C129.271 41.3516 129.189 41.7617 129.025 42.1484C128.861 42.5234 128.639 42.8516 128.357 43.1328C128.076 43.4141 127.748 43.6367 127.373 43.8008C126.998 43.9648 126.6 44.0469 126.178 44.0469C125.732 44.0469 125.316 43.9648 124.93 43.8008C124.555 43.6367 124.227 43.4141 123.945 43.1328C123.664 42.8516 123.441 42.5234 123.277 42.1484C123.125 41.7617 123.049 41.3516 123.049 40.918ZM149.451 54.5234C149.451 53.5039 149.182 52.707 148.643 52.1328C148.104 51.5469 147.389 51.2539 146.498 51.2539C145.889 51.2539 145.273 51.3887 144.652 51.6582C144.031 51.9277 143.428 52.4316 142.842 53.1699V60.1836H145.795V65H134.475V60.1836H137.146V51.6055H134.51V46.7891H142.807V48.3887C143.568 47.791 144.418 47.3223 145.355 46.9824C146.305 46.6309 147.301 46.4551 148.344 46.4551C150.535 46.4551 152.223 47.0703 153.406 48.3008C154.59 49.5195 155.182 51.3066 155.182 53.6621V60.1836H157.766V65H149.451V54.5234ZM159.629 46.7891H167.627V65.3164C167.627 66.7109 167.451 67.9062 167.1 68.9023C166.76 69.8984 166.256 70.7188 165.588 71.3633C164.932 72.0078 164.117 72.4824 163.145 72.7871C162.172 73.0918 161.059 73.2441 159.805 73.2441L159.734 69.2539C160.578 69.2188 161.205 68.8789 161.615 68.2344C162.025 67.6016 162.23 66.752 162.23 65.6855V51.6055H159.629V46.7891ZM161.932 40.918C161.932 40.4844 162.008 40.0801 162.16 39.7051C162.324 39.3184 162.547 38.9844 162.828 38.7031C163.109 38.4219 163.438 38.1992 163.812 38.0352C164.199 37.8711 164.615 37.7891 165.061 37.7891C165.482 37.7891 165.881 37.8711 166.256 38.0352C166.643 38.1992 166.977 38.4219 167.258 38.7031C167.551 38.9844 167.779 39.3184 167.943 39.7051C168.119 40.0801 168.207 40.4844 168.207 40.918C168.207 41.3516 168.119 41.7617 167.943 42.1484C167.779 42.5234 167.551 42.8516 167.258 43.1328C166.977 43.4141 166.643 43.6367 166.256 43.8008C165.881 43.9648 165.482 44.0469 165.061 44.0469C164.615 44.0469 164.199 43.9648 163.812 43.8008C163.438 43.6367 163.109 43.4141 162.828 43.1328C162.547 42.8516 162.324 42.5234 162.16 42.1484C162.008 41.7617 161.932 41.3516 161.932 40.918Z" fill="#29375B"/>
<path d="M245.545 48.4551C244.889 47.5176 244.297 46.8555 243.77 46.4688C243.242 46.0703 242.674 45.7891 242.064 45.625C241.455 45.4492 240.816 45.3613 240.148 45.3613C239.164 45.3613 238.25 45.584 237.406 46.0293C236.562 46.4629 235.83 47.0605 235.209 47.8223C234.6 48.5723 234.119 49.4512 233.768 50.459C233.416 51.4551 233.24 52.5156 233.24 53.6406C233.24 54.7773 233.41 55.8496 233.75 56.8574C234.102 57.8535 234.582 58.7266 235.191 59.4766C235.801 60.2266 236.527 60.8242 237.371 61.2695C238.215 61.7031 239.141 61.9199 240.148 61.9199C240.852 61.9199 241.508 61.8086 242.117 61.5859C242.727 61.3516 243.277 61.0469 243.77 60.6719C244.273 60.2969 244.713 59.8691 245.088 59.3887C245.463 58.8965 245.756 58.3867 245.967 57.8594L251.627 59.4414C251.264 60.5898 250.73 61.6562 250.027 62.6406C249.324 63.6133 248.475 64.457 247.479 65.1719C246.494 65.8867 245.381 66.4492 244.139 66.8594C242.908 67.2695 241.578 67.4746 240.148 67.4746C238.941 67.4746 237.787 67.3105 236.686 66.9824C235.584 66.6543 234.553 66.1914 233.592 65.5938C232.643 64.9961 231.775 64.2754 230.99 63.4316C230.217 62.5879 229.555 61.6562 229.004 60.6367C228.453 59.6055 228.025 58.5039 227.721 57.332C227.416 56.1484 227.264 54.918 227.264 53.6406C227.264 51.7305 227.598 49.9434 228.266 48.2793C228.934 46.6035 229.848 45.1445 231.008 43.9023C232.168 42.6484 233.527 41.6641 235.086 40.9492C236.656 40.2227 238.344 39.8594 240.148 39.8594C241.59 39.8594 242.803 40.041 243.787 40.4043C244.771 40.7559 245.855 41.459 247.039 42.5137H250.977V48.4551H245.545ZM267.465 67.4746C266.258 67.4746 265.104 67.3105 264.002 66.9824C262.9 66.6543 261.869 66.1914 260.908 65.5938C259.959 64.9961 259.092 64.2812 258.307 63.4492C257.533 62.6055 256.871 61.6738 256.32 60.6543C255.77 59.623 255.342 58.5215 255.037 57.3496C254.732 56.1777 254.58 54.9531 254.58 53.6758C254.58 52.3984 254.732 51.1738 255.037 50.002C255.342 48.8184 255.77 47.7168 256.32 46.6973C256.871 45.666 257.533 44.7344 258.307 43.9023C259.092 43.0586 259.959 42.3379 260.908 41.7402C261.869 41.1426 262.9 40.6797 264.002 40.3516C265.104 40.0234 266.258 39.8594 267.465 39.8594C268.672 39.8594 269.826 40.0234 270.928 40.3516C272.041 40.6797 273.072 41.1426 274.021 41.7402C274.982 42.3379 275.85 43.0586 276.623 43.9023C277.408 44.7344 278.076 45.666 278.627 46.6973C279.189 47.7168 279.623 48.8184 279.928 50.002C280.232 51.1738 280.385 52.3984 280.385 53.6758C280.385 54.9414 280.232 56.166 279.928 57.3496C279.623 58.5215 279.189 59.623 278.627 60.6543C278.076 61.6738 277.408 62.6055 276.623 63.4492C275.85 64.2812 274.982 64.9961 274.021 65.5938C273.072 66.1914 272.041 66.6543 270.928 66.9824C269.826 67.3105 268.672 67.4746 267.465 67.4746ZM267.465 61.9551C268.484 61.9551 269.416 61.7383 270.26 61.3047C271.115 60.8594 271.848 60.2617 272.457 59.5117C273.066 58.75 273.535 57.8711 273.863 56.875C274.203 55.8672 274.373 54.8008 274.373 53.6758C274.373 52.5391 274.203 51.4668 273.863 50.459C273.523 49.4512 273.043 48.5723 272.422 47.8223C271.812 47.0605 271.086 46.4629 270.242 46.0293C269.398 45.584 268.473 45.3613 267.465 45.3613C266.457 45.3613 265.531 45.584 264.688 46.0293C263.844 46.4629 263.117 47.0605 262.508 47.8223C261.898 48.5723 261.418 49.4512 261.066 50.459C260.727 51.4668 260.557 52.5391 260.557 53.6758C260.557 54.8008 260.727 55.8672 261.066 56.875C261.418 57.8711 261.898 58.75 262.508 59.5117C263.117 60.2617 263.844 60.8594 264.688 61.3047C265.531 61.7383 266.457 61.9551 267.465 61.9551Z" fill="#29375B"/>
<path d="M1262.39 129.325C1261.06 128.947 1259.88 128.805 1258.82 128.829C1259.88 128.829 1261.06 129.018 1262.39 129.396V129.325Z" fill="#29375B"/>
<path d="M1258.82 128.829C1250.76 128.782 1249.37 138.449 1249.37 138.449H1249.6C1249.63 138.449 1250.97 128.995 1258.82 128.829Z" fill="#29375B"/>
<path d="M1285.17 128.829C1284.11 128.805 1282.93 128.971 1281.6 129.325V129.396C1282.93 129.018 1284.11 128.829 1285.17 128.829Z" fill="#29375B"/>
<path d="M1288.98 96.6147V96.6616H1289.09C1289.05 96.6616 1289.02 96.6381 1288.98 96.6147Z" fill="#29375B"/>
<path d="M1300.04 115.475C1299.97 113.703 1299.8 111.93 1299.64 110.158C1299.47 108.479 1298.62 107.747 1296.92 107.652C1296.68 107.629 1296.45 107.652 1296.3 107.652C1295.74 105.785 1295.31 104.012 1294.65 102.287C1293.87 100.207 1292.64 98.4109 1290.61 97.3237C1290.54 97.2765 1290.44 97.2292 1290.37 97.2056C1290.42 97.0165 1290.44 96.8274 1290.49 96.6383C1290.54 96.3783 1290.61 95.9765 1290.35 95.6693C1290.09 95.362 1289.73 95.3857 1289.5 95.3857H1289.36C1286.31 95.4093 1283.26 95.4093 1280.19 95.4093H1261.44C1258.39 95.4093 1255.34 95.4093 1252.27 95.3857H1252.13C1251.87 95.3857 1251.52 95.362 1251.28 95.6693C1251.02 95.9765 1251.09 96.3783 1251.14 96.6383C1251.16 96.7092 1251.16 96.7565 1251.19 96.8274C1250.78 96.9692 1250.41 97.1347 1250.03 97.3237C1248.02 98.4109 1246.79 100.231 1245.99 102.287C1245.35 103.989 1244.9 105.785 1244.33 107.652C1244.21 107.652 1243.98 107.652 1243.72 107.652C1241.99 107.747 1241.16 108.456 1241 110.158C1240.81 111.93 1240.67 113.703 1240.6 115.475C1240.53 116.917 1241.26 117.768 1242.68 117.886C1244.38 118.028 1246.1 118.052 1247.83 118.123C1248.56 118.146 1249.06 117.792 1249.34 117.153C1249.77 116.184 1249.51 114.955 1250.5 114.199C1250.55 114.175 1250.55 114.081 1250.55 114.034C1250.57 112.663 1250.64 111.268 1250.59 109.898C1250.55 108.787 1249.79 108.219 1248.77 107.983C1248.18 107.865 1247.57 107.818 1246.93 107.747C1247.26 105.454 1247.81 103.256 1249.15 101.436C1249.74 100.609 1250.64 99.9945 1251.49 99.38C1251.56 99.4036 1251.63 99.4036 1251.71 99.4273C1252.3 102.453 1252.79 105.501 1254.33 108.243C1255.96 111.174 1258.37 113.679 1261.21 115.452V129.373C1259.88 128.995 1258.7 128.806 1257.64 128.806C1249.79 128.971 1248.42 138.425 1248.42 138.425H1268.18C1268.67 134.785 1263.97 130.295 1263.97 130.295V116.846C1266.03 117.697 1268.23 118.17 1270.45 118.17C1270.59 118.17 1270.71 118.17 1270.85 118.17C1270.99 118.17 1271.11 118.17 1271.25 118.17C1273.5 118.17 1275.69 117.697 1277.73 116.846V130.295C1277.73 130.295 1273.02 134.785 1273.52 138.425H1293.26C1293.26 138.425 1291.91 128.947 1284.04 128.806C1282.97 128.806 1281.79 128.971 1280.47 129.373V115.452C1283.33 113.679 1285.74 111.174 1287.37 108.243C1288.81 105.643 1289.33 102.76 1289.9 99.8999C1290.51 100.373 1291.1 100.845 1291.55 101.46C1292.9 103.303 1293.44 105.501 1293.78 107.77C1293.14 107.841 1292.52 107.889 1291.93 108.007C1290.92 108.219 1290.16 108.81 1290.11 109.921C1290.06 111.292 1290.14 112.686 1290.16 114.057C1290.16 114.128 1290.16 114.199 1290.21 114.223C1291.18 114.979 1290.94 116.208 1291.36 117.177C1291.65 117.839 1292.17 118.193 1292.88 118.146C1294.6 118.075 1296.33 118.052 1298.03 117.91C1299.38 117.744 1300.11 116.917 1300.04 115.475ZM1248.66 108.385C1249.55 108.456 1250.17 109.07 1250.19 110.063C1250.19 111.245 1250.17 112.45 1250.12 113.632C1250.1 114.341 1249.74 114.53 1249.15 114.388C1249.08 114.365 1249.01 114.294 1248.99 114.223C1248.87 113.537 1248.77 112.923 1248.68 112.308C1248.56 112.308 1248.61 112.308 1248.49 112.308C1248.4 113.396 1248.3 114.483 1248.18 115.617C1248.18 115.664 1248.23 115.688 1248.25 115.664C1248.49 115.475 1248.68 115.286 1248.92 115.074C1248.99 115.026 1249.08 115.05 1249.08 115.121C1249.41 116.893 1248.7 117.673 1247.05 117.579C1245.61 117.508 1244.17 117.508 1242.72 117.343C1241.47 117.224 1241.02 116.704 1241.09 115.452C1241.16 113.561 1241.33 111.647 1241.49 109.756C1241.59 108.787 1242.25 108.125 1243.29 108.125C1245.11 108.149 1246.88 108.219 1248.66 108.385ZM1253.55 104.32L1253.62 104.698C1253.57 104.603 1253.57 104.461 1253.55 104.32ZM1288.01 99.38C1287.96 99.8054 1287.91 100.231 1287.87 100.68C1287.8 101.224 1287.72 101.743 1287.61 102.263C1287.39 103.28 1287.11 104.272 1286.78 105.218C1286.66 105.501 1286.57 105.785 1286.45 106.045C1286.16 106.683 1285.88 107.321 1285.55 107.889C1285.31 108.29 1285.08 108.692 1284.82 109.07C1283.71 110.725 1282.31 112.166 1280.75 113.372C1279.15 114.601 1277.3 115.759 1275.32 116.232C1273.99 116.539 1272.62 116.752 1271.25 116.823C1271.11 116.823 1270.97 116.823 1270.83 116.846C1270.68 116.846 1270.54 116.846 1270.4 116.823C1269.03 116.752 1267.68 116.539 1266.34 116.232C1264.35 115.759 1262.48 114.625 1260.9 113.372C1259.32 112.166 1257.94 110.725 1256.83 109.07C1256.57 108.692 1256.34 108.29 1256.1 107.889C1255.77 107.298 1255.49 106.683 1255.2 106.045C1255.08 105.761 1254.97 105.501 1254.87 105.218C1254.54 104.272 1254.26 103.303 1254.04 102.263C1253.93 101.743 1253.86 101.224 1253.78 100.68C1253.71 100.254 1253.69 99.829 1253.64 99.38C1253.6 98.6709 1253.57 98.0328 1253.64 97.4419L1253.67 97.2528C1253.69 96.9219 1253.95 96.662 1254.23 96.662H1287.42C1287.72 96.662 1287.96 96.9219 1287.98 97.2528L1288.01 97.4419C1288.08 98.0328 1288.06 98.6709 1288.01 99.38ZM1289.17 96.6856C1289.14 96.6856 1289.12 96.662 1289.1 96.662H1288.98V96.6147C1289.02 96.6383 1289.05 96.6383 1289.1 96.662L1289.17 96.6856ZM1297.91 117.366C1296.47 117.508 1295.03 117.508 1293.59 117.603C1291.96 117.697 1291.27 116.941 1291.55 115.239C1291.58 115.121 1291.72 115.074 1291.81 115.144C1291.96 115.263 1292.07 115.381 1292.22 115.499C1292.31 115.594 1292.48 115.499 1292.48 115.357C1292.38 114.341 1292.29 113.372 1292.22 112.379C1292.1 112.379 1292.12 112.379 1292 112.379C1291.91 112.946 1291.81 113.537 1291.72 114.175C1291.7 114.294 1291.62 114.388 1291.51 114.412C1290.96 114.53 1290.61 114.317 1290.58 113.632C1290.54 112.45 1290.51 111.245 1290.51 110.063C1290.51 109.07 1291.13 108.479 1292.05 108.385C1293.82 108.219 1295.6 108.149 1297.37 108.172C1298.41 108.172 1299.07 108.834 1299.16 109.803C1299.33 111.694 1299.49 113.585 1299.57 115.499C1299.59 116.728 1299.16 117.248 1297.91 117.366Z" fill="#29375B"/>
<path d="M1289.17 96.662C1289.17 96.6854 1289.17 96.6854 1289.17 96.662C1289.14 96.6854 1289.12 96.662 1289.1 96.662H1289.17Z" fill="#29375B"/>
<path d="M1288.98 96.6147V96.6616H1289.09C1289.05 96.6616 1289.02 96.6382 1288.98 96.6147ZM1288.98 96.6147V96.6616H1289.09C1289.05 96.6616 1289.02 96.6382 1288.98 96.6147ZM1288.98 96.6147V96.6616H1289.09C1289.05 96.6616 1289.02 96.6382 1288.98 96.6147Z" fill="#29375B"/>
<path d="M1253.6 104.722C1253.57 104.603 1253.55 104.462 1253.52 104.343L1253.6 104.722Z" fill="#29375B"/>
<path d="M1259.27 86.5935H1267.28V80.4011H1259.27V86.5935ZM1259.53 80.6847H1267V86.3335H1259.53V80.6847Z" fill="#29375B"/>
<path d="M1264.54 80.6847H1263.59V86.3335H1264.54V80.6847Z" fill="#29375B"/>
<path d="M1263.22 80.6847H1262.27V86.3335H1263.22V80.6847Z" fill="#29375B"/>
<path d="M1265.86 80.6847H1264.92V86.3335H1265.86V80.6847Z" fill="#29375B"/>
<path d="M1261.7 80.6847H1260.76V86.3335H1261.7V80.6847Z" fill="#29375B"/>
<path d="M1260.21 80.6138H1259.27V86.3808H1260.21V80.6138Z" fill="#29375B"/>
<path d="M1267.26 80.6138H1266.31V86.3808H1267.26V80.6138Z" fill="#29375B"/>
<path d="M1278.91 54.7808L1283.94 44.9723C1284.98 44.8541 1285.93 44.2396 1286.42 43.247C1287.23 41.6634 1286.61 39.7254 1285.03 38.9218C1283.45 38.1182 1281.51 38.7327 1280.71 40.3162C1280.19 41.3089 1280.26 42.4434 1280.75 43.3415L1275.62 53.3155H1273.92C1273.07 53.1973 1272.17 53.1264 1271.27 53.1264H1268.89C1268.04 53.1264 1267.19 53.1973 1266.36 53.3155H1265.74L1260.62 43.3415C1261.11 42.4434 1261.18 41.3089 1260.66 40.3162C1259.86 38.7327 1257.92 38.1182 1256.34 38.9218C1254.75 39.7254 1254.14 41.6634 1254.94 43.247C1255.46 44.2396 1256.41 44.8541 1257.42 44.9723L1262.29 54.4499C1257.05 56.648 1253.03 61.3513 1252.08 67.0237C1250.36 64.8257 1248.04 63.6439 1245.13 63.573C1245.09 63.573 1245.02 63.5494 1244.97 63.5494V64.6602C1245.11 65.2984 1245.21 65.9602 1245.39 66.5747C1246.22 69.2927 1247.76 71.4198 1250.41 72.6489C1250.45 72.6725 1250.48 72.6961 1250.52 72.7198C1250.52 72.7198 1250.52 72.7434 1250.55 72.7907C1250.5 72.8143 1250.45 72.8616 1250.38 72.8852C1247.24 74.4451 1245.63 77.0686 1245.09 80.4484C1245.06 80.5902 1245.04 80.732 1244.99 80.8502V81.961C1247 81.9138 1248.85 81.3702 1250.43 80.1411C1250.95 79.7393 1251.42 79.243 1251.92 78.7703V91.415H1289.33V71.7507C1289.36 64.2112 1285.17 57.7116 1278.91 54.7808ZM1254.02 69.7654C1254.02 61.7295 1261.11 55.2063 1269.15 55.2063H1271.49C1280.52 55.2063 1287.25 62.5095 1287.25 71.538V72.2471C1286.31 68.6309 1283.12 65.9602 1279.19 65.9365C1273.5 65.8893 1267.78 65.8893 1262.08 65.9365C1258.23 65.9602 1255.01 68.4891 1254.02 72.1289V69.7654ZM1279.88 72.6725C1279.88 74.2088 1278.65 75.4378 1277.14 75.4378C1275.62 75.4378 1274.37 74.1851 1274.39 72.6725C1274.39 71.1835 1275.65 69.9308 1277.14 69.9308C1278.65 69.9072 1279.88 71.1362 1279.88 72.6725ZM1267.04 72.6961C1267.04 74.2088 1265.79 75.4378 1264.26 75.4378C1262.77 75.4378 1261.54 74.1851 1261.54 72.6961C1261.54 71.1599 1262.77 69.9308 1264.3 69.9308C1265.82 69.9308 1267.04 71.1599 1267.04 72.6961ZM1287.28 89.3115H1254.02V78.5812H1287.25V89.3115H1287.28Z" fill="#29375B"/>
</svg>
